%TF.GenerationSoftware,KiCad,Pcbnew,8.0.2-8.0.2-0~ubuntu22.04.1*%
%TF.CreationDate,2024-05-07T00:28:05+09:00*%
%TF.ProjectId,CANgatewayE,43414e67-6174-4657-9761-79452e6b6963,rev?*%
%TF.SameCoordinates,Original*%
%TF.FileFunction,Soldermask,Top*%
%TF.FilePolarity,Negative*%
%FSLAX46Y46*%
G04 Gerber Fmt 4.6, Leading zero omitted, Abs format (unit mm)*
G04 Created by KiCad (PCBNEW 8.0.2-8.0.2-0~ubuntu22.04.1) date 2024-05-07 00:28:05*
%MOMM*%
%LPD*%
G01*
G04 APERTURE LIST*
G04 Aperture macros list*
%AMRoundRect*
0 Rectangle with rounded corners*
0 $1 Rounding radius*
0 $2 $3 $4 $5 $6 $7 $8 $9 X,Y pos of 4 corners*
0 Add a 4 corners polygon primitive as box body*
4,1,4,$2,$3,$4,$5,$6,$7,$8,$9,$2,$3,0*
0 Add four circle primitives for the rounded corners*
1,1,$1+$1,$2,$3*
1,1,$1+$1,$4,$5*
1,1,$1+$1,$6,$7*
1,1,$1+$1,$8,$9*
0 Add four rect primitives between the rounded corners*
20,1,$1+$1,$2,$3,$4,$5,0*
20,1,$1+$1,$4,$5,$6,$7,0*
20,1,$1+$1,$6,$7,$8,$9,0*
20,1,$1+$1,$8,$9,$2,$3,0*%
%AMFreePoly0*
4,1,9,3.862500,-0.866500,0.737500,-0.866500,0.737500,-0.450000,-0.737500,-0.450000,-0.737500,0.450000,0.737500,0.450000,0.737500,0.866500,3.862500,0.866500,3.862500,-0.866500,3.862500,-0.866500,$1*%
G04 Aperture macros list end*
%ADD10RoundRect,0.140000X0.140000X0.170000X-0.140000X0.170000X-0.140000X-0.170000X0.140000X-0.170000X0*%
%ADD11RoundRect,0.140000X-0.170000X0.140000X-0.170000X-0.140000X0.170000X-0.140000X0.170000X0.140000X0*%
%ADD12RoundRect,0.135000X-0.185000X0.135000X-0.185000X-0.135000X0.185000X-0.135000X0.185000X0.135000X0*%
%ADD13RoundRect,0.135000X0.135000X0.185000X-0.135000X0.185000X-0.135000X-0.185000X0.135000X-0.185000X0*%
%ADD14C,3.250000*%
%ADD15C,1.890000*%
%ADD16R,1.900000X1.900000*%
%ADD17C,1.900000*%
%ADD18C,2.600000*%
%ADD19R,0.900000X0.800000*%
%ADD20RoundRect,0.225000X-0.225000X-0.250000X0.225000X-0.250000X0.225000X0.250000X-0.225000X0.250000X0*%
%ADD21R,0.900000X1.300000*%
%ADD22FreePoly0,90.000000*%
%ADD23RoundRect,0.218750X-0.218750X-0.256250X0.218750X-0.256250X0.218750X0.256250X-0.218750X0.256250X0*%
%ADD24RoundRect,0.140000X0.170000X-0.140000X0.170000X0.140000X-0.170000X0.140000X-0.170000X-0.140000X0*%
%ADD25RoundRect,0.200000X-0.275000X0.200000X-0.275000X-0.200000X0.275000X-0.200000X0.275000X0.200000X0*%
%ADD26RoundRect,0.062500X0.062500X-0.375000X0.062500X0.375000X-0.062500X0.375000X-0.062500X-0.375000X0*%
%ADD27RoundRect,0.062500X0.375000X-0.062500X0.375000X0.062500X-0.375000X0.062500X-0.375000X-0.062500X0*%
%ADD28R,2.500000X2.500000*%
%ADD29RoundRect,0.225000X0.225000X0.250000X-0.225000X0.250000X-0.225000X-0.250000X0.225000X-0.250000X0*%
%ADD30RoundRect,0.225000X-0.250000X0.225000X-0.250000X-0.225000X0.250000X-0.225000X0.250000X0.225000X0*%
%ADD31RoundRect,0.250000X0.475000X-0.250000X0.475000X0.250000X-0.475000X0.250000X-0.475000X-0.250000X0*%
%ADD32RoundRect,0.218750X-0.256250X0.218750X-0.256250X-0.218750X0.256250X-0.218750X0.256250X0.218750X0*%
%ADD33RoundRect,0.135000X0.185000X-0.135000X0.185000X0.135000X-0.185000X0.135000X-0.185000X-0.135000X0*%
%ADD34R,1.600000X0.760000*%
%ADD35RoundRect,0.135000X-0.135000X-0.185000X0.135000X-0.185000X0.135000X0.185000X-0.135000X0.185000X0*%
%ADD36R,1.700000X1.700000*%
%ADD37O,1.700000X1.700000*%
G04 APERTURE END LIST*
D10*
%TO.C,C25*%
X46962000Y7112000D03*
X46002000Y7112000D03*
%TD*%
D11*
%TO.C,C11*%
X43434000Y17498000D03*
X43434000Y16538000D03*
%TD*%
D12*
%TO.C,R18*%
X22352000Y8638000D03*
X22352000Y7618000D03*
%TD*%
D10*
%TO.C,C10*%
X35024000Y4064000D03*
X34064000Y4064000D03*
%TD*%
D13*
%TO.C,R3*%
X34292000Y9144000D03*
X33272000Y9144000D03*
%TD*%
%TO.C,R6*%
X34294000Y16764000D03*
X33274000Y16764000D03*
%TD*%
D14*
%TO.C,J1*%
X10190000Y18415000D03*
X10190000Y6985000D03*
D15*
X6810000Y6375000D03*
X5290000Y8915000D03*
X6810000Y16485000D03*
X5290000Y19025000D03*
D16*
X16530000Y17145000D03*
D17*
X19070000Y15875000D03*
X16530000Y14605000D03*
X19070000Y13335000D03*
X16530000Y12065000D03*
X19070000Y10795000D03*
X16530000Y9525000D03*
X19070000Y8255000D03*
D18*
X13240000Y20475000D03*
X13240000Y4925000D03*
%TD*%
D12*
%TO.C,R16*%
X23622000Y8638000D03*
X23622000Y7618000D03*
%TD*%
D19*
%TO.C,Y1*%
X38292000Y9948000D03*
X36892000Y9948000D03*
X36892000Y8848000D03*
X38292000Y8848000D03*
%TD*%
D20*
%TO.C,C22*%
X36804000Y16256000D03*
X38354000Y16256000D03*
%TD*%
D11*
%TO.C,C19*%
X24892000Y8608000D03*
X24892000Y7648000D03*
%TD*%
D21*
%TO.C,U5*%
X38886000Y18370000D03*
D22*
X40386000Y18457500D03*
D21*
X41886000Y18370000D03*
%TD*%
D13*
%TO.C,R1*%
X38104000Y13462000D03*
X37084000Y13462000D03*
%TD*%
%TO.C,R22*%
X21846000Y22140000D03*
X20826000Y22140000D03*
%TD*%
D10*
%TO.C,C16*%
X34290000Y12954000D03*
X33330000Y12954000D03*
%TD*%
D11*
%TO.C,C20*%
X24830000Y6350000D03*
X24830000Y5390000D03*
%TD*%
D23*
%TO.C,D1*%
X17500500Y24384000D03*
X19075500Y24384000D03*
%TD*%
D24*
%TO.C,C1*%
X38201600Y11204000D03*
X38201600Y12164000D03*
%TD*%
D13*
%TO.C,R9*%
X32260000Y12954000D03*
X31240000Y12954000D03*
%TD*%
D25*
%TO.C,JP3*%
X45720000Y20637000D03*
X45720000Y18987000D03*
%TD*%
D26*
%TO.C,U2*%
X25666000Y11270500D03*
X26166000Y11270500D03*
X26666000Y11270500D03*
X27166000Y11270500D03*
X27666000Y11270500D03*
X28166000Y11270500D03*
D27*
X28853500Y11958000D03*
X28853500Y12458000D03*
X28853500Y12958000D03*
X28853500Y13458000D03*
X28853500Y13958000D03*
X28853500Y14458000D03*
D26*
X28166000Y15145500D03*
X27666000Y15145500D03*
X27166000Y15145500D03*
X26666000Y15145500D03*
X26166000Y15145500D03*
X25666000Y15145500D03*
D27*
X24978500Y14458000D03*
X24978500Y13958000D03*
X24978500Y13458000D03*
X24978500Y12958000D03*
X24978500Y12458000D03*
X24978500Y11958000D03*
D28*
X26916000Y13208000D03*
%TD*%
D29*
%TO.C,C24*%
X29718000Y21844000D03*
X28168000Y21844000D03*
%TD*%
D20*
%TO.C,C5*%
X42926000Y6858000D03*
X44476000Y6858000D03*
%TD*%
D25*
%TO.C,JP5*%
X47752000Y15557000D03*
X47752000Y13907000D03*
%TD*%
D29*
%TO.C,C4*%
X29477000Y19050000D03*
X27927000Y19050000D03*
%TD*%
D13*
%TO.C,R7*%
X32260000Y10922000D03*
X31240000Y10922000D03*
%TD*%
D21*
%TO.C,U7*%
X33552000Y18370000D03*
D22*
X35052000Y18457500D03*
D21*
X36552000Y18370000D03*
%TD*%
D13*
%TO.C,R2*%
X34292000Y10922000D03*
X33272000Y10922000D03*
%TD*%
D30*
%TO.C,C15*%
X31750000Y7633000D03*
X31750000Y6083000D03*
%TD*%
D25*
%TO.C,JP4*%
X45720000Y15557000D03*
X45720000Y13907000D03*
%TD*%
D13*
%TO.C,R8*%
X32260000Y9144000D03*
X31240000Y9144000D03*
%TD*%
D31*
%TO.C,C17*%
X23114000Y18227000D03*
X23114000Y20127000D03*
%TD*%
D24*
%TO.C,C18*%
X24765000Y18697000D03*
X24765000Y19657000D03*
%TD*%
D29*
%TO.C,C23*%
X41923000Y16510000D03*
X40373000Y16510000D03*
%TD*%
D19*
%TO.C,Y2*%
X28070000Y7442902D03*
X26670000Y7442902D03*
X26670000Y6342902D03*
X28070000Y6342902D03*
%TD*%
D24*
%TO.C,C8*%
X33528000Y6505000D03*
X33528000Y7465000D03*
%TD*%
D32*
%TO.C,L1*%
X26162000Y20091500D03*
X26162000Y18516500D03*
%TD*%
D13*
%TO.C,R5*%
X34292000Y15367000D03*
X33272000Y15367000D03*
%TD*%
D33*
%TO.C,R17*%
X22352000Y5332000D03*
X22352000Y6352000D03*
%TD*%
D34*
%TO.C,SW1*%
X40894000Y10795000D03*
X40894000Y9525000D03*
X48514000Y9525000D03*
X48514000Y10795000D03*
%TD*%
D11*
%TO.C,C14*%
X30353000Y7338000D03*
X30353000Y6378000D03*
%TD*%
D10*
%TO.C,C7*%
X38072000Y14732000D03*
X37112000Y14732000D03*
%TD*%
%TO.C,C13*%
X26995000Y4860902D03*
X26035000Y4860902D03*
%TD*%
%TO.C,C6*%
X29563000Y17018000D03*
X28603000Y17018000D03*
%TD*%
D25*
%TO.C,JP2*%
X47752000Y20637000D03*
X47752000Y18987000D03*
%TD*%
D10*
%TO.C,C3*%
X35024000Y5207000D03*
X34064000Y5207000D03*
%TD*%
D13*
%TO.C,R4*%
X34292000Y14224000D03*
X33272000Y14224000D03*
%TD*%
D11*
%TO.C,C2*%
X36982400Y12164000D03*
X36982400Y11204000D03*
%TD*%
D35*
%TO.C,R10*%
X31240000Y14224000D03*
X32260000Y14224000D03*
%TD*%
D23*
%TO.C,D2*%
X17500500Y22352000D03*
X19075500Y22352000D03*
%TD*%
D10*
%TO.C,C12*%
X29055000Y4860902D03*
X28095000Y4860902D03*
%TD*%
D13*
%TO.C,R21*%
X21844000Y24384000D03*
X20824000Y24384000D03*
%TD*%
D35*
%TO.C,R11*%
X31113000Y16764000D03*
X32133000Y16764000D03*
%TD*%
D10*
%TO.C,C9*%
X41374000Y6858000D03*
X40414000Y6858000D03*
%TD*%
D11*
%TO.C,C21*%
X23622000Y6350000D03*
X23622000Y5390000D03*
%TD*%
D36*
%TO.C,J3*%
X25400000Y1270000D03*
D37*
X27940000Y1270000D03*
X30480000Y1270000D03*
X33020000Y1270000D03*
X35560000Y1270000D03*
X38100000Y1270000D03*
X40640000Y1270000D03*
X43180000Y1270000D03*
X45720000Y1270000D03*
X48260000Y1270000D03*
%TD*%
D36*
%TO.C,J4*%
X25400000Y24130000D03*
D37*
X27940000Y24130000D03*
X30480000Y24130000D03*
X33020000Y24130000D03*
X35560000Y24130000D03*
X38100000Y24130000D03*
X40640000Y24130000D03*
X43180000Y24130000D03*
X45720000Y24130000D03*
X48260000Y24130000D03*
%TD*%
M02*
