%TF.GenerationSoftware,KiCad,Pcbnew,8.0.9-8.0.9-0~ubuntu22.04.1*%
%TF.CreationDate,2025-04-29T10:25:46+09:00*%
%TF.ProjectId,CANGatewayE,43414e47-6174-4657-9761-79452e6b6963,rev?*%
%TF.SameCoordinates,Original*%
%TF.FileFunction,Copper,L1,Top*%
%TF.FilePolarity,Positive*%
%FSLAX46Y46*%
G04 Gerber Fmt 4.6, Leading zero omitted, Abs format (unit mm)*
G04 Created by KiCad (PCBNEW 8.0.9-8.0.9-0~ubuntu22.04.1) date 2025-04-29 10:25:46*
%MOMM*%
%LPD*%
G01*
G04 APERTURE LIST*
G04 Aperture macros list*
%AMRoundRect*
0 Rectangle with rounded corners*
0 $1 Rounding radius*
0 $2 $3 $4 $5 $6 $7 $8 $9 X,Y pos of 4 corners*
0 Add a 4 corners polygon primitive as box body*
4,1,4,$2,$3,$4,$5,$6,$7,$8,$9,$2,$3,0*
0 Add four circle primitives for the rounded corners*
1,1,$1+$1,$2,$3*
1,1,$1+$1,$4,$5*
1,1,$1+$1,$6,$7*
1,1,$1+$1,$8,$9*
0 Add four rect primitives between the rounded corners*
20,1,$1+$1,$2,$3,$4,$5,0*
20,1,$1+$1,$4,$5,$6,$7,0*
20,1,$1+$1,$6,$7,$8,$9,0*
20,1,$1+$1,$8,$9,$2,$3,0*%
%AMFreePoly0*
4,1,9,3.862500,-0.866500,0.737500,-0.866500,0.737500,-0.450000,-0.737500,-0.450000,-0.737500,0.450000,0.737500,0.450000,0.737500,0.866500,3.862500,0.866500,3.862500,-0.866500,3.862500,-0.866500,$1*%
G04 Aperture macros list end*
%TA.AperFunction,ComponentPad*%
%ADD10C,2.500000*%
%TD*%
%TA.AperFunction,ComponentPad*%
%ADD11C,1.500000*%
%TD*%
%TA.AperFunction,ComponentPad*%
%ADD12RoundRect,0.250500X-0.499500X0.499500X-0.499500X-0.499500X0.499500X-0.499500X0.499500X0.499500X0*%
%TD*%
%TA.AperFunction,SMDPad,CuDef*%
%ADD13RoundRect,0.135000X-0.135000X-0.185000X0.135000X-0.185000X0.135000X0.185000X-0.135000X0.185000X0*%
%TD*%
%TA.AperFunction,SMDPad,CuDef*%
%ADD14RoundRect,0.135000X-0.185000X0.135000X-0.185000X-0.135000X0.185000X-0.135000X0.185000X0.135000X0*%
%TD*%
%TA.AperFunction,SMDPad,CuDef*%
%ADD15RoundRect,0.140000X0.140000X0.170000X-0.140000X0.170000X-0.140000X-0.170000X0.140000X-0.170000X0*%
%TD*%
%TA.AperFunction,SMDPad,CuDef*%
%ADD16RoundRect,0.135000X0.135000X0.185000X-0.135000X0.185000X-0.135000X-0.185000X0.135000X-0.185000X0*%
%TD*%
%TA.AperFunction,SMDPad,CuDef*%
%ADD17R,0.900000X0.800000*%
%TD*%
%TA.AperFunction,SMDPad,CuDef*%
%ADD18RoundRect,0.225000X-0.225000X-0.250000X0.225000X-0.250000X0.225000X0.250000X-0.225000X0.250000X0*%
%TD*%
%TA.AperFunction,SMDPad,CuDef*%
%ADD19RoundRect,0.140000X-0.170000X0.140000X-0.170000X-0.140000X0.170000X-0.140000X0.170000X0.140000X0*%
%TD*%
%TA.AperFunction,SMDPad,CuDef*%
%ADD20R,0.900000X1.300000*%
%TD*%
%TA.AperFunction,SMDPad,CuDef*%
%ADD21FreePoly0,90.000000*%
%TD*%
%TA.AperFunction,SMDPad,CuDef*%
%ADD22RoundRect,0.218750X-0.218750X-0.256250X0.218750X-0.256250X0.218750X0.256250X-0.218750X0.256250X0*%
%TD*%
%TA.AperFunction,SMDPad,CuDef*%
%ADD23RoundRect,0.140000X0.170000X-0.140000X0.170000X0.140000X-0.170000X0.140000X-0.170000X-0.140000X0*%
%TD*%
%TA.AperFunction,SMDPad,CuDef*%
%ADD24RoundRect,0.200000X-0.275000X0.200000X-0.275000X-0.200000X0.275000X-0.200000X0.275000X0.200000X0*%
%TD*%
%TA.AperFunction,SMDPad,CuDef*%
%ADD25RoundRect,0.062500X0.062500X-0.375000X0.062500X0.375000X-0.062500X0.375000X-0.062500X-0.375000X0*%
%TD*%
%TA.AperFunction,SMDPad,CuDef*%
%ADD26RoundRect,0.062500X0.375000X-0.062500X0.375000X0.062500X-0.375000X0.062500X-0.375000X-0.062500X0*%
%TD*%
%TA.AperFunction,ComponentPad*%
%ADD27C,0.500000*%
%TD*%
%TA.AperFunction,SMDPad,CuDef*%
%ADD28R,2.500000X2.500000*%
%TD*%
%TA.AperFunction,SMDPad,CuDef*%
%ADD29RoundRect,0.225000X0.225000X0.250000X-0.225000X0.250000X-0.225000X-0.250000X0.225000X-0.250000X0*%
%TD*%
%TA.AperFunction,SMDPad,CuDef*%
%ADD30RoundRect,0.225000X-0.250000X0.225000X-0.250000X-0.225000X0.250000X-0.225000X0.250000X0.225000X0*%
%TD*%
%TA.AperFunction,SMDPad,CuDef*%
%ADD31RoundRect,0.250000X0.475000X-0.250000X0.475000X0.250000X-0.475000X0.250000X-0.475000X-0.250000X0*%
%TD*%
%TA.AperFunction,SMDPad,CuDef*%
%ADD32RoundRect,0.218750X-0.256250X0.218750X-0.256250X-0.218750X0.256250X-0.218750X0.256250X0.218750X0*%
%TD*%
%TA.AperFunction,SMDPad,CuDef*%
%ADD33RoundRect,0.135000X0.185000X-0.135000X0.185000X0.135000X-0.185000X0.135000X-0.185000X-0.135000X0*%
%TD*%
%TA.AperFunction,SMDPad,CuDef*%
%ADD34R,1.600000X0.760000*%
%TD*%
%TA.AperFunction,ComponentPad*%
%ADD35R,1.700000X1.700000*%
%TD*%
%TA.AperFunction,ComponentPad*%
%ADD36O,1.700000X1.700000*%
%TD*%
%TA.AperFunction,ViaPad*%
%ADD37C,0.400000*%
%TD*%
%TA.AperFunction,ViaPad*%
%ADD38C,0.600000*%
%TD*%
%TA.AperFunction,Conductor*%
%ADD39C,0.200000*%
%TD*%
%TA.AperFunction,Conductor*%
%ADD40C,0.500000*%
%TD*%
%TA.AperFunction,Conductor*%
%ADD41C,0.750000*%
%TD*%
%TA.AperFunction,Conductor*%
%ADD42C,0.250000*%
%TD*%
%TA.AperFunction,Conductor*%
%ADD43C,0.300000*%
%TD*%
G04 APERTURE END LIST*
D10*
%TO.P,J5,SH*%
%TO.N,Net-(JP1-A)*%
X13200000Y4960000D03*
X13200000Y20450000D03*
D11*
%TO.P,J5,12*%
%TO.N,/Ethernet/LED1*%
X5250000Y6080000D03*
%TO.P,J5,11*%
%TO.N,Net-(J5-Pad11)*%
X5250000Y8620000D03*
%TO.P,J5,10*%
%TO.N,Net-(J5-Pad10)*%
X5250000Y16790000D03*
%TO.P,J5,9*%
%TO.N,/Ethernet/LED2*%
X5250000Y19330000D03*
%TO.P,J5,8*%
%TO.N,Net-(JP1-A)*%
X19050000Y8265000D03*
%TO.P,J5,7,NC*%
%TO.N,unconnected-(J5-NC-Pad7)*%
X16510000Y9525000D03*
%TO.P,J5,6,RD-*%
%TO.N,Net-(J5-RD-)*%
X19050000Y10805000D03*
%TO.P,J5,5,RCT*%
%TO.N,Net-(J5-RCT)*%
X16510000Y12065000D03*
%TO.P,J5,4,TCT*%
X19050000Y13345000D03*
%TO.P,J5,3,RD+*%
%TO.N,Net-(J5-RD+)*%
X16510000Y14605000D03*
%TO.P,J5,2,TD-*%
%TO.N,Net-(J5-TD-)*%
X19050000Y15885000D03*
D12*
%TO.P,J5,1,TD+*%
%TO.N,Net-(J5-TD+)*%
X16510000Y17145000D03*
%TD*%
D13*
%TO.P,R23,1*%
%TO.N,/Ethernet/LED2*%
X22240000Y4000000D03*
%TO.P,R23,2*%
%TO.N,GND*%
X23260000Y4000000D03*
%TD*%
D14*
%TO.P,R18,1*%
%TO.N,Net-(J5-Pad10)*%
X22352000Y8638000D03*
%TO.P,R18,2*%
%TO.N,GND*%
X22352000Y7618000D03*
%TD*%
D15*
%TO.P,C10,1*%
%TO.N,+3.3V*%
X35024000Y4064000D03*
%TO.P,C10,2*%
%TO.N,GND*%
X34064000Y4064000D03*
%TD*%
D16*
%TO.P,R3,1*%
%TO.N,+3.3V*%
X34292000Y9144000D03*
%TO.P,R3,2*%
%TO.N,Net-(U2-RXD1{slash}MODE1)*%
X33272000Y9144000D03*
%TD*%
%TO.P,R6,1*%
%TO.N,+3.3V*%
X34294000Y16764000D03*
%TO.P,R6,2*%
%TO.N,Net-(U2-~{INT}{slash}REFCLKO)*%
X33274000Y16764000D03*
%TD*%
D14*
%TO.P,R16,1*%
%TO.N,Net-(U2-RBIAS)*%
X23622000Y8638000D03*
%TO.P,R16,2*%
%TO.N,GND*%
X23622000Y7618000D03*
%TD*%
D17*
%TO.P,Y1,1,1*%
%TO.N,Net-(U1-PH0)*%
X38292000Y9948000D03*
%TO.P,Y1,2,2*%
%TO.N,GND*%
X36892000Y9948000D03*
%TO.P,Y1,3,3*%
%TO.N,Net-(U1-PH1)*%
X36892000Y8848000D03*
%TO.P,Y1,4,4*%
%TO.N,GND*%
X38292000Y8848000D03*
%TD*%
D18*
%TO.P,C22,1*%
%TO.N,+5V*%
X36804000Y16256000D03*
%TO.P,C22,2*%
%TO.N,GND*%
X38354000Y16256000D03*
%TD*%
D19*
%TO.P,C19,1*%
%TO.N,Net-(J5-RCT)*%
X24892000Y8608000D03*
%TO.P,C19,2*%
%TO.N,GND*%
X24892000Y7648000D03*
%TD*%
D20*
%TO.P,U5,1,GND*%
%TO.N,GND*%
X38886000Y18370000D03*
D21*
%TO.P,U5,2,VI*%
%TO.N,+5V*%
X40386000Y18457500D03*
D20*
%TO.P,U5,3,VO*%
%TO.N,+3.3V*%
X41886000Y18370000D03*
%TD*%
D16*
%TO.P,R1,1*%
%TO.N,/MCU/BOOT0*%
X38104000Y13462000D03*
%TO.P,R1,2*%
%TO.N,GND*%
X37084000Y13462000D03*
%TD*%
%TO.P,R22,1*%
%TO.N,/MCU/PC8*%
X21846000Y24172000D03*
%TO.P,R22,2*%
%TO.N,Net-(D2-A)*%
X20826000Y24172000D03*
%TD*%
D15*
%TO.P,C16,1*%
%TO.N,+3.3V*%
X34290000Y12954000D03*
%TO.P,C16,2*%
%TO.N,GND*%
X33330000Y12954000D03*
%TD*%
D19*
%TO.P,C20,1*%
%TO.N,Net-(J5-RCT)*%
X24830000Y6350000D03*
%TO.P,C20,2*%
%TO.N,GND*%
X24830000Y5390000D03*
%TD*%
D13*
%TO.P,R12,1*%
%TO.N,Net-(J5-RCT)*%
X22098000Y13208000D03*
%TO.P,R12,2*%
%TO.N,Net-(J5-TD+)*%
X23118000Y13208000D03*
%TD*%
D22*
%TO.P,D1,1,K*%
%TO.N,GND*%
X17500500Y22352000D03*
%TO.P,D1,2,A*%
%TO.N,Net-(D1-A)*%
X19075500Y22352000D03*
%TD*%
D23*
%TO.P,C1,1*%
%TO.N,Net-(U1-PH0)*%
X38201600Y11204000D03*
%TO.P,C1,2*%
%TO.N,GND*%
X38201600Y12164000D03*
%TD*%
D16*
%TO.P,R9,1*%
%TO.N,GND*%
X32260000Y12954000D03*
%TO.P,R9,2*%
%TO.N,Net-(U2-RXER{slash}PHYAD0)*%
X31240000Y12954000D03*
%TD*%
D24*
%TO.P,JP3,1,A*%
%TO.N,/CAN1_RD*%
X47752000Y15557000D03*
%TO.P,JP3,2,B*%
%TO.N,Net-(JP3-B)*%
X47752000Y13907000D03*
%TD*%
D25*
%TO.P,U2,1,VDD2A*%
%TO.N,Net-(J5-RCT)*%
X25666000Y11270500D03*
%TO.P,U2,2,LED2/~{INTSEL}*%
%TO.N,/Ethernet/LED2*%
X26166000Y11270500D03*
%TO.P,U2,3,LED1/REGOFF*%
%TO.N,/Ethernet/LED1*%
X26666000Y11270500D03*
%TO.P,U2,4,XTAL2*%
%TO.N,Net-(U2-XTAL2)*%
X27166000Y11270500D03*
%TO.P,U2,5,XTAL1/CLKIN*%
%TO.N,Net-(U2-XTAL1{slash}CLKIN)*%
X27666000Y11270500D03*
%TO.P,U2,6,VDDCR*%
%TO.N,Net-(U2-VDDCR)*%
X28166000Y11270500D03*
D26*
%TO.P,U2,7,RXD1/MODE1*%
%TO.N,Net-(U2-RXD1{slash}MODE1)*%
X28853500Y11958000D03*
%TO.P,U2,8,RXD0/MODE0*%
%TO.N,Net-(U2-RXD0{slash}MODE0)*%
X28853500Y12458000D03*
%TO.P,U2,9,VDDIO*%
%TO.N,+3.3V*%
X28853500Y12958000D03*
%TO.P,U2,10,RXER/PHYAD0*%
%TO.N,Net-(U2-RXER{slash}PHYAD0)*%
X28853500Y13458000D03*
%TO.P,U2,11,CRS_DV/MODE2*%
%TO.N,Net-(U2-CRS_DV{slash}MODE2)*%
X28853500Y13958000D03*
%TO.P,U2,12,MDIO*%
%TO.N,/RMII_MDIO*%
X28853500Y14458000D03*
D25*
%TO.P,U2,13,MDC*%
%TO.N,/RMII_MDC*%
X28166000Y15145500D03*
%TO.P,U2,14,~{INT}/REFCLKO*%
%TO.N,Net-(U2-~{INT}{slash}REFCLKO)*%
X27666000Y15145500D03*
%TO.P,U2,15,~{RST}*%
%TO.N,/NRST*%
X27166000Y15145500D03*
%TO.P,U2,16,TXEN*%
%TO.N,/RMII_TX_EN*%
X26666000Y15145500D03*
%TO.P,U2,17,TXD0*%
%TO.N,/RMII_TXD0*%
X26166000Y15145500D03*
%TO.P,U2,18,TXD1*%
%TO.N,/RMII_TXD1*%
X25666000Y15145500D03*
D26*
%TO.P,U2,19,VDD1A*%
%TO.N,Net-(J5-RCT)*%
X24978500Y14458000D03*
%TO.P,U2,20,TXN*%
%TO.N,Net-(J5-TD-)*%
X24978500Y13958000D03*
%TO.P,U2,21,TXP*%
%TO.N,Net-(J5-TD+)*%
X24978500Y13458000D03*
%TO.P,U2,22,RXN*%
%TO.N,Net-(J5-RD-)*%
X24978500Y12958000D03*
%TO.P,U2,23,RXP*%
%TO.N,Net-(J5-RD+)*%
X24978500Y12458000D03*
%TO.P,U2,24,RBIAS*%
%TO.N,Net-(U2-RBIAS)*%
X24978500Y11958000D03*
D27*
%TO.P,U2,25,VSS*%
%TO.N,GND*%
X25916000Y12208000D03*
X26916000Y12208000D03*
X27916000Y12208000D03*
X25916000Y13208000D03*
X26916000Y13208000D03*
D28*
X26916000Y13208000D03*
D27*
X27916000Y13208000D03*
X25916000Y14208000D03*
X26916000Y14208000D03*
X27916000Y14208000D03*
%TD*%
D29*
%TO.P,C24,1*%
%TO.N,/Connector/VIN*%
X29718000Y21844000D03*
%TO.P,C24,2*%
%TO.N,GND*%
X28168000Y21844000D03*
%TD*%
D18*
%TO.P,C5,1*%
%TO.N,Net-(C5-Pad1)*%
X42926000Y6858000D03*
%TO.P,C5,2*%
%TO.N,GND*%
X44476000Y6858000D03*
%TD*%
D24*
%TO.P,JP5,1,A*%
%TO.N,/CAN2_RD*%
X45720000Y20637000D03*
%TO.P,JP5,2,B*%
%TO.N,Net-(JP5-B)*%
X45720000Y18987000D03*
%TD*%
D19*
%TO.P,C11,1*%
%TO.N,+5V*%
X43434000Y17498000D03*
%TO.P,C11,2*%
%TO.N,GND*%
X43434000Y16538000D03*
%TD*%
D29*
%TO.P,C4,1*%
%TO.N,Net-(C4-Pad1)*%
X29477000Y19050000D03*
%TO.P,C4,2*%
%TO.N,GND*%
X27927000Y19050000D03*
%TD*%
D16*
%TO.P,R7,1*%
%TO.N,Net-(U2-RXD0{slash}MODE0)*%
X32260000Y10922000D03*
%TO.P,R7,2*%
%TO.N,/RMII_RXD0*%
X31240000Y10922000D03*
%TD*%
D20*
%TO.P,U7,1,GND*%
%TO.N,GND*%
X33552000Y18370000D03*
D21*
%TO.P,U7,2,VI*%
%TO.N,/Connector/VIN*%
X35052000Y18457500D03*
D20*
%TO.P,U7,3,VO*%
%TO.N,+5V*%
X36552000Y18370000D03*
%TD*%
D16*
%TO.P,R20,1*%
%TO.N,/CAN/CAN2_H*%
X47246000Y22352000D03*
%TO.P,R20,2*%
%TO.N,Net-(R20-Pad2)*%
X46226000Y22352000D03*
%TD*%
D13*
%TO.P,R13,1*%
%TO.N,Net-(J5-RCT)*%
X22096000Y14986000D03*
%TO.P,R13,2*%
%TO.N,Net-(J5-TD-)*%
X23116000Y14986000D03*
%TD*%
D16*
%TO.P,R2,1*%
%TO.N,+3.3V*%
X34292000Y10922000D03*
%TO.P,R2,2*%
%TO.N,Net-(U2-RXD0{slash}MODE0)*%
X33272000Y10922000D03*
%TD*%
D30*
%TO.P,C15,1*%
%TO.N,Net-(U2-VDDCR)*%
X31750000Y7633000D03*
%TO.P,C15,2*%
%TO.N,GND*%
X31750000Y6083000D03*
%TD*%
D24*
%TO.P,JP4,1,A*%
%TO.N,/CAN2_TD*%
X47752000Y20637000D03*
%TO.P,JP4,2,B*%
%TO.N,Net-(JP4-B)*%
X47752000Y18987000D03*
%TD*%
D16*
%TO.P,R8,1*%
%TO.N,Net-(U2-RXD1{slash}MODE1)*%
X32260000Y9144000D03*
%TO.P,R8,2*%
%TO.N,/RMII_RXD1*%
X31240000Y9144000D03*
%TD*%
D31*
%TO.P,C17,1*%
%TO.N,Net-(J5-RCT)*%
X23114000Y18227000D03*
%TO.P,C17,2*%
%TO.N,GND*%
X23114000Y20127000D03*
%TD*%
D23*
%TO.P,C18,1*%
%TO.N,Net-(J5-RCT)*%
X24765000Y18697000D03*
%TO.P,C18,2*%
%TO.N,GND*%
X24765000Y19657000D03*
%TD*%
D29*
%TO.P,C23,1*%
%TO.N,+3.3V*%
X41923000Y16510000D03*
%TO.P,C23,2*%
%TO.N,GND*%
X40373000Y16510000D03*
%TD*%
D17*
%TO.P,Y2,1,1*%
%TO.N,Net-(U2-XTAL1{slash}CLKIN)*%
X28070000Y7442902D03*
%TO.P,Y2,2,2*%
%TO.N,GND*%
X26670000Y7442902D03*
%TO.P,Y2,3,3*%
%TO.N,Net-(U2-XTAL2)*%
X26670000Y6342902D03*
%TO.P,Y2,4,4*%
%TO.N,GND*%
X28070000Y6342902D03*
%TD*%
D23*
%TO.P,C8,1*%
%TO.N,+3.3V*%
X33528000Y6505000D03*
%TO.P,C8,2*%
%TO.N,GND*%
X33528000Y7465000D03*
%TD*%
D32*
%TO.P,L1,1*%
%TO.N,+3.3V*%
X26162000Y20091500D03*
%TO.P,L1,2*%
%TO.N,Net-(J5-RCT)*%
X26162000Y18516500D03*
%TD*%
D16*
%TO.P,R5,1*%
%TO.N,+3.3V*%
X34292000Y15367000D03*
%TO.P,R5,2*%
%TO.N,/RMII_MDIO*%
X33272000Y15367000D03*
%TD*%
D33*
%TO.P,R17,1*%
%TO.N,Net-(J5-Pad11)*%
X22352000Y5332000D03*
%TO.P,R17,2*%
%TO.N,GND*%
X22352000Y6352000D03*
%TD*%
D34*
%TO.P,SW1,1*%
%TO.N,/CAN/CAN2_L*%
X40894000Y10795000D03*
%TO.P,SW1,2*%
%TO.N,Net-(R19-Pad1)*%
X40894000Y9525000D03*
%TO.P,SW1,3*%
%TO.N,/CAN/CAN1_L*%
X48514000Y9525000D03*
%TO.P,SW1,4*%
%TO.N,Net-(R20-Pad2)*%
X48514000Y10795000D03*
%TD*%
D16*
%TO.P,R19,1*%
%TO.N,Net-(R19-Pad1)*%
X46992000Y5842000D03*
%TO.P,R19,2*%
%TO.N,/CAN/CAN1_H*%
X45972000Y5842000D03*
%TD*%
D19*
%TO.P,C14,1*%
%TO.N,Net-(U2-VDDCR)*%
X30353000Y7338000D03*
%TO.P,C14,2*%
%TO.N,GND*%
X30353000Y6378000D03*
%TD*%
D15*
%TO.P,C7,1*%
%TO.N,+3.3V*%
X38072000Y14732000D03*
%TO.P,C7,2*%
%TO.N,GND*%
X37112000Y14732000D03*
%TD*%
%TO.P,C13,1*%
%TO.N,GND*%
X26995000Y4860902D03*
%TO.P,C13,2*%
%TO.N,Net-(U2-XTAL2)*%
X26035000Y4860902D03*
%TD*%
%TO.P,C6,1*%
%TO.N,+3.3V*%
X29563000Y17018000D03*
%TO.P,C6,2*%
%TO.N,GND*%
X28603000Y17018000D03*
%TD*%
D24*
%TO.P,JP2,1,A*%
%TO.N,/CAN1_TD*%
X45720000Y15557000D03*
%TO.P,JP2,2,B*%
%TO.N,Net-(JP2-B)*%
X45720000Y13907000D03*
%TD*%
D15*
%TO.P,C3,1*%
%TO.N,/NRST*%
X35024000Y5207000D03*
%TO.P,C3,2*%
%TO.N,GND*%
X34064000Y5207000D03*
%TD*%
D16*
%TO.P,R4,1*%
%TO.N,+3.3V*%
X34292000Y14224000D03*
%TO.P,R4,2*%
%TO.N,Net-(U2-CRS_DV{slash}MODE2)*%
X33272000Y14224000D03*
%TD*%
D19*
%TO.P,C2,1*%
%TO.N,GND*%
X36982400Y12164000D03*
%TO.P,C2,2*%
%TO.N,Net-(U1-PH1)*%
X36982400Y11204000D03*
%TD*%
D13*
%TO.P,R10,1*%
%TO.N,/RMII_CRS_DV*%
X31240000Y14224000D03*
%TO.P,R10,2*%
%TO.N,Net-(U2-CRS_DV{slash}MODE2)*%
X32260000Y14224000D03*
%TD*%
%TO.P,R14,1*%
%TO.N,Net-(J5-RCT)*%
X22096000Y9652000D03*
%TO.P,R14,2*%
%TO.N,Net-(J5-RD+)*%
X23116000Y9652000D03*
%TD*%
D14*
%TO.P,R15,1*%
%TO.N,Net-(J5-RCT)*%
X22098000Y12194000D03*
%TO.P,R15,2*%
%TO.N,Net-(J5-RD-)*%
X22098000Y11174000D03*
%TD*%
D22*
%TO.P,D2,1,K*%
%TO.N,GND*%
X17500500Y24384000D03*
%TO.P,D2,2,A*%
%TO.N,Net-(D2-A)*%
X19075500Y24384000D03*
%TD*%
D15*
%TO.P,C12,1*%
%TO.N,Net-(U2-XTAL1{slash}CLKIN)*%
X29055000Y4860902D03*
%TO.P,C12,2*%
%TO.N,GND*%
X28095000Y4860902D03*
%TD*%
%TO.P,C25,1*%
%TO.N,+5V*%
X46962000Y7112000D03*
%TO.P,C25,2*%
%TO.N,GND*%
X46002000Y7112000D03*
%TD*%
D16*
%TO.P,R21,1*%
%TO.N,/MCU/PC7*%
X21844000Y22352000D03*
%TO.P,R21,2*%
%TO.N,Net-(D1-A)*%
X20824000Y22352000D03*
%TD*%
D13*
%TO.P,R11,1*%
%TO.N,/RMII_REF_CLK*%
X31113000Y16764000D03*
%TO.P,R11,2*%
%TO.N,Net-(U2-~{INT}{slash}REFCLKO)*%
X32133000Y16764000D03*
%TD*%
D15*
%TO.P,C9,1*%
%TO.N,+3.3V*%
X41374000Y6858000D03*
%TO.P,C9,2*%
%TO.N,GND*%
X40414000Y6858000D03*
%TD*%
D19*
%TO.P,C21,1*%
%TO.N,Net-(J5-RCT)*%
X23622000Y6350000D03*
%TO.P,C21,2*%
%TO.N,GND*%
X23622000Y5390000D03*
%TD*%
D35*
%TO.P,J3,1,Pin_1*%
%TO.N,/SPI3_MOSI*%
X25400000Y1270000D03*
D36*
%TO.P,J3,2,Pin_2*%
%TO.N,/SPI3_MISO*%
X27940000Y1270000D03*
%TO.P,J3,3,Pin_3*%
%TO.N,/SPI3_SCK*%
X30480000Y1270000D03*
%TO.P,J3,4,Pin_4*%
%TO.N,/SPI3_CS*%
X33020000Y1270000D03*
%TO.P,J3,5,Pin_5*%
%TO.N,/VCP_TX*%
X35560000Y1270000D03*
%TO.P,J3,6,Pin_6*%
%TO.N,/VCP_RX*%
X38100000Y1270000D03*
%TO.P,J3,7,Pin_7*%
%TO.N,/CAN1_RD*%
X40640000Y1270000D03*
%TO.P,J3,8,Pin_8*%
%TO.N,/CAN1_TD*%
X43180000Y1270000D03*
%TO.P,J3,9,Pin_9*%
%TO.N,/CAN/CAN1_L*%
X45720000Y1270000D03*
%TO.P,J3,10,Pin_10*%
%TO.N,/CAN/CAN1_H*%
X48260000Y1270000D03*
%TD*%
D35*
%TO.P,J4,1,Pin_1*%
%TO.N,GND*%
X25400000Y24130000D03*
D36*
%TO.P,J4,2,Pin_2*%
%TO.N,/Connector/VIN*%
X27940000Y24130000D03*
%TO.P,J4,3,Pin_3*%
%TO.N,+3.3V*%
X30480000Y24130000D03*
%TO.P,J4,4,Pin_4*%
%TO.N,/NRST*%
X33020000Y24130000D03*
%TO.P,J4,5,Pin_5*%
%TO.N,/SWDIO*%
X35560000Y24130000D03*
%TO.P,J4,6,Pin_6*%
%TO.N,/SWCLK*%
X38100000Y24130000D03*
%TO.P,J4,7,Pin_7*%
%TO.N,/CAN2_RD*%
X40640000Y24130000D03*
%TO.P,J4,8,Pin_8*%
%TO.N,/CAN2_TD*%
X43180000Y24130000D03*
%TO.P,J4,9,Pin_9*%
%TO.N,/CAN/CAN2_L*%
X45720000Y24130000D03*
%TO.P,J4,10,Pin_10*%
%TO.N,/CAN/CAN2_H*%
X48260000Y24130000D03*
%TD*%
D37*
%TO.N,Net-(U1-PH0)*%
X37742001Y9635300D03*
%TO.N,GND*%
X27559000Y5495902D03*
X22860000Y7112000D03*
D38*
X33274000Y21336000D03*
D37*
X40386000Y6604000D03*
X20320000Y2540000D03*
D38*
X19812000Y3902000D03*
D37*
X22860000Y762000D03*
X38354000Y8509000D03*
X27247771Y8035886D03*
D38*
X21844000Y16256000D03*
D37*
X24384000Y4826000D03*
X33638779Y8126708D03*
X39370000Y16002000D03*
D38*
X40386000Y8128000D03*
X31750000Y21336000D03*
X38354000Y17018000D03*
X28168000Y21844000D03*
D37*
X16002000Y2540000D03*
D38*
X32512000Y4572000D03*
X44958000Y9144000D03*
D37*
X22860000Y2540000D03*
D38*
X46482000Y9144000D03*
D37*
X20320000Y762000D03*
X16002000Y762000D03*
X37084000Y14224000D03*
D38*
X19177000Y5080000D03*
X23114000Y20828000D03*
D37*
X31750000Y5588000D03*
D38*
X24885276Y7130000D03*
D37*
X36957000Y10414000D03*
X30353000Y5715000D03*
D38*
X32512000Y21336000D03*
X23368000Y16256000D03*
X21844000Y21082000D03*
X44450000Y6096000D03*
D37*
X28575000Y16764000D03*
D38*
X25654000Y3810000D03*
D37*
X46228000Y9906000D03*
D38*
X30480000Y4572000D03*
X39116000Y17018000D03*
D37*
X47498000Y12954000D03*
X37592000Y12164000D03*
X28575000Y9144000D03*
X39370000Y16510000D03*
X33330000Y12954000D03*
D38*
X24765000Y20574000D03*
D37*
X23114000Y4826000D03*
%TO.N,Net-(U1-PH1)*%
X36830000Y8001000D03*
%TO.N,Net-(C4-Pad1)*%
X29845000Y19050000D03*
D38*
%TO.N,+3.3V*%
X26924000Y19558000D03*
D37*
X38862000Y20828000D03*
X29972000Y17018000D03*
X34294000Y16764000D03*
X35024000Y4064000D03*
X33494257Y5914827D03*
D38*
X41910000Y19304000D03*
D37*
X34292000Y10922000D03*
D38*
X41910000Y20066000D03*
D37*
X34292000Y9144000D03*
D38*
X44450000Y22098000D03*
D37*
X41656000Y7620000D03*
D38*
X48768000Y7620000D03*
D37*
X38072000Y14732000D03*
X34290000Y12954000D03*
X34292000Y15367000D03*
X34292000Y14224000D03*
X28383103Y9714103D03*
%TO.N,Net-(J5-RCT)*%
X21842000Y13208000D03*
X21844000Y9744000D03*
X21842000Y12192000D03*
D38*
X24384000Y15240000D03*
D37*
X25273000Y10414000D03*
X21842000Y15113000D03*
%TO.N,/Ethernet/LED2*%
X25654000Y9652000D03*
X18796000Y6505000D03*
D38*
X22000000Y4000000D03*
D37*
%TO.N,/Ethernet/LED1*%
X26416000Y9144000D03*
%TO.N,/MCU/BOOT0*%
X38104000Y13462000D03*
%TO.N,/RMII_MDIO*%
X32891000Y14986000D03*
%TO.N,/RMII_RXD0*%
X31240000Y10922000D03*
%TO.N,/RMII_RXD1*%
X31240000Y9144000D03*
%TO.N,/RMII_CRS_DV*%
X31240000Y14224000D03*
X31466001Y11634381D03*
%TO.N,/RMII_REF_CLK*%
X35556000Y8886000D03*
%TO.N,/CAN/CAN1_H*%
X45972000Y5842000D03*
%TO.N,/CAN/CAN2_H*%
X47246000Y22352000D03*
%TO.N,Net-(R20-Pad2)*%
X46736001Y18150855D03*
X46228000Y22352000D03*
%TO.N,/CAN/CAN2_L*%
X44483999Y15967919D03*
D38*
%TO.N,/CAN/CAN1_L*%
X47783000Y6573000D03*
D37*
%TO.N,/SPI3_SCK*%
X35814000Y3010000D03*
X36322000Y13462000D03*
%TO.N,/RMII_TX_EN*%
X26741646Y15952396D03*
%TO.N,/VCP_TX*%
X40048810Y15163346D03*
%TO.N,/VCP_RX*%
X42628287Y14289147D03*
%TO.N,/RMII_MDC*%
X35306000Y8128000D03*
%TO.N,/CAN2_TD*%
X44306000Y20828000D03*
%TO.N,/RMII_TXD0*%
X30988000Y17653000D03*
%TO.N,/SPI3_CS*%
X29830880Y4310000D03*
%TO.N,/MCU/PC7*%
X21844000Y22352000D03*
X30734000Y20066000D03*
%TO.N,/CAN1_TD*%
X44144650Y13259350D03*
X44146499Y10153910D03*
%TO.N,/CAN2_RD*%
X43625768Y20890232D03*
%TO.N,/CAN1_RD*%
X46212182Y12684182D03*
%TO.N,/RMII_TXD1*%
X30861000Y18288000D03*
%TO.N,/MCU/PC8*%
X30465671Y20602658D03*
X21846000Y24172000D03*
%TO.N,+5V*%
X47244000Y8382000D03*
X45974000Y16510000D03*
%TO.N,Net-(C5-Pad1)*%
X42926000Y9906000D03*
%TO.N,/NRST*%
X36322000Y5842000D03*
X27746625Y16957375D03*
X35952000Y11430000D03*
%TO.N,Net-(JP2-B)*%
X44831000Y12446000D03*
%TO.N,Net-(JP3-B)*%
X48514000Y12700000D03*
%TO.N,Net-(JP4-B)*%
X48768000Y17272000D03*
%TO.N,Net-(JP5-B)*%
X44577000Y17399000D03*
X44395000Y14441409D03*
%TD*%
D39*
%TO.N,Net-(J5-Pad11)*%
X22352000Y5332000D02*
X20322000Y3302000D01*
X20322000Y3302000D02*
X10746964Y3302000D01*
X10746964Y3302000D02*
X7620000Y6428964D01*
X7620000Y6428964D02*
X7620000Y7921431D01*
X7620000Y7921431D02*
X6626431Y8915000D01*
X6626431Y8915000D02*
X5290000Y8915000D01*
%TO.N,/Ethernet/LED2*%
X18796000Y6505000D02*
X15029304Y6505000D01*
X15029304Y6505000D02*
X6294304Y15240000D01*
X6294304Y15240000D02*
X4445000Y15240000D01*
X4445000Y15240000D02*
X3810000Y15875000D01*
X3810000Y15875000D02*
X3810000Y17890000D01*
X3810000Y17890000D02*
X5250000Y19330000D01*
%TO.N,Net-(J5-Pad10)*%
X22352000Y8638000D02*
X20719000Y7005000D01*
X20719000Y7005000D02*
X16290000Y7005000D01*
X16290000Y7005000D02*
X6505000Y16790000D01*
X6505000Y16790000D02*
X5250000Y16790000D01*
%TO.N,Net-(U1-PH0)*%
X37979300Y9635300D02*
X38292000Y9948000D01*
X38201600Y10038400D02*
X38292000Y9948000D01*
X37742001Y9635300D02*
X37979300Y9635300D01*
X38201600Y11204000D02*
X38201600Y10038400D01*
%TO.N,GND*%
X40414000Y6858000D02*
X40414000Y6632000D01*
X22660000Y6352000D02*
X23622000Y5390000D01*
X28070000Y6342902D02*
X28070000Y6006902D01*
D40*
X24765000Y19657000D02*
X24765000Y20574000D01*
D41*
X38886000Y18370000D02*
X38886000Y16788000D01*
D39*
X22352000Y6352000D02*
X22660000Y6352000D01*
D41*
X38608000Y16510000D02*
X38354000Y16256000D01*
D40*
X23114000Y20127000D02*
X23114000Y20828000D01*
D39*
X40414000Y6632000D02*
X40386000Y6604000D01*
X27559000Y5495902D02*
X27559000Y4987902D01*
X27559000Y4987902D02*
X27432000Y4860902D01*
D40*
X37112000Y13490000D02*
X37084000Y13462000D01*
D39*
X38382000Y8481000D02*
X38354000Y8509000D01*
X36892000Y10349000D02*
X36957000Y10414000D01*
D42*
X28603000Y17018000D02*
X28603000Y16792000D01*
D39*
X44450000Y6832000D02*
X44476000Y6858000D01*
D41*
X39370000Y16510000D02*
X39370000Y16002000D01*
D40*
X24295000Y20127000D02*
X24765000Y19657000D01*
D39*
X23622000Y7618000D02*
X22352000Y7618000D01*
D42*
X33330000Y12954000D02*
X32260000Y12954000D01*
D39*
X23260000Y4680000D02*
X23114000Y4826000D01*
D41*
X38886000Y16788000D02*
X38354000Y16256000D01*
D39*
X40894000Y15240000D02*
X40373000Y15761000D01*
D42*
X34064000Y5207000D02*
X34064000Y4064000D01*
D39*
X38292000Y8848000D02*
X38292000Y8571000D01*
X26995000Y4860902D02*
X27432000Y4860902D01*
X23260000Y4000000D02*
X23260000Y4680000D01*
X33638779Y7575779D02*
X33528000Y7465000D01*
X33638779Y8126708D02*
X33638779Y7575779D01*
D41*
X40373000Y16510000D02*
X39370000Y16510000D01*
D40*
X37084000Y14224000D02*
X37112000Y14196000D01*
D39*
X27432000Y4860902D02*
X28095000Y4860902D01*
D41*
X39370000Y16002000D02*
X38608000Y16510000D01*
D42*
X24892000Y7468923D02*
X24885276Y7462199D01*
D40*
X37112000Y14196000D02*
X37112000Y13490000D01*
D39*
X36892000Y9948000D02*
X36892000Y10349000D01*
X43434000Y16538000D02*
X42136000Y15240000D01*
X42136000Y15240000D02*
X40894000Y15240000D01*
X44450000Y6096000D02*
X44450000Y6832000D01*
X31750000Y6083000D02*
X31750000Y5588000D01*
X38292000Y8571000D02*
X38354000Y8509000D01*
X40373000Y15761000D02*
X40373000Y16510000D01*
X26670000Y7458115D02*
X27247771Y8035886D01*
D42*
X24862000Y7618000D02*
X24892000Y7648000D01*
X28603000Y16792000D02*
X28575000Y16764000D01*
D40*
X37112000Y14252000D02*
X37084000Y14224000D01*
D39*
X26670000Y7442902D02*
X26670000Y7458115D01*
X28070000Y6006902D02*
X27559000Y5495902D01*
D42*
X24885276Y7462199D02*
X24885276Y7130000D01*
D39*
X22352000Y6352000D02*
X22352000Y7618000D01*
D42*
X23622000Y7618000D02*
X24862000Y7618000D01*
D40*
X23114000Y20127000D02*
X24295000Y20127000D01*
D42*
X24892000Y7648000D02*
X24892000Y7087923D01*
D39*
X24830000Y5390000D02*
X23622000Y5390000D01*
X36982400Y12164000D02*
X38201600Y12164000D01*
D40*
X37112000Y14732000D02*
X37112000Y14252000D01*
D39*
X30353000Y6378000D02*
X30353000Y5715000D01*
%TO.N,Net-(U1-PH1)*%
X36604000Y11204000D02*
X36142000Y10742000D01*
X36830000Y8786000D02*
X36892000Y8848000D01*
X36982400Y11204000D02*
X36604000Y11204000D01*
X36830000Y8001000D02*
X36830000Y8786000D01*
X36142000Y10742000D02*
X36142000Y9312000D01*
X36142000Y9312000D02*
X36606000Y8848000D01*
X36606000Y8848000D02*
X36892000Y8848000D01*
X36850000Y8890000D02*
X36576000Y8890000D01*
X36892000Y8848000D02*
X36850000Y8890000D01*
D42*
%TO.N,Net-(C4-Pad1)*%
X29477000Y19050000D02*
X29845000Y19050000D01*
%TO.N,+3.3V*%
X29563000Y17018000D02*
X29972000Y17018000D01*
D41*
X41886000Y18370000D02*
X41886000Y19280000D01*
D40*
X26924000Y19558000D02*
X26695500Y19558000D01*
X26695500Y19558000D02*
X26162000Y20091500D01*
D41*
X41923000Y16510000D02*
X41923000Y18333000D01*
D39*
X33782000Y12192000D02*
X30809076Y12192000D01*
D41*
X41923000Y18333000D02*
X41886000Y18370000D01*
D39*
X34290000Y12700000D02*
X33782000Y12192000D01*
X41374000Y7338000D02*
X41656000Y7620000D01*
X34290000Y12954000D02*
X34290000Y12700000D01*
D41*
X41910000Y19304000D02*
X41910000Y20066000D01*
D39*
X33528000Y6505000D02*
X33528000Y5948570D01*
X41374000Y6858000D02*
X41374000Y7338000D01*
X33528000Y5948570D02*
X33494257Y5914827D01*
X30043076Y12958000D02*
X28853500Y12958000D01*
X30809076Y12192000D02*
X30043076Y12958000D01*
D41*
X41886000Y19280000D02*
X41910000Y19304000D01*
D39*
%TO.N,Net-(U2-XTAL1{slash}CLKIN)*%
X29055000Y7047902D02*
X29055000Y4860902D01*
X27666000Y8309902D02*
X28070000Y7905902D01*
X28070000Y7442902D02*
X28660000Y7442902D01*
X27666000Y11270500D02*
X27666000Y8309902D01*
X28070000Y7905902D02*
X28070000Y7400902D01*
X28660000Y7442902D02*
X29055000Y7047902D01*
%TO.N,Net-(U2-XTAL2)*%
X25908000Y8162902D02*
X26162000Y8416902D01*
X26246000Y6300902D02*
X26670000Y6300902D01*
X25908000Y6638902D02*
X25908000Y8162902D01*
X25908000Y4987902D02*
X25908000Y6638902D01*
X26162000Y8416902D02*
X26924000Y8416902D01*
X26924000Y8416902D02*
X27166000Y8658902D01*
X26035000Y4860902D02*
X25908000Y4987902D01*
X25908000Y6638902D02*
X26246000Y6300902D01*
X27166000Y8658902D02*
X27166000Y11270500D01*
%TO.N,Net-(U2-VDDCR)*%
X30353000Y8451314D02*
X30353000Y7338000D01*
X28166000Y10638314D02*
X30353000Y8451314D01*
X28166000Y11270500D02*
X28166000Y10638314D01*
X31750000Y7633000D02*
X30648000Y7633000D01*
X30648000Y7633000D02*
X30353000Y7338000D01*
D42*
%TO.N,Net-(J5-RCT)*%
X24892000Y9652000D02*
X24892000Y10033000D01*
D39*
X25508000Y7992000D02*
X24892000Y8608000D01*
X22098000Y12194000D02*
X21844000Y12194000D01*
X21936000Y9652000D02*
X21844000Y9744000D01*
X23622000Y6350000D02*
X24830000Y6350000D01*
D40*
X24323000Y17907000D02*
X24003000Y18227000D01*
X24765000Y18608000D02*
X24384000Y18227000D01*
D39*
X22098000Y13208000D02*
X21842000Y13208000D01*
D40*
X24765000Y18697000D02*
X24765000Y18394500D01*
X24384000Y17145000D02*
X24384000Y17907000D01*
X24003000Y18227000D02*
X24384000Y18227000D01*
X24384000Y17678500D02*
X24932500Y18227000D01*
D42*
X25273000Y10414000D02*
X25666000Y10807000D01*
X25666000Y10807000D02*
X25666000Y11270500D01*
D39*
X21969000Y14986000D02*
X21842000Y15113000D01*
X22096000Y9652000D02*
X21936000Y9652000D01*
D40*
X24765000Y18697000D02*
X24765000Y18608000D01*
X26162000Y18516500D02*
X25222000Y18516500D01*
D39*
X19070000Y13335000D02*
X17800000Y12065000D01*
D40*
X24384000Y18227000D02*
X24932500Y18227000D01*
X24384000Y17907000D02*
X24612500Y17907000D01*
D39*
X25508000Y6458000D02*
X25508000Y7992000D01*
X21844000Y12194000D02*
X21842000Y12192000D01*
D40*
X25222000Y18516500D02*
X24932500Y18227000D01*
X24765000Y18394500D02*
X24932500Y18227000D01*
X24384000Y15240000D02*
X24384000Y17145000D01*
D39*
X22096000Y14986000D02*
X21969000Y14986000D01*
D40*
X24612500Y17907000D02*
X24932500Y18227000D01*
D39*
X24830000Y6350000D02*
X25400000Y6350000D01*
D40*
X25981500Y18697000D02*
X26162000Y18516500D01*
X24384000Y17907000D02*
X24384000Y18227000D01*
D42*
X24892000Y10033000D02*
X25273000Y10414000D01*
D39*
X24384000Y15052500D02*
X24978500Y14458000D01*
X17800000Y12065000D02*
X16530000Y12065000D01*
X24384000Y15240000D02*
X24384000Y15052500D01*
X25400000Y6350000D02*
X25508000Y6458000D01*
D40*
X23114000Y18227000D02*
X24003000Y18227000D01*
D42*
X24892000Y8608000D02*
X24892000Y9652000D01*
D40*
X24765000Y18697000D02*
X25981500Y18697000D01*
X24384000Y17907000D02*
X24323000Y17907000D01*
X24384000Y17145000D02*
X24384000Y17678500D01*
D39*
%TO.N,Net-(J5-TD-)*%
X23114000Y14224000D02*
X24260614Y14224000D01*
X19070000Y15875000D02*
X20721000Y14224000D01*
X23114000Y14224000D02*
X23114000Y14984000D01*
X24526614Y13958000D02*
X24978500Y13958000D01*
X20721000Y14224000D02*
X21128476Y14224000D01*
X23114000Y14984000D02*
X23116000Y14986000D01*
X24260614Y14224000D02*
X24526614Y13958000D01*
X21128476Y14224000D02*
X23114000Y14224000D01*
%TO.N,/Ethernet/LED2*%
X22240000Y4000000D02*
X22000000Y4000000D01*
X26166000Y11270500D02*
X26166000Y10164000D01*
X26166000Y10164000D02*
X25654000Y9652000D01*
%TO.N,Net-(J5-RD+)*%
X23876000Y12164432D02*
X23876000Y10922000D01*
X15280000Y11343107D02*
X15280000Y13355000D01*
X19959000Y9545000D02*
X18484874Y9545000D01*
X23116000Y9652000D02*
X23116000Y10393000D01*
X15280000Y13355000D02*
X16530000Y14605000D01*
X17218983Y10810891D02*
X15812216Y10810891D01*
X20809000Y10395000D02*
X19959000Y9545000D01*
X24978500Y12458000D02*
X24977021Y12456521D01*
X23116000Y10393000D02*
X23114000Y10395000D01*
X23876000Y10922000D02*
X23349000Y10395000D01*
X23349000Y10395000D02*
X23114000Y10395000D01*
X18484874Y9545000D02*
X17218983Y10810891D01*
X24168089Y12456521D02*
X23876000Y12164432D01*
X15812216Y10810891D02*
X15280000Y11343107D01*
X24977021Y12456521D02*
X24168089Y12456521D01*
X23114000Y10395000D02*
X20809000Y10395000D01*
%TO.N,/Ethernet/LED1*%
X26666000Y9394000D02*
X26416000Y9144000D01*
X26666000Y11270500D02*
X26666000Y9394000D01*
%TO.N,Net-(J5-TD+)*%
X23118000Y13820000D02*
X23118000Y13208000D01*
X16530000Y16854340D02*
X16530000Y17145000D01*
X23114000Y13824000D02*
X20348767Y13824000D01*
X24460928Y13458000D02*
X24094928Y13824000D01*
X24978500Y13458000D02*
X24460928Y13458000D01*
X19380635Y14585000D02*
X18799340Y14585000D01*
X24094928Y13824000D02*
X23114000Y13824000D01*
X18445786Y14731447D02*
X16676446Y16500787D01*
X20348767Y13824000D02*
X19734213Y14438554D01*
X23114000Y13824000D02*
X23118000Y13820000D01*
X19734213Y14438554D02*
G75*
G03*
X19380635Y14585013I-353613J-353654D01*
G01*
X16676446Y16500787D02*
G75*
G02*
X16530028Y16854340I353554J353513D01*
G01*
X18799340Y14585000D02*
G75*
G02*
X18445766Y14731427I-40J500000D01*
G01*
%TO.N,Net-(J5-RD-)*%
X23960928Y12958000D02*
X24978500Y12958000D01*
X22098000Y10795000D02*
X22987000Y10795000D01*
X23241000Y11049000D02*
X23241000Y12238072D01*
X22098000Y10795000D02*
X22098000Y11174000D01*
X19070000Y10795000D02*
X22098000Y10795000D01*
X23241000Y12238072D02*
X23960928Y12958000D01*
X22987000Y10795000D02*
X23241000Y11049000D01*
%TO.N,Net-(U2-RXD0{slash}MODE0)*%
X32260000Y10416000D02*
X32260000Y10922000D01*
X30480000Y10471686D02*
X30787686Y10164000D01*
X32008000Y10164000D02*
X32260000Y10416000D01*
X29706000Y12458000D02*
X30480000Y11684000D01*
X30787686Y10164000D02*
X32008000Y10164000D01*
X32260000Y10922000D02*
X33272000Y10922000D01*
X30480000Y11684000D02*
X30480000Y10471686D01*
X28853500Y12458000D02*
X29706000Y12458000D01*
%TO.N,Net-(U2-RXD1{slash}MODE1)*%
X31640000Y9764000D02*
X30622000Y9764000D01*
X30622000Y9764000D02*
X29972000Y10414000D01*
X29972000Y11626314D02*
X29640314Y11958000D01*
X29640314Y11958000D02*
X28853500Y11958000D01*
X29972000Y10414000D02*
X29972000Y11626314D01*
X32260000Y9144000D02*
X31640000Y9764000D01*
X32260000Y9144000D02*
X33272000Y9144000D01*
%TO.N,Net-(U2-CRS_DV{slash}MODE2)*%
X33272000Y14224000D02*
X32260000Y14224000D01*
X30607000Y13589000D02*
X30238000Y13958000D01*
X32260000Y14224000D02*
X32260000Y13845000D01*
X30238000Y13958000D02*
X28853500Y13958000D01*
X32004000Y13589000D02*
X30607000Y13589000D01*
X33272000Y14097000D02*
X33272000Y14224000D01*
X32260000Y13845000D02*
X32004000Y13589000D01*
%TO.N,/RMII_MDIO*%
X29698000Y14458000D02*
X30226000Y14986000D01*
X30226000Y14986000D02*
X32891000Y14986000D01*
X32891000Y14986000D02*
X33272000Y15367000D01*
X28853500Y14458000D02*
X29698000Y14458000D01*
%TO.N,Net-(U2-~{INT}{slash}REFCLKO)*%
X31750000Y16002000D02*
X32133000Y16385000D01*
X32133000Y16385000D02*
X32133000Y16764000D01*
X28070614Y16002000D02*
X31750000Y16002000D01*
X33274000Y16764000D02*
X32133000Y16764000D01*
X27666000Y15145500D02*
X27666000Y15597386D01*
X27666000Y15597386D02*
X28070614Y16002000D01*
%TO.N,/RMII_RXD0*%
X31240000Y10922000D02*
X31242000Y10924000D01*
X31242000Y10924000D02*
X31242000Y11080000D01*
%TO.N,/RMII_RXD1*%
X31240000Y9304000D02*
X31242000Y9306000D01*
X31240000Y9144000D02*
X31240000Y9304000D01*
%TO.N,Net-(U2-RXER{slash}PHYAD0)*%
X28853500Y13458000D02*
X30108762Y13458000D01*
X30108762Y13458000D02*
X30612762Y12954000D01*
X30612762Y12954000D02*
X31240000Y12954000D01*
%TO.N,/RMII_REF_CLK*%
X35452000Y16544924D02*
X34612924Y17384000D01*
X35452000Y8990000D02*
X35452000Y16544924D01*
X31733000Y17384000D02*
X31113000Y16764000D01*
X34612924Y17384000D02*
X31733000Y17384000D01*
X35556000Y8886000D02*
X35452000Y8990000D01*
%TO.N,Net-(U2-RBIAS)*%
X23876000Y9842001D02*
X23876000Y8892000D01*
X24978500Y10944501D02*
X23876000Y9842001D01*
X24978500Y11958000D02*
X24978500Y10944501D01*
X23876000Y8892000D02*
X23622000Y8638000D01*
%TO.N,Net-(R19-Pad1)*%
X42156000Y6404304D02*
X43226304Y5334000D01*
X42156000Y8263000D02*
X42156000Y6404304D01*
X46990000Y5842000D02*
X46482000Y5334000D01*
X46992000Y5842000D02*
X46990000Y5842000D01*
X43226304Y5334000D02*
X46482000Y5334000D01*
X40894000Y9525000D02*
X42156000Y8263000D01*
D42*
%TO.N,Net-(R20-Pad2)*%
X46736001Y18150855D02*
X48376856Y16510000D01*
X49159000Y16119000D02*
X49159000Y11440000D01*
X48376856Y16510000D02*
X48768000Y16510000D01*
X48768000Y16510000D02*
X49159000Y16119000D01*
X49159000Y11440000D02*
X48514000Y10795000D01*
%TO.N,/CAN/CAN2_L*%
X43417000Y14969000D02*
X43417000Y13318000D01*
X44415919Y15967919D02*
X43417000Y14969000D01*
X43417000Y13318000D02*
X40894000Y10795000D01*
X44483999Y15967919D02*
X44415919Y15967919D01*
D43*
%TO.N,/CAN/CAN1_L*%
X47783000Y6573000D02*
X48260000Y6096000D01*
X46131239Y1270000D02*
X45720000Y1270000D01*
D42*
X47783000Y6573000D02*
X48006000Y6796000D01*
D43*
X48260000Y3398761D02*
X46131239Y1270000D01*
X48260000Y6096000D02*
X48260000Y3398761D01*
D42*
X48006000Y6796000D02*
X48006000Y9017000D01*
X48006000Y9017000D02*
X48514000Y9525000D01*
D39*
%TO.N,/RMII_TX_EN*%
X26666000Y15876750D02*
X26666000Y15145500D01*
X26741646Y15952396D02*
X26666000Y15876750D01*
%TO.N,/RMII_MDC*%
X32352076Y15386000D02*
X32968076Y16002000D01*
X28166000Y15145500D02*
X28406500Y15386000D01*
X35052000Y15621000D02*
X35052000Y8382000D01*
X35052000Y8382000D02*
X35306000Y8128000D01*
X34671000Y16002000D02*
X35052000Y15621000D01*
X28406500Y15386000D02*
X32352076Y15386000D01*
X32968076Y16002000D02*
X34671000Y16002000D01*
D42*
%TO.N,/CAN2_TD*%
X43180000Y22484116D02*
X43180000Y24130000D01*
X44306000Y20828000D02*
X44306000Y21358116D01*
X44840000Y21362000D02*
X47027000Y21362000D01*
X44306000Y20828000D02*
X44840000Y21362000D01*
X44306000Y21358116D02*
X43180000Y22484116D01*
X47027000Y21362000D02*
X47752000Y20637000D01*
D39*
%TO.N,/RMII_TXD0*%
X26166000Y15145500D02*
X26166000Y16083857D01*
X27735143Y17653000D02*
X30988000Y17653000D01*
X26166000Y16083857D02*
X27735143Y17653000D01*
%TO.N,/SPI3_CS*%
X32933471Y1270000D02*
X29893471Y4310000D01*
X33020000Y1270000D02*
X32933471Y1270000D01*
X29893471Y4310000D02*
X29830880Y4310000D01*
D42*
%TO.N,/CAN1_TD*%
X44144650Y13259350D02*
X44247350Y13259350D01*
X44920000Y14757000D02*
X45720000Y15557000D01*
X44144650Y13259350D02*
X44146499Y13257501D01*
X44920000Y13932000D02*
X44920000Y14757000D01*
X44146499Y13257501D02*
X44146499Y10153910D01*
X44247350Y13259350D02*
X44920000Y13932000D01*
%TO.N,/CAN2_RD*%
X44088537Y20303000D02*
X43688000Y20703537D01*
X45720000Y20637000D02*
X45386000Y20303000D01*
X43688000Y20828000D02*
X43625768Y20890232D01*
X43625768Y21144232D02*
X40640000Y24130000D01*
X43688000Y20703537D02*
X43688000Y20828000D01*
X43625768Y20890232D02*
X43625768Y21144232D01*
X45386000Y20303000D02*
X44088537Y20303000D01*
%TO.N,/CAN1_RD*%
X46736000Y13208000D02*
X46736000Y14541000D01*
X46212182Y12684182D02*
X46736000Y13208000D01*
X46736000Y14541000D02*
X47752000Y15557000D01*
D39*
%TO.N,/RMII_TXD1*%
X25666000Y16149543D02*
X25666000Y15145500D01*
X27804457Y18288000D02*
X25666000Y16149543D01*
X30861000Y18288000D02*
X27804457Y18288000D01*
%TO.N,/MCU/PC8*%
X21888000Y24130000D02*
X21846000Y24172000D01*
D41*
%TO.N,+5V*%
X36830000Y19812000D02*
X39694000Y19812000D01*
D43*
X44577000Y16510000D02*
X43434000Y17653000D01*
D41*
X36552000Y19534000D02*
X36830000Y19812000D01*
D39*
X46962000Y8100000D02*
X47244000Y8382000D01*
D43*
X42210305Y20791000D02*
X41609695Y20791000D01*
X40386000Y19567305D02*
X40386000Y18457500D01*
X43434000Y19567305D02*
X42210305Y20791000D01*
X45974000Y16510000D02*
X44577000Y16510000D01*
D39*
X46962000Y7112000D02*
X46962000Y8100000D01*
D41*
X40386000Y19120000D02*
X40386000Y18457500D01*
D40*
X36552000Y18370000D02*
X36552000Y16508000D01*
D41*
X39694000Y19812000D02*
X40386000Y19120000D01*
X36552000Y18370000D02*
X36552000Y19534000D01*
D43*
X43434000Y17653000D02*
X43434000Y19567305D01*
D40*
X36552000Y16508000D02*
X36804000Y16256000D01*
D43*
X41609695Y20791000D02*
X40386000Y19567305D01*
D42*
%TO.N,Net-(C5-Pad1)*%
X42926000Y9906000D02*
X42926000Y6858000D01*
D39*
%TO.N,Net-(D1-A)*%
X20824000Y22352000D02*
X19075500Y22352000D01*
%TO.N,Net-(D2-A)*%
X19287500Y24172000D02*
X19075500Y24384000D01*
X20826000Y24172000D02*
X19287500Y24172000D01*
D41*
%TO.N,/Connector/VIN*%
X29718000Y21844000D02*
X29718000Y22352000D01*
X29464000Y22606000D02*
X35052000Y22606000D01*
X27940000Y24130000D02*
X29464000Y22606000D01*
X29718000Y22352000D02*
X27940000Y24130000D01*
X35052000Y22606000D02*
X35052000Y18457500D01*
D39*
%TO.N,/NRST*%
X27746625Y16250268D02*
X27746625Y16957375D01*
X27166000Y15145500D02*
X27166000Y15669643D01*
X27166000Y15669643D02*
X27746625Y16250268D01*
X35687000Y5207000D02*
X36322000Y5842000D01*
X35024000Y5207000D02*
X35687000Y5207000D01*
D42*
%TO.N,Net-(JP2-B)*%
X44831000Y12446000D02*
X45720000Y13335000D01*
X45720000Y13335000D02*
X45720000Y13907000D01*
%TO.N,Net-(JP3-B)*%
X47752000Y13462000D02*
X48514000Y12700000D01*
X47752000Y13907000D02*
X47752000Y13462000D01*
%TO.N,Net-(JP4-B)*%
X47752000Y18288000D02*
X47752000Y18987000D01*
X48768000Y17272000D02*
X47752000Y18288000D01*
%TO.N,Net-(JP5-B)*%
X44577000Y17399000D02*
X45720000Y18542000D01*
X45720000Y18542000D02*
X45720000Y18987000D01*
%TD*%
%TA.AperFunction,Conductor*%
%TO.N,GND*%
G36*
X28263039Y6323217D02*
G01*
X28308794Y6270413D01*
X28320000Y6218902D01*
X28320000Y5791492D01*
X28342166Y5750898D01*
X28345000Y5724540D01*
X28345000Y4056399D01*
X28491195Y4098871D01*
X28630372Y4181180D01*
X28630380Y4181186D01*
X28680936Y4231742D01*
X28742259Y4265228D01*
X28809569Y4261105D01*
X28832181Y4253192D01*
X28832189Y4253192D01*
X28832190Y4253191D01*
X28861930Y4250402D01*
X29228560Y4250402D01*
X29295599Y4230717D01*
X29341354Y4177913D01*
X29343026Y4173430D01*
X29364687Y4126000D01*
X29405503Y4036627D01*
X29499752Y3927857D01*
X29620827Y3850047D01*
X29620830Y3850046D01*
X29620829Y3850046D01*
X29758916Y3809501D01*
X29758918Y3809500D01*
X29758919Y3809500D01*
X29776216Y3809500D01*
X29843255Y3789815D01*
X29863897Y3773181D01*
X31130723Y2506355D01*
X31164208Y2445032D01*
X31159224Y2375340D01*
X31117352Y2319407D01*
X31051888Y2294990D01*
X30998248Y2303047D01*
X30956018Y2319407D01*
X30796198Y2381321D01*
X30586610Y2420500D01*
X30373390Y2420500D01*
X30163802Y2381321D01*
X30163799Y2381321D01*
X30163799Y2381320D01*
X29964982Y2304299D01*
X29964980Y2304298D01*
X29783699Y2192053D01*
X29626127Y2048407D01*
X29497632Y1878254D01*
X29402596Y1687395D01*
X29402596Y1687393D01*
X29344244Y1482311D01*
X29333471Y1366049D01*
X29307685Y1301112D01*
X29263130Y1269196D01*
X29299503Y1248332D01*
X29331693Y1186319D01*
X29333471Y1173952D01*
X29344244Y1057690D01*
X29402596Y852608D01*
X29402596Y852606D01*
X29488658Y679771D01*
X29500919Y610986D01*
X29474046Y546491D01*
X29416570Y506764D01*
X29377658Y500500D01*
X29042342Y500500D01*
X28975303Y520185D01*
X28929548Y572989D01*
X28919604Y642147D01*
X28931342Y679771D01*
X29017403Y852606D01*
X29017403Y852607D01*
X29017405Y852611D01*
X29075756Y1057690D01*
X29086529Y1173953D01*
X29112315Y1238889D01*
X29156869Y1270806D01*
X29120497Y1291669D01*
X29088307Y1353682D01*
X29086529Y1366049D01*
X29083175Y1402241D01*
X29075756Y1482310D01*
X29017405Y1687389D01*
X29017403Y1687394D01*
X29017403Y1687395D01*
X28922367Y1878254D01*
X28793872Y2048407D01*
X28758238Y2080892D01*
X28636302Y2192052D01*
X28455019Y2304298D01*
X28455017Y2304299D01*
X28355608Y2342810D01*
X28256198Y2381321D01*
X28046610Y2420500D01*
X27833390Y2420500D01*
X27623802Y2381321D01*
X27623799Y2381321D01*
X27623799Y2381320D01*
X27424982Y2304299D01*
X27424980Y2304298D01*
X27243699Y2192053D01*
X27086127Y2048407D01*
X26957632Y1878254D01*
X26862596Y1687395D01*
X26862596Y1687393D01*
X26804244Y1482311D01*
X26797970Y1414606D01*
X26772183Y1349669D01*
X26715383Y1308982D01*
X26645602Y1305462D01*
X26584995Y1340228D01*
X26552806Y1402241D01*
X26550499Y1426048D01*
X26550499Y2164857D01*
X26550499Y2164863D01*
X26550499Y2164864D01*
X26550497Y2164883D01*
X26547586Y2189988D01*
X26547585Y2189990D01*
X26547585Y2189991D01*
X26502206Y2292765D01*
X26422765Y2372206D01*
X26402124Y2381320D01*
X26319992Y2417585D01*
X26294865Y2420500D01*
X24505143Y2420500D01*
X24505117Y2420498D01*
X24480012Y2417587D01*
X24480008Y2417585D01*
X24377235Y2372207D01*
X24297794Y2292766D01*
X24252415Y2189994D01*
X24252415Y2189992D01*
X24252415Y2189991D01*
X24249500Y2164865D01*
X24249500Y1340228D01*
X24249501Y624500D01*
X24229816Y557461D01*
X24177013Y511706D01*
X24125501Y500500D01*
X15110000Y500500D01*
X15042961Y520185D01*
X14997206Y572989D01*
X14986000Y624500D01*
X14986000Y2777500D01*
X15005685Y2844539D01*
X15058489Y2890294D01*
X15110000Y2901500D01*
X20374725Y2901500D01*
X20374727Y2901500D01*
X20476588Y2928793D01*
X20567913Y2981520D01*
X21292159Y3705768D01*
X21353482Y3739252D01*
X21423173Y3734268D01*
X21478215Y3693574D01*
X21571718Y3571718D01*
X21697159Y3475464D01*
X21843238Y3414956D01*
X21969130Y3398383D01*
X21993892Y3392487D01*
X22023121Y3382259D01*
X22052543Y3379500D01*
X22427456Y3379501D01*
X22456879Y3382259D01*
X22533597Y3409105D01*
X22603372Y3412667D01*
X22662232Y3379744D01*
X22732709Y3309266D01*
X22732714Y3309262D01*
X22870805Y3227596D01*
X23010000Y3187156D01*
X23010000Y3187157D01*
X23510000Y3187157D01*
X23649194Y3227596D01*
X23787285Y3309262D01*
X23787294Y3309269D01*
X23900731Y3422706D01*
X23900738Y3422715D01*
X23982406Y3560809D01*
X23982407Y3560812D01*
X24027166Y3714872D01*
X24027167Y3714878D01*
X24029931Y3750000D01*
X23510000Y3750000D01*
X23510000Y3187157D01*
X23010000Y3187157D01*
X23010000Y3876000D01*
X23029685Y3943039D01*
X23082489Y3988794D01*
X23134000Y4000000D01*
X23260000Y4000000D01*
X23260000Y4126000D01*
X23279685Y4193039D01*
X23332489Y4238794D01*
X23384000Y4250000D01*
X24029931Y4250000D01*
X24027167Y4285123D01*
X24027166Y4285129D01*
X23982408Y4439188D01*
X23963014Y4471981D01*
X23945831Y4539705D01*
X23967990Y4605968D01*
X24022456Y4649731D01*
X24035156Y4654181D01*
X24048193Y4657969D01*
X24162878Y4725793D01*
X24230602Y4742976D01*
X24289122Y4725793D01*
X24403806Y4657968D01*
X24559089Y4612855D01*
X24580000Y4611211D01*
X24580000Y5140000D01*
X23746000Y5140000D01*
X23678961Y5159685D01*
X23633206Y5212489D01*
X23622000Y5264000D01*
X23622000Y5516000D01*
X23641685Y5583039D01*
X23694489Y5628794D01*
X23746000Y5640000D01*
X24706000Y5640000D01*
X24773039Y5620315D01*
X24818794Y5567511D01*
X24830000Y5516000D01*
X24830000Y5390000D01*
X24956000Y5390000D01*
X25023039Y5370315D01*
X25068794Y5317511D01*
X25080000Y5266000D01*
X25080000Y4611211D01*
X25100910Y4612855D01*
X25256194Y4657969D01*
X25278143Y4670949D01*
X25345867Y4688133D01*
X25412130Y4665974D01*
X25455894Y4611509D01*
X25458307Y4605174D01*
X25489258Y4516723D01*
X25501148Y4482745D01*
X25580001Y4375903D01*
X25686843Y4297050D01*
X25720911Y4285129D01*
X25812173Y4253194D01*
X25812177Y4253194D01*
X25812181Y4253192D01*
X25827057Y4251797D01*
X25841930Y4250402D01*
X25841934Y4250402D01*
X26228070Y4250402D01*
X26257809Y4253191D01*
X26257809Y4253192D01*
X26257819Y4253192D01*
X26280427Y4261104D01*
X26350202Y4264666D01*
X26409061Y4231743D01*
X26459616Y4181188D01*
X26459625Y4181181D01*
X26598804Y4098871D01*
X26745000Y4056398D01*
X26745000Y4056399D01*
X27245000Y4056399D01*
X27391195Y4098871D01*
X27481879Y4152501D01*
X27549602Y4169684D01*
X27608121Y4152501D01*
X27698804Y4098871D01*
X27845000Y4056398D01*
X27845000Y4610902D01*
X27245000Y4610902D01*
X27245000Y4056399D01*
X26745000Y4056399D01*
X26745000Y4736902D01*
X26764685Y4803941D01*
X26817489Y4849696D01*
X26869000Y4860902D01*
X26995000Y4860902D01*
X26995000Y4986902D01*
X27014685Y5053941D01*
X27067489Y5099696D01*
X27119000Y5110902D01*
X27845000Y5110902D01*
X27845000Y5322313D01*
X27822834Y5362906D01*
X27820000Y5389264D01*
X27820000Y6218902D01*
X27839685Y6285941D01*
X27892489Y6331696D01*
X27944000Y6342902D01*
X28196000Y6342902D01*
X28263039Y6323217D01*
G37*
%TD.AperFunction*%
%TA.AperFunction,Conductor*%
G36*
X30546039Y6358315D02*
G01*
X30591794Y6305511D01*
X30603000Y6254000D01*
X30603000Y5599211D01*
X30623913Y5600856D01*
X30689711Y5619971D01*
X30759580Y5619772D01*
X30818250Y5581830D01*
X30836686Y5553304D01*
X30838452Y5549516D01*
X30927424Y5405272D01*
X30927427Y5405268D01*
X31047267Y5285428D01*
X31047271Y5285425D01*
X31191507Y5196458D01*
X31191518Y5196453D01*
X31352393Y5143145D01*
X31451683Y5133001D01*
X32000000Y5133001D01*
X32048308Y5133001D01*
X32048322Y5133002D01*
X32147607Y5143145D01*
X32308481Y5196453D01*
X32308492Y5196458D01*
X32452728Y5285425D01*
X32452732Y5285428D01*
X32572572Y5405268D01*
X32572575Y5405272D01*
X32661542Y5549508D01*
X32661547Y5549519D01*
X32714855Y5710394D01*
X32724999Y5809678D01*
X32725000Y5809691D01*
X32725000Y5833000D01*
X32000000Y5833000D01*
X32000000Y5133001D01*
X31451683Y5133001D01*
X31499999Y5133002D01*
X31500000Y5133002D01*
X31500000Y5959000D01*
X31519685Y6026039D01*
X31572489Y6071794D01*
X31624000Y6083000D01*
X31750000Y6083000D01*
X31750000Y6209000D01*
X31769685Y6276039D01*
X31822489Y6321794D01*
X31874000Y6333000D01*
X32731687Y6333000D01*
X32778272Y6358438D01*
X32847964Y6353455D01*
X32903898Y6311584D01*
X32921673Y6278227D01*
X32964147Y6156844D01*
X32983536Y6130574D01*
X33007508Y6064945D01*
X33006505Y6039292D01*
X33005949Y6035425D01*
X32988610Y5914827D01*
X32990779Y5899741D01*
X33009091Y5772371D01*
X33048905Y5685192D01*
X33068880Y5641454D01*
X33163129Y5532684D01*
X33284204Y5454874D01*
X33284207Y5454873D01*
X33284206Y5454873D01*
X33422293Y5414328D01*
X33422295Y5414327D01*
X33422296Y5414327D01*
X33566219Y5414327D01*
X33566219Y5414328D01*
X33619821Y5430066D01*
X33694446Y5451977D01*
X33729380Y5457000D01*
X33940000Y5457000D01*
X34007039Y5437315D01*
X34052794Y5384511D01*
X34064000Y5333000D01*
X34064000Y5207000D01*
X34190000Y5207000D01*
X34257039Y5187315D01*
X34302794Y5134511D01*
X34314000Y5083000D01*
X34314000Y3259497D01*
X34460195Y3301969D01*
X34599372Y3384278D01*
X34599380Y3384284D01*
X34649936Y3434840D01*
X34711259Y3468326D01*
X34778569Y3464203D01*
X34801181Y3456290D01*
X34801189Y3456290D01*
X34801190Y3456289D01*
X34830930Y3453500D01*
X34830934Y3453500D01*
X35217070Y3453500D01*
X35234067Y3455095D01*
X35246819Y3456290D01*
X35246823Y3456292D01*
X35249776Y3456936D01*
X35252021Y3456778D01*
X35254331Y3456994D01*
X35254366Y3456612D01*
X35319472Y3452015D01*
X35375443Y3410194D01*
X35399919Y3344752D01*
X35389038Y3284283D01*
X35328834Y3152455D01*
X35308353Y3010000D01*
X35328834Y2867544D01*
X35388622Y2736629D01*
X35388623Y2736627D01*
X35482872Y2627857D01*
X35482873Y2627857D01*
X35488680Y2621155D01*
X35486950Y2619657D01*
X35517956Y2571406D01*
X35517953Y2501537D01*
X35480176Y2442760D01*
X35421763Y2414588D01*
X35357370Y2402551D01*
X35243802Y2381321D01*
X35243800Y2381321D01*
X35243798Y2381320D01*
X35044982Y2304299D01*
X35044980Y2304298D01*
X34863699Y2192053D01*
X34706127Y2048407D01*
X34577632Y1878254D01*
X34482596Y1687395D01*
X34482596Y1687393D01*
X34424244Y1482311D01*
X34413471Y1366049D01*
X34387685Y1301112D01*
X34343130Y1269196D01*
X34379503Y1248332D01*
X34411693Y1186319D01*
X34413471Y1173952D01*
X34424244Y1057690D01*
X34482596Y852608D01*
X34482596Y852606D01*
X34568658Y679771D01*
X34580919Y610986D01*
X34554046Y546491D01*
X34496570Y506764D01*
X34457658Y500500D01*
X34122342Y500500D01*
X34055303Y520185D01*
X34009548Y572989D01*
X33999604Y642147D01*
X34011342Y679771D01*
X34097403Y852606D01*
X34097403Y852607D01*
X34097405Y852611D01*
X34155756Y1057690D01*
X34166529Y1173953D01*
X34192315Y1238889D01*
X34236869Y1270806D01*
X34200497Y1291669D01*
X34168307Y1353682D01*
X34166529Y1366049D01*
X34163175Y1402241D01*
X34155756Y1482310D01*
X34097405Y1687389D01*
X34097403Y1687394D01*
X34097403Y1687395D01*
X34002367Y1878254D01*
X33873872Y2048407D01*
X33838238Y2080892D01*
X33716302Y2192052D01*
X33535019Y2304298D01*
X33535017Y2304299D01*
X33435608Y2342810D01*
X33336198Y2381321D01*
X33126610Y2420500D01*
X32913390Y2420500D01*
X32703802Y2381321D01*
X32703797Y2381320D01*
X32551912Y2322480D01*
X32482289Y2316618D01*
X32420549Y2349329D01*
X32419438Y2350426D01*
X30955864Y3814000D01*
X33285210Y3814000D01*
X33286854Y3793090D01*
X33331968Y3637805D01*
X33414278Y3498626D01*
X33414285Y3498617D01*
X33528616Y3384286D01*
X33528625Y3384279D01*
X33667804Y3301969D01*
X33814000Y3259496D01*
X33814000Y3814000D01*
X33285210Y3814000D01*
X30955864Y3814000D01*
X30455863Y4314001D01*
X33285209Y4314001D01*
X33285210Y4314000D01*
X33814000Y4314000D01*
X33814000Y4957000D01*
X33285210Y4957000D01*
X33286854Y4936090D01*
X33331968Y4780805D01*
X33331970Y4780801D01*
X33380571Y4698620D01*
X33397754Y4630896D01*
X33380571Y4572380D01*
X33331970Y4490200D01*
X33331966Y4490191D01*
X33286855Y4334919D01*
X33286854Y4334913D01*
X33285209Y4314001D01*
X30455863Y4314001D01*
X30330719Y4439145D01*
X30305606Y4475315D01*
X30256259Y4583370D01*
X30256256Y4583374D01*
X30236678Y4605968D01*
X30162008Y4692143D01*
X30040933Y4769953D01*
X30040931Y4769954D01*
X30040929Y4769955D01*
X30040930Y4769955D01*
X29902843Y4810500D01*
X29902841Y4810500D01*
X29759500Y4810500D01*
X29692461Y4830185D01*
X29646706Y4882989D01*
X29635500Y4934500D01*
X29635500Y5083973D01*
X29632710Y5113717D01*
X29632710Y5113721D01*
X29632708Y5113725D01*
X29632708Y5113729D01*
X29598149Y5212489D01*
X29588852Y5239059D01*
X29509999Y5345901D01*
X29505864Y5348953D01*
X29463615Y5404601D01*
X29455500Y5448721D01*
X29455500Y5761209D01*
X29475185Y5828248D01*
X29527989Y5874003D01*
X29597147Y5883947D01*
X29660703Y5854922D01*
X29667436Y5847811D01*
X29667764Y5848138D01*
X29787616Y5728286D01*
X29787625Y5728279D01*
X29926804Y5645969D01*
X30082089Y5600855D01*
X30103000Y5599211D01*
X30103000Y6254000D01*
X30122685Y6321039D01*
X30175489Y6366794D01*
X30227000Y6378000D01*
X30479000Y6378000D01*
X30546039Y6358315D01*
G37*
%TD.AperFunction*%
%TA.AperFunction,Conductor*%
G36*
X43627039Y16518315D02*
G01*
X43672794Y16465511D01*
X43684000Y16414000D01*
X43684000Y15889111D01*
X43664315Y15822072D01*
X43647681Y15801430D01*
X43155737Y15309485D01*
X43076517Y15230266D01*
X43076513Y15230260D01*
X43020498Y15133240D01*
X43020497Y15133237D01*
X42991500Y15025018D01*
X42991500Y14869774D01*
X42971815Y14802735D01*
X42919011Y14756980D01*
X42849853Y14747036D01*
X42832566Y14750797D01*
X42700251Y14789647D01*
X42700248Y14789647D01*
X42556326Y14789647D01*
X42556323Y14789647D01*
X42418236Y14749102D01*
X42297160Y14671291D01*
X42202910Y14562521D01*
X42202909Y14562519D01*
X42143121Y14431604D01*
X42122640Y14289147D01*
X42143121Y14146691D01*
X42185021Y14054944D01*
X42202910Y14015774D01*
X42297159Y13907004D01*
X42418234Y13829194D01*
X42418237Y13829193D01*
X42418236Y13829193D01*
X42502938Y13804323D01*
X42552661Y13789723D01*
X42556323Y13788648D01*
X42556325Y13788647D01*
X42556326Y13788647D01*
X42700249Y13788647D01*
X42700249Y13788648D01*
X42757951Y13805590D01*
X42832566Y13827498D01*
X42902435Y13827498D01*
X42961213Y13789723D01*
X42990238Y13726168D01*
X42991500Y13708521D01*
X42991500Y13545611D01*
X42971815Y13478572D01*
X42955181Y13457930D01*
X41009069Y11511819D01*
X40947746Y11478334D01*
X40921388Y11475500D01*
X40049143Y11475500D01*
X40049117Y11475498D01*
X40024012Y11472587D01*
X40024008Y11472585D01*
X39921235Y11427207D01*
X39841794Y11347766D01*
X39796415Y11244994D01*
X39796415Y11244992D01*
X39793500Y11219869D01*
X39793500Y10370144D01*
X39793502Y10370118D01*
X39796413Y10345013D01*
X39796415Y10345009D01*
X39841793Y10242236D01*
X39848288Y10232755D01*
X39845529Y10230866D01*
X39869833Y10186358D01*
X39864849Y10116666D01*
X39846658Y10088362D01*
X39848288Y10087245D01*
X39841794Y10077766D01*
X39796415Y9974994D01*
X39796415Y9974992D01*
X39793500Y9949869D01*
X39793500Y9100144D01*
X39793502Y9100118D01*
X39796413Y9075013D01*
X39796415Y9075009D01*
X39841793Y8972236D01*
X39841794Y8972235D01*
X39921235Y8892794D01*
X40024009Y8847415D01*
X40049135Y8844500D01*
X40956744Y8844501D01*
X41023783Y8824817D01*
X41044425Y8808182D01*
X41369995Y8482612D01*
X41550720Y8301888D01*
X41584205Y8240565D01*
X41579221Y8170874D01*
X41537350Y8114940D01*
X41497974Y8095230D01*
X41445949Y8079955D01*
X41324873Y8002144D01*
X41324872Y8002144D01*
X41324872Y8002143D01*
X41323882Y8001000D01*
X41230623Y7893374D01*
X41230622Y7893372D01*
X41170835Y7762459D01*
X41170834Y7762455D01*
X41166426Y7731796D01*
X41137400Y7668241D01*
X41131370Y7661764D01*
X41053804Y7584197D01*
X40992481Y7550712D01*
X40922789Y7555696D01*
X40903001Y7565146D01*
X40810193Y7620033D01*
X40810190Y7620035D01*
X40664001Y7662507D01*
X40664000Y7662506D01*
X40664000Y6053497D01*
X40810195Y6095969D01*
X40949372Y6178278D01*
X40949380Y6178284D01*
X40999936Y6228840D01*
X41061259Y6262326D01*
X41128569Y6258203D01*
X41151181Y6250290D01*
X41151189Y6250290D01*
X41151190Y6250289D01*
X41180930Y6247500D01*
X41180934Y6247500D01*
X41567070Y6247500D01*
X41580289Y6248740D01*
X41596819Y6250290D01*
X41654286Y6270400D01*
X41724065Y6273962D01*
X41784692Y6239234D01*
X41802628Y6215359D01*
X41835515Y6158398D01*
X41835518Y6158394D01*
X41835520Y6158391D01*
X42905823Y5088088D01*
X42905824Y5088087D01*
X42980391Y5013520D01*
X43071717Y4960793D01*
X43173577Y4933500D01*
X43173579Y4933500D01*
X46534725Y4933500D01*
X46534727Y4933500D01*
X46636588Y4960793D01*
X46727913Y5013520D01*
X46899575Y5185184D01*
X46960896Y5218667D01*
X46987255Y5221501D01*
X47179454Y5221501D01*
X47179456Y5221501D01*
X47208879Y5224259D01*
X47332794Y5267619D01*
X47438423Y5345577D01*
X47516381Y5451206D01*
X47544892Y5532684D01*
X47559741Y5575119D01*
X47559741Y5575121D01*
X47562042Y5599655D01*
X47587899Y5664563D01*
X47644744Y5705189D01*
X47714529Y5708632D01*
X47775097Y5673801D01*
X47807219Y5611753D01*
X47809500Y5588078D01*
X47809500Y3636727D01*
X47789815Y3569688D01*
X47773181Y3549046D01*
X46485682Y2261548D01*
X46424359Y2228063D01*
X46354667Y2233047D01*
X46332724Y2243802D01*
X46235024Y2304295D01*
X46235017Y2304299D01*
X46135608Y2342810D01*
X46036198Y2381321D01*
X45826610Y2420500D01*
X45613390Y2420500D01*
X45403802Y2381321D01*
X45403799Y2381321D01*
X45403799Y2381320D01*
X45204982Y2304299D01*
X45204980Y2304298D01*
X45023699Y2192053D01*
X44866127Y2048407D01*
X44737632Y1878254D01*
X44642596Y1687395D01*
X44642596Y1687393D01*
X44584244Y1482311D01*
X44573471Y1366049D01*
X44547685Y1301112D01*
X44503130Y1269196D01*
X44539503Y1248332D01*
X44571693Y1186319D01*
X44573471Y1173952D01*
X44584244Y1057690D01*
X44642596Y852608D01*
X44642596Y852606D01*
X44728658Y679771D01*
X44740919Y610986D01*
X44714046Y546491D01*
X44656570Y506764D01*
X44617658Y500500D01*
X44282342Y500500D01*
X44215303Y520185D01*
X44169548Y572989D01*
X44159604Y642147D01*
X44171342Y679771D01*
X44257403Y852606D01*
X44257403Y852607D01*
X44257405Y852611D01*
X44315756Y1057690D01*
X44326529Y1173953D01*
X44352315Y1238889D01*
X44396869Y1270806D01*
X44360497Y1291669D01*
X44328307Y1353682D01*
X44326529Y1366049D01*
X44323175Y1402241D01*
X44315756Y1482310D01*
X44257405Y1687389D01*
X44257403Y1687394D01*
X44257403Y1687395D01*
X44162367Y1878254D01*
X44033872Y2048407D01*
X43998238Y2080892D01*
X43876302Y2192052D01*
X43695019Y2304298D01*
X43695017Y2304299D01*
X43595608Y2342810D01*
X43496198Y2381321D01*
X43286610Y2420500D01*
X43073390Y2420500D01*
X42863802Y2381321D01*
X42863799Y2381321D01*
X42863799Y2381320D01*
X42664982Y2304299D01*
X42664980Y2304298D01*
X42483699Y2192053D01*
X42326127Y2048407D01*
X42197632Y1878254D01*
X42102596Y1687395D01*
X42102596Y1687393D01*
X42044244Y1482311D01*
X42033471Y1366049D01*
X42007685Y1301112D01*
X41963130Y1269196D01*
X41999503Y1248332D01*
X42031693Y1186319D01*
X42033471Y1173952D01*
X42044244Y1057690D01*
X42102596Y852608D01*
X42102596Y852606D01*
X42188658Y679771D01*
X42200919Y610986D01*
X42174046Y546491D01*
X42116570Y506764D01*
X42077658Y500500D01*
X41742342Y500500D01*
X41675303Y520185D01*
X41629548Y572989D01*
X41619604Y642147D01*
X41631342Y679771D01*
X41717403Y852606D01*
X41717403Y852607D01*
X41717405Y852611D01*
X41775756Y1057690D01*
X41786529Y1173953D01*
X41812315Y1238889D01*
X41856869Y1270806D01*
X41820497Y1291669D01*
X41788307Y1353682D01*
X41786529Y1366049D01*
X41783175Y1402241D01*
X41775756Y1482310D01*
X41717405Y1687389D01*
X41717403Y1687394D01*
X41717403Y1687395D01*
X41622367Y1878254D01*
X41493872Y2048407D01*
X41458238Y2080892D01*
X41336302Y2192052D01*
X41155019Y2304298D01*
X41155017Y2304299D01*
X41055608Y2342810D01*
X40956198Y2381321D01*
X40746610Y2420500D01*
X40533390Y2420500D01*
X40323802Y2381321D01*
X40323799Y2381321D01*
X40323799Y2381320D01*
X40124982Y2304299D01*
X40124980Y2304298D01*
X39943699Y2192053D01*
X39786127Y2048407D01*
X39657632Y1878254D01*
X39562596Y1687395D01*
X39562596Y1687393D01*
X39504244Y1482311D01*
X39493471Y1366049D01*
X39467685Y1301112D01*
X39423130Y1269196D01*
X39459503Y1248332D01*
X39491693Y1186319D01*
X39493471Y1173952D01*
X39504244Y1057690D01*
X39562596Y852608D01*
X39562596Y852606D01*
X39648658Y679771D01*
X39660919Y610986D01*
X39634046Y546491D01*
X39576570Y506764D01*
X39537658Y500500D01*
X39202342Y500500D01*
X39135303Y520185D01*
X39089548Y572989D01*
X39079604Y642147D01*
X39091342Y679771D01*
X39177403Y852606D01*
X39177403Y852607D01*
X39177405Y852611D01*
X39235756Y1057690D01*
X39246529Y1173953D01*
X39272315Y1238889D01*
X39316869Y1270806D01*
X39280497Y1291669D01*
X39248307Y1353682D01*
X39246529Y1366049D01*
X39243175Y1402241D01*
X39235756Y1482310D01*
X39177405Y1687389D01*
X39177403Y1687394D01*
X39177403Y1687395D01*
X39082367Y1878254D01*
X38953872Y2048407D01*
X38918238Y2080892D01*
X38796302Y2192052D01*
X38615019Y2304298D01*
X38615017Y2304299D01*
X38515608Y2342810D01*
X38416198Y2381321D01*
X38206610Y2420500D01*
X37993390Y2420500D01*
X37783802Y2381321D01*
X37783799Y2381321D01*
X37783799Y2381320D01*
X37584982Y2304299D01*
X37584980Y2304298D01*
X37403699Y2192053D01*
X37246127Y2048407D01*
X37117632Y1878254D01*
X37022596Y1687395D01*
X37022596Y1687393D01*
X36964244Y1482311D01*
X36953471Y1366049D01*
X36927685Y1301112D01*
X36883130Y1269196D01*
X36919503Y1248332D01*
X36951693Y1186319D01*
X36953471Y1173952D01*
X36964244Y1057690D01*
X37022596Y852608D01*
X37022596Y852606D01*
X37108658Y679771D01*
X37120919Y610986D01*
X37094046Y546491D01*
X37036570Y506764D01*
X36997658Y500500D01*
X36662342Y500500D01*
X36595303Y520185D01*
X36549548Y572989D01*
X36539604Y642147D01*
X36551342Y679771D01*
X36637403Y852606D01*
X36637403Y852607D01*
X36637405Y852611D01*
X36695756Y1057690D01*
X36706529Y1173953D01*
X36732315Y1238889D01*
X36776869Y1270806D01*
X36740497Y1291669D01*
X36708307Y1353682D01*
X36706529Y1366049D01*
X36703175Y1402241D01*
X36695756Y1482310D01*
X36637405Y1687389D01*
X36637403Y1687394D01*
X36637403Y1687395D01*
X36542367Y1878254D01*
X36413872Y2048407D01*
X36378238Y2080892D01*
X36256302Y2192052D01*
X36075019Y2304298D01*
X36075017Y2304299D01*
X36043217Y2316618D01*
X36030549Y2321526D01*
X35975149Y2364098D01*
X35951558Y2429865D01*
X35967269Y2497945D01*
X36017293Y2546724D01*
X36023833Y2549946D01*
X36024048Y2550045D01*
X36024049Y2550046D01*
X36024053Y2550047D01*
X36145128Y2627857D01*
X36239377Y2736627D01*
X36299165Y2867543D01*
X36319647Y3010000D01*
X36299165Y3152457D01*
X36239377Y3283373D01*
X36145128Y3392143D01*
X36024053Y3469953D01*
X36024051Y3469954D01*
X36024049Y3469955D01*
X36024050Y3469955D01*
X35885963Y3510500D01*
X35885961Y3510500D01*
X35742039Y3510500D01*
X35742038Y3510500D01*
X35695134Y3496729D01*
X35625264Y3496731D01*
X35566487Y3534506D01*
X35537464Y3598063D01*
X35547409Y3667221D01*
X35553530Y3677617D01*
X35553510Y3677627D01*
X35557852Y3685843D01*
X35601708Y3811174D01*
X35601708Y3811177D01*
X35601710Y3811181D01*
X35604500Y3840934D01*
X35604500Y4287066D01*
X35601710Y4316819D01*
X35601708Y4316823D01*
X35601708Y4316827D01*
X35557852Y4442156D01*
X35557852Y4442157D01*
X35478999Y4548999D01*
X35478997Y4549000D01*
X35473481Y4556475D01*
X35474886Y4557513D01*
X35446694Y4609142D01*
X35451678Y4678834D01*
X35474250Y4713957D01*
X35473481Y4714525D01*
X35481798Y4725793D01*
X35504190Y4756135D01*
X35559838Y4798385D01*
X35603960Y4806500D01*
X35739725Y4806500D01*
X35739727Y4806500D01*
X35841588Y4833793D01*
X35932913Y4886520D01*
X36362991Y5316600D01*
X36415731Y5347893D01*
X36532053Y5382047D01*
X36653128Y5459857D01*
X36747377Y5568627D01*
X36807165Y5699543D01*
X36827647Y5842000D01*
X36807165Y5984457D01*
X36747377Y6115373D01*
X36653128Y6224143D01*
X36532053Y6301953D01*
X36532051Y6301954D01*
X36532049Y6301955D01*
X36532050Y6301955D01*
X36393963Y6342500D01*
X36393961Y6342500D01*
X36250039Y6342500D01*
X36250036Y6342500D01*
X36111949Y6301955D01*
X35990873Y6224144D01*
X35896623Y6115374D01*
X35896622Y6115372D01*
X35836835Y5984459D01*
X35836834Y5984455D01*
X35832426Y5953795D01*
X35803400Y5890240D01*
X35797369Y5883763D01*
X35627299Y5713693D01*
X35565976Y5680208D01*
X35496284Y5685192D01*
X35465986Y5701603D01*
X35372157Y5770852D01*
X35372155Y5770853D01*
X35246826Y5814709D01*
X35246814Y5814711D01*
X35217070Y5817500D01*
X35217066Y5817500D01*
X34830934Y5817500D01*
X34830930Y5817500D01*
X34801181Y5814711D01*
X34801180Y5814711D01*
X34778571Y5806799D01*
X34708793Y5803238D01*
X34649936Y5836161D01*
X34599383Y5886715D01*
X34599374Y5886722D01*
X34460196Y5969031D01*
X34304909Y6014146D01*
X34268644Y6017000D01*
X34217680Y6017000D01*
X34150641Y6036685D01*
X34104886Y6089489D01*
X34094942Y6158647D01*
X34100639Y6181956D01*
X34135710Y6282181D01*
X34137898Y6305511D01*
X34138500Y6311930D01*
X34138500Y6608000D01*
X39635210Y6608000D01*
X39636854Y6587090D01*
X39681968Y6431805D01*
X39764278Y6292626D01*
X39764285Y6292617D01*
X39878616Y6178286D01*
X39878625Y6178279D01*
X40017804Y6095969D01*
X40164000Y6053496D01*
X40164000Y6608000D01*
X39635210Y6608000D01*
X34138500Y6608000D01*
X34138500Y6698071D01*
X34135711Y6727810D01*
X34135710Y6727811D01*
X34135710Y6727819D01*
X34127797Y6750431D01*
X34124237Y6820206D01*
X34157160Y6879064D01*
X34207716Y6929620D01*
X34207722Y6929628D01*
X34290031Y7068805D01*
X34301418Y7108001D01*
X39635209Y7108001D01*
X39635210Y7108000D01*
X40164000Y7108000D01*
X40164000Y7662506D01*
X40163998Y7662507D01*
X40017809Y7620035D01*
X40017806Y7620033D01*
X39878625Y7537722D01*
X39878616Y7537715D01*
X39764285Y7423384D01*
X39764278Y7423375D01*
X39681968Y7284196D01*
X39681966Y7284191D01*
X39636855Y7128919D01*
X39636854Y7128913D01*
X39635209Y7108001D01*
X34301418Y7108001D01*
X34332504Y7215000D01*
X33652000Y7215000D01*
X33584961Y7234685D01*
X33539206Y7287489D01*
X33528000Y7339000D01*
X33528000Y7465000D01*
X33402000Y7465000D01*
X33334961Y7484685D01*
X33289206Y7537489D01*
X33278000Y7589000D01*
X33278000Y7715000D01*
X33778000Y7715000D01*
X34332504Y7715000D01*
X34290031Y7861196D01*
X34207721Y8000375D01*
X34207714Y8000384D01*
X34093383Y8114715D01*
X34093374Y8114722D01*
X33954195Y8197032D01*
X33954190Y8197034D01*
X33798918Y8242145D01*
X33798912Y8242146D01*
X33778000Y8243791D01*
X33778000Y7715000D01*
X33278000Y7715000D01*
X33278000Y8243790D01*
X33277999Y8243791D01*
X33257087Y8242146D01*
X33257081Y8242145D01*
X33101809Y8197034D01*
X33101804Y8197032D01*
X32962625Y8114722D01*
X32962616Y8114715D01*
X32848285Y8000384D01*
X32848278Y8000375D01*
X32765966Y7861193D01*
X32763222Y7854851D01*
X32718528Y7801146D01*
X32651894Y7780131D01*
X32584475Y7798476D01*
X32537678Y7850358D01*
X32525967Y7895469D01*
X32525941Y7895465D01*
X32525917Y7895662D01*
X32525645Y7896711D01*
X32525500Y7899138D01*
X32525500Y7899144D01*
X32515359Y7983590D01*
X32462364Y8117975D01*
X32462363Y8117976D01*
X32462363Y8117977D01*
X32375078Y8233079D01*
X32285910Y8300697D01*
X32244386Y8356890D01*
X32239835Y8426611D01*
X32273700Y8487725D01*
X32335230Y8520829D01*
X32360832Y8523501D01*
X32447456Y8523501D01*
X32476879Y8526259D01*
X32600794Y8569619D01*
X32692367Y8637204D01*
X32757995Y8661174D01*
X32826165Y8645859D01*
X32839628Y8637207D01*
X32931206Y8569619D01*
X32962591Y8558637D01*
X33055119Y8526259D01*
X33062796Y8525540D01*
X33084543Y8523500D01*
X33459456Y8523501D01*
X33488879Y8526259D01*
X33612794Y8569619D01*
X33708367Y8640156D01*
X33773995Y8664126D01*
X33842165Y8648811D01*
X33855629Y8640158D01*
X33951206Y8569619D01*
X33982591Y8558637D01*
X34075119Y8526259D01*
X34082796Y8525540D01*
X34104543Y8523500D01*
X34479456Y8523501D01*
X34508879Y8526259D01*
X34508880Y8526260D01*
X34515928Y8526920D01*
X34584512Y8513577D01*
X34634995Y8465274D01*
X34651500Y8403461D01*
X34651500Y8329273D01*
X34659157Y8300697D01*
X34678793Y8227411D01*
X34700798Y8189298D01*
X34731520Y8136087D01*
X34731522Y8136085D01*
X34781369Y8086238D01*
X34814854Y8024915D01*
X34816426Y8016205D01*
X34820834Y7985547D01*
X34820835Y7985542D01*
X34877692Y7861044D01*
X34880623Y7854627D01*
X34974872Y7745857D01*
X35095947Y7668047D01*
X35095950Y7668046D01*
X35095949Y7668046D01*
X35234036Y7627501D01*
X35234038Y7627500D01*
X35234039Y7627500D01*
X35377962Y7627500D01*
X35377962Y7627501D01*
X35516053Y7668047D01*
X35637128Y7745857D01*
X35731377Y7854627D01*
X35791165Y7985543D01*
X35811647Y8128000D01*
X35791165Y8270457D01*
X35775168Y8305484D01*
X35765224Y8374639D01*
X35794247Y8438196D01*
X35820921Y8461309D01*
X35887128Y8503857D01*
X35923788Y8546166D01*
X35982563Y8583940D01*
X36052433Y8583941D01*
X36111212Y8546167D01*
X36140238Y8482612D01*
X36141500Y8464965D01*
X36141500Y8403145D01*
X36141502Y8403118D01*
X36144413Y8378013D01*
X36144415Y8378009D01*
X36189793Y8275236D01*
X36189794Y8275235D01*
X36269235Y8195794D01*
X36269237Y8195793D01*
X36278718Y8189298D01*
X36276682Y8186327D01*
X36314730Y8154196D01*
X36335265Y8087412D01*
X36334013Y8068190D01*
X36324353Y8001001D01*
X36344834Y7858544D01*
X36402719Y7731796D01*
X36404623Y7727627D01*
X36498872Y7618857D01*
X36619947Y7541047D01*
X36619950Y7541046D01*
X36619949Y7541046D01*
X36758036Y7500501D01*
X36758038Y7500500D01*
X36758039Y7500500D01*
X36901962Y7500500D01*
X36901962Y7500501D01*
X37009121Y7531965D01*
X37040050Y7541046D01*
X37040050Y7541047D01*
X37040053Y7541047D01*
X37161128Y7618857D01*
X37255377Y7727627D01*
X37315165Y7858543D01*
X37332057Y7976033D01*
X37361082Y8039588D01*
X37419860Y8077363D01*
X37489729Y8077363D01*
X37529107Y8057652D01*
X37599910Y8004648D01*
X37599913Y8004646D01*
X37734620Y7954404D01*
X37734627Y7954402D01*
X37794155Y7948001D01*
X37794172Y7948000D01*
X38042000Y7948000D01*
X38542000Y7948000D01*
X38789828Y7948000D01*
X38789844Y7948001D01*
X38849372Y7954402D01*
X38849379Y7954404D01*
X38984086Y8004646D01*
X38984093Y8004650D01*
X39099187Y8090810D01*
X39099190Y8090813D01*
X39185350Y8205907D01*
X39185354Y8205914D01*
X39235596Y8340621D01*
X39235598Y8340628D01*
X39241999Y8400156D01*
X39242000Y8400173D01*
X39242000Y8598000D01*
X38542000Y8598000D01*
X38542000Y7948000D01*
X38042000Y7948000D01*
X38042000Y8724000D01*
X38061685Y8791039D01*
X38114489Y8836794D01*
X38166000Y8848000D01*
X38292000Y8848000D01*
X38292000Y8974000D01*
X38311685Y9041039D01*
X38364489Y9086794D01*
X38416000Y9098000D01*
X39242000Y9098000D01*
X39242000Y9295828D01*
X39241999Y9295845D01*
X39235598Y9355373D01*
X39235596Y9355380D01*
X39185354Y9490087D01*
X39185352Y9490089D01*
X39099190Y9605187D01*
X39099185Y9605193D01*
X39092185Y9610433D01*
X39050316Y9666368D01*
X39042499Y9709693D01*
X39042499Y10392864D01*
X39042497Y10392883D01*
X39039586Y10417988D01*
X39039585Y10417990D01*
X39039585Y10417991D01*
X38994206Y10520765D01*
X38914765Y10600206D01*
X38862009Y10623500D01*
X38803458Y10649353D01*
X38804777Y10652342D01*
X38759235Y10680358D01*
X38728964Y10743330D01*
X38737544Y10812671D01*
X38751557Y10837017D01*
X38765452Y10855843D01*
X38809310Y10981181D01*
X38812100Y11010934D01*
X38812100Y11397066D01*
X38811372Y11404827D01*
X38809311Y11426810D01*
X38809310Y11426811D01*
X38809310Y11426819D01*
X38801397Y11449431D01*
X38797837Y11519206D01*
X38830760Y11578064D01*
X38881316Y11628620D01*
X38881322Y11628628D01*
X38963631Y11767805D01*
X39006104Y11914000D01*
X36115936Y11914000D01*
X36115936Y11914641D01*
X36086145Y11912557D01*
X36077760Y11914704D01*
X36023961Y11930500D01*
X35976500Y11930500D01*
X35909461Y11950185D01*
X35863706Y12002989D01*
X35852500Y12054500D01*
X35852500Y12941695D01*
X35872185Y13008734D01*
X35924989Y13054489D01*
X35994147Y13064433D01*
X36043537Y13046011D01*
X36086171Y13018612D01*
X36111948Y13002046D01*
X36250036Y12961501D01*
X36250038Y12961500D01*
X36265440Y12961500D01*
X36332479Y12941815D01*
X36378234Y12889011D01*
X36388178Y12819853D01*
X36359153Y12756297D01*
X36353121Y12749819D01*
X36302685Y12699384D01*
X36302678Y12699375D01*
X36220368Y12560196D01*
X36177896Y12414000D01*
X36732400Y12414000D01*
X36732400Y12950000D01*
X36752085Y13017039D01*
X36804889Y13062794D01*
X36827772Y13067773D01*
X36834000Y13074000D01*
X36834000Y14332638D01*
X36853685Y14399677D01*
X36862000Y14409996D01*
X36862000Y14482000D01*
X36333210Y14482000D01*
X36334854Y14461090D01*
X36379968Y14305805D01*
X36379968Y14305804D01*
X36453884Y14180819D01*
X36471067Y14113095D01*
X36448907Y14046832D01*
X36445137Y14041706D01*
X36443269Y14039299D01*
X36433855Y14023379D01*
X36382786Y13975695D01*
X36327123Y13962500D01*
X36250036Y13962500D01*
X36111949Y13921955D01*
X36043539Y13877990D01*
X35976500Y13858306D01*
X35909460Y13877991D01*
X35863705Y13930795D01*
X35852500Y13982306D01*
X35852500Y15763376D01*
X35872185Y15830415D01*
X35924989Y15876170D01*
X35994147Y15886114D01*
X36057703Y15857089D01*
X36091853Y15808868D01*
X36094787Y15801430D01*
X36116636Y15746024D01*
X36203921Y15630922D01*
X36319024Y15543636D01*
X36353659Y15529978D01*
X36422504Y15502829D01*
X36477648Y15459924D01*
X36500841Y15394017D01*
X36484721Y15326032D01*
X36464701Y15299799D01*
X36462284Y15297383D01*
X36462278Y15297375D01*
X36379968Y15158196D01*
X36379966Y15158191D01*
X36334855Y15002919D01*
X36334854Y15002913D01*
X36333209Y14982001D01*
X36333210Y14982000D01*
X36988000Y14982000D01*
X37055039Y14962315D01*
X37100794Y14909511D01*
X37112000Y14858000D01*
X37112000Y14732000D01*
X37238000Y14732000D01*
X37305039Y14712315D01*
X37350794Y14659511D01*
X37362000Y14608000D01*
X37362000Y13871362D01*
X37342315Y13804323D01*
X37334000Y13794005D01*
X37334000Y12636000D01*
X37314315Y12568961D01*
X37261511Y12523206D01*
X37238627Y12518228D01*
X37232400Y12512000D01*
X37232400Y12414000D01*
X39006104Y12414000D01*
X38963631Y12560196D01*
X38881321Y12699375D01*
X38881314Y12699384D01*
X38766983Y12813715D01*
X38766974Y12813722D01*
X38656383Y12879125D01*
X38608699Y12930194D01*
X38596196Y12998936D01*
X38619736Y13059493D01*
X38621257Y13061554D01*
X38628381Y13071206D01*
X38649483Y13131511D01*
X38671741Y13195119D01*
X38671741Y13195121D01*
X38672268Y13200737D01*
X38674500Y13224543D01*
X38674499Y13699456D01*
X38671741Y13728879D01*
X38628381Y13852794D01*
X38577338Y13921955D01*
X38550423Y13958424D01*
X38478389Y14011587D01*
X38436139Y14067235D01*
X38430680Y14136891D01*
X38463748Y14198440D01*
X38478380Y14211119D01*
X38526999Y14247001D01*
X38605852Y14353843D01*
X38637135Y14443244D01*
X38649708Y14479174D01*
X38649708Y14479177D01*
X38649710Y14479181D01*
X38652500Y14508934D01*
X38652500Y14955066D01*
X38652441Y14955694D01*
X38649710Y14984815D01*
X38649710Y14984819D01*
X38649708Y14984823D01*
X38649708Y14984827D01*
X38602783Y15118928D01*
X38604770Y15119624D01*
X38593302Y15176035D01*
X38618609Y15241160D01*
X38675109Y15282265D01*
X38704255Y15288861D01*
X38726606Y15291144D01*
X38887481Y15344453D01*
X38887492Y15344458D01*
X39031728Y15433425D01*
X39031732Y15433428D01*
X39151572Y15553268D01*
X39151575Y15553272D01*
X39240542Y15697508D01*
X39240547Y15697519D01*
X39295986Y15864821D01*
X39297436Y15864341D01*
X39326892Y15918733D01*
X39388098Y15952431D01*
X39457806Y15947689D01*
X39513885Y15906012D01*
X39520415Y15896455D01*
X39575426Y15807269D01*
X39691535Y15691160D01*
X39725020Y15629837D01*
X39720036Y15560145D01*
X39697568Y15522277D01*
X39623433Y15436719D01*
X39623432Y15436718D01*
X39563646Y15305806D01*
X39563644Y15305804D01*
X39543163Y15163346D01*
X39563644Y15020890D01*
X39623432Y14889975D01*
X39623433Y14889973D01*
X39717682Y14781203D01*
X39838757Y14703393D01*
X39838760Y14703392D01*
X39838759Y14703392D01*
X39945917Y14671929D01*
X39974611Y14663503D01*
X39976846Y14662847D01*
X39976848Y14662846D01*
X39976849Y14662846D01*
X40120772Y14662846D01*
X40120772Y14662847D01*
X40258863Y14703393D01*
X40379938Y14781203D01*
X40474187Y14889973D01*
X40533975Y15020889D01*
X40554457Y15163346D01*
X40533975Y15305803D01*
X40532293Y15309485D01*
X40509457Y15359489D01*
X40499513Y15428647D01*
X40528538Y15492203D01*
X40587316Y15529978D01*
X40622251Y15535001D01*
X40646308Y15535001D01*
X40646322Y15535002D01*
X40745607Y15545145D01*
X40906481Y15598453D01*
X40906492Y15598458D01*
X41050728Y15687425D01*
X41050732Y15687428D01*
X41170573Y15807269D01*
X41180081Y15822683D01*
X41232029Y15869408D01*
X41300991Y15880631D01*
X41360544Y15856392D01*
X41438025Y15797636D01*
X41572410Y15744641D01*
X41656856Y15734500D01*
X41656862Y15734500D01*
X42189138Y15734500D01*
X42189144Y15734500D01*
X42273590Y15744641D01*
X42407975Y15797636D01*
X42523078Y15884922D01*
X42587625Y15970040D01*
X42643815Y16011561D01*
X42713536Y16016113D01*
X42774108Y15982794D01*
X42868616Y15888286D01*
X42868625Y15888279D01*
X43007804Y15805969D01*
X43163089Y15760855D01*
X43184000Y15759211D01*
X43184000Y16414000D01*
X43203685Y16481039D01*
X43256489Y16526794D01*
X43308000Y16538000D01*
X43560000Y16538000D01*
X43627039Y16518315D01*
G37*
%TD.AperFunction*%
%TA.AperFunction,Conductor*%
G36*
X25050539Y7878315D02*
G01*
X25096294Y7825511D01*
X25107500Y7774000D01*
X25107500Y7522000D01*
X25087815Y7454961D01*
X25035011Y7409206D01*
X24983500Y7398000D01*
X24566747Y7398000D01*
X24516996Y7370834D01*
X24490638Y7368000D01*
X22602000Y7368000D01*
X22602000Y6476000D01*
X22582315Y6408961D01*
X22529511Y6363206D01*
X22478000Y6352000D01*
X22352000Y6352000D01*
X22352000Y6226000D01*
X22332315Y6158961D01*
X22279511Y6113206D01*
X22228000Y6102000D01*
X21539156Y6102000D01*
X21579595Y5962806D01*
X21661261Y5824715D01*
X21661268Y5824706D01*
X21731742Y5754232D01*
X21765227Y5692909D01*
X21761103Y5625597D01*
X21734258Y5548879D01*
X21731500Y5519462D01*
X21731500Y5329255D01*
X21711815Y5262216D01*
X21695181Y5241574D01*
X20192426Y3738819D01*
X20131103Y3705334D01*
X20104745Y3702500D01*
X15110000Y3702500D01*
X15042961Y3722185D01*
X14997206Y3774989D01*
X14986000Y3826500D01*
X14986000Y5980500D01*
X15005685Y6047539D01*
X15058489Y6093294D01*
X15110000Y6104500D01*
X18457026Y6104500D01*
X18524064Y6084816D01*
X18554985Y6064945D01*
X18582069Y6047539D01*
X18585949Y6045046D01*
X18724036Y6004501D01*
X18724038Y6004500D01*
X18724039Y6004500D01*
X18867962Y6004500D01*
X18867962Y6004501D01*
X19006053Y6045047D01*
X19127128Y6122857D01*
X19221377Y6231627D01*
X19281165Y6362543D01*
X19295367Y6461322D01*
X19300662Y6498147D01*
X19329687Y6561703D01*
X19388465Y6599477D01*
X19423400Y6604500D01*
X20771725Y6604500D01*
X20771727Y6604500D01*
X20873588Y6631793D01*
X20964913Y6684520D01*
X21440401Y7160009D01*
X21501717Y7193490D01*
X21571409Y7188506D01*
X21627343Y7146635D01*
X21634808Y7135445D01*
X21661261Y7090715D01*
X21661268Y7090706D01*
X21679293Y7072681D01*
X21712778Y7011358D01*
X21707794Y6941666D01*
X21679293Y6897319D01*
X21661268Y6879295D01*
X21661261Y6879286D01*
X21579595Y6741195D01*
X21539156Y6602000D01*
X22102000Y6602000D01*
X22102000Y7494000D01*
X22121685Y7561039D01*
X22174489Y7606794D01*
X22226000Y7618000D01*
X22352000Y7618000D01*
X22352000Y7744000D01*
X22371685Y7811039D01*
X22424489Y7856794D01*
X22476000Y7868000D01*
X23957253Y7868000D01*
X24007004Y7895166D01*
X24033362Y7898000D01*
X24983500Y7898000D01*
X25050539Y7878315D01*
G37*
%TD.AperFunction*%
%TA.AperFunction,Conductor*%
G36*
X47323044Y13230243D02*
G01*
X47369517Y13212909D01*
X47369520Y13212909D01*
X47374303Y13211778D01*
X47433470Y13178782D01*
X47995699Y12616553D01*
X48026993Y12563814D01*
X48028834Y12557546D01*
X48028834Y12557545D01*
X48028835Y12557543D01*
X48088623Y12426627D01*
X48182872Y12317857D01*
X48303947Y12240047D01*
X48303950Y12240046D01*
X48303949Y12240046D01*
X48364017Y12222409D01*
X48439515Y12200241D01*
X48442036Y12199501D01*
X48442038Y12199500D01*
X48442039Y12199500D01*
X48585958Y12199500D01*
X48585961Y12199500D01*
X48585963Y12199501D01*
X48591847Y12200347D01*
X48661006Y12190407D01*
X48713812Y12144655D01*
X48733500Y12077616D01*
X48733500Y11667612D01*
X48713815Y11600573D01*
X48697181Y11579931D01*
X48629069Y11511819D01*
X48567746Y11478334D01*
X48541388Y11475500D01*
X47669143Y11475500D01*
X47669117Y11475498D01*
X47644012Y11472587D01*
X47644008Y11472585D01*
X47541235Y11427207D01*
X47461794Y11347766D01*
X47416415Y11244994D01*
X47416415Y11244992D01*
X47413500Y11219869D01*
X47413500Y10370144D01*
X47413502Y10370118D01*
X47416413Y10345013D01*
X47416415Y10345009D01*
X47461793Y10242236D01*
X47468288Y10232755D01*
X47465529Y10230866D01*
X47489833Y10186358D01*
X47484849Y10116666D01*
X47466658Y10088362D01*
X47468288Y10087245D01*
X47461794Y10077766D01*
X47416415Y9974994D01*
X47416415Y9974992D01*
X47413500Y9949869D01*
X47413500Y9100144D01*
X47413502Y9100118D01*
X47416413Y9075013D01*
X47416414Y9075012D01*
X47416414Y9075010D01*
X47416415Y9075009D01*
X47420618Y9065490D01*
X47424550Y9056585D01*
X47433621Y8987307D01*
X47403797Y8924122D01*
X47344547Y8887092D01*
X47311115Y8882500D01*
X47172036Y8882500D01*
X47033949Y8841955D01*
X46912873Y8764144D01*
X46818623Y8655374D01*
X46818622Y8655372D01*
X46758835Y8524459D01*
X46758834Y8524455D01*
X46754426Y8493796D01*
X46725400Y8430241D01*
X46719370Y8423765D01*
X46641523Y8345917D01*
X46641520Y8345913D01*
X46588793Y8254588D01*
X46569002Y8180727D01*
X46566362Y8170874D01*
X46561500Y8152730D01*
X46561500Y7991741D01*
X46541815Y7924702D01*
X46489011Y7878947D01*
X46419853Y7869003D01*
X46402905Y7872665D01*
X46252001Y7916507D01*
X46252000Y7916506D01*
X46252000Y7236000D01*
X46232315Y7168961D01*
X46179511Y7123206D01*
X46128000Y7112000D01*
X45876000Y7112000D01*
X45808961Y7131685D01*
X45763206Y7184489D01*
X45752000Y7236000D01*
X45752000Y7916506D01*
X45751998Y7916507D01*
X45605809Y7874035D01*
X45605806Y7874033D01*
X45466625Y7791722D01*
X45466620Y7791718D01*
X45346766Y7671862D01*
X45345593Y7673035D01*
X45296481Y7637582D01*
X45226713Y7633807D01*
X45167488Y7666817D01*
X45153732Y7680573D01*
X45153728Y7680576D01*
X45009492Y7769543D01*
X45009481Y7769548D01*
X44848606Y7822856D01*
X44749322Y7833000D01*
X44726000Y7833000D01*
X44726000Y6982000D01*
X44706315Y6914961D01*
X44653511Y6869206D01*
X44602000Y6858000D01*
X44350000Y6858000D01*
X44282961Y6877685D01*
X44237206Y6930489D01*
X44226000Y6982000D01*
X44226000Y7833001D01*
X44202693Y7833000D01*
X44202674Y7832999D01*
X44103392Y7822856D01*
X43942518Y7769548D01*
X43942507Y7769543D01*
X43798271Y7680576D01*
X43798267Y7680573D01*
X43678427Y7560733D01*
X43678422Y7560727D01*
X43668914Y7545312D01*
X43616964Y7498590D01*
X43548001Y7487371D01*
X43488454Y7511610D01*
X43404218Y7575488D01*
X43405726Y7577478D01*
X43365930Y7618285D01*
X43351500Y7676341D01*
X43351500Y9605923D01*
X43362706Y9657435D01*
X43379385Y9693956D01*
X43411165Y9763543D01*
X43431647Y9906000D01*
X43426716Y9940294D01*
X43436659Y10009449D01*
X43441222Y10014716D01*
X43410250Y10050460D01*
X43393451Y10087245D01*
X43351377Y10179373D01*
X43257128Y10288143D01*
X43136053Y10365953D01*
X43136051Y10365954D01*
X43136049Y10365955D01*
X43136050Y10365955D01*
X42997963Y10406500D01*
X42997961Y10406500D01*
X42854039Y10406500D01*
X42854036Y10406500D01*
X42715949Y10365955D01*
X42594873Y10288144D01*
X42500623Y10179374D01*
X42500622Y10179372D01*
X42440834Y10048457D01*
X42420353Y9906000D01*
X42440834Y9763544D01*
X42489294Y9657435D01*
X42500500Y9605923D01*
X42500500Y8784255D01*
X42480815Y8717216D01*
X42428011Y8671461D01*
X42358853Y8661517D01*
X42295297Y8690542D01*
X42288819Y8696574D01*
X42025065Y8960328D01*
X41991580Y9021651D01*
X41992712Y9065490D01*
X41990510Y9065745D01*
X41991585Y9075013D01*
X41994500Y9100135D01*
X41994499Y9949864D01*
X41994497Y9949883D01*
X41991586Y9974988D01*
X41991585Y9974990D01*
X41991585Y9974991D01*
X41946206Y10077765D01*
X41946205Y10077766D01*
X41939712Y10087245D01*
X41942470Y10089135D01*
X41918167Y10133642D01*
X41923151Y10203334D01*
X41941341Y10231639D01*
X41939712Y10232755D01*
X41946202Y10242232D01*
X41946206Y10242235D01*
X41991585Y10345009D01*
X41994500Y10370135D01*
X41994499Y11219864D01*
X41993729Y11226501D01*
X42005554Y11295361D01*
X42029218Y11328472D01*
X43509318Y12808571D01*
X43570641Y12842056D01*
X43640333Y12837072D01*
X43696266Y12795200D01*
X43720683Y12729736D01*
X43720999Y12720890D01*
X43720999Y10453989D01*
X43709793Y10402478D01*
X43661335Y10296371D01*
X43661333Y10296363D01*
X43640852Y10153910D01*
X43645782Y10119618D01*
X43635838Y10050460D01*
X43631275Y10045195D01*
X43662248Y10009452D01*
X43662248Y10009451D01*
X43709493Y9906000D01*
X43721122Y9880537D01*
X43815371Y9771767D01*
X43936446Y9693957D01*
X43936449Y9693956D01*
X43936448Y9693956D01*
X44074535Y9653411D01*
X44074537Y9653410D01*
X44074538Y9653410D01*
X44218461Y9653410D01*
X44218461Y9653411D01*
X44325620Y9684875D01*
X44356549Y9693956D01*
X44356549Y9693957D01*
X44356552Y9693957D01*
X44477627Y9771767D01*
X44571876Y9880537D01*
X44631664Y10011453D01*
X44652146Y10153910D01*
X44631664Y10296367D01*
X44608258Y10347619D01*
X44583205Y10402478D01*
X44571999Y10453989D01*
X44571999Y11834775D01*
X44591684Y11901814D01*
X44644488Y11947569D01*
X44713646Y11957513D01*
X44730933Y11953752D01*
X44759036Y11945501D01*
X44759038Y11945500D01*
X44759039Y11945500D01*
X44902962Y11945500D01*
X44902962Y11945501D01*
X45041053Y11986047D01*
X45162128Y12063857D01*
X45256377Y12172627D01*
X45316165Y12303543D01*
X45316165Y12303548D01*
X45318002Y12309800D01*
X45349298Y12362552D01*
X45538488Y12551742D01*
X45599809Y12585225D01*
X45669501Y12580241D01*
X45725434Y12538369D01*
X45738961Y12515571D01*
X45763566Y12461694D01*
X45786805Y12410809D01*
X45881054Y12302039D01*
X46002129Y12224229D01*
X46002132Y12224228D01*
X46002131Y12224228D01*
X46086346Y12199501D01*
X46117317Y12190407D01*
X46140218Y12183683D01*
X46140220Y12183682D01*
X46140221Y12183682D01*
X46284144Y12183682D01*
X46284144Y12183683D01*
X46422235Y12224229D01*
X46543310Y12302039D01*
X46637559Y12410809D01*
X46697347Y12541725D01*
X46697348Y12541733D01*
X46699184Y12547983D01*
X46730482Y12600735D01*
X46888297Y12758550D01*
X47076485Y12946737D01*
X47132503Y13043763D01*
X47159939Y13146157D01*
X47196301Y13205813D01*
X47259148Y13236343D01*
X47323044Y13230243D01*
G37*
%TD.AperFunction*%
%TA.AperFunction,Conductor*%
G36*
X28897416Y9340505D02*
G01*
X29916181Y8321740D01*
X29949666Y8260417D01*
X29952500Y8234059D01*
X29952500Y7917961D01*
X29932815Y7850922D01*
X29902134Y7818191D01*
X29868004Y7793002D01*
X29868001Y7792999D01*
X29789147Y7686156D01*
X29745291Y7560827D01*
X29745289Y7560815D01*
X29742500Y7531071D01*
X29742500Y7144930D01*
X29745289Y7115186D01*
X29745290Y7115178D01*
X29753200Y7092574D01*
X29756761Y7022795D01*
X29723841Y6963940D01*
X29667766Y6907863D01*
X29665498Y6910131D01*
X29620791Y6877869D01*
X29551023Y6874106D01*
X29490296Y6908661D01*
X29457891Y6970561D01*
X29455500Y6994792D01*
X29455500Y7100627D01*
X29455500Y7100629D01*
X29428207Y7202489D01*
X29375480Y7293815D01*
X29300913Y7368382D01*
X29104149Y7565146D01*
X28905916Y7763380D01*
X28887522Y7774000D01*
X28882495Y7776903D01*
X28834282Y7827470D01*
X28820499Y7884288D01*
X28820499Y7887759D01*
X28820499Y7887766D01*
X28819606Y7895469D01*
X28817586Y7912890D01*
X28817585Y7912892D01*
X28817585Y7912893D01*
X28772206Y8015667D01*
X28692765Y8095108D01*
X28658886Y8110067D01*
X28589992Y8140487D01*
X28564868Y8143402D01*
X28564865Y8143402D01*
X28450256Y8143402D01*
X28383217Y8163087D01*
X28362575Y8179721D01*
X28102819Y8439477D01*
X28069334Y8500800D01*
X28066500Y8527158D01*
X28066500Y9119792D01*
X28086185Y9186831D01*
X28138989Y9232586D01*
X28208147Y9242530D01*
X28225429Y9238771D01*
X28273958Y9224521D01*
X28311141Y9213603D01*
X28311142Y9213603D01*
X28455065Y9213603D01*
X28455065Y9213604D01*
X28593156Y9254150D01*
X28714231Y9331960D01*
X28715248Y9333135D01*
X28716020Y9334024D01*
X28718319Y9335502D01*
X28720936Y9337769D01*
X28721261Y9337393D01*
X28774797Y9371800D01*
X28844667Y9371802D01*
X28897416Y9340505D01*
G37*
%TD.AperFunction*%
%TA.AperFunction,Conductor*%
G36*
X26613039Y7673217D02*
G01*
X26658794Y7620413D01*
X26670000Y7568902D01*
X26670000Y7316902D01*
X26650315Y7249863D01*
X26597511Y7204108D01*
X26546000Y7192902D01*
X26432500Y7192902D01*
X26365461Y7212587D01*
X26319706Y7265391D01*
X26308500Y7316902D01*
X26308500Y7568902D01*
X26328185Y7635941D01*
X26380989Y7681696D01*
X26432500Y7692902D01*
X26546000Y7692902D01*
X26613039Y7673217D01*
G37*
%TD.AperFunction*%
%TA.AperFunction,Conductor*%
G36*
X27970459Y14431485D02*
G01*
X27998491Y14417780D01*
X28018095Y14414924D01*
X28081595Y14385783D01*
X28119261Y14326935D01*
X28122924Y14310095D01*
X28125779Y14290492D01*
X28139484Y14262457D01*
X28151241Y14193584D01*
X28139484Y14153543D01*
X28125781Y14125512D01*
X28125780Y14125509D01*
X28115500Y14054949D01*
X28115500Y14054945D01*
X28115500Y14054944D01*
X28115500Y13954308D01*
X28095815Y13887269D01*
X28043011Y13841514D01*
X27973853Y13831570D01*
X27923761Y13854446D01*
X27916000Y13854446D01*
X27769554Y13708000D01*
X27916000Y13561554D01*
X27926125Y13561554D01*
X27965139Y13582859D01*
X28034831Y13577876D01*
X28090766Y13536005D01*
X28115184Y13470542D01*
X28115500Y13461694D01*
X28115500Y13361050D01*
X28125779Y13290493D01*
X28125779Y13290492D01*
X28139484Y13262457D01*
X28151241Y13193584D01*
X28139484Y13153543D01*
X28131762Y13137746D01*
X28125780Y13125509D01*
X28115500Y13054949D01*
X28115500Y13054945D01*
X28115500Y13054944D01*
X28115500Y12954308D01*
X28095815Y12887269D01*
X28043011Y12841514D01*
X27973853Y12831570D01*
X27923761Y12854446D01*
X27916000Y12854446D01*
X27769554Y12708000D01*
X27916000Y12561554D01*
X27926125Y12561554D01*
X27965139Y12582859D01*
X28034831Y12577876D01*
X28090766Y12536005D01*
X28115184Y12470542D01*
X28115500Y12461694D01*
X28115500Y12361050D01*
X28125779Y12290493D01*
X28125779Y12290492D01*
X28139484Y12262457D01*
X28151241Y12193584D01*
X28139484Y12153543D01*
X28125781Y12125512D01*
X28125778Y12125504D01*
X28122923Y12105903D01*
X28093779Y12042402D01*
X28034930Y12004738D01*
X28018094Y12001076D01*
X27998492Y11998221D01*
X27998491Y11998221D01*
X27970457Y11984516D01*
X27901584Y11972759D01*
X27861543Y11984516D01*
X27833511Y11998219D01*
X27833509Y11998220D01*
X27833495Y11998222D01*
X27762949Y12008500D01*
X27762943Y12008500D01*
X27662307Y12008500D01*
X27595268Y12028185D01*
X27549513Y12080989D01*
X27539569Y12150147D01*
X27562446Y12200241D01*
X27562446Y12208000D01*
X27542555Y12227891D01*
X27816000Y12227891D01*
X27816000Y12188109D01*
X27831224Y12151355D01*
X27859355Y12123224D01*
X27896109Y12108000D01*
X27935891Y12108000D01*
X27972645Y12123224D01*
X28000776Y12151355D01*
X28016000Y12188109D01*
X28016000Y12227891D01*
X28000776Y12264645D01*
X27972645Y12292776D01*
X27935891Y12308000D01*
X27896109Y12308000D01*
X27859355Y12292776D01*
X27831224Y12264645D01*
X27816000Y12227891D01*
X27542555Y12227891D01*
X27416000Y12354446D01*
X27269554Y12208000D01*
X27269554Y12197874D01*
X27290858Y12158858D01*
X27285874Y12089166D01*
X27244002Y12033233D01*
X27178538Y12008816D01*
X27169693Y12008500D01*
X27069049Y12008500D01*
X26998492Y11998221D01*
X26998491Y11998221D01*
X26970457Y11984516D01*
X26901584Y11972759D01*
X26861543Y11984516D01*
X26833511Y11998219D01*
X26833509Y11998220D01*
X26833495Y11998222D01*
X26762949Y12008500D01*
X26762943Y12008500D01*
X26662307Y12008500D01*
X26595268Y12028185D01*
X26549513Y12080989D01*
X26539569Y12150147D01*
X26562446Y12200241D01*
X26562446Y12208000D01*
X26542555Y12227891D01*
X26816000Y12227891D01*
X26816000Y12188109D01*
X26831224Y12151355D01*
X26859355Y12123224D01*
X26896109Y12108000D01*
X26935891Y12108000D01*
X26972645Y12123224D01*
X27000776Y12151355D01*
X27016000Y12188109D01*
X27016000Y12227891D01*
X27000776Y12264645D01*
X26972645Y12292776D01*
X26935891Y12308000D01*
X26896109Y12308000D01*
X26859355Y12292776D01*
X26831224Y12264645D01*
X26816000Y12227891D01*
X26542555Y12227891D01*
X26416000Y12354446D01*
X26269554Y12208000D01*
X26269554Y12197874D01*
X26290858Y12158858D01*
X26285874Y12089166D01*
X26244002Y12033233D01*
X26178538Y12008816D01*
X26169693Y12008500D01*
X26069049Y12008500D01*
X25998492Y11998221D01*
X25998491Y11998221D01*
X25970457Y11984516D01*
X25901584Y11972759D01*
X25861543Y11984516D01*
X25833511Y11998219D01*
X25833509Y11998220D01*
X25833507Y11998221D01*
X25833503Y11998222D01*
X25813903Y12001077D01*
X25750402Y12030221D01*
X25712738Y12089070D01*
X25709076Y12105906D01*
X25706553Y12123224D01*
X25706220Y12125509D01*
X25692516Y12153540D01*
X25680756Y12222409D01*
X25682366Y12227891D01*
X25816000Y12227891D01*
X25816000Y12188109D01*
X25831224Y12151355D01*
X25859355Y12123224D01*
X25896109Y12108000D01*
X25935891Y12108000D01*
X25972645Y12123224D01*
X26000776Y12151355D01*
X26016000Y12188109D01*
X26016000Y12227891D01*
X26000776Y12264645D01*
X25972645Y12292776D01*
X25935891Y12308000D01*
X25896109Y12308000D01*
X25859355Y12292776D01*
X25831224Y12264645D01*
X25816000Y12227891D01*
X25682366Y12227891D01*
X25692515Y12262460D01*
X25706220Y12290491D01*
X25716500Y12361051D01*
X25716499Y12461694D01*
X25736183Y12528731D01*
X25788986Y12574487D01*
X25858145Y12584431D01*
X25908240Y12561554D01*
X25916000Y12561554D01*
X26062446Y12708000D01*
X26769554Y12708000D01*
X26916000Y12561554D01*
X27062446Y12708000D01*
X26916000Y12854446D01*
X26769554Y12708000D01*
X26062446Y12708000D01*
X25916000Y12854446D01*
X25905873Y12854446D01*
X25866855Y12833141D01*
X25797163Y12838127D01*
X25741230Y12880000D01*
X25716815Y12945465D01*
X25716499Y12954294D01*
X25716499Y13054948D01*
X25715117Y13064433D01*
X25708771Y13108000D01*
X25706220Y13125509D01*
X25692516Y13153540D01*
X25680756Y13222409D01*
X25682366Y13227891D01*
X25816000Y13227891D01*
X25816000Y13188109D01*
X25831224Y13151355D01*
X25859355Y13123224D01*
X25896109Y13108000D01*
X25935891Y13108000D01*
X25972645Y13123224D01*
X26000776Y13151355D01*
X26016000Y13188109D01*
X26016000Y13208000D01*
X26269554Y13208000D01*
X26416000Y13061554D01*
X26562446Y13208000D01*
X26542555Y13227891D01*
X26816000Y13227891D01*
X26816000Y13188109D01*
X26831224Y13151355D01*
X26859355Y13123224D01*
X26896109Y13108000D01*
X26935891Y13108000D01*
X26972645Y13123224D01*
X27000776Y13151355D01*
X27016000Y13188109D01*
X27016000Y13208000D01*
X27269554Y13208000D01*
X27416000Y13061554D01*
X27562446Y13208000D01*
X27542555Y13227891D01*
X27816000Y13227891D01*
X27816000Y13188109D01*
X27831224Y13151355D01*
X27859355Y13123224D01*
X27896109Y13108000D01*
X27935891Y13108000D01*
X27972645Y13123224D01*
X28000776Y13151355D01*
X28016000Y13188109D01*
X28016000Y13227891D01*
X28000776Y13264645D01*
X27972645Y13292776D01*
X27935891Y13308000D01*
X27896109Y13308000D01*
X27859355Y13292776D01*
X27831224Y13264645D01*
X27816000Y13227891D01*
X27542555Y13227891D01*
X27416000Y13354446D01*
X27269554Y13208000D01*
X27016000Y13208000D01*
X27016000Y13227891D01*
X27000776Y13264645D01*
X26972645Y13292776D01*
X26935891Y13308000D01*
X26896109Y13308000D01*
X26859355Y13292776D01*
X26831224Y13264645D01*
X26816000Y13227891D01*
X26542555Y13227891D01*
X26416000Y13354446D01*
X26269554Y13208000D01*
X26016000Y13208000D01*
X26016000Y13227891D01*
X26000776Y13264645D01*
X25972645Y13292776D01*
X25935891Y13308000D01*
X25896109Y13308000D01*
X25859355Y13292776D01*
X25831224Y13264645D01*
X25816000Y13227891D01*
X25682366Y13227891D01*
X25692515Y13262460D01*
X25706220Y13290491D01*
X25716500Y13361051D01*
X25716499Y13461694D01*
X25736183Y13528731D01*
X25788986Y13574487D01*
X25858145Y13584431D01*
X25908240Y13561554D01*
X25916000Y13561554D01*
X26062446Y13708000D01*
X26769554Y13708000D01*
X26916000Y13561554D01*
X27062446Y13708000D01*
X26916000Y13854446D01*
X26769554Y13708000D01*
X26062446Y13708000D01*
X25916000Y13854446D01*
X25905873Y13854446D01*
X25866855Y13833141D01*
X25797163Y13838127D01*
X25741230Y13880000D01*
X25716815Y13945465D01*
X25716499Y13954294D01*
X25716499Y14054948D01*
X25712485Y14082499D01*
X25706553Y14123224D01*
X25706220Y14125509D01*
X25692516Y14153540D01*
X25680756Y14222409D01*
X25682366Y14227891D01*
X25816000Y14227891D01*
X25816000Y14188109D01*
X25831224Y14151355D01*
X25859355Y14123224D01*
X25896109Y14108000D01*
X25935891Y14108000D01*
X25972645Y14123224D01*
X26000776Y14151355D01*
X26016000Y14188109D01*
X26016000Y14227891D01*
X26000776Y14264645D01*
X25972645Y14292776D01*
X25935891Y14308000D01*
X25896109Y14308000D01*
X25859355Y14292776D01*
X25831224Y14264645D01*
X25816000Y14227891D01*
X25682366Y14227891D01*
X25692515Y14262460D01*
X25706220Y14290491D01*
X25709076Y14310096D01*
X25738217Y14373595D01*
X25797065Y14411261D01*
X25813905Y14414924D01*
X25819622Y14415758D01*
X25833509Y14417780D01*
X25861539Y14431484D01*
X25930409Y14443244D01*
X25970459Y14431485D01*
X25998491Y14417780D01*
X26069051Y14407500D01*
X26169692Y14407501D01*
X26236730Y14387817D01*
X26282486Y14335014D01*
X26292430Y14265855D01*
X26269554Y14215762D01*
X26269554Y14208000D01*
X26416000Y14061554D01*
X26562446Y14208000D01*
X26562446Y14218126D01*
X26557114Y14227891D01*
X26816000Y14227891D01*
X26816000Y14188109D01*
X26831224Y14151355D01*
X26859355Y14123224D01*
X26896109Y14108000D01*
X26935891Y14108000D01*
X26972645Y14123224D01*
X27000776Y14151355D01*
X27016000Y14188109D01*
X27016000Y14227891D01*
X27000776Y14264645D01*
X26972645Y14292776D01*
X26935891Y14308000D01*
X26896109Y14308000D01*
X26859355Y14292776D01*
X26831224Y14264645D01*
X26816000Y14227891D01*
X26557114Y14227891D01*
X26541141Y14257143D01*
X26546125Y14326835D01*
X26587997Y14382768D01*
X26653461Y14407185D01*
X26662292Y14407501D01*
X26762948Y14407501D01*
X26762950Y14407501D01*
X26791172Y14411613D01*
X26833509Y14417780D01*
X26861539Y14431484D01*
X26930409Y14443244D01*
X26970459Y14431485D01*
X26998491Y14417780D01*
X27069051Y14407500D01*
X27169692Y14407501D01*
X27236730Y14387817D01*
X27282486Y14335014D01*
X27292430Y14265855D01*
X27269554Y14215762D01*
X27269554Y14208000D01*
X27416000Y14061554D01*
X27562446Y14208000D01*
X27562446Y14218126D01*
X27557114Y14227891D01*
X27816000Y14227891D01*
X27816000Y14188109D01*
X27831224Y14151355D01*
X27859355Y14123224D01*
X27896109Y14108000D01*
X27935891Y14108000D01*
X27972645Y14123224D01*
X28000776Y14151355D01*
X28016000Y14188109D01*
X28016000Y14227891D01*
X28000776Y14264645D01*
X27972645Y14292776D01*
X27935891Y14308000D01*
X27896109Y14308000D01*
X27859355Y14292776D01*
X27831224Y14264645D01*
X27816000Y14227891D01*
X27557114Y14227891D01*
X27541141Y14257143D01*
X27546125Y14326835D01*
X27587997Y14382768D01*
X27653461Y14407185D01*
X27662292Y14407501D01*
X27762948Y14407501D01*
X27762950Y14407501D01*
X27791172Y14411613D01*
X27833509Y14417780D01*
X27861539Y14431484D01*
X27930409Y14443244D01*
X27970459Y14431485D01*
G37*
%TD.AperFunction*%
%TA.AperFunction,Conductor*%
G36*
X33273039Y13184315D02*
G01*
X33318794Y13131511D01*
X33330000Y13080000D01*
X33330000Y12828000D01*
X33310315Y12760961D01*
X33257511Y12715206D01*
X33206000Y12704000D01*
X32384000Y12704000D01*
X32316961Y12723685D01*
X32271206Y12776489D01*
X32260000Y12828000D01*
X32260000Y13080000D01*
X32279685Y13147039D01*
X32332489Y13192794D01*
X32384000Y13204000D01*
X33206000Y13204000D01*
X33273039Y13184315D01*
G37*
%TD.AperFunction*%
%TA.AperFunction,Conductor*%
G36*
X16514318Y24879815D02*
G01*
X16560073Y24827011D01*
X16570637Y24762897D01*
X16563000Y24688151D01*
X16563000Y24634000D01*
X17376500Y24634000D01*
X17443539Y24614315D01*
X17489294Y24561511D01*
X17500500Y24510000D01*
X17500500Y24384000D01*
X17626500Y24384000D01*
X17693539Y24364315D01*
X17739294Y24311511D01*
X17750500Y24260000D01*
X17750500Y21377001D01*
X17767136Y21377001D01*
X17767152Y21377002D01*
X17865583Y21387057D01*
X18025072Y21439907D01*
X18025077Y21439909D01*
X18168080Y21528115D01*
X18185643Y21545678D01*
X27218001Y21545678D01*
X27228144Y21446393D01*
X27281452Y21285519D01*
X27281457Y21285508D01*
X27370424Y21141272D01*
X27370427Y21141268D01*
X27490267Y21021428D01*
X27490271Y21021425D01*
X27634507Y20932458D01*
X27634518Y20932453D01*
X27795393Y20879145D01*
X27894683Y20869001D01*
X27918000Y20869002D01*
X27918000Y21594000D01*
X27218001Y21594000D01*
X27218001Y21545678D01*
X18185643Y21545678D01*
X18286887Y21646922D01*
X18311574Y21686946D01*
X18363521Y21733671D01*
X18432483Y21744894D01*
X18492038Y21720654D01*
X18589272Y21646920D01*
X18599868Y21638885D01*
X18732654Y21586521D01*
X18816098Y21576500D01*
X19334902Y21576500D01*
X19418346Y21586521D01*
X19551132Y21638885D01*
X19664867Y21725133D01*
X19751115Y21838868D01*
X19764570Y21872991D01*
X19807476Y21928133D01*
X19873383Y21951327D01*
X19879925Y21951500D01*
X20244184Y21951500D01*
X20311223Y21931815D01*
X20343954Y21901134D01*
X20377577Y21855577D01*
X20483206Y21777619D01*
X20500662Y21771511D01*
X20607119Y21734259D01*
X20613391Y21733671D01*
X20636543Y21731500D01*
X21011456Y21731501D01*
X21040879Y21734259D01*
X21164794Y21777619D01*
X21260367Y21848156D01*
X21325995Y21872126D01*
X21394165Y21856811D01*
X21407629Y21848158D01*
X21503206Y21777619D01*
X21520662Y21771511D01*
X21627119Y21734259D01*
X21633391Y21733671D01*
X21656543Y21731500D01*
X22031456Y21731501D01*
X22060879Y21734259D01*
X22184794Y21777619D01*
X22290423Y21855577D01*
X22368381Y21961206D01*
X22398699Y22047848D01*
X22411741Y22085119D01*
X22411741Y22085121D01*
X22411741Y22085126D01*
X22414500Y22114543D01*
X22414499Y22589456D01*
X22411741Y22618879D01*
X22409880Y22624196D01*
X22392967Y22672531D01*
X22368381Y22742794D01*
X22323924Y22803031D01*
X22290423Y22848424D01*
X22211039Y22907011D01*
X22184794Y22926381D01*
X22184792Y22926382D01*
X22060880Y22969742D01*
X22031461Y22972500D01*
X21656546Y22972500D01*
X21627125Y22969742D01*
X21627115Y22969740D01*
X21503205Y22926381D01*
X21503204Y22926381D01*
X21407633Y22855846D01*
X21342004Y22831875D01*
X21273834Y22847191D01*
X21260367Y22855846D01*
X21164794Y22926381D01*
X21040880Y22969742D01*
X21011461Y22972500D01*
X20636546Y22972500D01*
X20607125Y22969742D01*
X20607115Y22969740D01*
X20483207Y22926382D01*
X20377577Y22848423D01*
X20377574Y22848420D01*
X20343954Y22802866D01*
X20288306Y22760616D01*
X20244184Y22752500D01*
X19879925Y22752500D01*
X19812886Y22772185D01*
X19767131Y22824989D01*
X19764570Y22831011D01*
X19764326Y22831630D01*
X19751115Y22865132D01*
X19751113Y22865135D01*
X19664867Y22978868D01*
X19551134Y23065114D01*
X19551132Y23065115D01*
X19418346Y23117479D01*
X19418345Y23117480D01*
X19418343Y23117480D01*
X19334902Y23127500D01*
X18816098Y23127500D01*
X18732656Y23117480D01*
X18732655Y23117480D01*
X18677431Y23095702D01*
X18599868Y23065115D01*
X18599867Y23065115D01*
X18599866Y23065114D01*
X18492037Y22983346D01*
X18426726Y22958524D01*
X18358362Y22972953D01*
X18311574Y23017054D01*
X18286885Y23057081D01*
X18168080Y23175886D01*
X18027720Y23262461D01*
X17980996Y23314409D01*
X17969774Y23383372D01*
X17997617Y23447454D01*
X18027720Y23473539D01*
X18168080Y23560115D01*
X18286887Y23678922D01*
X18311574Y23718946D01*
X18363521Y23765671D01*
X18432483Y23776894D01*
X18492038Y23752654D01*
X18599865Y23670887D01*
X18599868Y23670885D01*
X18732654Y23618521D01*
X18816098Y23608500D01*
X19334902Y23608500D01*
X19418346Y23618521D01*
X19551132Y23670885D01*
X19650587Y23746304D01*
X19715898Y23771127D01*
X19725512Y23771500D01*
X20246184Y23771500D01*
X20313223Y23751815D01*
X20345954Y23721134D01*
X20379577Y23675577D01*
X20485206Y23597619D01*
X20526511Y23583166D01*
X20609119Y23554259D01*
X20616796Y23553540D01*
X20638543Y23551500D01*
X21013456Y23551501D01*
X21042879Y23554259D01*
X21166794Y23597619D01*
X21262367Y23668156D01*
X21327995Y23692126D01*
X21396165Y23676811D01*
X21409629Y23668158D01*
X21505206Y23597619D01*
X21546511Y23583166D01*
X21629119Y23554259D01*
X21636796Y23553540D01*
X21658543Y23551500D01*
X22033456Y23551501D01*
X22062879Y23554259D01*
X22186794Y23597619D01*
X22292423Y23675577D01*
X22370381Y23781206D01*
X22392061Y23843164D01*
X22413741Y23905119D01*
X22413741Y23905121D01*
X22416500Y23934543D01*
X22416499Y24409456D01*
X22413741Y24438879D01*
X22370381Y24562794D01*
X22292423Y24668423D01*
X22292422Y24668424D01*
X22282523Y24675730D01*
X22240272Y24731378D01*
X22234815Y24801034D01*
X22267882Y24862584D01*
X22328976Y24896484D01*
X22356157Y24899500D01*
X23926000Y24899500D01*
X23993039Y24879815D01*
X24038794Y24827011D01*
X24050000Y24775500D01*
X24050000Y24380000D01*
X24966988Y24380000D01*
X24934075Y24322993D01*
X24900000Y24195826D01*
X24900000Y24064174D01*
X24934075Y23937007D01*
X24966988Y23880000D01*
X24050000Y23880000D01*
X24050000Y23232156D01*
X24056401Y23172628D01*
X24056403Y23172621D01*
X24106645Y23037914D01*
X24106649Y23037907D01*
X24192809Y22922813D01*
X24192812Y22922810D01*
X24307906Y22836650D01*
X24307913Y22836646D01*
X24442620Y22786404D01*
X24442627Y22786402D01*
X24502155Y22780001D01*
X24502172Y22780000D01*
X25150000Y22780000D01*
X25150000Y23696988D01*
X25207007Y23664075D01*
X25334174Y23630000D01*
X25465826Y23630000D01*
X25592993Y23664075D01*
X25650000Y23696988D01*
X25650000Y22780000D01*
X26297828Y22780000D01*
X26297844Y22780001D01*
X26357372Y22786402D01*
X26357379Y22786404D01*
X26492086Y22836646D01*
X26492093Y22836650D01*
X26607187Y22922810D01*
X26607190Y22922813D01*
X26693350Y23037907D01*
X26693354Y23037914D01*
X26743596Y23172621D01*
X26743598Y23172628D01*
X26749999Y23232156D01*
X26750000Y23232173D01*
X26750000Y23426732D01*
X26769685Y23493771D01*
X26822489Y23539526D01*
X26891647Y23549470D01*
X26955203Y23520445D01*
X26972950Y23501463D01*
X27033268Y23421590D01*
X27084318Y23353989D01*
X27086128Y23351593D01*
X27243698Y23207948D01*
X27424981Y23095702D01*
X27623802Y23018679D01*
X27665697Y23010848D01*
X27727976Y22979182D01*
X27763250Y22918870D01*
X27760317Y22849062D01*
X27720109Y22791921D01*
X27681917Y22771255D01*
X27634522Y22755550D01*
X27634507Y22755543D01*
X27490271Y22666576D01*
X27490267Y22666573D01*
X27370427Y22546733D01*
X27370424Y22546729D01*
X27281457Y22402493D01*
X27281452Y22402482D01*
X27228144Y22241607D01*
X27218000Y22142323D01*
X27218000Y22094000D01*
X28044000Y22094000D01*
X28111039Y22074315D01*
X28156794Y22021511D01*
X28168000Y21970000D01*
X28168000Y21844000D01*
X28294000Y21844000D01*
X28361039Y21824315D01*
X28406794Y21771511D01*
X28418000Y21720000D01*
X28418000Y20869001D01*
X28441308Y20869001D01*
X28441322Y20869002D01*
X28540607Y20879145D01*
X28701481Y20932453D01*
X28701492Y20932458D01*
X28845728Y21021425D01*
X28845732Y21021428D01*
X28965573Y21141269D01*
X28975081Y21156683D01*
X29027029Y21203408D01*
X29095991Y21214631D01*
X29155544Y21190392D01*
X29233025Y21131636D01*
X29367410Y21078641D01*
X29451856Y21068500D01*
X29451862Y21068500D01*
X29936897Y21068500D01*
X30003936Y21048815D01*
X30049691Y20996011D01*
X30059635Y20926853D01*
X30043730Y20884211D01*
X30043978Y20884098D01*
X30042399Y20880642D01*
X30041214Y20877463D01*
X30040294Y20876032D01*
X29980505Y20745115D01*
X29960024Y20602658D01*
X29980505Y20460202D01*
X30017479Y20379242D01*
X30040294Y20329285D01*
X30134543Y20220515D01*
X30173714Y20195342D01*
X30219469Y20142538D01*
X30229414Y20073388D01*
X30228353Y20066005D01*
X30228353Y20066001D01*
X30248834Y19923544D01*
X30302967Y19805011D01*
X30308623Y19792627D01*
X30402872Y19683857D01*
X30523947Y19606047D01*
X30523950Y19606046D01*
X30523949Y19606046D01*
X30662036Y19565501D01*
X30662038Y19565500D01*
X30662039Y19565500D01*
X30805962Y19565500D01*
X30805962Y19565501D01*
X30944053Y19606047D01*
X31065128Y19683857D01*
X31159377Y19792627D01*
X31219165Y19923543D01*
X31239647Y20066000D01*
X31219165Y20208457D01*
X31159377Y20339373D01*
X31065128Y20448143D01*
X31046364Y20460202D01*
X31025954Y20473319D01*
X30980200Y20526124D01*
X30970257Y20595281D01*
X30971318Y20602658D01*
X30950836Y20745115D01*
X30891048Y20876031D01*
X30796799Y20984801D01*
X30675724Y21062611D01*
X30675722Y21062612D01*
X30675720Y21062613D01*
X30675721Y21062613D01*
X30537634Y21103158D01*
X30537632Y21103158D01*
X30479946Y21103158D01*
X30412907Y21122843D01*
X30367152Y21175647D01*
X30357208Y21244805D01*
X30381142Y21302083D01*
X30405363Y21334024D01*
X30405362Y21334024D01*
X30405364Y21334025D01*
X30458359Y21468410D01*
X30468500Y21552856D01*
X30468500Y21806500D01*
X30488185Y21873539D01*
X30540989Y21919294D01*
X30592500Y21930500D01*
X33756000Y21930500D01*
X33823039Y21910815D01*
X33868794Y21858011D01*
X33880000Y21806500D01*
X33880000Y19644000D01*
X33860315Y19576961D01*
X33837471Y19557167D01*
X33838319Y19556319D01*
X33802000Y19520000D01*
X33802000Y18494000D01*
X33782315Y18426961D01*
X33729511Y18381206D01*
X33678000Y18370000D01*
X33552000Y18370000D01*
X33552000Y18244000D01*
X33532315Y18176961D01*
X33479511Y18131206D01*
X33428000Y18120000D01*
X32602000Y18120000D01*
X32602000Y17908500D01*
X32582315Y17841461D01*
X32529511Y17795706D01*
X32478000Y17784500D01*
X31680273Y17784500D01*
X31601518Y17763398D01*
X31531668Y17765061D01*
X31473806Y17804224D01*
X31456631Y17831661D01*
X31450032Y17846110D01*
X31413377Y17926373D01*
X31413375Y17926375D01*
X31413374Y17926378D01*
X31356002Y17992589D01*
X31326977Y18056145D01*
X31336921Y18125303D01*
X31336922Y18125305D01*
X31338746Y18129299D01*
X31346165Y18145543D01*
X31366647Y18288000D01*
X31346165Y18430457D01*
X31286377Y18561373D01*
X31192128Y18670143D01*
X31071053Y18747953D01*
X31071051Y18747954D01*
X31071049Y18747955D01*
X31071050Y18747955D01*
X30932963Y18788500D01*
X30932961Y18788500D01*
X30789039Y18788500D01*
X30789036Y18788500D01*
X30650950Y18747955D01*
X30650948Y18747955D01*
X30589064Y18708184D01*
X30522026Y18688500D01*
X30423079Y18688500D01*
X30356040Y18708185D01*
X30310285Y18760989D01*
X30300341Y18830147D01*
X30310285Y18864011D01*
X30322183Y18890066D01*
X30330165Y18907543D01*
X30350647Y19050000D01*
X30348081Y19067845D01*
X32602000Y19067845D01*
X32602000Y18620000D01*
X33302000Y18620000D01*
X33302000Y19520000D01*
X33054155Y19520000D01*
X32994627Y19513599D01*
X32994620Y19513597D01*
X32859913Y19463355D01*
X32859906Y19463351D01*
X32744812Y19377191D01*
X32744809Y19377188D01*
X32658649Y19262094D01*
X32658645Y19262087D01*
X32608403Y19127380D01*
X32608401Y19127373D01*
X32602000Y19067845D01*
X30348081Y19067845D01*
X30330165Y19192457D01*
X30270377Y19323373D01*
X30247950Y19349256D01*
X30218927Y19412813D01*
X30218550Y19415672D01*
X30217359Y19425589D01*
X30215884Y19429329D01*
X30164364Y19559975D01*
X30164363Y19559976D01*
X30164363Y19559977D01*
X30077078Y19675079D01*
X29961976Y19762364D01*
X29827588Y19815360D01*
X29784242Y19820565D01*
X29743144Y19825500D01*
X29210856Y19825500D01*
X29172841Y19820935D01*
X29126411Y19815360D01*
X28992023Y19762364D01*
X28914545Y19703610D01*
X28849233Y19678787D01*
X28780869Y19693215D01*
X28734082Y19737316D01*
X28724573Y19752732D01*
X28604732Y19872573D01*
X28604728Y19872576D01*
X28460492Y19961543D01*
X28460481Y19961548D01*
X28299606Y20014856D01*
X28200322Y20025000D01*
X28177000Y20025000D01*
X28177000Y19174000D01*
X28157315Y19106961D01*
X28104511Y19061206D01*
X28053000Y19050000D01*
X27801000Y19050000D01*
X27733961Y19069685D01*
X27688206Y19122489D01*
X27677000Y19174000D01*
X27677000Y20025001D01*
X27653693Y20025000D01*
X27653674Y20024999D01*
X27554391Y20014856D01*
X27449596Y19980131D01*
X27379768Y19977730D01*
X27335107Y19999461D01*
X27226842Y20082536D01*
X27153801Y20112790D01*
X27080762Y20143044D01*
X27045313Y20147711D01*
X26981417Y20175978D01*
X26942947Y20234303D01*
X26937500Y20270650D01*
X26937500Y20350903D01*
X26927806Y20431624D01*
X26927479Y20434346D01*
X26875115Y20567132D01*
X26854851Y20593854D01*
X26788867Y20680868D01*
X26675134Y20767114D01*
X26675132Y20767115D01*
X26542346Y20819479D01*
X26542345Y20819480D01*
X26542343Y20819480D01*
X26458902Y20829500D01*
X25865098Y20829500D01*
X25781656Y20819480D01*
X25781655Y20819480D01*
X25648865Y20767114D01*
X25535132Y20680868D01*
X25448886Y20567135D01*
X25448883Y20567129D01*
X25396536Y20434386D01*
X25353630Y20379242D01*
X25287723Y20356049D01*
X25219738Y20372170D01*
X25218063Y20373143D01*
X25191197Y20389031D01*
X25191190Y20389034D01*
X25035918Y20434145D01*
X25035912Y20434146D01*
X25015000Y20435791D01*
X25015000Y19781000D01*
X24995315Y19713961D01*
X24942511Y19668206D01*
X24891000Y19657000D01*
X24639000Y19657000D01*
X24571961Y19676685D01*
X24526206Y19729489D01*
X24515000Y19781000D01*
X24515000Y20435790D01*
X24514999Y20435791D01*
X24494091Y20434146D01*
X24494082Y20434144D01*
X24485408Y20431624D01*
X24415539Y20431826D01*
X24356871Y20469771D01*
X24329563Y20524755D01*
X24328504Y20529701D01*
X24273358Y20696120D01*
X24273356Y20696125D01*
X24181315Y20845346D01*
X24057345Y20969316D01*
X23908124Y21061357D01*
X23908119Y21061359D01*
X23741697Y21116506D01*
X23741690Y21116507D01*
X23638986Y21127000D01*
X23364000Y21127000D01*
X23364000Y20251000D01*
X23344315Y20183961D01*
X23291511Y20138206D01*
X23240000Y20127000D01*
X23114000Y20127000D01*
X23114000Y20001000D01*
X23094315Y19933961D01*
X23041511Y19888206D01*
X22990000Y19877000D01*
X21889001Y19877000D01*
X21889001Y19827014D01*
X21899494Y19724303D01*
X21954641Y19557881D01*
X21954643Y19557876D01*
X22046684Y19408655D01*
X22170654Y19284685D01*
X22319876Y19192644D01*
X22341755Y19185394D01*
X22399201Y19145622D01*
X22426025Y19081107D01*
X22413711Y19012331D01*
X22372393Y18967834D01*
X22373416Y18966486D01*
X22246077Y18869923D01*
X22154639Y18749344D01*
X22099122Y18608562D01*
X22098132Y18600315D01*
X22088500Y18520102D01*
X22088500Y17933898D01*
X22094126Y17887046D01*
X22099122Y17845439D01*
X22154639Y17704657D01*
X22246077Y17584078D01*
X22366656Y17492640D01*
X22366657Y17492640D01*
X22366658Y17492639D01*
X22507436Y17437123D01*
X22595898Y17426500D01*
X22595903Y17426500D01*
X23632103Y17426500D01*
X23668051Y17430818D01*
X23694715Y17434019D01*
X23763624Y17422469D01*
X23815348Y17375497D01*
X23833500Y17310904D01*
X23833500Y15504824D01*
X23824057Y15457361D01*
X23820643Y15449121D01*
X23776797Y15394721D01*
X23710501Y15372663D01*
X23642803Y15389948D01*
X23606316Y15422951D01*
X23562424Y15482422D01*
X23562423Y15482423D01*
X23456794Y15560381D01*
X23456792Y15560382D01*
X23332880Y15603742D01*
X23303461Y15606500D01*
X22928546Y15606500D01*
X22899125Y15603742D01*
X22899115Y15603740D01*
X22775205Y15560381D01*
X22775204Y15560381D01*
X22679633Y15489846D01*
X22614004Y15465875D01*
X22545834Y15481191D01*
X22532367Y15489846D01*
X22436794Y15560381D01*
X22312880Y15603742D01*
X22283461Y15606500D01*
X22283457Y15606500D01*
X21955629Y15606500D01*
X21920699Y15611522D01*
X21913965Y15613499D01*
X21913963Y15613500D01*
X21913961Y15613500D01*
X21770039Y15613500D01*
X21770036Y15613500D01*
X21631949Y15572955D01*
X21510873Y15495144D01*
X21510872Y15495144D01*
X21510872Y15495143D01*
X21506971Y15490641D01*
X21416623Y15386374D01*
X21416622Y15386372D01*
X21356834Y15255457D01*
X21336353Y15113000D01*
X21356834Y14970544D01*
X21416622Y14839629D01*
X21416623Y14839627D01*
X21425223Y14829702D01*
X21454247Y14766145D01*
X21444303Y14696987D01*
X21398547Y14644184D01*
X21331509Y14624500D01*
X20938254Y14624500D01*
X20871215Y14644185D01*
X20850573Y14660819D01*
X20078976Y15432417D01*
X20045491Y15493740D01*
X20047995Y15556091D01*
X20085300Y15679066D01*
X20105583Y15885000D01*
X20085300Y16090934D01*
X20025232Y16288954D01*
X19927685Y16471450D01*
X19825267Y16596248D01*
X19796410Y16631411D01*
X19636452Y16762683D01*
X19636453Y16762683D01*
X19636450Y16762685D01*
X19453954Y16860232D01*
X19255934Y16920300D01*
X19255932Y16920301D01*
X19255934Y16920301D01*
X19050000Y16940583D01*
X18844067Y16920301D01*
X18646043Y16860231D01*
X18561270Y16814918D01*
X18463550Y16762685D01*
X18463548Y16762684D01*
X18463547Y16762683D01*
X18303589Y16631411D01*
X18180184Y16481039D01*
X18172315Y16471450D01*
X18169141Y16465511D01*
X18074769Y16288957D01*
X18014699Y16090933D01*
X18007939Y16022296D01*
X17981777Y15957509D01*
X17924743Y15917150D01*
X17854942Y15914034D01*
X17796855Y15946770D01*
X17721329Y16022296D01*
X17516312Y16227314D01*
X17482827Y16288637D01*
X17487811Y16358329D01*
X17492715Y16368893D01*
X17494298Y16372908D01*
X17494300Y16372910D01*
X17549866Y16513816D01*
X17560500Y16602366D01*
X17560500Y17687634D01*
X17549866Y17776184D01*
X17494300Y17917090D01*
X17494298Y17917093D01*
X17402779Y18037780D01*
X17282092Y18129299D01*
X17282090Y18129300D01*
X17141184Y18184866D01*
X17141183Y18184867D01*
X17052635Y18195500D01*
X17052634Y18195500D01*
X15967366Y18195500D01*
X15967365Y18195500D01*
X15878817Y18184867D01*
X15737907Y18129299D01*
X15617220Y18037780D01*
X15525701Y17917093D01*
X15470133Y17776183D01*
X15459500Y17687635D01*
X15459500Y16602366D01*
X15470133Y16513818D01*
X15525701Y16372908D01*
X15617220Y16252221D01*
X15737907Y16160702D01*
X15737910Y16160700D01*
X15878816Y16105134D01*
X15967365Y16094500D01*
X15967366Y16094500D01*
X16464978Y16094500D01*
X16532017Y16074815D01*
X16552659Y16058181D01*
X16753303Y15857537D01*
X16786788Y15796214D01*
X16781804Y15726522D01*
X16739932Y15670589D01*
X16674468Y15646172D01*
X16653468Y15646453D01*
X16510000Y15660583D01*
X16304067Y15640301D01*
X16106043Y15580231D01*
X16055600Y15553268D01*
X15923550Y15482685D01*
X15923548Y15482684D01*
X15923547Y15482683D01*
X15763589Y15351411D01*
X15653282Y15216999D01*
X15632315Y15191450D01*
X15623551Y15175053D01*
X15534769Y15008957D01*
X15534768Y15008955D01*
X15534768Y15008954D01*
X15530449Y14994716D01*
X15474699Y14810933D01*
X15454417Y14605000D01*
X15474699Y14399068D01*
X15518985Y14253076D01*
X15519608Y14183209D01*
X15488005Y14129400D01*
X15197681Y13839075D01*
X15136358Y13805590D01*
X15066667Y13810574D01*
X15010733Y13852445D01*
X14986316Y13917910D01*
X14986000Y13926756D01*
X14986000Y20426987D01*
X21889000Y20426987D01*
X21889000Y20377000D01*
X22864000Y20377000D01*
X22864000Y21127000D01*
X22589029Y21127000D01*
X22589012Y21126999D01*
X22486302Y21116506D01*
X22319880Y21061359D01*
X22319875Y21061357D01*
X22170654Y20969316D01*
X22046684Y20845346D01*
X21954643Y20696125D01*
X21954641Y20696120D01*
X21899494Y20529698D01*
X21899493Y20529691D01*
X21889000Y20426987D01*
X14986000Y20426987D01*
X14986000Y22047848D01*
X16563001Y22047848D01*
X16573056Y21949417D01*
X16625906Y21789928D01*
X16625908Y21789923D01*
X16714114Y21646920D01*
X16832919Y21528115D01*
X16975922Y21439909D01*
X16975927Y21439907D01*
X17135416Y21387058D01*
X17233856Y21377001D01*
X17250500Y21377002D01*
X17250500Y22102000D01*
X16563001Y22102000D01*
X16563001Y22047848D01*
X14986000Y22047848D01*
X14986000Y22656151D01*
X16563000Y22656151D01*
X16563000Y22602000D01*
X17250500Y22602000D01*
X17250500Y24134000D01*
X16563001Y24134000D01*
X16563001Y24079848D01*
X16573056Y23981417D01*
X16625906Y23821928D01*
X16625908Y23821923D01*
X16714114Y23678920D01*
X16832920Y23560114D01*
X16832924Y23560111D01*
X16973279Y23473538D01*
X17020004Y23421590D01*
X17031225Y23352628D01*
X17003382Y23288546D01*
X16973279Y23262462D01*
X16832924Y23175890D01*
X16832920Y23175887D01*
X16714114Y23057081D01*
X16625908Y22914078D01*
X16625906Y22914073D01*
X16573057Y22754584D01*
X16563000Y22656151D01*
X14986000Y22656151D01*
X14986000Y24775500D01*
X15005685Y24842539D01*
X15058489Y24888294D01*
X15110000Y24899500D01*
X16447279Y24899500D01*
X16514318Y24879815D01*
G37*
%TD.AperFunction*%
%TA.AperFunction,Conductor*%
G36*
X37879039Y19116815D02*
G01*
X37924794Y19064011D01*
X37936000Y19012500D01*
X37936000Y18620000D01*
X38762000Y18620000D01*
X38829039Y18600315D01*
X38874794Y18547511D01*
X38886000Y18496000D01*
X38886000Y18244000D01*
X38866315Y18176961D01*
X38813511Y18131206D01*
X38762000Y18120000D01*
X37936000Y18120000D01*
X37936000Y17672156D01*
X37942401Y17612628D01*
X37942403Y17612621D01*
X37992645Y17477914D01*
X37992647Y17477912D01*
X38041398Y17412788D01*
X38065815Y17347324D01*
X38050963Y17279051D01*
X38001558Y17229645D01*
X37981135Y17220771D01*
X37820518Y17167548D01*
X37820507Y17167543D01*
X37676271Y17078576D01*
X37676267Y17078573D01*
X37556427Y16958733D01*
X37556422Y16958727D01*
X37546914Y16943312D01*
X37494964Y16896590D01*
X37426001Y16885371D01*
X37366454Y16909610D01*
X37288974Y16968365D01*
X37181009Y17010942D01*
X37125865Y17053848D01*
X37102673Y17119756D01*
X37102500Y17126296D01*
X37102500Y17355088D01*
X37122185Y17422127D01*
X37166071Y17460155D01*
X37165286Y17461301D01*
X37174760Y17467793D01*
X37174765Y17467794D01*
X37254206Y17547235D01*
X37299585Y17650009D01*
X37302500Y17675135D01*
X37302499Y19012501D01*
X37322184Y19079539D01*
X37374987Y19125294D01*
X37426499Y19136500D01*
X37812000Y19136500D01*
X37879039Y19116815D01*
G37*
%TD.AperFunction*%
%TD*%
M02*
