%TF.GenerationSoftware,KiCad,Pcbnew,8.0.2-8.0.2-0~ubuntu22.04.1*%
%TF.CreationDate,2024-05-07T00:28:05+09:00*%
%TF.ProjectId,CANgatewayE,43414e67-6174-4657-9761-79452e6b6963,rev?*%
%TF.SameCoordinates,Original*%
%TF.FileFunction,Copper,L2,Inr*%
%TF.FilePolarity,Positive*%
%FSLAX46Y46*%
G04 Gerber Fmt 4.6, Leading zero omitted, Abs format (unit mm)*
G04 Created by KiCad (PCBNEW 8.0.2-8.0.2-0~ubuntu22.04.1) date 2024-05-07 00:28:05*
%MOMM*%
%LPD*%
G01*
G04 APERTURE LIST*
%TA.AperFunction,ComponentPad*%
%ADD10C,1.890000*%
%TD*%
%TA.AperFunction,ComponentPad*%
%ADD11R,1.900000X1.900000*%
%TD*%
%TA.AperFunction,ComponentPad*%
%ADD12C,1.900000*%
%TD*%
%TA.AperFunction,ComponentPad*%
%ADD13C,2.600000*%
%TD*%
%TA.AperFunction,ComponentPad*%
%ADD14C,0.500000*%
%TD*%
%TA.AperFunction,ComponentPad*%
%ADD15R,1.700000X1.700000*%
%TD*%
%TA.AperFunction,ComponentPad*%
%ADD16O,1.700000X1.700000*%
%TD*%
%TA.AperFunction,ViaPad*%
%ADD17C,0.400000*%
%TD*%
%TA.AperFunction,ViaPad*%
%ADD18C,0.600000*%
%TD*%
%TA.AperFunction,Conductor*%
%ADD19C,0.200000*%
%TD*%
G04 APERTURE END LIST*
D10*
%TO.N,/Ethernet/LED1*%
%TO.C,J1*%
X6810000Y6375000D03*
%TO.N,Net-(J1-PadL2)*%
X5290000Y8915000D03*
%TO.N,Net-(J1-PadL3)*%
X6810000Y16485000D03*
%TO.N,/Ethernet/LED2*%
X5290000Y19025000D03*
D11*
%TO.N,Net-(J1-TD+)*%
X16530000Y17145000D03*
D12*
%TO.N,Net-(J1-TD-)*%
X19070000Y15875000D03*
%TO.N,Net-(J1-RD+)*%
X16530000Y14605000D03*
%TO.N,Net-(J1-RCT)*%
X19070000Y13335000D03*
X16530000Y12065000D03*
%TO.N,Net-(J1-RD-)*%
X19070000Y10795000D03*
%TO.N,unconnected-(J1-NC-PadR7)*%
X16530000Y9525000D03*
%TO.N,Net-(JP1-A)*%
X19070000Y8255000D03*
D13*
X13240000Y20475000D03*
X13240000Y4925000D03*
%TD*%
D14*
%TO.N,GND*%
%TO.C,U2*%
X25916000Y12208000D03*
X26916000Y12208000D03*
X27916000Y12208000D03*
X25916000Y13208000D03*
X26916000Y13208000D03*
X27916000Y13208000D03*
X25916000Y14208000D03*
X26916000Y14208000D03*
X27916000Y14208000D03*
%TD*%
D15*
%TO.N,GND*%
%TO.C,J3*%
X25400000Y1270000D03*
D16*
%TO.N,unconnected-(J3-Pin_2-Pad2)*%
X27940000Y1270000D03*
%TO.N,unconnected-(J3-Pin_3-Pad3)*%
X30480000Y1270000D03*
%TO.N,unconnected-(J3-Pin_4-Pad4)*%
X33020000Y1270000D03*
%TO.N,/Connector/VCP_TX*%
X35560000Y1270000D03*
%TO.N,/Connector/VCP_RX*%
X38100000Y1270000D03*
%TO.N,/CAN2_RD*%
X40640000Y1270000D03*
%TO.N,/CAN2_TD*%
X43180000Y1270000D03*
%TO.N,/CAN/CAN2_L*%
X45720000Y1270000D03*
%TO.N,/CAN/CAN2_H*%
X48260000Y1270000D03*
%TD*%
D15*
%TO.N,GND*%
%TO.C,J4*%
X25400000Y24130000D03*
D16*
%TO.N,/Connector/VIN*%
X27940000Y24130000D03*
%TO.N,+3.3V*%
X30480000Y24130000D03*
%TO.N,/NRST*%
X33020000Y24130000D03*
%TO.N,/SWDIO*%
X35560000Y24130000D03*
%TO.N,/SWCLK*%
X38100000Y24130000D03*
%TO.N,/CAN1_RD*%
X40640000Y24130000D03*
%TO.N,/CAN1_TD*%
X43180000Y24130000D03*
%TO.N,/CAN/CAN1_L*%
X45720000Y24130000D03*
%TO.N,/CAN/CAN1_H*%
X48260000Y24130000D03*
%TD*%
D17*
%TO.N,+5V*%
X47244000Y8382000D03*
%TO.N,GND*%
X39370000Y16002000D03*
X39370000Y16510000D03*
%TO.N,Net-(U1-PH0)*%
X37742001Y9635300D03*
%TO.N,GND*%
X27559000Y5495902D03*
X22860000Y7112000D03*
D18*
X33274000Y21336000D03*
D17*
X40386000Y6604000D03*
X20320000Y2540000D03*
D18*
X19812000Y6096000D03*
D17*
X42672000Y10922000D03*
X22860000Y762000D03*
X38354000Y8509000D03*
X27247771Y8035886D03*
D18*
X21844000Y16256000D03*
D17*
X24384000Y4826000D03*
X33638779Y8126708D03*
D18*
X30226000Y20320000D03*
X40386000Y8128000D03*
X33274000Y20574000D03*
X38354000Y17018000D03*
X27940000Y20828000D03*
D17*
X16002000Y2540000D03*
D18*
X32512000Y4572000D03*
X44958000Y9144000D03*
D17*
X22860000Y2540000D03*
D18*
X46482000Y9144000D03*
D17*
X20320000Y762000D03*
X16002000Y762000D03*
X37084000Y14224000D03*
D18*
X19177000Y5080000D03*
X23114000Y20828000D03*
D17*
X31750000Y5588000D03*
D18*
X24885276Y7130000D03*
D17*
X36957000Y10414000D03*
X30353000Y5715000D03*
X42926000Y10160000D03*
D18*
X32512000Y21336000D03*
X23368000Y16256000D03*
X21844000Y21082000D03*
X44450000Y6096000D03*
X39370000Y3048000D03*
D17*
X28575000Y16764000D03*
D18*
X25654000Y3810000D03*
D17*
X46228000Y9906000D03*
D18*
X30480000Y4572000D03*
X39116000Y17018000D03*
D17*
X47498000Y12954000D03*
X37592000Y12164000D03*
X28575000Y9144000D03*
X33532020Y13518387D03*
D18*
X24765000Y20574000D03*
D17*
X23114000Y4826000D03*
%TO.N,Net-(U1-PH1)*%
X36830000Y8001000D03*
%TO.N,Net-(C4-Pad1)*%
X29845000Y19050000D03*
D18*
%TO.N,+3.3V*%
X26924000Y19558000D03*
D17*
X38862000Y20828000D03*
X29972000Y17018000D03*
X34598408Y16691408D03*
X35814000Y4318000D03*
X33494257Y5914827D03*
D18*
X41910000Y19304000D03*
D17*
X34671000Y10922000D03*
D18*
X41910000Y20066000D03*
D17*
X34671000Y9144000D03*
D18*
X44450000Y22098000D03*
D17*
X41656000Y7620000D03*
D18*
X48768000Y7620000D03*
D17*
X37846000Y14732000D03*
X34671000Y12954000D03*
X34544000Y15367000D03*
X34544000Y14224000D03*
X28383103Y9714103D03*
D18*
%TO.N,Net-(J1-RCT)*%
X24384000Y15240000D03*
D17*
X25273000Y10414000D03*
%TO.N,Net-(J1-TD-)*%
X23368000Y14058000D03*
%TO.N,/Ethernet/LED2*%
X25654000Y9652000D03*
X18796000Y6505000D03*
%TO.N,Net-(J1-RD+)*%
X23531054Y10631946D03*
%TO.N,/Ethernet/LED1*%
X26416000Y9144000D03*
%TO.N,Net-(J1-TD+)*%
X22996098Y13349697D03*
%TO.N,Net-(J1-RD-)*%
X23241000Y11682000D03*
D18*
%TO.N,/MCU/BOOT0*%
X38608000Y13462000D03*
D17*
%TO.N,/RMII_MDIO*%
X32891000Y14986000D03*
%TO.N,/RMII_RXD0*%
X31240000Y10922000D03*
%TO.N,/RMII_RXD1*%
X31240000Y9144000D03*
%TO.N,/RMII_CRS_DV*%
X31240000Y14224000D03*
X31466001Y11634381D03*
%TO.N,/RMII_REF_CLK*%
X35806000Y8636000D03*
%TO.N,Net-(R19-Pad1)*%
X46736001Y18150855D03*
D18*
%TO.N,Net-(R20-Pad2)*%
X47244000Y3302000D03*
%TO.N,/CAN/CAN2_L*%
X47371000Y6161000D03*
D17*
%TO.N,/CAN/CAN1_L*%
X43434000Y14986000D03*
%TO.N,/RMII_TX_EN*%
X26741646Y15952396D03*
%TO.N,/RMII_MDC*%
X35306000Y8128000D03*
%TO.N,/CAN2_TD*%
X39624000Y13716000D03*
X43815000Y12573000D03*
%TO.N,/MCU/PB14*%
X22860000Y22098000D03*
X31242000Y20320000D03*
%TO.N,/RMII_TXD0*%
X30988000Y17653000D03*
%TO.N,/MCU/PB15*%
X22860000Y24384000D03*
X31242000Y20920003D03*
%TO.N,/CAN1_TD*%
X37785000Y20587000D03*
%TO.N,/CAN2_RD*%
X43376000Y11684000D03*
%TO.N,/CAN1_RD*%
X37338000Y21082000D03*
%TO.N,/RMII_TXD1*%
X30861000Y18288000D03*
%TO.N,+5V*%
X45974000Y16510000D03*
%TO.N,Net-(C5-Pad1)*%
X42926000Y8382000D03*
%TO.N,/NRST*%
X36322000Y5842000D03*
X27746625Y16957375D03*
X36310000Y12954000D03*
%TO.N,Net-(JP2-B)*%
X48768000Y17272000D03*
%TO.N,Net-(JP3-B)*%
X44577000Y17399000D03*
X43942000Y14478000D03*
%TO.N,Net-(JP4-B)*%
X44831000Y12446000D03*
%TO.N,Net-(JP5-B)*%
X48514000Y12700000D03*
%TD*%
D19*
%TO.N,/RMII_CRS_DV*%
X31750000Y13718000D02*
X31750000Y11918380D01*
X31244000Y14224000D02*
X31750000Y13718000D01*
X31240000Y14224000D02*
X31244000Y14224000D01*
X31750000Y11918380D02*
X31466001Y11634381D01*
%TD*%
%TA.AperFunction,Conductor*%
%TO.N,GND*%
G36*
X22439944Y24879815D02*
G01*
X22485699Y24827011D01*
X22495643Y24757853D01*
X22466618Y24694297D01*
X22434623Y24657373D01*
X22434622Y24657372D01*
X22374834Y24526457D01*
X22354353Y24384000D01*
X22374834Y24241544D01*
X22426143Y24129196D01*
X22434623Y24110627D01*
X22528872Y24001857D01*
X22649947Y23924047D01*
X22649950Y23924046D01*
X22649949Y23924046D01*
X22788036Y23883501D01*
X22788038Y23883500D01*
X22788039Y23883500D01*
X22931962Y23883500D01*
X22931962Y23883501D01*
X23070053Y23924047D01*
X23191128Y24001857D01*
X23285377Y24110627D01*
X23345165Y24241543D01*
X23365647Y24384000D01*
X23345165Y24526457D01*
X23285377Y24657373D01*
X23253381Y24694299D01*
X23224357Y24757853D01*
X23234301Y24827011D01*
X23280056Y24879815D01*
X23347095Y24899500D01*
X23926000Y24899500D01*
X23993039Y24879815D01*
X24038794Y24827011D01*
X24050000Y24775500D01*
X24050000Y24380000D01*
X24966988Y24380000D01*
X24934075Y24322993D01*
X24900000Y24195826D01*
X24900000Y24064174D01*
X24934075Y23937007D01*
X24966988Y23880000D01*
X24050000Y23880000D01*
X24050000Y23232156D01*
X24056401Y23172628D01*
X24056403Y23172621D01*
X24106645Y23037914D01*
X24106649Y23037907D01*
X24192809Y22922813D01*
X24192812Y22922810D01*
X24307906Y22836650D01*
X24307913Y22836646D01*
X24442620Y22786404D01*
X24442627Y22786402D01*
X24502155Y22780001D01*
X24502172Y22780000D01*
X25150000Y22780000D01*
X25150000Y23696988D01*
X25207007Y23664075D01*
X25334174Y23630000D01*
X25465826Y23630000D01*
X25592993Y23664075D01*
X25650000Y23696988D01*
X25650000Y22780000D01*
X26297828Y22780000D01*
X26297844Y22780001D01*
X26357372Y22786402D01*
X26357379Y22786404D01*
X26492086Y22836646D01*
X26492093Y22836650D01*
X26607187Y22922810D01*
X26607190Y22922813D01*
X26693350Y23037907D01*
X26693354Y23037914D01*
X26743596Y23172621D01*
X26743598Y23172628D01*
X26749999Y23232156D01*
X26750000Y23232173D01*
X26750000Y23426732D01*
X26769685Y23493771D01*
X26822489Y23539526D01*
X26891647Y23549470D01*
X26955203Y23520445D01*
X26972950Y23501463D01*
X27086128Y23351593D01*
X27243698Y23207948D01*
X27424981Y23095702D01*
X27623802Y23018679D01*
X27833390Y22979500D01*
X27833392Y22979500D01*
X28046608Y22979500D01*
X28046610Y22979500D01*
X28256198Y23018679D01*
X28455019Y23095702D01*
X28636302Y23207948D01*
X28793872Y23351593D01*
X28922366Y23521745D01*
X28936171Y23549470D01*
X29017403Y23712606D01*
X29017403Y23712607D01*
X29017405Y23712611D01*
X29075756Y23917690D01*
X29086529Y24033953D01*
X29112315Y24098889D01*
X29156869Y24130806D01*
X29120497Y24151669D01*
X29088307Y24213682D01*
X29086529Y24226049D01*
X29085093Y24241544D01*
X29075756Y24342310D01*
X29017405Y24547389D01*
X29017403Y24547394D01*
X29017403Y24547395D01*
X28931342Y24720229D01*
X28919081Y24789014D01*
X28945954Y24853509D01*
X29003430Y24893236D01*
X29042342Y24899500D01*
X29377658Y24899500D01*
X29444697Y24879815D01*
X29490452Y24827011D01*
X29500396Y24757853D01*
X29488658Y24720229D01*
X29402596Y24547395D01*
X29402596Y24547393D01*
X29344244Y24342311D01*
X29333471Y24226049D01*
X29307685Y24161112D01*
X29263130Y24129196D01*
X29299503Y24108332D01*
X29331693Y24046319D01*
X29333470Y24033953D01*
X29344244Y23917690D01*
X29397675Y23729901D01*
X29402596Y23712608D01*
X29402596Y23712606D01*
X29497632Y23521747D01*
X29512953Y23501459D01*
X29626128Y23351593D01*
X29783698Y23207948D01*
X29964981Y23095702D01*
X30163802Y23018679D01*
X30373390Y22979500D01*
X30373392Y22979500D01*
X30586608Y22979500D01*
X30586610Y22979500D01*
X30796198Y23018679D01*
X30995019Y23095702D01*
X31176302Y23207948D01*
X31333872Y23351593D01*
X31462366Y23521745D01*
X31476171Y23549470D01*
X31557403Y23712606D01*
X31557403Y23712607D01*
X31557405Y23712611D01*
X31615756Y23917690D01*
X31626529Y24033953D01*
X31652315Y24098889D01*
X31696869Y24130806D01*
X31660497Y24151669D01*
X31628307Y24213682D01*
X31626529Y24226049D01*
X31625093Y24241544D01*
X31615756Y24342310D01*
X31557405Y24547389D01*
X31557403Y24547394D01*
X31557403Y24547395D01*
X31471342Y24720229D01*
X31459081Y24789014D01*
X31485954Y24853509D01*
X31543430Y24893236D01*
X31582342Y24899500D01*
X31917658Y24899500D01*
X31984697Y24879815D01*
X32030452Y24827011D01*
X32040396Y24757853D01*
X32028658Y24720229D01*
X31942596Y24547395D01*
X31942596Y24547393D01*
X31884244Y24342311D01*
X31873471Y24226049D01*
X31847685Y24161112D01*
X31803130Y24129196D01*
X31839503Y24108332D01*
X31871693Y24046319D01*
X31873470Y24033953D01*
X31884244Y23917690D01*
X31937675Y23729901D01*
X31942596Y23712608D01*
X31942596Y23712606D01*
X32037632Y23521747D01*
X32052953Y23501459D01*
X32166128Y23351593D01*
X32323698Y23207948D01*
X32504981Y23095702D01*
X32703802Y23018679D01*
X32913390Y22979500D01*
X32913392Y22979500D01*
X33126608Y22979500D01*
X33126610Y22979500D01*
X33336198Y23018679D01*
X33535019Y23095702D01*
X33716302Y23207948D01*
X33873872Y23351593D01*
X34002366Y23521745D01*
X34016171Y23549470D01*
X34097403Y23712606D01*
X34097403Y23712607D01*
X34097405Y23712611D01*
X34155756Y23917690D01*
X34166529Y24033953D01*
X34192315Y24098889D01*
X34236869Y24130806D01*
X34200497Y24151669D01*
X34168307Y24213682D01*
X34166529Y24226049D01*
X34165093Y24241544D01*
X34155756Y24342310D01*
X34097405Y24547389D01*
X34097403Y24547394D01*
X34097403Y24547395D01*
X34011342Y24720229D01*
X33999081Y24789014D01*
X34025954Y24853509D01*
X34083430Y24893236D01*
X34122342Y24899500D01*
X34457658Y24899500D01*
X34524697Y24879815D01*
X34570452Y24827011D01*
X34580396Y24757853D01*
X34568658Y24720229D01*
X34482596Y24547395D01*
X34482596Y24547393D01*
X34424244Y24342311D01*
X34413471Y24226049D01*
X34387685Y24161112D01*
X34343130Y24129196D01*
X34379503Y24108332D01*
X34411693Y24046319D01*
X34413470Y24033953D01*
X34424244Y23917690D01*
X34477675Y23729901D01*
X34482596Y23712608D01*
X34482596Y23712606D01*
X34577632Y23521747D01*
X34592953Y23501459D01*
X34706128Y23351593D01*
X34863698Y23207948D01*
X35044981Y23095702D01*
X35243802Y23018679D01*
X35453390Y22979500D01*
X35453392Y22979500D01*
X35666608Y22979500D01*
X35666610Y22979500D01*
X35876198Y23018679D01*
X36075019Y23095702D01*
X36256302Y23207948D01*
X36413872Y23351593D01*
X36542366Y23521745D01*
X36556171Y23549470D01*
X36637403Y23712606D01*
X36637403Y23712607D01*
X36637405Y23712611D01*
X36695756Y23917690D01*
X36706529Y24033953D01*
X36732315Y24098889D01*
X36776869Y24130806D01*
X36740497Y24151669D01*
X36708307Y24213682D01*
X36706529Y24226049D01*
X36705093Y24241544D01*
X36695756Y24342310D01*
X36637405Y24547389D01*
X36637403Y24547394D01*
X36637403Y24547395D01*
X36551342Y24720229D01*
X36539081Y24789014D01*
X36565954Y24853509D01*
X36623430Y24893236D01*
X36662342Y24899500D01*
X36997658Y24899500D01*
X37064697Y24879815D01*
X37110452Y24827011D01*
X37120396Y24757853D01*
X37108658Y24720229D01*
X37022596Y24547395D01*
X37022596Y24547393D01*
X36964244Y24342311D01*
X36953471Y24226049D01*
X36927685Y24161112D01*
X36883130Y24129196D01*
X36919503Y24108332D01*
X36951693Y24046319D01*
X36953470Y24033953D01*
X36964244Y23917690D01*
X37017675Y23729901D01*
X37022596Y23712608D01*
X37022596Y23712606D01*
X37117632Y23521747D01*
X37132953Y23501459D01*
X37246128Y23351593D01*
X37403698Y23207948D01*
X37584981Y23095702D01*
X37783802Y23018679D01*
X37993390Y22979500D01*
X37993392Y22979500D01*
X38206608Y22979500D01*
X38206610Y22979500D01*
X38416198Y23018679D01*
X38615019Y23095702D01*
X38796302Y23207948D01*
X38953872Y23351593D01*
X39082366Y23521745D01*
X39096171Y23549470D01*
X39177403Y23712606D01*
X39177403Y23712607D01*
X39177405Y23712611D01*
X39235756Y23917690D01*
X39246529Y24033953D01*
X39272315Y24098889D01*
X39316869Y24130806D01*
X39280497Y24151669D01*
X39248307Y24213682D01*
X39246529Y24226049D01*
X39245093Y24241544D01*
X39235756Y24342310D01*
X39177405Y24547389D01*
X39177403Y24547394D01*
X39177403Y24547395D01*
X39091342Y24720229D01*
X39079081Y24789014D01*
X39105954Y24853509D01*
X39163430Y24893236D01*
X39202342Y24899500D01*
X39537658Y24899500D01*
X39604697Y24879815D01*
X39650452Y24827011D01*
X39660396Y24757853D01*
X39648658Y24720229D01*
X39562596Y24547395D01*
X39562596Y24547393D01*
X39504244Y24342311D01*
X39493471Y24226049D01*
X39467685Y24161112D01*
X39423130Y24129196D01*
X39459503Y24108332D01*
X39491693Y24046319D01*
X39493470Y24033953D01*
X39504244Y23917690D01*
X39557675Y23729901D01*
X39562596Y23712608D01*
X39562596Y23712606D01*
X39657632Y23521747D01*
X39672953Y23501459D01*
X39786128Y23351593D01*
X39943698Y23207948D01*
X40124981Y23095702D01*
X40323802Y23018679D01*
X40533390Y22979500D01*
X40533392Y22979500D01*
X40746608Y22979500D01*
X40746610Y22979500D01*
X40956198Y23018679D01*
X41155019Y23095702D01*
X41336302Y23207948D01*
X41493872Y23351593D01*
X41622366Y23521745D01*
X41636171Y23549470D01*
X41717403Y23712606D01*
X41717403Y23712607D01*
X41717405Y23712611D01*
X41775756Y23917690D01*
X41786529Y24033953D01*
X41812315Y24098889D01*
X41856869Y24130806D01*
X41820497Y24151669D01*
X41788307Y24213682D01*
X41786529Y24226049D01*
X41785093Y24241544D01*
X41775756Y24342310D01*
X41717405Y24547389D01*
X41717403Y24547394D01*
X41717403Y24547395D01*
X41631342Y24720229D01*
X41619081Y24789014D01*
X41645954Y24853509D01*
X41703430Y24893236D01*
X41742342Y24899500D01*
X42077658Y24899500D01*
X42144697Y24879815D01*
X42190452Y24827011D01*
X42200396Y24757853D01*
X42188658Y24720229D01*
X42102596Y24547395D01*
X42102596Y24547393D01*
X42044244Y24342311D01*
X42033471Y24226049D01*
X42007685Y24161112D01*
X41963130Y24129196D01*
X41999503Y24108332D01*
X42031693Y24046319D01*
X42033470Y24033953D01*
X42044244Y23917690D01*
X42097675Y23729901D01*
X42102596Y23712608D01*
X42102596Y23712606D01*
X42197632Y23521747D01*
X42212953Y23501459D01*
X42326128Y23351593D01*
X42483698Y23207948D01*
X42664981Y23095702D01*
X42863802Y23018679D01*
X43073390Y22979500D01*
X43073392Y22979500D01*
X43286608Y22979500D01*
X43286610Y22979500D01*
X43496198Y23018679D01*
X43695019Y23095702D01*
X43876302Y23207948D01*
X44033872Y23351593D01*
X44162366Y23521745D01*
X44176171Y23549470D01*
X44257403Y23712606D01*
X44257403Y23712607D01*
X44257405Y23712611D01*
X44315756Y23917690D01*
X44326529Y24033953D01*
X44352315Y24098889D01*
X44396869Y24130806D01*
X44360497Y24151669D01*
X44328307Y24213682D01*
X44326529Y24226049D01*
X44325093Y24241544D01*
X44315756Y24342310D01*
X44257405Y24547389D01*
X44257403Y24547394D01*
X44257403Y24547395D01*
X44171342Y24720229D01*
X44159081Y24789014D01*
X44185954Y24853509D01*
X44243430Y24893236D01*
X44282342Y24899500D01*
X44617658Y24899500D01*
X44684697Y24879815D01*
X44730452Y24827011D01*
X44740396Y24757853D01*
X44728658Y24720229D01*
X44642596Y24547395D01*
X44642596Y24547393D01*
X44584244Y24342311D01*
X44573471Y24226049D01*
X44547685Y24161112D01*
X44503130Y24129196D01*
X44539503Y24108332D01*
X44571693Y24046319D01*
X44573470Y24033953D01*
X44584244Y23917690D01*
X44637675Y23729901D01*
X44642596Y23712608D01*
X44642596Y23712606D01*
X44737632Y23521747D01*
X44752953Y23501459D01*
X44866128Y23351593D01*
X45023698Y23207948D01*
X45204981Y23095702D01*
X45403802Y23018679D01*
X45613390Y22979500D01*
X45613392Y22979500D01*
X45826608Y22979500D01*
X45826610Y22979500D01*
X46036198Y23018679D01*
X46235019Y23095702D01*
X46416302Y23207948D01*
X46573872Y23351593D01*
X46702366Y23521745D01*
X46716171Y23549470D01*
X46797403Y23712606D01*
X46797403Y23712607D01*
X46797405Y23712611D01*
X46855756Y23917690D01*
X46866529Y24033953D01*
X46892315Y24098889D01*
X46936869Y24130806D01*
X46900497Y24151669D01*
X46868307Y24213682D01*
X46866529Y24226049D01*
X46865093Y24241544D01*
X46855756Y24342310D01*
X46797405Y24547389D01*
X46797403Y24547394D01*
X46797403Y24547395D01*
X46711342Y24720229D01*
X46699081Y24789014D01*
X46725954Y24853509D01*
X46783430Y24893236D01*
X46822342Y24899500D01*
X47157658Y24899500D01*
X47224697Y24879815D01*
X47270452Y24827011D01*
X47280396Y24757853D01*
X47268658Y24720229D01*
X47182596Y24547395D01*
X47182596Y24547393D01*
X47124244Y24342311D01*
X47113471Y24226049D01*
X47087685Y24161112D01*
X47043130Y24129196D01*
X47079503Y24108332D01*
X47111693Y24046319D01*
X47113470Y24033953D01*
X47124244Y23917690D01*
X47177675Y23729901D01*
X47182596Y23712608D01*
X47182596Y23712606D01*
X47277632Y23521747D01*
X47292953Y23501459D01*
X47406128Y23351593D01*
X47563698Y23207948D01*
X47744981Y23095702D01*
X47943802Y23018679D01*
X48153390Y22979500D01*
X48153392Y22979500D01*
X48366608Y22979500D01*
X48366610Y22979500D01*
X48576198Y23018679D01*
X48775019Y23095702D01*
X48956302Y23207948D01*
X49075962Y23317034D01*
X49138765Y23347650D01*
X49208153Y23339453D01*
X49262093Y23295043D01*
X49283461Y23228521D01*
X49283500Y23225396D01*
X49283500Y17762744D01*
X49263815Y17695705D01*
X49211011Y17649950D01*
X49141853Y17640006D01*
X49092461Y17658428D01*
X49034456Y17695705D01*
X48978053Y17731953D01*
X48978051Y17731954D01*
X48978049Y17731955D01*
X48978050Y17731955D01*
X48839963Y17772500D01*
X48839961Y17772500D01*
X48696039Y17772500D01*
X48696036Y17772500D01*
X48557949Y17731955D01*
X48436873Y17654144D01*
X48342623Y17545374D01*
X48342622Y17545372D01*
X48282834Y17414457D01*
X48262353Y17272000D01*
X48282834Y17129544D01*
X48337201Y17010500D01*
X48342623Y16998627D01*
X48436872Y16889857D01*
X48557947Y16812047D01*
X48557950Y16812046D01*
X48557949Y16812046D01*
X48696036Y16771501D01*
X48696038Y16771500D01*
X48696039Y16771500D01*
X48839962Y16771500D01*
X48839962Y16771501D01*
X48978050Y16812046D01*
X48978051Y16812046D01*
X48982522Y16814919D01*
X49092460Y16885573D01*
X49159500Y16905257D01*
X49226539Y16885573D01*
X49272294Y16832769D01*
X49283500Y16781257D01*
X49283500Y8232805D01*
X49263815Y8165766D01*
X49211011Y8120011D01*
X49141853Y8110067D01*
X49084016Y8134427D01*
X49070841Y8144536D01*
X48924762Y8205044D01*
X48924760Y8205045D01*
X48768001Y8225682D01*
X48767999Y8225682D01*
X48611239Y8205045D01*
X48611237Y8205044D01*
X48465160Y8144537D01*
X48339718Y8048282D01*
X48243463Y7922840D01*
X48182956Y7776763D01*
X48182955Y7776761D01*
X48162318Y7620002D01*
X48162318Y7619999D01*
X48182955Y7463240D01*
X48182956Y7463238D01*
X48189218Y7448119D01*
X48243464Y7317159D01*
X48339718Y7191718D01*
X48465159Y7095464D01*
X48611238Y7034956D01*
X48683292Y7025470D01*
X48767999Y7014318D01*
X48768000Y7014318D01*
X48768001Y7014318D01*
X48852708Y7025470D01*
X48924762Y7034956D01*
X49070841Y7095464D01*
X49084013Y7105571D01*
X49149182Y7130766D01*
X49217627Y7116728D01*
X49267617Y7067915D01*
X49283500Y7007196D01*
X49283500Y2174605D01*
X49263815Y2107566D01*
X49211011Y2061811D01*
X49141853Y2051867D01*
X49078297Y2080892D01*
X49075962Y2082968D01*
X48956303Y2192051D01*
X48956302Y2192052D01*
X48775019Y2304298D01*
X48775017Y2304299D01*
X48625829Y2362094D01*
X48576198Y2381321D01*
X48366610Y2420500D01*
X48153390Y2420500D01*
X47943802Y2381321D01*
X47943799Y2381321D01*
X47943799Y2381320D01*
X47744982Y2304299D01*
X47744980Y2304298D01*
X47563699Y2192053D01*
X47406127Y2048407D01*
X47277632Y1878254D01*
X47182596Y1687395D01*
X47182596Y1687393D01*
X47124244Y1482311D01*
X47113471Y1366049D01*
X47087685Y1301112D01*
X47043130Y1269196D01*
X47079503Y1248332D01*
X47111693Y1186319D01*
X47113470Y1173953D01*
X47124244Y1057690D01*
X47177675Y869901D01*
X47182596Y852608D01*
X47182596Y852606D01*
X47268658Y679771D01*
X47280919Y610986D01*
X47254046Y546491D01*
X47196570Y506764D01*
X47157658Y500500D01*
X46822342Y500500D01*
X46755303Y520185D01*
X46709548Y572989D01*
X46699604Y642147D01*
X46711342Y679771D01*
X46797403Y852606D01*
X46797403Y852607D01*
X46797405Y852611D01*
X46855756Y1057690D01*
X46866529Y1173953D01*
X46892315Y1238889D01*
X46936869Y1270806D01*
X46900497Y1291669D01*
X46868307Y1353682D01*
X46866529Y1366049D01*
X46865849Y1373387D01*
X46855756Y1482310D01*
X46797405Y1687389D01*
X46797403Y1687394D01*
X46797403Y1687395D01*
X46702367Y1878254D01*
X46573872Y2048407D01*
X46538238Y2080892D01*
X46416302Y2192052D01*
X46235019Y2304298D01*
X46235017Y2304299D01*
X46085829Y2362094D01*
X46036198Y2381321D01*
X45826610Y2420500D01*
X45613390Y2420500D01*
X45403802Y2381321D01*
X45403799Y2381321D01*
X45403799Y2381320D01*
X45204982Y2304299D01*
X45204980Y2304298D01*
X45023699Y2192053D01*
X44866127Y2048407D01*
X44737632Y1878254D01*
X44642596Y1687395D01*
X44642596Y1687393D01*
X44584244Y1482311D01*
X44573471Y1366049D01*
X44547685Y1301112D01*
X44503130Y1269196D01*
X44539503Y1248332D01*
X44571693Y1186319D01*
X44573470Y1173953D01*
X44584244Y1057690D01*
X44637675Y869901D01*
X44642596Y852608D01*
X44642596Y852606D01*
X44728658Y679771D01*
X44740919Y610986D01*
X44714046Y546491D01*
X44656570Y506764D01*
X44617658Y500500D01*
X44282342Y500500D01*
X44215303Y520185D01*
X44169548Y572989D01*
X44159604Y642147D01*
X44171342Y679771D01*
X44257403Y852606D01*
X44257403Y852607D01*
X44257405Y852611D01*
X44315756Y1057690D01*
X44326529Y1173953D01*
X44352315Y1238889D01*
X44396869Y1270806D01*
X44360497Y1291669D01*
X44328307Y1353682D01*
X44326529Y1366049D01*
X44325849Y1373387D01*
X44315756Y1482310D01*
X44257405Y1687389D01*
X44257403Y1687394D01*
X44257403Y1687395D01*
X44162367Y1878254D01*
X44033872Y2048407D01*
X43998238Y2080892D01*
X43876302Y2192052D01*
X43695019Y2304298D01*
X43695017Y2304299D01*
X43545829Y2362094D01*
X43496198Y2381321D01*
X43286610Y2420500D01*
X43073390Y2420500D01*
X42863802Y2381321D01*
X42863799Y2381321D01*
X42863799Y2381320D01*
X42664982Y2304299D01*
X42664980Y2304298D01*
X42483699Y2192053D01*
X42326127Y2048407D01*
X42197632Y1878254D01*
X42102596Y1687395D01*
X42102596Y1687393D01*
X42044244Y1482311D01*
X42033471Y1366049D01*
X42007685Y1301112D01*
X41963130Y1269196D01*
X41999503Y1248332D01*
X42031693Y1186319D01*
X42033470Y1173953D01*
X42044244Y1057690D01*
X42097675Y869901D01*
X42102596Y852608D01*
X42102596Y852606D01*
X42188658Y679771D01*
X42200919Y610986D01*
X42174046Y546491D01*
X42116570Y506764D01*
X42077658Y500500D01*
X41742342Y500500D01*
X41675303Y520185D01*
X41629548Y572989D01*
X41619604Y642147D01*
X41631342Y679771D01*
X41717403Y852606D01*
X41717403Y852607D01*
X41717405Y852611D01*
X41775756Y1057690D01*
X41786529Y1173953D01*
X41812315Y1238889D01*
X41856869Y1270806D01*
X41820497Y1291669D01*
X41788307Y1353682D01*
X41786529Y1366049D01*
X41785849Y1373387D01*
X41775756Y1482310D01*
X41717405Y1687389D01*
X41717403Y1687394D01*
X41717403Y1687395D01*
X41622367Y1878254D01*
X41493872Y2048407D01*
X41458238Y2080892D01*
X41336302Y2192052D01*
X41155019Y2304298D01*
X41155017Y2304299D01*
X41005829Y2362094D01*
X40956198Y2381321D01*
X40746610Y2420500D01*
X40533390Y2420500D01*
X40323802Y2381321D01*
X40323799Y2381321D01*
X40323799Y2381320D01*
X40124982Y2304299D01*
X40124980Y2304298D01*
X39943699Y2192053D01*
X39786127Y2048407D01*
X39657632Y1878254D01*
X39562596Y1687395D01*
X39562596Y1687393D01*
X39504244Y1482311D01*
X39493471Y1366049D01*
X39467685Y1301112D01*
X39423130Y1269196D01*
X39459503Y1248332D01*
X39491693Y1186319D01*
X39493470Y1173953D01*
X39504244Y1057690D01*
X39557675Y869901D01*
X39562596Y852608D01*
X39562596Y852606D01*
X39648658Y679771D01*
X39660919Y610986D01*
X39634046Y546491D01*
X39576570Y506764D01*
X39537658Y500500D01*
X39202342Y500500D01*
X39135303Y520185D01*
X39089548Y572989D01*
X39079604Y642147D01*
X39091342Y679771D01*
X39177403Y852606D01*
X39177403Y852607D01*
X39177405Y852611D01*
X39235756Y1057690D01*
X39246529Y1173953D01*
X39272315Y1238889D01*
X39316869Y1270806D01*
X39280497Y1291669D01*
X39248307Y1353682D01*
X39246529Y1366049D01*
X39245849Y1373387D01*
X39235756Y1482310D01*
X39177405Y1687389D01*
X39177403Y1687394D01*
X39177403Y1687395D01*
X39082367Y1878254D01*
X38953872Y2048407D01*
X38918238Y2080892D01*
X38796302Y2192052D01*
X38615019Y2304298D01*
X38615017Y2304299D01*
X38465829Y2362094D01*
X38416198Y2381321D01*
X38206610Y2420500D01*
X37993390Y2420500D01*
X37783802Y2381321D01*
X37783799Y2381321D01*
X37783799Y2381320D01*
X37584982Y2304299D01*
X37584980Y2304298D01*
X37403699Y2192053D01*
X37246127Y2048407D01*
X37117632Y1878254D01*
X37022596Y1687395D01*
X37022596Y1687393D01*
X36964244Y1482311D01*
X36953471Y1366049D01*
X36927685Y1301112D01*
X36883130Y1269196D01*
X36919503Y1248332D01*
X36951693Y1186319D01*
X36953470Y1173953D01*
X36964244Y1057690D01*
X37017675Y869901D01*
X37022596Y852608D01*
X37022596Y852606D01*
X37108658Y679771D01*
X37120919Y610986D01*
X37094046Y546491D01*
X37036570Y506764D01*
X36997658Y500500D01*
X36662342Y500500D01*
X36595303Y520185D01*
X36549548Y572989D01*
X36539604Y642147D01*
X36551342Y679771D01*
X36637403Y852606D01*
X36637403Y852607D01*
X36637405Y852611D01*
X36695756Y1057690D01*
X36706529Y1173953D01*
X36732315Y1238889D01*
X36776869Y1270806D01*
X36740497Y1291669D01*
X36708307Y1353682D01*
X36706529Y1366049D01*
X36705849Y1373387D01*
X36695756Y1482310D01*
X36637405Y1687389D01*
X36637403Y1687394D01*
X36637403Y1687395D01*
X36542367Y1878254D01*
X36413872Y2048407D01*
X36378238Y2080892D01*
X36256302Y2192052D01*
X36075019Y2304298D01*
X36075017Y2304299D01*
X35925829Y2362094D01*
X35876198Y2381321D01*
X35666610Y2420500D01*
X35453390Y2420500D01*
X35243802Y2381321D01*
X35243799Y2381321D01*
X35243799Y2381320D01*
X35044982Y2304299D01*
X35044980Y2304298D01*
X34863699Y2192053D01*
X34706127Y2048407D01*
X34577632Y1878254D01*
X34482596Y1687395D01*
X34482596Y1687393D01*
X34424244Y1482311D01*
X34413471Y1366049D01*
X34387685Y1301112D01*
X34343130Y1269196D01*
X34379503Y1248332D01*
X34411693Y1186319D01*
X34413470Y1173953D01*
X34424244Y1057690D01*
X34477675Y869901D01*
X34482596Y852608D01*
X34482596Y852606D01*
X34568658Y679771D01*
X34580919Y610986D01*
X34554046Y546491D01*
X34496570Y506764D01*
X34457658Y500500D01*
X34122342Y500500D01*
X34055303Y520185D01*
X34009548Y572989D01*
X33999604Y642147D01*
X34011342Y679771D01*
X34097403Y852606D01*
X34097403Y852607D01*
X34097405Y852611D01*
X34155756Y1057690D01*
X34166529Y1173953D01*
X34192315Y1238889D01*
X34236869Y1270806D01*
X34200497Y1291669D01*
X34168307Y1353682D01*
X34166529Y1366049D01*
X34165849Y1373387D01*
X34155756Y1482310D01*
X34097405Y1687389D01*
X34097403Y1687394D01*
X34097403Y1687395D01*
X34002367Y1878254D01*
X33873872Y2048407D01*
X33838238Y2080892D01*
X33716302Y2192052D01*
X33535019Y2304298D01*
X33535017Y2304299D01*
X33385829Y2362094D01*
X33336198Y2381321D01*
X33126610Y2420500D01*
X32913390Y2420500D01*
X32703802Y2381321D01*
X32703799Y2381321D01*
X32703799Y2381320D01*
X32504982Y2304299D01*
X32504980Y2304298D01*
X32323699Y2192053D01*
X32166127Y2048407D01*
X32037632Y1878254D01*
X31942596Y1687395D01*
X31942596Y1687393D01*
X31884244Y1482311D01*
X31873471Y1366049D01*
X31847685Y1301112D01*
X31803130Y1269196D01*
X31839503Y1248332D01*
X31871693Y1186319D01*
X31873470Y1173953D01*
X31884244Y1057690D01*
X31937675Y869901D01*
X31942596Y852608D01*
X31942596Y852606D01*
X32028658Y679771D01*
X32040919Y610986D01*
X32014046Y546491D01*
X31956570Y506764D01*
X31917658Y500500D01*
X31582342Y500500D01*
X31515303Y520185D01*
X31469548Y572989D01*
X31459604Y642147D01*
X31471342Y679771D01*
X31557403Y852606D01*
X31557403Y852607D01*
X31557405Y852611D01*
X31615756Y1057690D01*
X31626529Y1173953D01*
X31652315Y1238889D01*
X31696869Y1270806D01*
X31660497Y1291669D01*
X31628307Y1353682D01*
X31626529Y1366049D01*
X31625849Y1373387D01*
X31615756Y1482310D01*
X31557405Y1687389D01*
X31557403Y1687394D01*
X31557403Y1687395D01*
X31462367Y1878254D01*
X31333872Y2048407D01*
X31298238Y2080892D01*
X31176302Y2192052D01*
X30995019Y2304298D01*
X30995017Y2304299D01*
X30845829Y2362094D01*
X30796198Y2381321D01*
X30586610Y2420500D01*
X30373390Y2420500D01*
X30163802Y2381321D01*
X30163799Y2381321D01*
X30163799Y2381320D01*
X29964982Y2304299D01*
X29964980Y2304298D01*
X29783699Y2192053D01*
X29626127Y2048407D01*
X29497632Y1878254D01*
X29402596Y1687395D01*
X29402596Y1687393D01*
X29344244Y1482311D01*
X29333471Y1366049D01*
X29307685Y1301112D01*
X29263130Y1269196D01*
X29299503Y1248332D01*
X29331693Y1186319D01*
X29333470Y1173953D01*
X29344244Y1057690D01*
X29397675Y869901D01*
X29402596Y852608D01*
X29402596Y852606D01*
X29488658Y679771D01*
X29500919Y610986D01*
X29474046Y546491D01*
X29416570Y506764D01*
X29377658Y500500D01*
X29042342Y500500D01*
X28975303Y520185D01*
X28929548Y572989D01*
X28919604Y642147D01*
X28931342Y679771D01*
X29017403Y852606D01*
X29017403Y852607D01*
X29017405Y852611D01*
X29075756Y1057690D01*
X29086529Y1173953D01*
X29112315Y1238889D01*
X29156869Y1270806D01*
X29120497Y1291669D01*
X29088307Y1353682D01*
X29086529Y1366049D01*
X29085849Y1373387D01*
X29075756Y1482310D01*
X29017405Y1687389D01*
X29017403Y1687394D01*
X29017403Y1687395D01*
X28922367Y1878254D01*
X28793872Y2048407D01*
X28758238Y2080892D01*
X28636302Y2192052D01*
X28455019Y2304298D01*
X28455017Y2304299D01*
X28305829Y2362094D01*
X28256198Y2381321D01*
X28046610Y2420500D01*
X27833390Y2420500D01*
X27623802Y2381321D01*
X27623799Y2381321D01*
X27623799Y2381320D01*
X27424982Y2304299D01*
X27424980Y2304298D01*
X27243699Y2192053D01*
X27086127Y2048407D01*
X26972954Y1898542D01*
X26916845Y1856906D01*
X26847133Y1852215D01*
X26785951Y1885957D01*
X26752724Y1947421D01*
X26750000Y1973269D01*
X26750000Y2167828D01*
X26749999Y2167845D01*
X26743598Y2227373D01*
X26743596Y2227380D01*
X26693354Y2362087D01*
X26693350Y2362094D01*
X26607190Y2477188D01*
X26607187Y2477191D01*
X26492093Y2563351D01*
X26492086Y2563355D01*
X26357379Y2613597D01*
X26357372Y2613599D01*
X26297844Y2620000D01*
X25650000Y2620000D01*
X25650000Y1703012D01*
X25592993Y1735925D01*
X25465826Y1770000D01*
X25334174Y1770000D01*
X25207007Y1735925D01*
X25150000Y1703012D01*
X25150000Y2620000D01*
X24502155Y2620000D01*
X24442627Y2613599D01*
X24442620Y2613597D01*
X24307913Y2563355D01*
X24307906Y2563351D01*
X24192812Y2477191D01*
X24192809Y2477188D01*
X24106649Y2362094D01*
X24106645Y2362087D01*
X24056403Y2227380D01*
X24056401Y2227373D01*
X24050000Y2167845D01*
X24050000Y1520000D01*
X24966988Y1520000D01*
X24934075Y1462993D01*
X24900000Y1335826D01*
X24900000Y1204174D01*
X24934075Y1077007D01*
X24966988Y1020000D01*
X24050000Y1020000D01*
X24050000Y624500D01*
X24030315Y557461D01*
X23977511Y511706D01*
X23926000Y500500D01*
X15110000Y500500D01*
X15042961Y520185D01*
X14997206Y572989D01*
X14986000Y624500D01*
X14986000Y3302002D01*
X46638318Y3302002D01*
X46638318Y3301999D01*
X46658955Y3145240D01*
X46658956Y3145238D01*
X46719464Y2999159D01*
X46815718Y2873718D01*
X46941159Y2777464D01*
X47087238Y2716956D01*
X47165619Y2706637D01*
X47243999Y2696318D01*
X47244000Y2696318D01*
X47244001Y2696318D01*
X47296254Y2703198D01*
X47400762Y2716956D01*
X47546841Y2777464D01*
X47672282Y2873718D01*
X47768536Y2999159D01*
X47829044Y3145238D01*
X47849682Y3302000D01*
X47847371Y3319551D01*
X47829044Y3458761D01*
X47829044Y3458762D01*
X47768536Y3604841D01*
X47672282Y3730282D01*
X47546841Y3826536D01*
X47400762Y3887044D01*
X47400760Y3887045D01*
X47244001Y3907682D01*
X47243999Y3907682D01*
X47087239Y3887045D01*
X47087237Y3887044D01*
X46941160Y3826537D01*
X46815718Y3730282D01*
X46719463Y3604840D01*
X46658956Y3458763D01*
X46658955Y3458761D01*
X46638318Y3302002D01*
X14986000Y3302002D01*
X14986000Y4318000D01*
X35308353Y4318000D01*
X35328834Y4175544D01*
X35388622Y4044629D01*
X35388623Y4044627D01*
X35482872Y3935857D01*
X35603947Y3858047D01*
X35603950Y3858046D01*
X35603949Y3858046D01*
X35742036Y3817501D01*
X35742038Y3817500D01*
X35742039Y3817500D01*
X35885962Y3817500D01*
X35885962Y3817501D01*
X36024053Y3858047D01*
X36145128Y3935857D01*
X36239377Y4044627D01*
X36299165Y4175543D01*
X36319647Y4318000D01*
X36299165Y4460457D01*
X36239377Y4591373D01*
X36145128Y4700143D01*
X36024053Y4777953D01*
X36024051Y4777954D01*
X36024049Y4777955D01*
X36024050Y4777955D01*
X35885963Y4818500D01*
X35885961Y4818500D01*
X35742039Y4818500D01*
X35742036Y4818500D01*
X35603949Y4777955D01*
X35482873Y4700144D01*
X35388623Y4591374D01*
X35388622Y4591372D01*
X35328834Y4460457D01*
X35308353Y4318000D01*
X14986000Y4318000D01*
X14986000Y5914827D01*
X32988610Y5914827D01*
X33009091Y5772371D01*
X33042351Y5699544D01*
X33068880Y5641454D01*
X33163129Y5532684D01*
X33284204Y5454874D01*
X33284207Y5454873D01*
X33284206Y5454873D01*
X33422293Y5414328D01*
X33422295Y5414327D01*
X33422296Y5414327D01*
X33566219Y5414327D01*
X33566219Y5414328D01*
X33704310Y5454874D01*
X33825385Y5532684D01*
X33919634Y5641454D01*
X33979422Y5772370D01*
X33989433Y5842000D01*
X35816353Y5842000D01*
X35836834Y5699544D01*
X35893275Y5575957D01*
X35896623Y5568627D01*
X35990872Y5459857D01*
X36111947Y5382047D01*
X36111950Y5382046D01*
X36111949Y5382046D01*
X36250036Y5341501D01*
X36250038Y5341500D01*
X36250039Y5341500D01*
X36393962Y5341500D01*
X36393962Y5341501D01*
X36532053Y5382047D01*
X36653128Y5459857D01*
X36747377Y5568627D01*
X36807165Y5699543D01*
X36827647Y5842000D01*
X36807165Y5984457D01*
X36747377Y6115373D01*
X36707840Y6161002D01*
X46765318Y6161002D01*
X46765318Y6160999D01*
X46785955Y6004240D01*
X46785956Y6004238D01*
X46846464Y5858159D01*
X46942718Y5732718D01*
X47068159Y5636464D01*
X47214238Y5575956D01*
X47269908Y5568627D01*
X47370999Y5555318D01*
X47371000Y5555318D01*
X47371001Y5555318D01*
X47423254Y5562198D01*
X47527762Y5575956D01*
X47673841Y5636464D01*
X47799282Y5732718D01*
X47895536Y5858159D01*
X47956044Y6004238D01*
X47976682Y6161000D01*
X47956044Y6317762D01*
X47895536Y6463841D01*
X47799282Y6589282D01*
X47673841Y6685536D01*
X47527762Y6746044D01*
X47527760Y6746045D01*
X47371001Y6766682D01*
X47370999Y6766682D01*
X47214239Y6746045D01*
X47214237Y6746044D01*
X47068160Y6685537D01*
X46942718Y6589282D01*
X46846463Y6463840D01*
X46785956Y6317763D01*
X46785955Y6317761D01*
X46765318Y6161002D01*
X36707840Y6161002D01*
X36653128Y6224143D01*
X36532053Y6301953D01*
X36532051Y6301954D01*
X36532049Y6301955D01*
X36532050Y6301955D01*
X36393963Y6342500D01*
X36393961Y6342500D01*
X36250039Y6342500D01*
X36250036Y6342500D01*
X36111949Y6301955D01*
X35990873Y6224144D01*
X35896623Y6115374D01*
X35896622Y6115372D01*
X35836834Y5984457D01*
X35816353Y5842000D01*
X33989433Y5842000D01*
X33999904Y5914827D01*
X33979422Y6057284D01*
X33919634Y6188200D01*
X33825385Y6296970D01*
X33704310Y6374780D01*
X33704308Y6374781D01*
X33704306Y6374782D01*
X33704307Y6374782D01*
X33566220Y6415327D01*
X33566218Y6415327D01*
X33422296Y6415327D01*
X33422293Y6415327D01*
X33284206Y6374782D01*
X33163130Y6296971D01*
X33068880Y6188201D01*
X33068879Y6188199D01*
X33009091Y6057284D01*
X32988610Y5914827D01*
X14986000Y5914827D01*
X14986000Y14605000D01*
X15274723Y14605000D01*
X15287528Y14458629D01*
X15293793Y14387025D01*
X15293793Y14387021D01*
X15350422Y14175678D01*
X15350424Y14175674D01*
X15350425Y14175670D01*
X15394317Y14081544D01*
X15442897Y13977362D01*
X15453206Y13962639D01*
X15568402Y13798123D01*
X15723123Y13643402D01*
X15852265Y13552976D01*
X15902361Y13517898D01*
X16053583Y13447382D01*
X16106022Y13401210D01*
X16125174Y13334016D01*
X16104958Y13267135D01*
X16053583Y13222618D01*
X15902361Y13152102D01*
X15902357Y13152100D01*
X15723121Y13026598D01*
X15568402Y12871879D01*
X15442900Y12692643D01*
X15442898Y12692639D01*
X15350426Y12494332D01*
X15350422Y12494323D01*
X15293793Y12282980D01*
X15293793Y12282976D01*
X15274723Y12065003D01*
X15274723Y12064998D01*
X15276011Y12050277D01*
X15290795Y11881286D01*
X15293793Y11847025D01*
X15293793Y11847021D01*
X15350422Y11635678D01*
X15350424Y11635674D01*
X15350425Y11635670D01*
X15370500Y11592619D01*
X15442897Y11437362D01*
X15453206Y11422639D01*
X15568402Y11258123D01*
X15723123Y11103402D01*
X15852265Y11012976D01*
X15902361Y10977898D01*
X16053583Y10907382D01*
X16106022Y10861210D01*
X16125174Y10794016D01*
X16104958Y10727135D01*
X16053583Y10682618D01*
X15902361Y10612102D01*
X15902357Y10612100D01*
X15723121Y10486598D01*
X15568402Y10331879D01*
X15442900Y10152643D01*
X15442898Y10152639D01*
X15350426Y9954332D01*
X15350422Y9954323D01*
X15293793Y9742980D01*
X15293793Y9742976D01*
X15284187Y9633172D01*
X15274723Y9525000D01*
X15288989Y9361929D01*
X15293793Y9307025D01*
X15293793Y9307021D01*
X15350422Y9095678D01*
X15350424Y9095674D01*
X15350425Y9095670D01*
X15394317Y9001544D01*
X15442897Y8897362D01*
X15453206Y8882639D01*
X15568402Y8718123D01*
X15723123Y8563402D01*
X15902361Y8437898D01*
X16100670Y8345425D01*
X16312023Y8288793D01*
X16494926Y8272792D01*
X16529998Y8269723D01*
X16530000Y8269723D01*
X16530002Y8269723D01*
X16558254Y8272195D01*
X16747977Y8288793D01*
X16959330Y8345425D01*
X17157639Y8437898D01*
X17336877Y8563402D01*
X17491598Y8718123D01*
X17617102Y8897361D01*
X17709575Y9095670D01*
X17766207Y9307023D01*
X17785277Y9525000D01*
X17766207Y9742977D01*
X17709575Y9954330D01*
X17617102Y10152638D01*
X17617100Y10152641D01*
X17617099Y10152643D01*
X17491599Y10331876D01*
X17457797Y10365678D01*
X17336877Y10486598D01*
X17157639Y10612102D01*
X17006414Y10682619D01*
X16953977Y10728790D01*
X16934825Y10795984D01*
X16955041Y10862865D01*
X17006414Y10907382D01*
X17157639Y10977898D01*
X17336877Y11103402D01*
X17491598Y11258123D01*
X17617102Y11437361D01*
X17709575Y11635670D01*
X17766207Y11847023D01*
X17783989Y12050277D01*
X17785277Y12064998D01*
X17785277Y12065003D01*
X17780183Y12123224D01*
X17766207Y12282977D01*
X17709575Y12494330D01*
X17617102Y12692638D01*
X17617100Y12692641D01*
X17617099Y12692643D01*
X17491599Y12871876D01*
X17416975Y12946500D01*
X17336877Y13026598D01*
X17157639Y13152102D01*
X17006414Y13222619D01*
X16953977Y13268790D01*
X16934825Y13335984D01*
X16955041Y13402865D01*
X17006414Y13447382D01*
X17157639Y13517898D01*
X17336877Y13643402D01*
X17491598Y13798123D01*
X17617102Y13977361D01*
X17709575Y14175670D01*
X17766207Y14387023D01*
X17785277Y14605000D01*
X17766207Y14822977D01*
X17709575Y15034330D01*
X17617102Y15232638D01*
X17617100Y15232641D01*
X17617099Y15232643D01*
X17491599Y15411876D01*
X17416975Y15486500D01*
X17336877Y15566598D01*
X17190736Y15668928D01*
X17147112Y15723504D01*
X17139920Y15793002D01*
X17171442Y15855357D01*
X17231672Y15890770D01*
X17261859Y15894501D01*
X17524864Y15894501D01*
X17524879Y15894503D01*
X17524882Y15894503D01*
X17549987Y15897414D01*
X17549987Y15897415D01*
X17549991Y15897415D01*
X17644479Y15939136D01*
X17713753Y15948207D01*
X17776938Y15918384D01*
X17813970Y15859135D01*
X17818090Y15836508D01*
X17833793Y15657025D01*
X17833793Y15657021D01*
X17890422Y15445678D01*
X17890424Y15445674D01*
X17890425Y15445670D01*
X17936661Y15346516D01*
X17982897Y15247362D01*
X17993206Y15232639D01*
X18108402Y15068123D01*
X18263123Y14913402D01*
X18408343Y14811718D01*
X18442361Y14787898D01*
X18593583Y14717382D01*
X18646022Y14671210D01*
X18665174Y14604016D01*
X18644958Y14537135D01*
X18593583Y14492618D01*
X18442361Y14422102D01*
X18442357Y14422100D01*
X18263121Y14296598D01*
X18108402Y14141879D01*
X17982900Y13962643D01*
X17982898Y13962639D01*
X17918995Y13825598D01*
X17894329Y13772701D01*
X17890426Y13764332D01*
X17890422Y13764323D01*
X17833793Y13552980D01*
X17833793Y13552976D01*
X17814723Y13335003D01*
X17814723Y13334998D01*
X17818150Y13295832D01*
X17833250Y13123224D01*
X17833793Y13117025D01*
X17833793Y13117021D01*
X17890422Y12905678D01*
X17890424Y12905674D01*
X17890425Y12905670D01*
X17926577Y12828141D01*
X17982897Y12707362D01*
X17993206Y12692639D01*
X18108402Y12528123D01*
X18263123Y12373402D01*
X18407036Y12272633D01*
X18442361Y12247898D01*
X18593583Y12177382D01*
X18646022Y12131210D01*
X18665174Y12064016D01*
X18644958Y11997135D01*
X18593583Y11952618D01*
X18442361Y11882102D01*
X18442357Y11882100D01*
X18263121Y11756598D01*
X18108402Y11601879D01*
X17982900Y11422643D01*
X17982898Y11422639D01*
X17890426Y11224332D01*
X17890422Y11224323D01*
X17833793Y11012980D01*
X17833793Y11012977D01*
X17814723Y10795000D01*
X17827528Y10648629D01*
X17833793Y10577025D01*
X17833793Y10577021D01*
X17890422Y10365678D01*
X17890424Y10365674D01*
X17890425Y10365670D01*
X17934317Y10271544D01*
X17982897Y10167362D01*
X17993206Y10152639D01*
X18108402Y9988123D01*
X18263123Y9833402D01*
X18433499Y9714103D01*
X18442361Y9707898D01*
X18593583Y9637382D01*
X18646022Y9591210D01*
X18665174Y9524016D01*
X18644958Y9457135D01*
X18593583Y9412618D01*
X18442361Y9342102D01*
X18442357Y9342100D01*
X18263121Y9216598D01*
X18108402Y9061879D01*
X17982900Y8882643D01*
X17982898Y8882639D01*
X17890426Y8684332D01*
X17890422Y8684323D01*
X17833793Y8472980D01*
X17833793Y8472976D01*
X17817680Y8288794D01*
X17814723Y8255000D01*
X17827528Y8108629D01*
X17833793Y8037025D01*
X17833793Y8037021D01*
X17890422Y7825678D01*
X17890424Y7825674D01*
X17890425Y7825670D01*
X17936142Y7727629D01*
X17982897Y7627362D01*
X18007998Y7591514D01*
X18108402Y7448123D01*
X18263123Y7293402D01*
X18442361Y7167898D01*
X18459198Y7160047D01*
X18504687Y7138835D01*
X18557127Y7092663D01*
X18576279Y7025470D01*
X18556064Y6958588D01*
X18519324Y6922138D01*
X18464873Y6887144D01*
X18370623Y6778374D01*
X18370622Y6778372D01*
X18310834Y6647457D01*
X18290353Y6505000D01*
X18310834Y6362544D01*
X18370622Y6231629D01*
X18370623Y6231627D01*
X18464872Y6122857D01*
X18585947Y6045047D01*
X18585950Y6045046D01*
X18585949Y6045046D01*
X18724036Y6004501D01*
X18724038Y6004500D01*
X18724039Y6004500D01*
X18867962Y6004500D01*
X18867962Y6004501D01*
X19006053Y6045047D01*
X19127128Y6122857D01*
X19221377Y6231627D01*
X19281165Y6362543D01*
X19301647Y6505000D01*
X19281165Y6647457D01*
X19221377Y6778373D01*
X19221375Y6778375D01*
X19221374Y6778378D01*
X19191482Y6812875D01*
X19162457Y6876431D01*
X19172401Y6945589D01*
X19218156Y6998393D01*
X19274386Y7017604D01*
X19287977Y7018793D01*
X19499330Y7075425D01*
X19697639Y7167898D01*
X19876877Y7293402D01*
X20031598Y7448123D01*
X20157102Y7627361D01*
X20249575Y7825670D01*
X20306207Y8037023D01*
X20325277Y8255000D01*
X20322320Y8288794D01*
X20317366Y8345427D01*
X20306207Y8472977D01*
X20249575Y8684330D01*
X20157102Y8882638D01*
X20157100Y8882641D01*
X20157099Y8882643D01*
X20031599Y9061876D01*
X19956975Y9136500D01*
X19876877Y9216598D01*
X19697639Y9342102D01*
X19546414Y9412619D01*
X19493977Y9458790D01*
X19474825Y9525984D01*
X19495041Y9592865D01*
X19546414Y9637382D01*
X19697639Y9707898D01*
X19876877Y9833402D01*
X20031598Y9988123D01*
X20157102Y10167361D01*
X20249575Y10365670D01*
X20306207Y10577023D01*
X20325277Y10795000D01*
X20306207Y11012977D01*
X20249575Y11224330D01*
X20157102Y11422638D01*
X20157100Y11422641D01*
X20157099Y11422643D01*
X20031599Y11601876D01*
X19961008Y11672467D01*
X19951475Y11682000D01*
X22735353Y11682000D01*
X22755834Y11539544D01*
X22777581Y11491926D01*
X22815623Y11408627D01*
X22909872Y11299857D01*
X23030947Y11222047D01*
X23030950Y11222046D01*
X23030949Y11222046D01*
X23124168Y11194675D01*
X23182946Y11156902D01*
X23211972Y11093346D01*
X23202029Y11024187D01*
X23182948Y10994496D01*
X23105677Y10905319D01*
X23105676Y10905318D01*
X23045888Y10774403D01*
X23025407Y10631946D01*
X23045888Y10489490D01*
X23076938Y10421501D01*
X23105677Y10358573D01*
X23199926Y10249803D01*
X23321001Y10171993D01*
X23321004Y10171992D01*
X23321003Y10171992D01*
X23427818Y10140629D01*
X23444264Y10135800D01*
X23459090Y10131447D01*
X23459092Y10131446D01*
X23459093Y10131446D01*
X23603016Y10131446D01*
X23603016Y10131447D01*
X23741107Y10171993D01*
X23862182Y10249803D01*
X23956431Y10358573D01*
X23981744Y10414000D01*
X24767353Y10414000D01*
X24787834Y10271544D01*
X24797763Y10249803D01*
X24847623Y10140627D01*
X24941872Y10031857D01*
X25062947Y9954047D01*
X25062950Y9954046D01*
X25062948Y9954046D01*
X25084592Y9947691D01*
X25143370Y9909918D01*
X25172396Y9846362D01*
X25169321Y9803347D01*
X25170097Y9803235D01*
X25148353Y9652000D01*
X25168834Y9509544D01*
X25228622Y9378629D01*
X25228623Y9378627D01*
X25322872Y9269857D01*
X25443947Y9192047D01*
X25443950Y9192046D01*
X25443949Y9192046D01*
X25582036Y9151501D01*
X25582038Y9151500D01*
X25582039Y9151500D01*
X25725961Y9151500D01*
X25764541Y9162828D01*
X25834411Y9162828D01*
X25893189Y9125054D01*
X25922214Y9061499D01*
X25930834Y9001544D01*
X25975989Y8902670D01*
X25990623Y8870627D01*
X26084872Y8761857D01*
X26205947Y8684047D01*
X26205950Y8684046D01*
X26205949Y8684046D01*
X26344036Y8643501D01*
X26344038Y8643500D01*
X26344039Y8643500D01*
X26487962Y8643500D01*
X26487962Y8643501D01*
X26626053Y8684047D01*
X26747128Y8761857D01*
X26841377Y8870627D01*
X26901165Y9001543D01*
X26921647Y9144000D01*
X30734353Y9144000D01*
X30754834Y9001544D01*
X30799989Y8902670D01*
X30814623Y8870627D01*
X30908872Y8761857D01*
X31029947Y8684047D01*
X31029950Y8684046D01*
X31029949Y8684046D01*
X31168036Y8643501D01*
X31168038Y8643500D01*
X31168039Y8643500D01*
X31311962Y8643500D01*
X31311962Y8643501D01*
X31450053Y8684047D01*
X31571128Y8761857D01*
X31665377Y8870627D01*
X31725165Y9001543D01*
X31745647Y9144000D01*
X34165353Y9144000D01*
X34185834Y9001544D01*
X34230989Y8902670D01*
X34245623Y8870627D01*
X34339872Y8761857D01*
X34460947Y8684047D01*
X34460950Y8684046D01*
X34460949Y8684046D01*
X34599036Y8643501D01*
X34599038Y8643500D01*
X34599039Y8643500D01*
X34742961Y8643500D01*
X34803801Y8661364D01*
X34873671Y8661364D01*
X34932449Y8623590D01*
X34961474Y8560034D01*
X34951530Y8490876D01*
X34932449Y8461185D01*
X34880625Y8401378D01*
X34880622Y8401372D01*
X34820834Y8270457D01*
X34800353Y8128000D01*
X34820834Y7985544D01*
X34868350Y7881501D01*
X34880623Y7854627D01*
X34974872Y7745857D01*
X35095947Y7668047D01*
X35095950Y7668046D01*
X35095949Y7668046D01*
X35234036Y7627501D01*
X35234038Y7627500D01*
X35234039Y7627500D01*
X35377962Y7627500D01*
X35377962Y7627501D01*
X35516053Y7668047D01*
X35637128Y7745857D01*
X35731377Y7854627D01*
X35791165Y7985543D01*
X35798509Y8036622D01*
X35827534Y8100178D01*
X35886312Y8137952D01*
X35886313Y8137952D01*
X36016050Y8176046D01*
X36016050Y8176047D01*
X36016053Y8176047D01*
X36137128Y8253857D01*
X36137136Y8253867D01*
X36141267Y8257445D01*
X36204821Y8286473D01*
X36273980Y8276533D01*
X36326787Y8230781D01*
X36346475Y8163743D01*
X36345213Y8146090D01*
X36324352Y8001001D01*
X36344834Y7858544D01*
X36404622Y7727629D01*
X36404623Y7727627D01*
X36498872Y7618857D01*
X36619947Y7541047D01*
X36619950Y7541046D01*
X36619949Y7541046D01*
X36758036Y7500501D01*
X36758038Y7500500D01*
X36758039Y7500500D01*
X36901962Y7500500D01*
X36901962Y7500501D01*
X37040053Y7541047D01*
X37161128Y7618857D01*
X37162118Y7620000D01*
X41150353Y7620000D01*
X41170834Y7477544D01*
X41230622Y7346629D01*
X41230623Y7346627D01*
X41324872Y7237857D01*
X41445947Y7160047D01*
X41445950Y7160046D01*
X41445949Y7160046D01*
X41584036Y7119501D01*
X41584038Y7119500D01*
X41584039Y7119500D01*
X41727962Y7119500D01*
X41727962Y7119501D01*
X41866053Y7160047D01*
X41987128Y7237857D01*
X42081377Y7346627D01*
X42141165Y7477543D01*
X42161647Y7620000D01*
X42141165Y7762457D01*
X42081377Y7893373D01*
X41987128Y8002143D01*
X41866053Y8079953D01*
X41866051Y8079954D01*
X41866049Y8079955D01*
X41866050Y8079955D01*
X41727963Y8120500D01*
X41727961Y8120500D01*
X41584039Y8120500D01*
X41584036Y8120500D01*
X41445949Y8079955D01*
X41324873Y8002144D01*
X41324872Y8002144D01*
X41324872Y8002143D01*
X41323882Y8001000D01*
X41230623Y7893374D01*
X41230622Y7893372D01*
X41170834Y7762457D01*
X41150353Y7620000D01*
X37162118Y7620000D01*
X37255377Y7727627D01*
X37315165Y7858543D01*
X37335647Y8001000D01*
X37315165Y8143457D01*
X37255377Y8274373D01*
X37162118Y8382000D01*
X42420353Y8382000D01*
X42440834Y8239544D01*
X42495201Y8120500D01*
X42500623Y8108627D01*
X42594872Y7999857D01*
X42715947Y7922047D01*
X42715950Y7922046D01*
X42715949Y7922046D01*
X42854036Y7881501D01*
X42854038Y7881500D01*
X42854039Y7881500D01*
X42997962Y7881500D01*
X42997962Y7881501D01*
X43136053Y7922047D01*
X43257128Y7999857D01*
X43351377Y8108627D01*
X43411165Y8239543D01*
X43431647Y8382000D01*
X46738353Y8382000D01*
X46758834Y8239544D01*
X46813201Y8120500D01*
X46818623Y8108627D01*
X46912872Y7999857D01*
X47033947Y7922047D01*
X47033950Y7922046D01*
X47033949Y7922046D01*
X47172036Y7881501D01*
X47172038Y7881500D01*
X47172039Y7881500D01*
X47315962Y7881500D01*
X47315962Y7881501D01*
X47454053Y7922047D01*
X47575128Y7999857D01*
X47669377Y8108627D01*
X47729165Y8239543D01*
X47749647Y8382000D01*
X47729165Y8524457D01*
X47669377Y8655373D01*
X47575128Y8764143D01*
X47454053Y8841953D01*
X47454051Y8841954D01*
X47454049Y8841955D01*
X47454050Y8841955D01*
X47315963Y8882500D01*
X47315961Y8882500D01*
X47172039Y8882500D01*
X47172036Y8882500D01*
X47033949Y8841955D01*
X46912873Y8764144D01*
X46818623Y8655374D01*
X46818622Y8655372D01*
X46758834Y8524457D01*
X46738353Y8382000D01*
X43431647Y8382000D01*
X43411165Y8524457D01*
X43351377Y8655373D01*
X43257128Y8764143D01*
X43136053Y8841953D01*
X43136051Y8841954D01*
X43136049Y8841955D01*
X43136050Y8841955D01*
X42997963Y8882500D01*
X42997961Y8882500D01*
X42854039Y8882500D01*
X42854036Y8882500D01*
X42715949Y8841955D01*
X42594873Y8764144D01*
X42500623Y8655374D01*
X42500622Y8655372D01*
X42440834Y8524457D01*
X42420353Y8382000D01*
X37162118Y8382000D01*
X37161128Y8383143D01*
X37040053Y8460953D01*
X37040051Y8460954D01*
X37040049Y8460955D01*
X37040050Y8460955D01*
X36901963Y8501500D01*
X36901961Y8501500D01*
X36758039Y8501500D01*
X36758036Y8501500D01*
X36619949Y8460955D01*
X36498872Y8383144D01*
X36494723Y8379548D01*
X36431166Y8350526D01*
X36362008Y8360473D01*
X36309206Y8406230D01*
X36289524Y8473271D01*
X36290786Y8490912D01*
X36291163Y8493541D01*
X36291165Y8493543D01*
X36311647Y8636000D01*
X36291165Y8778457D01*
X36231377Y8909373D01*
X36137128Y9018143D01*
X36016053Y9095953D01*
X36016051Y9095954D01*
X36016049Y9095955D01*
X36016050Y9095955D01*
X35877963Y9136500D01*
X35877961Y9136500D01*
X35734039Y9136500D01*
X35734036Y9136500D01*
X35595949Y9095955D01*
X35474873Y9018144D01*
X35474872Y9018144D01*
X35474872Y9018143D01*
X35411087Y8944530D01*
X35374815Y8902670D01*
X35373072Y8904180D01*
X35329771Y8866662D01*
X35260612Y8856722D01*
X35197058Y8885750D01*
X35159286Y8944530D01*
X35155527Y8997106D01*
X35156165Y9001544D01*
X35176647Y9144000D01*
X35156165Y9286457D01*
X35096377Y9417373D01*
X35002128Y9526143D01*
X34881053Y9603953D01*
X34881051Y9603954D01*
X34881049Y9603955D01*
X34881050Y9603955D01*
X34774296Y9635300D01*
X37236354Y9635300D01*
X37256835Y9492844D01*
X37280635Y9440730D01*
X37316624Y9361927D01*
X37410873Y9253157D01*
X37531948Y9175347D01*
X37531951Y9175346D01*
X37531950Y9175346D01*
X37613161Y9151501D01*
X37664250Y9136500D01*
X37670037Y9134801D01*
X37670039Y9134800D01*
X37670040Y9134800D01*
X37813963Y9134800D01*
X37813963Y9134801D01*
X37952054Y9175347D01*
X38073129Y9253157D01*
X38167378Y9361927D01*
X38227166Y9492843D01*
X38247648Y9635300D01*
X38227166Y9777757D01*
X38167378Y9908673D01*
X38073129Y10017443D01*
X37952054Y10095253D01*
X37952052Y10095254D01*
X37952050Y10095255D01*
X37952051Y10095255D01*
X37813964Y10135800D01*
X37813962Y10135800D01*
X37670040Y10135800D01*
X37670037Y10135800D01*
X37531950Y10095255D01*
X37410874Y10017444D01*
X37316624Y9908674D01*
X37316623Y9908672D01*
X37256835Y9777757D01*
X37236354Y9635300D01*
X34774296Y9635300D01*
X34742963Y9644500D01*
X34742961Y9644500D01*
X34599039Y9644500D01*
X34599036Y9644500D01*
X34460949Y9603955D01*
X34339873Y9526144D01*
X34245623Y9417374D01*
X34245622Y9417372D01*
X34185834Y9286457D01*
X34165353Y9144000D01*
X31745647Y9144000D01*
X31725165Y9286457D01*
X31665377Y9417373D01*
X31571128Y9526143D01*
X31450053Y9603953D01*
X31450051Y9603954D01*
X31450049Y9603955D01*
X31450050Y9603955D01*
X31311963Y9644500D01*
X31311961Y9644500D01*
X31168039Y9644500D01*
X31168036Y9644500D01*
X31029949Y9603955D01*
X30908873Y9526144D01*
X30814623Y9417374D01*
X30814622Y9417372D01*
X30754834Y9286457D01*
X30734353Y9144000D01*
X26921647Y9144000D01*
X26901165Y9286457D01*
X26841377Y9417373D01*
X26747128Y9526143D01*
X26626053Y9603953D01*
X26626051Y9603954D01*
X26626049Y9603955D01*
X26626050Y9603955D01*
X26487963Y9644500D01*
X26487961Y9644500D01*
X26344039Y9644500D01*
X26344038Y9644500D01*
X26305455Y9633172D01*
X26235585Y9633174D01*
X26176808Y9670949D01*
X26157101Y9714103D01*
X27877456Y9714103D01*
X27897937Y9571647D01*
X27949478Y9458790D01*
X27957726Y9440730D01*
X28051975Y9331960D01*
X28173050Y9254150D01*
X28173053Y9254149D01*
X28173052Y9254149D01*
X28280210Y9222686D01*
X28300945Y9216597D01*
X28311139Y9213604D01*
X28311141Y9213603D01*
X28311142Y9213603D01*
X28455065Y9213603D01*
X28455065Y9213604D01*
X28593156Y9254150D01*
X28714231Y9331960D01*
X28808480Y9440730D01*
X28868268Y9571646D01*
X28888750Y9714103D01*
X28868268Y9856560D01*
X28808480Y9987476D01*
X28714231Y10096246D01*
X28593156Y10174056D01*
X28593154Y10174057D01*
X28593152Y10174058D01*
X28593153Y10174058D01*
X28455066Y10214603D01*
X28455064Y10214603D01*
X28311142Y10214603D01*
X28311139Y10214603D01*
X28173052Y10174058D01*
X28051976Y10096247D01*
X27957726Y9987477D01*
X27957725Y9987475D01*
X27897937Y9856560D01*
X27877456Y9714103D01*
X26157101Y9714103D01*
X26147785Y9734503D01*
X26139165Y9794457D01*
X26121377Y9833407D01*
X26079377Y9925373D01*
X25985128Y10034143D01*
X25864053Y10111953D01*
X25864052Y10111954D01*
X25864051Y10111954D01*
X25842405Y10118310D01*
X25783627Y10156085D01*
X25754603Y10219641D01*
X25757680Y10262654D01*
X25756903Y10262765D01*
X25766839Y10331876D01*
X25778647Y10414000D01*
X25758165Y10556457D01*
X25698377Y10687373D01*
X25604128Y10796143D01*
X25483053Y10873953D01*
X25483051Y10873954D01*
X25483049Y10873955D01*
X25483050Y10873955D01*
X25344963Y10914500D01*
X25344961Y10914500D01*
X25201039Y10914500D01*
X25201036Y10914500D01*
X25062949Y10873955D01*
X24941873Y10796144D01*
X24847623Y10687374D01*
X24847622Y10687372D01*
X24787834Y10556457D01*
X24767353Y10414000D01*
X23981744Y10414000D01*
X24016219Y10489489D01*
X24036701Y10631946D01*
X24016219Y10774403D01*
X23956431Y10905319D01*
X23862182Y11014089D01*
X23827635Y11036291D01*
X23741105Y11091901D01*
X23647884Y11119272D01*
X23589106Y11157046D01*
X23560081Y11220602D01*
X23570025Y11289760D01*
X23589103Y11319448D01*
X23666377Y11408627D01*
X23720772Y11527734D01*
X25589285Y11527734D01*
X25748056Y11472176D01*
X25915996Y11453254D01*
X25916004Y11453254D01*
X26083943Y11472176D01*
X26242713Y11527733D01*
X26242714Y11527734D01*
X26589285Y11527734D01*
X26748056Y11472176D01*
X26915996Y11453254D01*
X26916004Y11453254D01*
X27083943Y11472176D01*
X27242713Y11527733D01*
X27242714Y11527734D01*
X27589285Y11527734D01*
X27748056Y11472176D01*
X27915996Y11453254D01*
X27916004Y11453254D01*
X28083943Y11472176D01*
X28242713Y11527733D01*
X28242714Y11527734D01*
X27916001Y11854447D01*
X27916000Y11854447D01*
X27589285Y11527734D01*
X27242714Y11527734D01*
X26916001Y11854447D01*
X26916000Y11854447D01*
X26589285Y11527734D01*
X26242714Y11527734D01*
X25916001Y11854447D01*
X25916000Y11854447D01*
X25589285Y11527734D01*
X23720772Y11527734D01*
X23726165Y11539543D01*
X23746647Y11682000D01*
X23726165Y11824457D01*
X23666377Y11955373D01*
X23572128Y12064143D01*
X23451053Y12141953D01*
X23451051Y12141954D01*
X23451049Y12141955D01*
X23451050Y12141955D01*
X23312963Y12182500D01*
X23312961Y12182500D01*
X23169039Y12182500D01*
X23169036Y12182500D01*
X23030949Y12141955D01*
X22909873Y12064144D01*
X22815623Y11955374D01*
X22815622Y11955372D01*
X22755834Y11824457D01*
X22735353Y11682000D01*
X19951475Y11682000D01*
X19876877Y11756598D01*
X19697639Y11882102D01*
X19546414Y11952619D01*
X19493977Y11998790D01*
X19474825Y12065984D01*
X19495041Y12132865D01*
X19546414Y12177382D01*
X19612084Y12208004D01*
X25161254Y12208004D01*
X25161254Y12207997D01*
X25180175Y12040062D01*
X25180176Y12040057D01*
X25235732Y11881286D01*
X25562447Y12208000D01*
X25542556Y12227891D01*
X25816000Y12227891D01*
X25816000Y12188109D01*
X25831224Y12151355D01*
X25859355Y12123224D01*
X25896109Y12108000D01*
X25935891Y12108000D01*
X25972645Y12123224D01*
X26000776Y12151355D01*
X26016000Y12188109D01*
X26016000Y12208000D01*
X26269553Y12208000D01*
X26416000Y12061553D01*
X26562447Y12208000D01*
X26542556Y12227891D01*
X26816000Y12227891D01*
X26816000Y12188109D01*
X26831224Y12151355D01*
X26859355Y12123224D01*
X26896109Y12108000D01*
X26935891Y12108000D01*
X26972645Y12123224D01*
X27000776Y12151355D01*
X27016000Y12188109D01*
X27016000Y12208000D01*
X27269553Y12208000D01*
X27416000Y12061553D01*
X27562447Y12208000D01*
X27542556Y12227891D01*
X27816000Y12227891D01*
X27816000Y12188109D01*
X27831224Y12151355D01*
X27859355Y12123224D01*
X27896109Y12108000D01*
X27935891Y12108000D01*
X27972645Y12123224D01*
X28000776Y12151355D01*
X28016000Y12188109D01*
X28016000Y12208001D01*
X28269553Y12208001D01*
X28269553Y12207999D01*
X28596266Y11881286D01*
X28596267Y11881287D01*
X28651824Y12040057D01*
X28670746Y12207997D01*
X28670746Y12208004D01*
X28651824Y12375944D01*
X28596266Y12534715D01*
X28269553Y12208001D01*
X28016000Y12208001D01*
X28016000Y12227891D01*
X28000776Y12264645D01*
X27972645Y12292776D01*
X27935891Y12308000D01*
X27896109Y12308000D01*
X27859355Y12292776D01*
X27831224Y12264645D01*
X27816000Y12227891D01*
X27542556Y12227891D01*
X27416000Y12354447D01*
X27269553Y12208000D01*
X27016000Y12208000D01*
X27016000Y12227891D01*
X27000776Y12264645D01*
X26972645Y12292776D01*
X26935891Y12308000D01*
X26896109Y12308000D01*
X26859355Y12292776D01*
X26831224Y12264645D01*
X26816000Y12227891D01*
X26542556Y12227891D01*
X26416000Y12354447D01*
X26269553Y12208000D01*
X26016000Y12208000D01*
X26016000Y12227891D01*
X26000776Y12264645D01*
X25972645Y12292776D01*
X25935891Y12308000D01*
X25896109Y12308000D01*
X25859355Y12292776D01*
X25831224Y12264645D01*
X25816000Y12227891D01*
X25542556Y12227891D01*
X25235732Y12534715D01*
X25180176Y12375947D01*
X25180175Y12375942D01*
X25161254Y12208004D01*
X19612084Y12208004D01*
X19697639Y12247898D01*
X19876877Y12373402D01*
X20031598Y12528123D01*
X20157102Y12707361D01*
X20157400Y12708000D01*
X25769553Y12708000D01*
X25916000Y12561553D01*
X26062447Y12708000D01*
X26769553Y12708000D01*
X26916000Y12561553D01*
X27062447Y12708000D01*
X27769553Y12708000D01*
X27916000Y12561553D01*
X28062447Y12708000D01*
X27916000Y12854447D01*
X27769553Y12708000D01*
X27062447Y12708000D01*
X26916000Y12854447D01*
X26769553Y12708000D01*
X26062447Y12708000D01*
X25916000Y12854447D01*
X25769553Y12708000D01*
X20157400Y12708000D01*
X20249575Y12905670D01*
X20306207Y13117023D01*
X20325277Y13335000D01*
X20323991Y13349697D01*
X22490451Y13349697D01*
X22510932Y13207241D01*
X22570720Y13076326D01*
X22570721Y13076324D01*
X22664970Y12967554D01*
X22786045Y12889744D01*
X22786048Y12889743D01*
X22786047Y12889743D01*
X22924134Y12849198D01*
X22924136Y12849197D01*
X22924137Y12849197D01*
X23068060Y12849197D01*
X23068060Y12849198D01*
X23206151Y12889744D01*
X23327226Y12967554D01*
X23421475Y13076324D01*
X23481263Y13207240D01*
X23481373Y13208004D01*
X25161254Y13208004D01*
X25161254Y13207997D01*
X25180175Y13040062D01*
X25180176Y13040057D01*
X25235732Y12881286D01*
X25562447Y13208000D01*
X25542556Y13227891D01*
X25816000Y13227891D01*
X25816000Y13188109D01*
X25831224Y13151355D01*
X25859355Y13123224D01*
X25896109Y13108000D01*
X25935891Y13108000D01*
X25972645Y13123224D01*
X26000776Y13151355D01*
X26016000Y13188109D01*
X26016000Y13208000D01*
X26269553Y13208000D01*
X26416000Y13061553D01*
X26562447Y13208000D01*
X26542556Y13227891D01*
X26816000Y13227891D01*
X26816000Y13188109D01*
X26831224Y13151355D01*
X26859355Y13123224D01*
X26896109Y13108000D01*
X26935891Y13108000D01*
X26972645Y13123224D01*
X27000776Y13151355D01*
X27016000Y13188109D01*
X27016000Y13208000D01*
X27269553Y13208000D01*
X27416000Y13061553D01*
X27562447Y13208000D01*
X27542556Y13227891D01*
X27816000Y13227891D01*
X27816000Y13188109D01*
X27831224Y13151355D01*
X27859355Y13123224D01*
X27896109Y13108000D01*
X27935891Y13108000D01*
X27972645Y13123224D01*
X28000776Y13151355D01*
X28016000Y13188109D01*
X28016000Y13208001D01*
X28269553Y13208001D01*
X28269553Y13207999D01*
X28596266Y12881286D01*
X28596267Y12881287D01*
X28651824Y13040057D01*
X28670746Y13207997D01*
X28670746Y13208004D01*
X28651824Y13375944D01*
X28596266Y13534715D01*
X28269553Y13208001D01*
X28016000Y13208001D01*
X28016000Y13227891D01*
X28000776Y13264645D01*
X27972645Y13292776D01*
X27935891Y13308000D01*
X27896109Y13308000D01*
X27859355Y13292776D01*
X27831224Y13264645D01*
X27816000Y13227891D01*
X27542556Y13227891D01*
X27416000Y13354447D01*
X27269553Y13208000D01*
X27016000Y13208000D01*
X27016000Y13227891D01*
X27000776Y13264645D01*
X26972645Y13292776D01*
X26935891Y13308000D01*
X26896109Y13308000D01*
X26859355Y13292776D01*
X26831224Y13264645D01*
X26816000Y13227891D01*
X26542556Y13227891D01*
X26416000Y13354447D01*
X26269553Y13208000D01*
X26016000Y13208000D01*
X26016000Y13227891D01*
X26000776Y13264645D01*
X25972645Y13292776D01*
X25935891Y13308000D01*
X25896109Y13308000D01*
X25859355Y13292776D01*
X25831224Y13264645D01*
X25816000Y13227891D01*
X25542556Y13227891D01*
X25235732Y13534715D01*
X25180176Y13375947D01*
X25180175Y13375942D01*
X25161254Y13208004D01*
X23481373Y13208004D01*
X23501745Y13349697D01*
X23485866Y13460138D01*
X23495810Y13529294D01*
X23541564Y13582098D01*
X23573672Y13596761D01*
X23578053Y13598047D01*
X23699128Y13675857D01*
X23726980Y13708000D01*
X25769553Y13708000D01*
X25916000Y13561553D01*
X26062447Y13708000D01*
X26769553Y13708000D01*
X26916000Y13561553D01*
X27062447Y13708000D01*
X27769553Y13708000D01*
X27916000Y13561553D01*
X28062447Y13708000D01*
X27916000Y13854447D01*
X27769553Y13708000D01*
X27062447Y13708000D01*
X26916000Y13854447D01*
X26769553Y13708000D01*
X26062447Y13708000D01*
X25916000Y13854447D01*
X25769553Y13708000D01*
X23726980Y13708000D01*
X23793377Y13784627D01*
X23853165Y13915543D01*
X23873647Y14058000D01*
X23853165Y14200457D01*
X23849718Y14208004D01*
X25161254Y14208004D01*
X25161254Y14207997D01*
X25180175Y14040062D01*
X25180176Y14040057D01*
X25235732Y13881286D01*
X25562447Y14208000D01*
X25542556Y14227891D01*
X25816000Y14227891D01*
X25816000Y14188109D01*
X25831224Y14151355D01*
X25859355Y14123224D01*
X25896109Y14108000D01*
X25935891Y14108000D01*
X25972645Y14123224D01*
X26000776Y14151355D01*
X26016000Y14188109D01*
X26016000Y14208000D01*
X26269553Y14208000D01*
X26416000Y14061553D01*
X26562447Y14208000D01*
X26542556Y14227891D01*
X26816000Y14227891D01*
X26816000Y14188109D01*
X26831224Y14151355D01*
X26859355Y14123224D01*
X26896109Y14108000D01*
X26935891Y14108000D01*
X26972645Y14123224D01*
X27000776Y14151355D01*
X27016000Y14188109D01*
X27016000Y14208000D01*
X27269553Y14208000D01*
X27416000Y14061553D01*
X27562447Y14208000D01*
X27542556Y14227891D01*
X27816000Y14227891D01*
X27816000Y14188109D01*
X27831224Y14151355D01*
X27859355Y14123224D01*
X27896109Y14108000D01*
X27935891Y14108000D01*
X27972645Y14123224D01*
X28000776Y14151355D01*
X28016000Y14188109D01*
X28016000Y14208001D01*
X28269553Y14208001D01*
X28269553Y14207999D01*
X28596266Y13881286D01*
X28596267Y13881287D01*
X28651824Y14040057D01*
X28670746Y14207997D01*
X28670746Y14208004D01*
X28668944Y14224000D01*
X30734353Y14224000D01*
X30754834Y14081544D01*
X30798223Y13986537D01*
X30814623Y13950627D01*
X30908872Y13841857D01*
X31029947Y13764047D01*
X31029950Y13764046D01*
X31029949Y13764046D01*
X31151925Y13728231D01*
X31204672Y13696935D01*
X31313181Y13588426D01*
X31346666Y13527103D01*
X31349500Y13500745D01*
X31349500Y12214629D01*
X31329815Y12147590D01*
X31277011Y12101835D01*
X31260441Y12095654D01*
X31255954Y12094337D01*
X31255946Y12094333D01*
X31134874Y12016525D01*
X31040624Y11907755D01*
X31040623Y11907753D01*
X30980835Y11776838D01*
X30960354Y11634381D01*
X30980835Y11491926D01*
X30986172Y11480240D01*
X30996113Y11411081D01*
X30967087Y11347526D01*
X30940417Y11324416D01*
X30908873Y11304144D01*
X30814623Y11195374D01*
X30814622Y11195372D01*
X30754834Y11064457D01*
X30734353Y10922000D01*
X30754834Y10779544D01*
X30814622Y10648629D01*
X30814623Y10648627D01*
X30908872Y10539857D01*
X31029947Y10462047D01*
X31029950Y10462046D01*
X31029949Y10462046D01*
X31168036Y10421501D01*
X31168038Y10421500D01*
X31168039Y10421500D01*
X31311962Y10421500D01*
X31311962Y10421501D01*
X31450053Y10462047D01*
X31571128Y10539857D01*
X31665377Y10648627D01*
X31725165Y10779543D01*
X31745647Y10922000D01*
X34165353Y10922000D01*
X34185834Y10779544D01*
X34245622Y10648629D01*
X34245623Y10648627D01*
X34339872Y10539857D01*
X34460947Y10462047D01*
X34460950Y10462046D01*
X34460949Y10462046D01*
X34599036Y10421501D01*
X34599038Y10421500D01*
X34599039Y10421500D01*
X34742962Y10421500D01*
X34742962Y10421501D01*
X34881053Y10462047D01*
X35002128Y10539857D01*
X35096377Y10648627D01*
X35156165Y10779543D01*
X35176647Y10922000D01*
X35156165Y11064457D01*
X35096377Y11195373D01*
X35002128Y11304143D01*
X34881053Y11381953D01*
X34881051Y11381954D01*
X34881049Y11381955D01*
X34881050Y11381955D01*
X34742963Y11422500D01*
X34742961Y11422500D01*
X34599039Y11422500D01*
X34599036Y11422500D01*
X34460949Y11381955D01*
X34339873Y11304144D01*
X34245623Y11195374D01*
X34245622Y11195372D01*
X34185834Y11064457D01*
X34165353Y10922000D01*
X31745647Y10922000D01*
X31725165Y11064457D01*
X31719828Y11076142D01*
X31709886Y11145298D01*
X31738911Y11208854D01*
X31765579Y11231963D01*
X31797129Y11252238D01*
X31891378Y11361008D01*
X31951166Y11491924D01*
X31955573Y11522582D01*
X31984595Y11586137D01*
X31990631Y11592619D01*
X32070477Y11672464D01*
X32070477Y11672465D01*
X32070480Y11672467D01*
X32077139Y11684000D01*
X42870353Y11684000D01*
X42890834Y11541544D01*
X42938413Y11437362D01*
X42950623Y11410627D01*
X43044872Y11301857D01*
X43165947Y11224047D01*
X43165950Y11224046D01*
X43165949Y11224046D01*
X43304036Y11183501D01*
X43304038Y11183500D01*
X43304039Y11183500D01*
X43447962Y11183500D01*
X43447962Y11183501D01*
X43555121Y11214965D01*
X43586050Y11224046D01*
X43586050Y11224047D01*
X43586053Y11224047D01*
X43707128Y11301857D01*
X43801377Y11410627D01*
X43861165Y11541543D01*
X43881647Y11684000D01*
X43861165Y11826457D01*
X43824583Y11906558D01*
X43814640Y11975715D01*
X43843665Y12039271D01*
X43902443Y12077046D01*
X43902444Y12077046D01*
X44025050Y12113046D01*
X44025050Y12113047D01*
X44025053Y12113047D01*
X44146128Y12190857D01*
X44184255Y12234859D01*
X44243030Y12272633D01*
X44312900Y12272634D01*
X44371679Y12234860D01*
X44390760Y12205170D01*
X44405621Y12172630D01*
X44405622Y12172629D01*
X44405623Y12172627D01*
X44499872Y12063857D01*
X44620947Y11986047D01*
X44620950Y11986046D01*
X44620949Y11986046D01*
X44759036Y11945501D01*
X44759038Y11945500D01*
X44759039Y11945500D01*
X44902962Y11945500D01*
X44902962Y11945501D01*
X45041053Y11986047D01*
X45162128Y12063857D01*
X45256377Y12172627D01*
X45316165Y12303543D01*
X45336647Y12446000D01*
X45316165Y12588457D01*
X45265224Y12700000D01*
X48008353Y12700000D01*
X48028834Y12557544D01*
X48086835Y12430543D01*
X48088623Y12426627D01*
X48182872Y12317857D01*
X48303947Y12240047D01*
X48303950Y12240046D01*
X48303949Y12240046D01*
X48442036Y12199501D01*
X48442038Y12199500D01*
X48442039Y12199500D01*
X48585962Y12199500D01*
X48585962Y12199501D01*
X48706377Y12234857D01*
X48724050Y12240046D01*
X48724050Y12240047D01*
X48724053Y12240047D01*
X48845128Y12317857D01*
X48939377Y12426627D01*
X48999165Y12557543D01*
X49019647Y12700000D01*
X48999165Y12842457D01*
X48939377Y12973373D01*
X48845128Y13082143D01*
X48724053Y13159953D01*
X48724051Y13159954D01*
X48724049Y13159955D01*
X48724050Y13159955D01*
X48585963Y13200500D01*
X48585961Y13200500D01*
X48442039Y13200500D01*
X48442036Y13200500D01*
X48303949Y13159955D01*
X48182873Y13082144D01*
X48088623Y12973374D01*
X48088622Y12973372D01*
X48028834Y12842457D01*
X48008353Y12700000D01*
X45265224Y12700000D01*
X45256377Y12719373D01*
X45162128Y12828143D01*
X45041053Y12905953D01*
X45041051Y12905954D01*
X45041049Y12905955D01*
X45041050Y12905955D01*
X44902963Y12946500D01*
X44902961Y12946500D01*
X44759039Y12946500D01*
X44759036Y12946500D01*
X44620949Y12905955D01*
X44499872Y12828143D01*
X44499869Y12828141D01*
X44461744Y12784142D01*
X44402966Y12746368D01*
X44333096Y12746368D01*
X44274319Y12784143D01*
X44255238Y12813833D01*
X44240377Y12846372D01*
X44240376Y12846374D01*
X44233381Y12854447D01*
X44146128Y12955143D01*
X44025053Y13032953D01*
X44025051Y13032954D01*
X44025049Y13032955D01*
X44025050Y13032955D01*
X43886963Y13073500D01*
X43886961Y13073500D01*
X43743039Y13073500D01*
X43743036Y13073500D01*
X43604949Y13032955D01*
X43483873Y12955144D01*
X43389623Y12846374D01*
X43389622Y12846372D01*
X43329834Y12715457D01*
X43309353Y12573000D01*
X43329834Y12430543D01*
X43329835Y12430542D01*
X43366415Y12350443D01*
X43376359Y12281285D01*
X43347334Y12217729D01*
X43288556Y12179955D01*
X43165949Y12143955D01*
X43044873Y12066144D01*
X42950623Y11957374D01*
X42950622Y11957372D01*
X42890834Y11826457D01*
X42870353Y11684000D01*
X32077139Y11684000D01*
X32123207Y11763792D01*
X32150500Y11865653D01*
X32150500Y11971107D01*
X32150500Y12954000D01*
X34165353Y12954000D01*
X34185834Y12811544D01*
X34240135Y12692643D01*
X34245623Y12680627D01*
X34339872Y12571857D01*
X34460947Y12494047D01*
X34460950Y12494046D01*
X34460949Y12494046D01*
X34599036Y12453501D01*
X34599038Y12453500D01*
X34599039Y12453500D01*
X34742962Y12453500D01*
X34742962Y12453501D01*
X34881053Y12494047D01*
X35002128Y12571857D01*
X35096377Y12680627D01*
X35156165Y12811543D01*
X35176647Y12954000D01*
X35804353Y12954000D01*
X35824834Y12811544D01*
X35879135Y12692643D01*
X35884623Y12680627D01*
X35978872Y12571857D01*
X36099947Y12494047D01*
X36099950Y12494046D01*
X36099949Y12494046D01*
X36238036Y12453501D01*
X36238038Y12453500D01*
X36238039Y12453500D01*
X36381962Y12453500D01*
X36381962Y12453501D01*
X36520053Y12494047D01*
X36641128Y12571857D01*
X36735377Y12680627D01*
X36795165Y12811543D01*
X36815647Y12954000D01*
X36795165Y13096457D01*
X36735377Y13227373D01*
X36641128Y13336143D01*
X36520053Y13413953D01*
X36520051Y13413954D01*
X36520049Y13413955D01*
X36520050Y13413955D01*
X36381963Y13454500D01*
X36381961Y13454500D01*
X36238039Y13454500D01*
X36238036Y13454500D01*
X36099949Y13413955D01*
X35978873Y13336144D01*
X35884623Y13227374D01*
X35884622Y13227372D01*
X35824834Y13096457D01*
X35804353Y12954000D01*
X35176647Y12954000D01*
X35156165Y13096457D01*
X35096377Y13227373D01*
X35002128Y13336143D01*
X34881053Y13413953D01*
X34881051Y13413954D01*
X34881049Y13413955D01*
X34881050Y13413955D01*
X34742963Y13454500D01*
X34742961Y13454500D01*
X34599039Y13454500D01*
X34599036Y13454500D01*
X34460949Y13413955D01*
X34339873Y13336144D01*
X34245623Y13227374D01*
X34245622Y13227372D01*
X34185834Y13096457D01*
X34165353Y12954000D01*
X32150500Y12954000D01*
X32150500Y13462002D01*
X38002318Y13462002D01*
X38002318Y13461999D01*
X38022955Y13305240D01*
X38022956Y13305238D01*
X38063234Y13207997D01*
X38083464Y13159159D01*
X38179718Y13033718D01*
X38305159Y12937464D01*
X38451238Y12876956D01*
X38489825Y12871876D01*
X38607999Y12856318D01*
X38608000Y12856318D01*
X38608001Y12856318D01*
X38660254Y12863198D01*
X38764762Y12876956D01*
X38910841Y12937464D01*
X39036282Y13033718D01*
X39132536Y13159159D01*
X39166613Y13241428D01*
X39210454Y13295832D01*
X39276748Y13317897D01*
X39344447Y13300618D01*
X39348211Y13298293D01*
X39413947Y13256047D01*
X39413948Y13256047D01*
X39413949Y13256046D01*
X39552036Y13215501D01*
X39552038Y13215500D01*
X39552039Y13215500D01*
X39695962Y13215500D01*
X39695962Y13215501D01*
X39834053Y13256047D01*
X39955128Y13333857D01*
X40049377Y13442627D01*
X40109165Y13573543D01*
X40129647Y13716000D01*
X40109165Y13858457D01*
X40049377Y13989373D01*
X39955128Y14098143D01*
X39834053Y14175953D01*
X39834051Y14175954D01*
X39834049Y14175955D01*
X39834050Y14175955D01*
X39695963Y14216500D01*
X39695961Y14216500D01*
X39552039Y14216500D01*
X39552036Y14216500D01*
X39413949Y14175955D01*
X39292873Y14098144D01*
X39198623Y13989374D01*
X39198622Y13989373D01*
X39187690Y13965435D01*
X39141933Y13912633D01*
X39074893Y13892950D01*
X39007854Y13912637D01*
X38999411Y13918574D01*
X38910842Y13986536D01*
X38764762Y14047044D01*
X38764760Y14047045D01*
X38608001Y14067682D01*
X38607999Y14067682D01*
X38451239Y14047045D01*
X38451237Y14047044D01*
X38305160Y13986537D01*
X38179718Y13890282D01*
X38083463Y13764840D01*
X38022956Y13618763D01*
X38022955Y13618761D01*
X38002318Y13462002D01*
X32150500Y13462002D01*
X32150500Y13770727D01*
X32131441Y13841857D01*
X32131441Y13841859D01*
X32123208Y13872586D01*
X32118185Y13881286D01*
X32070480Y13963913D01*
X31763958Y14270435D01*
X31730473Y14331758D01*
X31728901Y14340471D01*
X31728478Y14343409D01*
X31725165Y14366457D01*
X31665377Y14497373D01*
X31571128Y14606143D01*
X31450053Y14683953D01*
X31450051Y14683954D01*
X31450049Y14683955D01*
X31450050Y14683955D01*
X31311963Y14724500D01*
X31311961Y14724500D01*
X31168039Y14724500D01*
X31168036Y14724500D01*
X31029949Y14683955D01*
X30908873Y14606144D01*
X30814623Y14497374D01*
X30814622Y14497372D01*
X30754834Y14366457D01*
X30734353Y14224000D01*
X28668944Y14224000D01*
X28651824Y14375944D01*
X28596266Y14534715D01*
X28269553Y14208001D01*
X28016000Y14208001D01*
X28016000Y14227891D01*
X28000776Y14264645D01*
X27972645Y14292776D01*
X27935891Y14308000D01*
X27896109Y14308000D01*
X27859355Y14292776D01*
X27831224Y14264645D01*
X27816000Y14227891D01*
X27542556Y14227891D01*
X27416000Y14354447D01*
X27269553Y14208000D01*
X27016000Y14208000D01*
X27016000Y14227891D01*
X27000776Y14264645D01*
X26972645Y14292776D01*
X26935891Y14308000D01*
X26896109Y14308000D01*
X26859355Y14292776D01*
X26831224Y14264645D01*
X26816000Y14227891D01*
X26542556Y14227891D01*
X26416000Y14354447D01*
X26269553Y14208000D01*
X26016000Y14208000D01*
X26016000Y14227891D01*
X26000776Y14264645D01*
X25972645Y14292776D01*
X25935891Y14308000D01*
X25896109Y14308000D01*
X25859355Y14292776D01*
X25831224Y14264645D01*
X25816000Y14227891D01*
X25542556Y14227891D01*
X25235732Y14534715D01*
X25180176Y14375947D01*
X25180175Y14375942D01*
X25161254Y14208004D01*
X23849718Y14208004D01*
X23793377Y14331373D01*
X23699128Y14440143D01*
X23578053Y14517953D01*
X23578051Y14517954D01*
X23578049Y14517955D01*
X23578050Y14517955D01*
X23439963Y14558500D01*
X23439961Y14558500D01*
X23296039Y14558500D01*
X23296036Y14558500D01*
X23157949Y14517955D01*
X23036873Y14440144D01*
X22942623Y14331374D01*
X22942622Y14331372D01*
X22882834Y14200457D01*
X22862353Y14058000D01*
X22878231Y13947560D01*
X22868287Y13878402D01*
X22822532Y13825598D01*
X22790430Y13810938D01*
X22786050Y13809652D01*
X22786043Y13809649D01*
X22664971Y13731841D01*
X22570721Y13623071D01*
X22570720Y13623069D01*
X22510932Y13492154D01*
X22490451Y13349697D01*
X20323991Y13349697D01*
X20306207Y13552977D01*
X20271548Y13682325D01*
X20249577Y13764323D01*
X20249576Y13764324D01*
X20249575Y13764330D01*
X20157102Y13962638D01*
X20157100Y13962641D01*
X20157099Y13962643D01*
X20031599Y14141876D01*
X19956975Y14216500D01*
X19876877Y14296598D01*
X19697639Y14422102D01*
X19546414Y14492619D01*
X19493977Y14538790D01*
X19474825Y14605984D01*
X19495041Y14672865D01*
X19546414Y14717382D01*
X19697639Y14787898D01*
X19876877Y14913402D01*
X20031598Y15068123D01*
X20151949Y15240002D01*
X23778318Y15240002D01*
X23778318Y15239999D01*
X23798955Y15083240D01*
X23798956Y15083238D01*
X23848865Y14962746D01*
X23859464Y14937159D01*
X23955718Y14811718D01*
X24081159Y14715464D01*
X24227238Y14654956D01*
X24305619Y14644637D01*
X24383999Y14634318D01*
X24384000Y14634318D01*
X24384001Y14634318D01*
X24436254Y14641198D01*
X24540762Y14654956D01*
X24686841Y14715464D01*
X24812282Y14811718D01*
X24871021Y14888268D01*
X25589285Y14888268D01*
X25916000Y14561553D01*
X25916001Y14561553D01*
X26242714Y14888268D01*
X26589285Y14888268D01*
X26916000Y14561553D01*
X26916001Y14561553D01*
X27242714Y14888268D01*
X27589285Y14888268D01*
X27916000Y14561553D01*
X27916001Y14561553D01*
X28242714Y14888268D01*
X28083943Y14943824D01*
X28083938Y14943825D01*
X27916004Y14962746D01*
X27915996Y14962746D01*
X27748058Y14943825D01*
X27748053Y14943824D01*
X27589285Y14888268D01*
X27242714Y14888268D01*
X27083943Y14943824D01*
X27083938Y14943825D01*
X26916004Y14962746D01*
X26915996Y14962746D01*
X26748058Y14943825D01*
X26748053Y14943824D01*
X26589285Y14888268D01*
X26242714Y14888268D01*
X26083943Y14943824D01*
X26083938Y14943825D01*
X25916004Y14962746D01*
X25915996Y14962746D01*
X25748058Y14943825D01*
X25748053Y14943824D01*
X25589285Y14888268D01*
X24871021Y14888268D01*
X24908536Y14937159D01*
X24928767Y14986000D01*
X32385353Y14986000D01*
X32405834Y14843544D01*
X32460201Y14724500D01*
X32465623Y14712627D01*
X32559872Y14603857D01*
X32680947Y14526047D01*
X32680950Y14526046D01*
X32680949Y14526046D01*
X32819036Y14485501D01*
X32819038Y14485500D01*
X32819039Y14485500D01*
X32962962Y14485500D01*
X32962962Y14485501D01*
X33101053Y14526047D01*
X33222128Y14603857D01*
X33316377Y14712627D01*
X33376165Y14843543D01*
X33396647Y14986000D01*
X33376165Y15128457D01*
X33316377Y15259373D01*
X33223118Y15367000D01*
X34038353Y15367000D01*
X34058834Y15224544D01*
X34118622Y15093629D01*
X34118623Y15093627D01*
X34212872Y14984857D01*
X34333947Y14907047D01*
X34341407Y14902253D01*
X34340255Y14900462D01*
X34384021Y14862537D01*
X34403704Y14795497D01*
X34384018Y14728458D01*
X34340255Y14690539D01*
X34341407Y14688747D01*
X34333947Y14683954D01*
X34333947Y14683953D01*
X34289773Y14655565D01*
X34212873Y14606144D01*
X34118623Y14497374D01*
X34118622Y14497372D01*
X34058834Y14366457D01*
X34038353Y14224000D01*
X34058834Y14081544D01*
X34102223Y13986537D01*
X34118623Y13950627D01*
X34212872Y13841857D01*
X34333947Y13764047D01*
X34333950Y13764046D01*
X34333949Y13764046D01*
X34472036Y13723501D01*
X34472038Y13723500D01*
X34472039Y13723500D01*
X34615962Y13723500D01*
X34615962Y13723501D01*
X34754053Y13764047D01*
X34875128Y13841857D01*
X34969377Y13950627D01*
X35029165Y14081543D01*
X35049647Y14224000D01*
X35029165Y14366457D01*
X34969377Y14497373D01*
X34875128Y14606143D01*
X34754053Y14683953D01*
X34754052Y14683954D01*
X34746593Y14688747D01*
X34747744Y14690540D01*
X34703983Y14728455D01*
X34702942Y14732000D01*
X37340353Y14732000D01*
X37360834Y14589544D01*
X37420622Y14458629D01*
X37420623Y14458627D01*
X37514872Y14349857D01*
X37635947Y14272047D01*
X37635950Y14272046D01*
X37635949Y14272046D01*
X37774036Y14231501D01*
X37774038Y14231500D01*
X37774039Y14231500D01*
X37917962Y14231500D01*
X37917962Y14231501D01*
X38056053Y14272047D01*
X38177128Y14349857D01*
X38271377Y14458627D01*
X38331165Y14589543D01*
X38351647Y14732000D01*
X38331165Y14874457D01*
X38280224Y14986000D01*
X42928353Y14986000D01*
X42948834Y14843544D01*
X43003201Y14724500D01*
X43008623Y14712627D01*
X43102872Y14603857D01*
X43223947Y14526047D01*
X43223950Y14526046D01*
X43223949Y14526046D01*
X43362039Y14485500D01*
X43420817Y14447726D01*
X43449843Y14384171D01*
X43456834Y14335544D01*
X43515083Y14207999D01*
X43516623Y14204627D01*
X43610872Y14095857D01*
X43731947Y14018047D01*
X43731950Y14018046D01*
X43731949Y14018046D01*
X43870036Y13977501D01*
X43870038Y13977500D01*
X43870039Y13977500D01*
X44013962Y13977500D01*
X44013962Y13977501D01*
X44152053Y14018047D01*
X44273128Y14095857D01*
X44367377Y14204627D01*
X44427165Y14335543D01*
X44447647Y14478000D01*
X44427165Y14620457D01*
X44367377Y14751373D01*
X44273128Y14860143D01*
X44152053Y14937953D01*
X44152051Y14937954D01*
X44152049Y14937955D01*
X44152050Y14937955D01*
X44013960Y14978501D01*
X43955181Y15016275D01*
X43926156Y15079831D01*
X43926156Y15079832D01*
X43919165Y15128457D01*
X43890166Y15191955D01*
X43859377Y15259373D01*
X43765128Y15368143D01*
X43644053Y15445953D01*
X43644051Y15445954D01*
X43644049Y15445955D01*
X43644050Y15445955D01*
X43505963Y15486500D01*
X43505961Y15486500D01*
X43362039Y15486500D01*
X43362036Y15486500D01*
X43223949Y15445955D01*
X43102873Y15368144D01*
X43008623Y15259374D01*
X43008622Y15259372D01*
X42948834Y15128457D01*
X42928353Y14986000D01*
X38280224Y14986000D01*
X38271377Y15005373D01*
X38177128Y15114143D01*
X38056053Y15191953D01*
X38056051Y15191954D01*
X38056049Y15191955D01*
X38056050Y15191955D01*
X37917963Y15232500D01*
X37917961Y15232500D01*
X37774039Y15232500D01*
X37774036Y15232500D01*
X37635949Y15191955D01*
X37514873Y15114144D01*
X37420623Y15005374D01*
X37420622Y15005372D01*
X37360834Y14874457D01*
X37340353Y14732000D01*
X34702942Y14732000D01*
X34684295Y14795494D01*
X34703976Y14862534D01*
X34747743Y14900463D01*
X34746593Y14902253D01*
X34754053Y14907047D01*
X34875128Y14984857D01*
X34969377Y15093627D01*
X35029165Y15224543D01*
X35049647Y15367000D01*
X35029165Y15509457D01*
X34969377Y15640373D01*
X34875128Y15749143D01*
X34754053Y15826953D01*
X34754051Y15826954D01*
X34754049Y15826955D01*
X34754050Y15826955D01*
X34615963Y15867500D01*
X34615961Y15867500D01*
X34472039Y15867500D01*
X34472036Y15867500D01*
X34333949Y15826955D01*
X34212873Y15749144D01*
X34118623Y15640374D01*
X34118622Y15640372D01*
X34058834Y15509457D01*
X34038353Y15367000D01*
X33223118Y15367000D01*
X33222128Y15368143D01*
X33101053Y15445953D01*
X33101051Y15445954D01*
X33101049Y15445955D01*
X33101050Y15445955D01*
X32962963Y15486500D01*
X32962961Y15486500D01*
X32819039Y15486500D01*
X32819036Y15486500D01*
X32680949Y15445955D01*
X32559873Y15368144D01*
X32465623Y15259374D01*
X32465622Y15259372D01*
X32405834Y15128457D01*
X32385353Y14986000D01*
X24928767Y14986000D01*
X24969044Y15083238D01*
X24988713Y15232639D01*
X24989682Y15239999D01*
X24989682Y15240002D01*
X24969044Y15396761D01*
X24969044Y15396762D01*
X24908536Y15542841D01*
X24812282Y15668282D01*
X24686841Y15764536D01*
X24540762Y15825044D01*
X24540760Y15825045D01*
X24384001Y15845682D01*
X24383999Y15845682D01*
X24227239Y15825045D01*
X24227237Y15825044D01*
X24081160Y15764537D01*
X23955718Y15668282D01*
X23859463Y15542840D01*
X23798956Y15396763D01*
X23798955Y15396761D01*
X23778318Y15240002D01*
X20151949Y15240002D01*
X20157102Y15247361D01*
X20249575Y15445670D01*
X20306207Y15657023D01*
X20325277Y15875000D01*
X20323897Y15890770D01*
X20318506Y15952396D01*
X26235999Y15952396D01*
X26256480Y15809940D01*
X26277216Y15764536D01*
X26316269Y15679023D01*
X26410518Y15570253D01*
X26531593Y15492443D01*
X26531596Y15492442D01*
X26531595Y15492442D01*
X26669682Y15451897D01*
X26669684Y15451896D01*
X26669685Y15451896D01*
X26813608Y15451896D01*
X26813608Y15451897D01*
X26951699Y15492443D01*
X27072774Y15570253D01*
X27167023Y15679023D01*
X27226811Y15809939D01*
X27247293Y15952396D01*
X27226811Y16094853D01*
X27167023Y16225769D01*
X27072774Y16334539D01*
X26951699Y16412349D01*
X26951697Y16412350D01*
X26951695Y16412351D01*
X26951696Y16412351D01*
X26813609Y16452896D01*
X26813607Y16452896D01*
X26669685Y16452896D01*
X26669682Y16452896D01*
X26531595Y16412351D01*
X26410519Y16334540D01*
X26316269Y16225770D01*
X26316268Y16225768D01*
X26256480Y16094853D01*
X26235999Y15952396D01*
X20318506Y15952396D01*
X20313510Y16009500D01*
X20306207Y16092977D01*
X20249575Y16304330D01*
X20157102Y16502638D01*
X20157100Y16502641D01*
X20157099Y16502643D01*
X20031599Y16681876D01*
X19968846Y16744629D01*
X19876877Y16836598D01*
X19704390Y16957375D01*
X27240978Y16957375D01*
X27261459Y16814919D01*
X27293560Y16744629D01*
X27321248Y16684002D01*
X27415497Y16575232D01*
X27536572Y16497422D01*
X27536575Y16497421D01*
X27536574Y16497421D01*
X27674661Y16456876D01*
X27674663Y16456875D01*
X27674664Y16456875D01*
X27818587Y16456875D01*
X27818587Y16456876D01*
X27956678Y16497422D01*
X28077753Y16575232D01*
X28172002Y16684002D01*
X28231790Y16814918D01*
X28252272Y16957375D01*
X28243556Y17018000D01*
X29466353Y17018000D01*
X29486834Y16875544D01*
X29529894Y16781257D01*
X29546623Y16744627D01*
X29640872Y16635857D01*
X29761947Y16558047D01*
X29761950Y16558046D01*
X29761949Y16558046D01*
X29900036Y16517501D01*
X29900038Y16517500D01*
X29900039Y16517500D01*
X30043962Y16517500D01*
X30043962Y16517501D01*
X30182053Y16558047D01*
X30303128Y16635857D01*
X30351263Y16691408D01*
X34092761Y16691408D01*
X34113242Y16548952D01*
X34155293Y16456875D01*
X34173031Y16418035D01*
X34267280Y16309265D01*
X34388355Y16231455D01*
X34388358Y16231454D01*
X34388357Y16231454D01*
X34526444Y16190909D01*
X34526446Y16190908D01*
X34526447Y16190908D01*
X34670370Y16190908D01*
X34670370Y16190909D01*
X34789096Y16225769D01*
X34808458Y16231454D01*
X34808458Y16231455D01*
X34808461Y16231455D01*
X34929536Y16309265D01*
X35023785Y16418035D01*
X35065784Y16510000D01*
X45468353Y16510000D01*
X45488834Y16367544D01*
X45517707Y16304323D01*
X45548623Y16236627D01*
X45642872Y16127857D01*
X45763947Y16050047D01*
X45763950Y16050046D01*
X45763949Y16050046D01*
X45902036Y16009501D01*
X45902038Y16009500D01*
X45902039Y16009500D01*
X46045962Y16009500D01*
X46045962Y16009501D01*
X46184053Y16050047D01*
X46305128Y16127857D01*
X46399377Y16236627D01*
X46459165Y16367543D01*
X46479647Y16510000D01*
X46459165Y16652457D01*
X46399377Y16783373D01*
X46305128Y16892143D01*
X46184053Y16969953D01*
X46184051Y16969954D01*
X46184049Y16969955D01*
X46184050Y16969955D01*
X46045963Y17010500D01*
X46045961Y17010500D01*
X45902039Y17010500D01*
X45902036Y17010500D01*
X45763949Y16969955D01*
X45642873Y16892144D01*
X45548623Y16783374D01*
X45548622Y16783372D01*
X45488834Y16652457D01*
X45468353Y16510000D01*
X35065784Y16510000D01*
X35083573Y16548951D01*
X35104055Y16691408D01*
X35083573Y16833865D01*
X35023785Y16964781D01*
X34929536Y17073551D01*
X34808461Y17151361D01*
X34808459Y17151362D01*
X34808457Y17151363D01*
X34808458Y17151363D01*
X34670371Y17191908D01*
X34670369Y17191908D01*
X34526447Y17191908D01*
X34526444Y17191908D01*
X34388357Y17151363D01*
X34267281Y17073552D01*
X34173031Y16964782D01*
X34173030Y16964780D01*
X34113242Y16833865D01*
X34092761Y16691408D01*
X30351263Y16691408D01*
X30397377Y16744627D01*
X30457165Y16875543D01*
X30477647Y17018000D01*
X30457925Y17155171D01*
X30467869Y17224329D01*
X30513624Y17277133D01*
X30580663Y17296817D01*
X30647703Y17277132D01*
X30651310Y17274432D01*
X30656870Y17270859D01*
X30656872Y17270857D01*
X30777947Y17193047D01*
X30777950Y17193046D01*
X30777949Y17193046D01*
X30916036Y17152501D01*
X30916038Y17152500D01*
X30916039Y17152500D01*
X31059962Y17152500D01*
X31059962Y17152501D01*
X31198053Y17193047D01*
X31319128Y17270857D01*
X31413377Y17379627D01*
X31422224Y17399000D01*
X44071353Y17399000D01*
X44091834Y17256544D01*
X44149499Y17130277D01*
X44151623Y17125627D01*
X44245872Y17016857D01*
X44366947Y16939047D01*
X44366950Y16939046D01*
X44366949Y16939046D01*
X44505036Y16898501D01*
X44505038Y16898500D01*
X44505039Y16898500D01*
X44648962Y16898500D01*
X44648962Y16898501D01*
X44787053Y16939047D01*
X44908128Y17016857D01*
X45002377Y17125627D01*
X45062165Y17256543D01*
X45082647Y17399000D01*
X45062165Y17541457D01*
X45002377Y17672373D01*
X44908128Y17781143D01*
X44787053Y17858953D01*
X44787051Y17858954D01*
X44787049Y17858955D01*
X44787050Y17858955D01*
X44648963Y17899500D01*
X44648961Y17899500D01*
X44505039Y17899500D01*
X44505036Y17899500D01*
X44366949Y17858955D01*
X44245873Y17781144D01*
X44151623Y17672374D01*
X44151622Y17672372D01*
X44091834Y17541457D01*
X44071353Y17399000D01*
X31422224Y17399000D01*
X31473165Y17510543D01*
X31493647Y17653000D01*
X31473165Y17795457D01*
X31413377Y17926373D01*
X31413375Y17926375D01*
X31413374Y17926378D01*
X31356002Y17992589D01*
X31326977Y18056145D01*
X31336921Y18125303D01*
X31336922Y18125305D01*
X31346165Y18145543D01*
X31346929Y18150855D01*
X46230354Y18150855D01*
X46250835Y18008399D01*
X46302970Y17894241D01*
X46310624Y17877482D01*
X46404873Y17768712D01*
X46525948Y17690902D01*
X46525951Y17690901D01*
X46525950Y17690901D01*
X46664037Y17650356D01*
X46664039Y17650355D01*
X46664040Y17650355D01*
X46807963Y17650355D01*
X46807963Y17650356D01*
X46946054Y17690902D01*
X47067129Y17768712D01*
X47161378Y17877482D01*
X47221166Y18008398D01*
X47241648Y18150855D01*
X47221166Y18293312D01*
X47161378Y18424228D01*
X47067129Y18532998D01*
X46946054Y18610808D01*
X46946052Y18610809D01*
X46946050Y18610810D01*
X46946051Y18610810D01*
X46807964Y18651355D01*
X46807962Y18651355D01*
X46664040Y18651355D01*
X46664037Y18651355D01*
X46525950Y18610810D01*
X46404874Y18532999D01*
X46310624Y18424229D01*
X46310623Y18424227D01*
X46250835Y18293312D01*
X46230354Y18150855D01*
X31346929Y18150855D01*
X31366647Y18288000D01*
X31346165Y18430457D01*
X31286377Y18561373D01*
X31192128Y18670143D01*
X31071053Y18747953D01*
X31071051Y18747954D01*
X31071049Y18747955D01*
X31071050Y18747955D01*
X30932963Y18788500D01*
X30932961Y18788500D01*
X30789039Y18788500D01*
X30789036Y18788500D01*
X30650949Y18747955D01*
X30529873Y18670144D01*
X30435623Y18561374D01*
X30435622Y18561372D01*
X30375834Y18430457D01*
X30355353Y18288000D01*
X30375834Y18145544D01*
X30435622Y18014629D01*
X30435623Y18014627D01*
X30454719Y17992589D01*
X30492998Y17948412D01*
X30522022Y17884856D01*
X30512079Y17815699D01*
X30502835Y17795458D01*
X30502834Y17795457D01*
X30482353Y17653000D01*
X30502074Y17515830D01*
X30492130Y17446672D01*
X30446375Y17393868D01*
X30379335Y17374184D01*
X30312296Y17393869D01*
X30308689Y17396569D01*
X30280855Y17414457D01*
X30182053Y17477953D01*
X30182051Y17477954D01*
X30182049Y17477955D01*
X30182050Y17477955D01*
X30043963Y17518500D01*
X30043961Y17518500D01*
X29900039Y17518500D01*
X29900036Y17518500D01*
X29761949Y17477955D01*
X29640873Y17400144D01*
X29546623Y17291374D01*
X29546622Y17291372D01*
X29486834Y17160457D01*
X29466353Y17018000D01*
X28243556Y17018000D01*
X28231790Y17099832D01*
X28172002Y17230748D01*
X28077753Y17339518D01*
X27956678Y17417328D01*
X27956676Y17417329D01*
X27956674Y17417330D01*
X27956675Y17417330D01*
X27818588Y17457875D01*
X27818586Y17457875D01*
X27674664Y17457875D01*
X27674661Y17457875D01*
X27536574Y17417330D01*
X27415498Y17339519D01*
X27321248Y17230749D01*
X27321247Y17230747D01*
X27261459Y17099832D01*
X27240978Y16957375D01*
X19704390Y16957375D01*
X19697639Y16962102D01*
X19697640Y16962102D01*
X19697638Y16962103D01*
X19593849Y17010500D01*
X19499330Y17054575D01*
X19499326Y17054576D01*
X19499322Y17054578D01*
X19287977Y17111207D01*
X19070002Y17130277D01*
X19069998Y17130277D01*
X18924682Y17117564D01*
X18852023Y17111207D01*
X18852020Y17111207D01*
X18640677Y17054578D01*
X18640668Y17054574D01*
X18442361Y16962102D01*
X18442357Y16962100D01*
X18263121Y16836598D01*
X18108405Y16681882D01*
X18006074Y16535738D01*
X17951497Y16492113D01*
X17881998Y16484921D01*
X17819644Y16516443D01*
X17784230Y16576673D01*
X17780499Y16606856D01*
X17780499Y18139864D01*
X17780497Y18139883D01*
X17777586Y18164988D01*
X17777585Y18164990D01*
X17777585Y18164991D01*
X17732206Y18267765D01*
X17652765Y18347206D01*
X17652763Y18347207D01*
X17549992Y18392585D01*
X17524865Y18395500D01*
X15535143Y18395500D01*
X15535117Y18395498D01*
X15510012Y18392587D01*
X15510008Y18392585D01*
X15407235Y18347207D01*
X15327794Y18267766D01*
X15282415Y18164994D01*
X15282415Y18164992D01*
X15279500Y18139869D01*
X15279500Y16150144D01*
X15279502Y16150118D01*
X15282413Y16125013D01*
X15282415Y16125009D01*
X15327793Y16022236D01*
X15327794Y16022235D01*
X15407235Y15942794D01*
X15510009Y15897415D01*
X15535135Y15894500D01*
X15798140Y15894501D01*
X15865177Y15874817D01*
X15910932Y15822013D01*
X15920876Y15752854D01*
X15891851Y15689299D01*
X15869262Y15668926D01*
X15723118Y15566595D01*
X15568402Y15411879D01*
X15442900Y15232643D01*
X15442898Y15232639D01*
X15350426Y15034332D01*
X15350422Y15034323D01*
X15293793Y14822980D01*
X15293793Y14822976D01*
X15279094Y14654957D01*
X15274723Y14605000D01*
X14986000Y14605000D01*
X14986000Y19558002D01*
X26318318Y19558002D01*
X26318318Y19557999D01*
X26338955Y19401240D01*
X26338956Y19401238D01*
X26379232Y19304002D01*
X26399464Y19255159D01*
X26495718Y19129718D01*
X26621159Y19033464D01*
X26767238Y18972956D01*
X26845619Y18962637D01*
X26923999Y18952318D01*
X26924000Y18952318D01*
X26924001Y18952318D01*
X26976254Y18959198D01*
X27080762Y18972956D01*
X27226841Y19033464D01*
X27248391Y19050000D01*
X29339353Y19050000D01*
X29359834Y18907544D01*
X29414201Y18788500D01*
X29419623Y18776627D01*
X29513872Y18667857D01*
X29634947Y18590047D01*
X29634950Y18590046D01*
X29634949Y18590046D01*
X29773036Y18549501D01*
X29773038Y18549500D01*
X29773039Y18549500D01*
X29916962Y18549500D01*
X29916962Y18549501D01*
X30055053Y18590047D01*
X30176128Y18667857D01*
X30270377Y18776627D01*
X30330165Y18907543D01*
X30350647Y19050000D01*
X30330165Y19192457D01*
X30270377Y19323373D01*
X30176128Y19432143D01*
X30055053Y19509953D01*
X30055051Y19509954D01*
X30055049Y19509955D01*
X30055050Y19509955D01*
X29916963Y19550500D01*
X29916961Y19550500D01*
X29773039Y19550500D01*
X29773036Y19550500D01*
X29634949Y19509955D01*
X29513873Y19432144D01*
X29419623Y19323374D01*
X29419622Y19323372D01*
X29359834Y19192457D01*
X29339353Y19050000D01*
X27248391Y19050000D01*
X27352282Y19129718D01*
X27448536Y19255159D01*
X27509044Y19401238D01*
X27529682Y19558000D01*
X27522899Y19609519D01*
X27509044Y19714761D01*
X27509044Y19714762D01*
X27448536Y19860841D01*
X27352282Y19986282D01*
X27226841Y20082536D01*
X27080762Y20143044D01*
X27080760Y20143045D01*
X26924001Y20163682D01*
X26923999Y20163682D01*
X26767239Y20143045D01*
X26767237Y20143044D01*
X26621160Y20082537D01*
X26495718Y19986282D01*
X26399463Y19860840D01*
X26338956Y19714763D01*
X26338955Y19714761D01*
X26318318Y19558002D01*
X14986000Y19558002D01*
X14986000Y20920003D01*
X30736353Y20920003D01*
X30756834Y20777547D01*
X30778797Y20729457D01*
X30798851Y20685544D01*
X30805259Y20671514D01*
X30815203Y20602356D01*
X30805259Y20568490D01*
X30756834Y20462457D01*
X30736353Y20320000D01*
X30756834Y20177544D01*
X30807776Y20065999D01*
X30816623Y20046627D01*
X30910872Y19937857D01*
X31031947Y19860047D01*
X31031950Y19860046D01*
X31031949Y19860046D01*
X31170036Y19819501D01*
X31170038Y19819500D01*
X31170039Y19819500D01*
X31313962Y19819500D01*
X31313962Y19819501D01*
X31452053Y19860047D01*
X31573128Y19937857D01*
X31667377Y20046627D01*
X31676225Y20066002D01*
X41304318Y20066002D01*
X41304318Y20065999D01*
X41324955Y19909240D01*
X41324956Y19909238D01*
X41385464Y19763157D01*
X41387518Y19760481D01*
X41388547Y19757817D01*
X41389528Y19756119D01*
X41389263Y19755967D01*
X41412709Y19695311D01*
X41398666Y19626866D01*
X41387518Y19609519D01*
X41385464Y19606844D01*
X41324956Y19460763D01*
X41324955Y19460761D01*
X41304318Y19304002D01*
X41304318Y19303999D01*
X41324955Y19147240D01*
X41324956Y19147238D01*
X41385464Y19001159D01*
X41481718Y18875718D01*
X41607159Y18779464D01*
X41753238Y18718956D01*
X41831619Y18708637D01*
X41909999Y18698318D01*
X41910000Y18698318D01*
X41910001Y18698318D01*
X41962254Y18705198D01*
X42066762Y18718956D01*
X42212841Y18779464D01*
X42338282Y18875718D01*
X42434536Y19001159D01*
X42495044Y19147238D01*
X42515682Y19304000D01*
X42513131Y19323374D01*
X42495044Y19460761D01*
X42495043Y19460763D01*
X42434536Y19606841D01*
X42432485Y19609514D01*
X42431456Y19612175D01*
X42430474Y19613876D01*
X42430739Y19614030D01*
X42407291Y19674683D01*
X42421329Y19743128D01*
X42432485Y19760486D01*
X42432640Y19760689D01*
X42434536Y19763159D01*
X42495044Y19909238D01*
X42515682Y20066000D01*
X42495044Y20222762D01*
X42434536Y20368841D01*
X42338282Y20494282D01*
X42212841Y20590536D01*
X42190893Y20599627D01*
X42066762Y20651044D01*
X42066760Y20651045D01*
X41910001Y20671682D01*
X41909999Y20671682D01*
X41753239Y20651045D01*
X41753237Y20651044D01*
X41607160Y20590537D01*
X41481718Y20494282D01*
X41385463Y20368840D01*
X41324956Y20222763D01*
X41324955Y20222761D01*
X41304318Y20066002D01*
X31676225Y20066002D01*
X31727165Y20177543D01*
X31747647Y20320000D01*
X31727165Y20462457D01*
X31710797Y20498298D01*
X31678741Y20568490D01*
X31668797Y20637649D01*
X31678741Y20671514D01*
X31685148Y20685543D01*
X31727165Y20777546D01*
X31747647Y20920003D01*
X31727165Y21062460D01*
X31718241Y21082000D01*
X36832353Y21082000D01*
X36852834Y20939544D01*
X36912622Y20808629D01*
X36912623Y20808627D01*
X37006872Y20699857D01*
X37127947Y20622047D01*
X37127950Y20622046D01*
X37127949Y20622046D01*
X37204302Y20599627D01*
X37263080Y20561853D01*
X37292106Y20498298D01*
X37299834Y20444544D01*
X37359622Y20313629D01*
X37359623Y20313627D01*
X37453872Y20204857D01*
X37574947Y20127047D01*
X37574950Y20127046D01*
X37574949Y20127046D01*
X37713036Y20086501D01*
X37713038Y20086500D01*
X37713039Y20086500D01*
X37856962Y20086500D01*
X37856962Y20086501D01*
X37995053Y20127047D01*
X38116128Y20204857D01*
X38210377Y20313627D01*
X38270165Y20444543D01*
X38270165Y20444545D01*
X38272459Y20452356D01*
X38310232Y20511134D01*
X38373788Y20540160D01*
X38442946Y20530217D01*
X38485147Y20498626D01*
X38530872Y20445857D01*
X38651947Y20368047D01*
X38651950Y20368046D01*
X38651949Y20368046D01*
X38790036Y20327501D01*
X38790038Y20327500D01*
X38790039Y20327500D01*
X38933962Y20327500D01*
X38933962Y20327501D01*
X39072053Y20368047D01*
X39193128Y20445857D01*
X39287377Y20554627D01*
X39347165Y20685543D01*
X39367647Y20828000D01*
X39347165Y20970457D01*
X39287377Y21101373D01*
X39193128Y21210143D01*
X39072053Y21287953D01*
X39072051Y21287954D01*
X39072049Y21287955D01*
X39072050Y21287955D01*
X38933963Y21328500D01*
X38933961Y21328500D01*
X38790039Y21328500D01*
X38790036Y21328500D01*
X38651949Y21287955D01*
X38530873Y21210144D01*
X38436623Y21101374D01*
X38436622Y21101372D01*
X38376833Y20970455D01*
X38374538Y20962637D01*
X38336760Y20903861D01*
X38273202Y20874840D01*
X38204044Y20884788D01*
X38161851Y20916375D01*
X38116128Y20969143D01*
X37995053Y21046953D01*
X37995050Y21046955D01*
X37918696Y21069374D01*
X37859918Y21107148D01*
X37830893Y21170704D01*
X37830893Y21170705D01*
X37827633Y21193377D01*
X37823165Y21224457D01*
X37763377Y21355373D01*
X37669128Y21464143D01*
X37548053Y21541953D01*
X37548051Y21541954D01*
X37548049Y21541955D01*
X37548050Y21541955D01*
X37409963Y21582500D01*
X37409961Y21582500D01*
X37266039Y21582500D01*
X37266036Y21582500D01*
X37127949Y21541955D01*
X37006873Y21464144D01*
X36912623Y21355374D01*
X36912622Y21355372D01*
X36852834Y21224457D01*
X36832353Y21082000D01*
X31718241Y21082000D01*
X31667377Y21193376D01*
X31573128Y21302146D01*
X31452053Y21379956D01*
X31452051Y21379957D01*
X31452049Y21379958D01*
X31452050Y21379958D01*
X31313963Y21420503D01*
X31313961Y21420503D01*
X31170039Y21420503D01*
X31170036Y21420503D01*
X31031949Y21379958D01*
X30910873Y21302147D01*
X30816623Y21193377D01*
X30816622Y21193375D01*
X30756834Y21062460D01*
X30736353Y20920003D01*
X14986000Y20920003D01*
X14986000Y22098000D01*
X22354353Y22098000D01*
X22374834Y21955544D01*
X22434622Y21824629D01*
X22434623Y21824627D01*
X22528872Y21715857D01*
X22649947Y21638047D01*
X22649950Y21638046D01*
X22649949Y21638046D01*
X22788036Y21597501D01*
X22788038Y21597500D01*
X22788039Y21597500D01*
X22931962Y21597500D01*
X22931962Y21597501D01*
X23070053Y21638047D01*
X23191128Y21715857D01*
X23285377Y21824627D01*
X23345165Y21955543D01*
X23365647Y22098000D01*
X23365647Y22098002D01*
X43844318Y22098002D01*
X43844318Y22097999D01*
X43864955Y21941240D01*
X43864956Y21941238D01*
X43925464Y21795159D01*
X44021718Y21669718D01*
X44147159Y21573464D01*
X44293238Y21512956D01*
X44371619Y21502637D01*
X44449999Y21492318D01*
X44450000Y21492318D01*
X44450001Y21492318D01*
X44502254Y21499198D01*
X44606762Y21512956D01*
X44752841Y21573464D01*
X44878282Y21669718D01*
X44974536Y21795159D01*
X45035044Y21941238D01*
X45055682Y22098000D01*
X45035044Y22254762D01*
X44974536Y22400841D01*
X44878282Y22526282D01*
X44752841Y22622536D01*
X44606762Y22683044D01*
X44606760Y22683045D01*
X44450001Y22703682D01*
X44449999Y22703682D01*
X44293239Y22683045D01*
X44293237Y22683044D01*
X44147160Y22622537D01*
X44021718Y22526282D01*
X43925463Y22400840D01*
X43864956Y22254763D01*
X43864955Y22254761D01*
X43844318Y22098002D01*
X23365647Y22098002D01*
X23345165Y22240457D01*
X23285377Y22371373D01*
X23191128Y22480143D01*
X23070053Y22557953D01*
X23070051Y22557954D01*
X23070049Y22557955D01*
X23070050Y22557955D01*
X22931963Y22598500D01*
X22931961Y22598500D01*
X22788039Y22598500D01*
X22788036Y22598500D01*
X22649949Y22557955D01*
X22528873Y22480144D01*
X22434623Y22371374D01*
X22434622Y22371372D01*
X22374834Y22240457D01*
X22354353Y22098000D01*
X14986000Y22098000D01*
X14986000Y24775500D01*
X15005685Y24842539D01*
X15058489Y24888294D01*
X15110000Y24899500D01*
X22372905Y24899500D01*
X22439944Y24879815D01*
G37*
%TD.AperFunction*%
%TD*%
M02*
