M48
; DRILL file {KiCad 8.0.9-8.0.9-0~ubuntu22.04.1} date 2025-04-29T10:25:46+0900
; FORMAT={-:-/ absolute / inch / decimal}
; #@! TF.CreationDate,2025-04-29T10:25:46+09:00
; #@! TF.GenerationSoftware,Kicad,Pcbnew,8.0.9-8.0.9-0~ubuntu22.04.1
; #@! TF.FileFunction,Plated,1,4,PTH
FMAT,2
INCH
; #@! TA.AperFunction,Plated,PTH,ViaDrill
T1C0.0079
; #@! TA.AperFunction,Plated,PTH,ComponentDrill
T2C0.0079
; #@! TA.AperFunction,Plated,PTH,ViaDrill
T3C0.0118
; #@! TA.AperFunction,Plated,PTH,ComponentDrill
T4C0.0350
; #@! TA.AperFunction,Plated,PTH,ComponentDrill
T5C0.0394
; #@! TA.AperFunction,Plated,PTH,ComponentDrill
T6C0.0402
; #@! TA.AperFunction,Plated,PTH,ComponentDrill
T7C0.0642
%
G90
G05
T1
X0.63Y0.1
X0.63Y0.03
X0.74Y0.2561
X0.8Y0.1
X0.8Y0.03
X0.8599Y0.595
X0.8599Y0.52
X0.8599Y0.48
X0.86Y0.88
X0.86Y0.3836
X0.8601Y0.9517
X0.9Y0.28
X0.9Y0.1
X0.9Y0.03
X0.91Y0.19
X0.96Y0.19
X0.995Y0.41
X1.01Y0.38
X1.04Y0.36
X1.0528Y0.628
X1.0727Y0.3164
X1.085Y0.2164
X1.0924Y0.6676
X1.1174Y0.3824
X1.125Y0.66
X1.125Y0.36
X1.1744Y0.1697
X1.175Y0.75
X1.18Y0.67
X1.195Y0.225
X1.1994Y0.8111
X1.21Y0.79
X1.215Y0.72
X1.22Y0.695
X1.2299Y0.56
X1.2299Y0.43
X1.2299Y0.36
X1.2388Y0.458
X1.25Y0.22
X1.2949Y0.59
X1.3122Y0.51
X1.3187Y0.2329
X1.3244Y0.3199
X1.35Y0.51
X1.3501Y0.605
X1.3501Y0.56
X1.3501Y0.43
X1.3501Y0.36
X1.3502Y0.66
X1.3789Y0.16
X1.39Y0.32
X1.3998Y0.3498
X1.41Y0.1185
X1.4154Y0.45
X1.43Y0.53
X1.43Y0.23
X1.45Y0.315
X1.455Y0.41
X1.46Y0.56
X1.48Y0.4789
X1.4859Y0.3793
X1.4989Y0.58
X1.5002Y0.53
X1.51Y0.335
X1.53Y0.82
X1.55Y0.65
X1.55Y0.63
X1.5767Y0.597
X1.59Y0.26
X1.64Y0.3
X1.6783Y0.5626
X1.69Y0.39
X1.7175Y0.8225
X1.738Y0.522
X1.7381Y0.3998
X1.7443Y0.82
X1.7478Y0.5686
X1.7513Y0.6287
X1.755Y0.685
X1.765Y0.49
X1.8099Y0.23
X1.81Y0.65
X1.8194Y0.4994
X1.82Y0.88
X1.82Y0.39
X1.84Y0.7146
X1.86Y0.33
X1.8601Y0.88
X1.87Y0.51
X1.91Y0.5
X1.92Y0.68
T2
X1.0203Y0.5594
X1.0203Y0.52
X1.0203Y0.4806
X1.0597Y0.5594
X1.0597Y0.52
X1.0597Y0.4806
X1.0991Y0.5594
X1.0991Y0.52
X1.0991Y0.4806
T3
X0.755Y0.2
X0.78Y0.1536
X0.86Y0.83
X0.86Y0.64
X0.8661Y0.1575
X0.91Y0.82
X0.92Y0.64
X0.96Y0.6
X0.975Y0.81
X0.9797Y0.2807
X1.01Y0.15
X1.06Y0.77
X1.109Y0.86
X1.2Y0.18
X1.25Y0.84
X1.28Y0.84
X1.28Y0.18
X1.31Y0.84
X1.51Y0.67
X1.54Y0.67
X1.59Y0.32
X1.65Y0.79
X1.65Y0.76
X1.75Y0.87
X1.75Y0.24
X1.77Y0.36
X1.83Y0.36
X1.8812Y0.2588
X1.92Y0.3
T4
X0.65Y0.675
X0.65Y0.575
X0.65Y0.475
X0.65Y0.375
X0.75Y0.6254
X0.75Y0.5254
X0.75Y0.4254
X0.75Y0.3254
T5
X1.0Y0.95
X1.0Y0.05
X1.1Y0.95
X1.1Y0.05
X1.2Y0.95
X1.2Y0.05
X1.3Y0.95
X1.3Y0.05
X1.4Y0.95
X1.4Y0.05
X1.5Y0.95
X1.5Y0.05
X1.6Y0.95
X1.6Y0.05
X1.7Y0.95
X1.7Y0.05
X1.8Y0.95
X1.8Y0.05
X1.9Y0.95
X1.9Y0.05
T6
X0.2067Y0.761
X0.2067Y0.661
X0.2067Y0.3394
X0.2067Y0.2394
T7
X0.5197Y0.8051
X0.5197Y0.1953
M30
