%TF.GenerationSoftware,KiCad,Pcbnew,8.0.2-8.0.2-0~ubuntu22.04.1*%
%TF.CreationDate,2024-05-07T00:28:05+09:00*%
%TF.ProjectId,CANgatewayE,43414e67-6174-4657-9761-79452e6b6963,rev?*%
%TF.SameCoordinates,Original*%
%TF.FileFunction,Copper,L3,Inr*%
%TF.FilePolarity,Positive*%
%FSLAX46Y46*%
G04 Gerber Fmt 4.6, Leading zero omitted, Abs format (unit mm)*
G04 Created by KiCad (PCBNEW 8.0.2-8.0.2-0~ubuntu22.04.1) date 2024-05-07 00:28:05*
%MOMM*%
%LPD*%
G01*
G04 APERTURE LIST*
%TA.AperFunction,ComponentPad*%
%ADD10C,1.890000*%
%TD*%
%TA.AperFunction,ComponentPad*%
%ADD11R,1.900000X1.900000*%
%TD*%
%TA.AperFunction,ComponentPad*%
%ADD12C,1.900000*%
%TD*%
%TA.AperFunction,ComponentPad*%
%ADD13C,2.600000*%
%TD*%
%TA.AperFunction,ComponentPad*%
%ADD14C,0.500000*%
%TD*%
%TA.AperFunction,ComponentPad*%
%ADD15R,1.700000X1.700000*%
%TD*%
%TA.AperFunction,ComponentPad*%
%ADD16O,1.700000X1.700000*%
%TD*%
%TA.AperFunction,ViaPad*%
%ADD17C,0.400000*%
%TD*%
%TA.AperFunction,ViaPad*%
%ADD18C,0.600000*%
%TD*%
%TA.AperFunction,Conductor*%
%ADD19C,0.250000*%
%TD*%
%TA.AperFunction,Conductor*%
%ADD20C,0.200000*%
%TD*%
G04 APERTURE END LIST*
D10*
%TO.N,/Ethernet/LED1*%
%TO.C,J1*%
X6810000Y6375000D03*
%TO.N,Net-(J1-PadL2)*%
X5290000Y8915000D03*
%TO.N,Net-(J1-PadL3)*%
X6810000Y16485000D03*
%TO.N,/Ethernet/LED2*%
X5290000Y19025000D03*
D11*
%TO.N,Net-(J1-TD+)*%
X16530000Y17145000D03*
D12*
%TO.N,Net-(J1-TD-)*%
X19070000Y15875000D03*
%TO.N,Net-(J1-RD+)*%
X16530000Y14605000D03*
%TO.N,Net-(J1-RCT)*%
X19070000Y13335000D03*
X16530000Y12065000D03*
%TO.N,Net-(J1-RD-)*%
X19070000Y10795000D03*
%TO.N,unconnected-(J1-NC-PadR7)*%
X16530000Y9525000D03*
%TO.N,Net-(JP1-A)*%
X19070000Y8255000D03*
D13*
X13240000Y20475000D03*
X13240000Y4925000D03*
%TD*%
D14*
%TO.N,GND*%
%TO.C,U2*%
X25916000Y12208000D03*
X26916000Y12208000D03*
X27916000Y12208000D03*
X25916000Y13208000D03*
X26916000Y13208000D03*
X27916000Y13208000D03*
X25916000Y14208000D03*
X26916000Y14208000D03*
X27916000Y14208000D03*
%TD*%
D15*
%TO.N,GND*%
%TO.C,J3*%
X25400000Y1270000D03*
D16*
%TO.N,unconnected-(J3-Pin_2-Pad2)*%
X27940000Y1270000D03*
%TO.N,unconnected-(J3-Pin_3-Pad3)*%
X30480000Y1270000D03*
%TO.N,unconnected-(J3-Pin_4-Pad4)*%
X33020000Y1270000D03*
%TO.N,/Connector/VCP_TX*%
X35560000Y1270000D03*
%TO.N,/Connector/VCP_RX*%
X38100000Y1270000D03*
%TO.N,/CAN2_RD*%
X40640000Y1270000D03*
%TO.N,/CAN2_TD*%
X43180000Y1270000D03*
%TO.N,/CAN/CAN2_L*%
X45720000Y1270000D03*
%TO.N,/CAN/CAN2_H*%
X48260000Y1270000D03*
%TD*%
D15*
%TO.N,GND*%
%TO.C,J4*%
X25400000Y24130000D03*
D16*
%TO.N,/Connector/VIN*%
X27940000Y24130000D03*
%TO.N,+3.3V*%
X30480000Y24130000D03*
%TO.N,/NRST*%
X33020000Y24130000D03*
%TO.N,/SWDIO*%
X35560000Y24130000D03*
%TO.N,/SWCLK*%
X38100000Y24130000D03*
%TO.N,/CAN1_RD*%
X40640000Y24130000D03*
%TO.N,/CAN1_TD*%
X43180000Y24130000D03*
%TO.N,/CAN/CAN1_L*%
X45720000Y24130000D03*
%TO.N,/CAN/CAN1_H*%
X48260000Y24130000D03*
%TD*%
D17*
%TO.N,+5V*%
X47244000Y8382000D03*
%TO.N,GND*%
X39370000Y16002000D03*
X39370000Y16510000D03*
%TO.N,Net-(U1-PH0)*%
X37742001Y9635300D03*
%TO.N,GND*%
X27559000Y5495902D03*
X22860000Y7112000D03*
D18*
X33274000Y21336000D03*
D17*
X40386000Y6604000D03*
X20320000Y2540000D03*
D18*
X19812000Y6096000D03*
D17*
X42672000Y10922000D03*
X22860000Y762000D03*
X38354000Y8509000D03*
X27247771Y8035886D03*
D18*
X21844000Y16256000D03*
D17*
X24384000Y4826000D03*
X33638779Y8126708D03*
D18*
X30226000Y20320000D03*
X40386000Y8128000D03*
X33274000Y20574000D03*
X38354000Y17018000D03*
X27940000Y20828000D03*
D17*
X16002000Y2540000D03*
D18*
X32512000Y4572000D03*
X44958000Y9144000D03*
D17*
X22860000Y2540000D03*
D18*
X46482000Y9144000D03*
D17*
X20320000Y762000D03*
X16002000Y762000D03*
X37084000Y14224000D03*
D18*
X19177000Y5080000D03*
X23114000Y20828000D03*
D17*
X31750000Y5588000D03*
D18*
X24885276Y7130000D03*
D17*
X36957000Y10414000D03*
X30353000Y5715000D03*
X42926000Y10160000D03*
D18*
X32512000Y21336000D03*
X23368000Y16256000D03*
X21844000Y21082000D03*
X44450000Y6096000D03*
X39370000Y3048000D03*
D17*
X28575000Y16764000D03*
D18*
X25654000Y3810000D03*
D17*
X46228000Y9906000D03*
D18*
X30480000Y4572000D03*
X39116000Y17018000D03*
D17*
X47498000Y12954000D03*
X37592000Y12164000D03*
X28575000Y9144000D03*
X33532020Y13518387D03*
D18*
X24765000Y20574000D03*
D17*
X23114000Y4826000D03*
%TO.N,Net-(U1-PH1)*%
X36830000Y8001000D03*
%TO.N,Net-(C4-Pad1)*%
X29845000Y19050000D03*
D18*
%TO.N,+3.3V*%
X26924000Y19558000D03*
D17*
X38862000Y20828000D03*
X29972000Y17018000D03*
X34598408Y16691408D03*
X35814000Y4318000D03*
X33494257Y5914827D03*
D18*
X41910000Y19304000D03*
D17*
X34671000Y10922000D03*
D18*
X41910000Y20066000D03*
D17*
X34671000Y9144000D03*
D18*
X44450000Y22098000D03*
D17*
X41656000Y7620000D03*
D18*
X48768000Y7620000D03*
D17*
X37846000Y14732000D03*
X34671000Y12954000D03*
X34544000Y15367000D03*
X34544000Y14224000D03*
X28383103Y9714103D03*
D18*
%TO.N,Net-(J1-RCT)*%
X24384000Y15240000D03*
D17*
X25273000Y10414000D03*
%TO.N,Net-(J1-TD-)*%
X23368000Y14058000D03*
%TO.N,/Ethernet/LED2*%
X25654000Y9652000D03*
X18796000Y6505000D03*
%TO.N,Net-(J1-RD+)*%
X23531054Y10631946D03*
%TO.N,/Ethernet/LED1*%
X26416000Y9144000D03*
%TO.N,Net-(J1-TD+)*%
X22996098Y13349697D03*
%TO.N,Net-(J1-RD-)*%
X23241000Y11682000D03*
D18*
%TO.N,/MCU/BOOT0*%
X38608000Y13462000D03*
D17*
%TO.N,/RMII_MDIO*%
X32891000Y14986000D03*
%TO.N,/RMII_RXD0*%
X31240000Y10922000D03*
%TO.N,/RMII_RXD1*%
X31240000Y9144000D03*
%TO.N,/RMII_CRS_DV*%
X31240000Y14224000D03*
X31466001Y11634381D03*
%TO.N,/RMII_REF_CLK*%
X35806000Y8636000D03*
%TO.N,Net-(R19-Pad1)*%
X46736001Y18150855D03*
D18*
%TO.N,Net-(R20-Pad2)*%
X47244000Y3302000D03*
%TO.N,/CAN/CAN2_L*%
X47371000Y6161000D03*
D17*
%TO.N,/CAN/CAN1_L*%
X43434000Y14986000D03*
%TO.N,/RMII_TX_EN*%
X26741646Y15952396D03*
%TO.N,/RMII_MDC*%
X35306000Y8128000D03*
%TO.N,/CAN2_TD*%
X39624000Y13716000D03*
X43815000Y12573000D03*
%TO.N,/MCU/PB14*%
X22860000Y22098000D03*
X31242000Y20320000D03*
%TO.N,/RMII_TXD0*%
X30988000Y17653000D03*
%TO.N,/MCU/PB15*%
X22860000Y24384000D03*
X31242000Y20920003D03*
%TO.N,/CAN1_TD*%
X37785000Y20587000D03*
%TO.N,/CAN2_RD*%
X43376000Y11684000D03*
%TO.N,/CAN1_RD*%
X37338000Y21082000D03*
%TO.N,/RMII_TXD1*%
X30861000Y18288000D03*
%TO.N,+5V*%
X45974000Y16510000D03*
%TO.N,Net-(C5-Pad1)*%
X42926000Y8382000D03*
%TO.N,/NRST*%
X36322000Y5842000D03*
X27746625Y16957375D03*
X36310000Y12954000D03*
%TO.N,Net-(JP2-B)*%
X48768000Y17272000D03*
%TO.N,Net-(JP3-B)*%
X44577000Y17399000D03*
X43942000Y14478000D03*
%TO.N,Net-(JP4-B)*%
X44831000Y12446000D03*
%TO.N,Net-(JP5-B)*%
X48514000Y12700000D03*
%TD*%
D19*
%TO.N,/CAN2_TD*%
X42926000Y13462000D02*
X42164000Y13462000D01*
X42164000Y13462000D02*
X41910000Y13716000D01*
X41910000Y13716000D02*
X39624000Y13716000D01*
X43815000Y12573000D02*
X42926000Y13462000D01*
D20*
%TO.N,/MCU/PB14*%
X24666843Y21815157D02*
X24384000Y22098000D01*
X30168315Y20320000D02*
X28673158Y21815157D01*
X31242000Y20320000D02*
X30168315Y20320000D01*
X28673158Y21815157D02*
X24666843Y21815157D01*
X24384000Y22098000D02*
X22860000Y22098000D01*
%TO.N,/MCU/PB15*%
X31242000Y20920003D02*
X30133997Y20920003D01*
X23368000Y23876000D02*
X22860000Y24384000D01*
X30133997Y20920003D02*
X28702000Y22352000D01*
X24892000Y22352000D02*
X23368000Y23876000D01*
X28702000Y22352000D02*
X24892000Y22352000D01*
D19*
%TO.N,/CAN1_TD*%
X39550000Y22352000D02*
X41402000Y22352000D01*
X37785000Y20587000D02*
X39550000Y22352000D01*
X41402000Y22352000D02*
X43180000Y24130000D01*
D20*
%TO.N,/NRST*%
X35560000Y13704000D02*
X35560000Y21590000D01*
X36310000Y12954000D02*
X35560000Y13704000D01*
X35560000Y21590000D02*
X33020000Y24130000D01*
D19*
%TO.N,Net-(JP3-B)*%
X43959000Y14495000D02*
X43942000Y14478000D01*
X44577000Y17399000D02*
X43959000Y16781000D01*
X43959000Y16781000D02*
X43959000Y14495000D01*
%TD*%
%TA.AperFunction,Conductor*%
%TO.N,+3.3V*%
G36*
X22439944Y24879815D02*
G01*
X22485699Y24827011D01*
X22495643Y24757853D01*
X22466618Y24694297D01*
X22434623Y24657373D01*
X22434622Y24657372D01*
X22374834Y24526457D01*
X22354353Y24384000D01*
X22374834Y24241544D01*
X22426143Y24129196D01*
X22434623Y24110627D01*
X22528872Y24001857D01*
X22649947Y23924047D01*
X22649950Y23924046D01*
X22649949Y23924046D01*
X22766262Y23889894D01*
X22819009Y23858598D01*
X23967426Y22710181D01*
X24000911Y22648858D01*
X23995927Y22579166D01*
X23954055Y22523233D01*
X23888591Y22498816D01*
X23879745Y22498500D01*
X23198974Y22498500D01*
X23131936Y22518184D01*
X23070050Y22557955D01*
X22931963Y22598500D01*
X22931961Y22598500D01*
X22788039Y22598500D01*
X22788036Y22598500D01*
X22649949Y22557955D01*
X22528873Y22480144D01*
X22434623Y22371374D01*
X22434622Y22371372D01*
X22374834Y22240457D01*
X22354353Y22098000D01*
X22374834Y21955544D01*
X22420080Y21856472D01*
X22434623Y21824627D01*
X22528872Y21715857D01*
X22649947Y21638047D01*
X22649950Y21638046D01*
X22649949Y21638046D01*
X22788037Y21597500D01*
X22796809Y21596239D01*
X22860365Y21567216D01*
X22898141Y21508439D01*
X22898143Y21438569D01*
X22860370Y21379790D01*
X22826621Y21358941D01*
X22811160Y21352537D01*
X22779798Y21328473D01*
X22685718Y21256282D01*
X22685716Y21256281D01*
X22685715Y21256279D01*
X22645057Y21203294D01*
X22588629Y21162092D01*
X22518883Y21157939D01*
X22457963Y21192152D01*
X22432122Y21231330D01*
X22429043Y21238763D01*
X22380825Y21355172D01*
X22368537Y21384839D01*
X22368536Y21384840D01*
X22368536Y21384841D01*
X22272282Y21510282D01*
X22146841Y21606536D01*
X22137937Y21610224D01*
X22000762Y21667044D01*
X22000760Y21667045D01*
X21844001Y21687682D01*
X21843999Y21687682D01*
X21687239Y21667045D01*
X21687237Y21667044D01*
X21541160Y21606537D01*
X21415718Y21510282D01*
X21319463Y21384840D01*
X21258956Y21238763D01*
X21258955Y21238761D01*
X21238318Y21082002D01*
X21238318Y21081999D01*
X21258955Y20925240D01*
X21258956Y20925238D01*
X21299232Y20828002D01*
X21319464Y20779159D01*
X21415718Y20653718D01*
X21541159Y20557464D01*
X21687238Y20496956D01*
X21765619Y20486637D01*
X21843999Y20476318D01*
X21844000Y20476318D01*
X21844001Y20476318D01*
X21896254Y20483198D01*
X22000762Y20496956D01*
X22146841Y20557464D01*
X22272282Y20653718D01*
X22312940Y20706706D01*
X22369368Y20747908D01*
X22439114Y20752063D01*
X22500034Y20717851D01*
X22525877Y20678672D01*
X22528955Y20671239D01*
X22528956Y20671238D01*
X22589464Y20525159D01*
X22685718Y20399718D01*
X22811159Y20303464D01*
X22957238Y20242956D01*
X23035619Y20232637D01*
X23113999Y20222318D01*
X23114000Y20222318D01*
X23114001Y20222318D01*
X23166254Y20229198D01*
X23270762Y20242956D01*
X23416841Y20303464D01*
X23542282Y20399718D01*
X23638536Y20525159D01*
X23658767Y20574002D01*
X24159318Y20574002D01*
X24159318Y20573999D01*
X24179955Y20417240D01*
X24179956Y20417238D01*
X24240464Y20271159D01*
X24336718Y20145718D01*
X24462159Y20049464D01*
X24608238Y19988956D01*
X24684705Y19978889D01*
X24764999Y19968318D01*
X24765000Y19968318D01*
X24765001Y19968318D01*
X24845295Y19978889D01*
X24921762Y19988956D01*
X25067841Y20049464D01*
X25193282Y20145718D01*
X25289536Y20271159D01*
X25350044Y20417238D01*
X25370682Y20574000D01*
X25366138Y20608512D01*
X25350044Y20730761D01*
X25350044Y20730762D01*
X25289536Y20876841D01*
X25193282Y21002282D01*
X25067841Y21098536D01*
X25034486Y21112352D01*
X24921762Y21159044D01*
X24921760Y21159045D01*
X24855876Y21167718D01*
X24791979Y21195984D01*
X24764515Y21237621D01*
X24751652Y21209454D01*
X24692874Y21171680D01*
X24674124Y21167718D01*
X24608239Y21159045D01*
X24608237Y21159044D01*
X24462160Y21098537D01*
X24336718Y21002282D01*
X24240463Y20876840D01*
X24179956Y20730763D01*
X24179955Y20730761D01*
X24159318Y20574002D01*
X23658767Y20574002D01*
X23699044Y20671238D01*
X23719682Y20828000D01*
X23699044Y20984762D01*
X23638536Y21130841D01*
X23542282Y21256282D01*
X23416841Y21352536D01*
X23409994Y21355372D01*
X23350643Y21379956D01*
X23270762Y21413044D01*
X23214105Y21420503D01*
X23149292Y21429036D01*
X23085396Y21457303D01*
X23046925Y21515627D01*
X23046094Y21585492D01*
X23083166Y21644715D01*
X23098428Y21656283D01*
X23131938Y21677819D01*
X23198974Y21697500D01*
X24166745Y21697500D01*
X24233784Y21677815D01*
X24254426Y21661181D01*
X24346362Y21569245D01*
X24346363Y21569244D01*
X24420930Y21494677D01*
X24512256Y21441950D01*
X24614116Y21414657D01*
X24657939Y21414657D01*
X24724978Y21394972D01*
X24766789Y21346719D01*
X24789749Y21383397D01*
X24852955Y21413176D01*
X24872061Y21414657D01*
X27381797Y21414657D01*
X27448836Y21394972D01*
X27494591Y21342168D01*
X27504535Y21273010D01*
X27480174Y21215174D01*
X27425547Y21143982D01*
X27415463Y21130840D01*
X27354956Y20984763D01*
X27354955Y20984761D01*
X27334318Y20828002D01*
X27334318Y20827999D01*
X27354955Y20671240D01*
X27354956Y20671238D01*
X27395232Y20574002D01*
X27415464Y20525159D01*
X27511718Y20399718D01*
X27637159Y20303464D01*
X27783238Y20242956D01*
X27861619Y20232637D01*
X27939999Y20222318D01*
X27940000Y20222318D01*
X27940001Y20222318D01*
X27992254Y20229198D01*
X28096762Y20242956D01*
X28242841Y20303464D01*
X28368282Y20399718D01*
X28464536Y20525159D01*
X28525044Y20671238D01*
X28545682Y20828000D01*
X28525044Y20984762D01*
X28472193Y21112354D01*
X28464725Y21181821D01*
X28496000Y21244301D01*
X28556089Y21279953D01*
X28625914Y21277459D01*
X28674436Y21247486D01*
X29593343Y20328579D01*
X29626828Y20267256D01*
X29628601Y20257084D01*
X29640956Y20163239D01*
X29640956Y20163238D01*
X29672741Y20086501D01*
X29701464Y20017159D01*
X29797718Y19891718D01*
X29923159Y19795464D01*
X29936207Y19790060D01*
X29938617Y19789061D01*
X29993021Y19745219D01*
X30015085Y19678925D01*
X29997805Y19611226D01*
X29946668Y19563616D01*
X29891164Y19550500D01*
X29773036Y19550500D01*
X29634949Y19509955D01*
X29513873Y19432144D01*
X29419623Y19323374D01*
X29419622Y19323372D01*
X29359834Y19192457D01*
X29339353Y19050000D01*
X29359834Y18907544D01*
X29414201Y18788500D01*
X29419623Y18776627D01*
X29513872Y18667857D01*
X29634947Y18590047D01*
X29634950Y18590046D01*
X29634949Y18590046D01*
X29773036Y18549501D01*
X29773038Y18549500D01*
X29773039Y18549500D01*
X29916962Y18549500D01*
X29916962Y18549501D01*
X30055053Y18590047D01*
X30176128Y18667857D01*
X30270377Y18776627D01*
X30330165Y18907543D01*
X30350647Y19050000D01*
X30330165Y19192457D01*
X30270377Y19323373D01*
X30176128Y19432143D01*
X30176125Y19432145D01*
X30077245Y19495692D01*
X30031490Y19548496D01*
X30021547Y19617654D01*
X30050572Y19681210D01*
X30109351Y19718984D01*
X30160466Y19722946D01*
X30226000Y19714318D01*
X30382762Y19734956D01*
X30528841Y19795464D01*
X30654282Y19891718D01*
X30654283Y19891721D01*
X30657093Y19893876D01*
X30722263Y19919070D01*
X30732580Y19919500D01*
X30903026Y19919500D01*
X30970064Y19899816D01*
X31031949Y19860046D01*
X31170036Y19819501D01*
X31170038Y19819500D01*
X31170039Y19819500D01*
X31313962Y19819500D01*
X31313962Y19819501D01*
X31452053Y19860047D01*
X31573128Y19937857D01*
X31667377Y20046627D01*
X31727165Y20177543D01*
X31747647Y20320000D01*
X31727165Y20462457D01*
X31678741Y20568490D01*
X31668797Y20637649D01*
X31678741Y20671514D01*
X31691685Y20699857D01*
X31727165Y20777546D01*
X31747647Y20920003D01*
X31735725Y21002922D01*
X31745668Y21072078D01*
X31762345Y21091325D01*
X31730262Y21101161D01*
X31702235Y21133897D01*
X31894802Y21133897D01*
X31925502Y21124883D01*
X31971257Y21072079D01*
X31973024Y21068020D01*
X31987464Y21033159D01*
X32083718Y20907718D01*
X32209159Y20811464D01*
X32355238Y20750956D01*
X32512000Y20730318D01*
X32531799Y20732925D01*
X32600833Y20722160D01*
X32653090Y20675781D01*
X32671976Y20608512D01*
X32670925Y20593804D01*
X32668318Y20573999D01*
X32688955Y20417240D01*
X32688956Y20417238D01*
X32749464Y20271159D01*
X32845718Y20145718D01*
X32971159Y20049464D01*
X33117238Y19988956D01*
X33193705Y19978889D01*
X33273999Y19968318D01*
X33274000Y19968318D01*
X33274001Y19968318D01*
X33354295Y19978889D01*
X33430762Y19988956D01*
X33576841Y20049464D01*
X33702282Y20145718D01*
X33798536Y20271159D01*
X33859044Y20417238D01*
X33879682Y20574000D01*
X33875138Y20608512D01*
X33859044Y20730761D01*
X33859043Y20730763D01*
X33798536Y20876841D01*
X33796485Y20879514D01*
X33795456Y20882175D01*
X33794474Y20883876D01*
X33794739Y20884030D01*
X33771291Y20944683D01*
X33785329Y21013128D01*
X33796485Y21030486D01*
X33796640Y21030689D01*
X33798536Y21033159D01*
X33859044Y21179238D01*
X33879682Y21336000D01*
X33877131Y21355374D01*
X33859044Y21492761D01*
X33859044Y21492762D01*
X33798536Y21638841D01*
X33702282Y21764282D01*
X33576841Y21860536D01*
X33430762Y21921044D01*
X33430760Y21921045D01*
X33274001Y21941682D01*
X33273999Y21941682D01*
X33117239Y21921045D01*
X33117237Y21921044D01*
X32971156Y21860536D01*
X32968481Y21858482D01*
X32965816Y21857453D01*
X32964119Y21856472D01*
X32963966Y21856737D01*
X32903311Y21833291D01*
X32834866Y21847334D01*
X32817519Y21858482D01*
X32814843Y21860536D01*
X32668762Y21921044D01*
X32668760Y21921045D01*
X32512001Y21941682D01*
X32511999Y21941682D01*
X32355239Y21921045D01*
X32355237Y21921044D01*
X32209160Y21860537D01*
X32083718Y21764282D01*
X31987463Y21638840D01*
X31926956Y21492763D01*
X31926955Y21492761D01*
X31906318Y21336002D01*
X31906318Y21335999D01*
X31921477Y21220856D01*
X31910711Y21151821D01*
X31894802Y21133897D01*
X31702235Y21133897D01*
X31685744Y21153159D01*
X31673835Y21179235D01*
X31667377Y21193376D01*
X31573128Y21302146D01*
X31452053Y21379956D01*
X31452051Y21379957D01*
X31452049Y21379958D01*
X31452050Y21379958D01*
X31313963Y21420503D01*
X31313961Y21420503D01*
X31170039Y21420503D01*
X31170036Y21420503D01*
X31031950Y21379958D01*
X31031948Y21379958D01*
X30970064Y21340187D01*
X30903026Y21320503D01*
X30351251Y21320503D01*
X30284212Y21340188D01*
X30263570Y21356822D01*
X29618519Y22001873D01*
X28947913Y22672480D01*
X28882614Y22710181D01*
X28856589Y22725207D01*
X28805657Y22738854D01*
X28754727Y22752500D01*
X28754726Y22752500D01*
X28170439Y22752500D01*
X28103400Y22772185D01*
X28057645Y22824989D01*
X28047701Y22894147D01*
X28076726Y22957703D01*
X28135504Y22995477D01*
X28147644Y22998387D01*
X28256198Y23018679D01*
X28455019Y23095702D01*
X28636302Y23207948D01*
X28793872Y23351593D01*
X28922366Y23521745D01*
X28989325Y23656219D01*
X29036825Y23707452D01*
X29104488Y23724874D01*
X29170828Y23702949D01*
X29212705Y23653349D01*
X29306399Y23452422D01*
X29441894Y23258918D01*
X29608917Y23091895D01*
X29802421Y22956400D01*
X30016507Y22856571D01*
X30016516Y22856567D01*
X30230000Y22799366D01*
X30230000Y23696988D01*
X30287007Y23664075D01*
X30414174Y23630000D01*
X30545826Y23630000D01*
X30672993Y23664075D01*
X30730000Y23696988D01*
X30730000Y22799367D01*
X30943483Y22856567D01*
X30943492Y22856571D01*
X31157578Y22956400D01*
X31351082Y23091895D01*
X31518105Y23258918D01*
X31653600Y23452422D01*
X31747294Y23653349D01*
X31793466Y23705788D01*
X31860660Y23724940D01*
X31927541Y23704724D01*
X31970676Y23656215D01*
X32037632Y23521747D01*
X32096710Y23443516D01*
X32166128Y23351593D01*
X32323698Y23207948D01*
X32504981Y23095702D01*
X32703802Y23018679D01*
X32913390Y22979500D01*
X32913392Y22979500D01*
X33126608Y22979500D01*
X33126610Y22979500D01*
X33336198Y23018679D01*
X33425720Y23053361D01*
X33495342Y23059222D01*
X33557082Y23026512D01*
X33558193Y23025414D01*
X35123181Y21460426D01*
X35156666Y21399103D01*
X35159500Y21372745D01*
X35159500Y13651274D01*
X35186793Y13549411D01*
X35198408Y13529294D01*
X35239520Y13458087D01*
X35239522Y13458085D01*
X35785369Y12912238D01*
X35818854Y12850915D01*
X35820426Y12842205D01*
X35824834Y12811547D01*
X35824835Y12811542D01*
X35879135Y12692643D01*
X35884623Y12680627D01*
X35978872Y12571857D01*
X36099947Y12494047D01*
X36099950Y12494046D01*
X36099949Y12494046D01*
X36238036Y12453501D01*
X36238038Y12453500D01*
X36238039Y12453500D01*
X36381962Y12453500D01*
X36381962Y12453501D01*
X36520053Y12494047D01*
X36641128Y12571857D01*
X36735377Y12680627D01*
X36795165Y12811543D01*
X36815647Y12954000D01*
X36795165Y13096457D01*
X36735377Y13227373D01*
X36641128Y13336143D01*
X36606581Y13358345D01*
X36520051Y13413955D01*
X36403736Y13448107D01*
X36380317Y13462002D01*
X38002318Y13462002D01*
X38002318Y13461999D01*
X38022955Y13305240D01*
X38022956Y13305238D01*
X38044104Y13254181D01*
X38083464Y13159159D01*
X38179718Y13033718D01*
X38305159Y12937464D01*
X38451238Y12876956D01*
X38489825Y12871876D01*
X38607999Y12856318D01*
X38608000Y12856318D01*
X38608001Y12856318D01*
X38660254Y12863198D01*
X38764762Y12876956D01*
X38910841Y12937464D01*
X39036282Y13033718D01*
X39132536Y13159159D01*
X39166613Y13241428D01*
X39210454Y13295832D01*
X39276748Y13317897D01*
X39344447Y13300618D01*
X39348211Y13298293D01*
X39413947Y13256047D01*
X39413948Y13256047D01*
X39413949Y13256046D01*
X39552036Y13215501D01*
X39552038Y13215500D01*
X39552039Y13215500D01*
X39695962Y13215500D01*
X39695962Y13215501D01*
X39834050Y13256046D01*
X39834051Y13256046D01*
X39851306Y13267135D01*
X39857032Y13270816D01*
X39924071Y13290500D01*
X41682390Y13290500D01*
X41749429Y13270815D01*
X41770071Y13254181D01*
X41823513Y13200739D01*
X41823515Y13200737D01*
X41902737Y13121515D01*
X41999763Y13065497D01*
X42107981Y13036500D01*
X42107982Y13036500D01*
X42698390Y13036500D01*
X42765429Y13016815D01*
X42786071Y13000181D01*
X43296699Y12489553D01*
X43327993Y12436814D01*
X43329834Y12430543D01*
X43366415Y12350443D01*
X43376359Y12281285D01*
X43347334Y12217729D01*
X43288556Y12179955D01*
X43165949Y12143955D01*
X43044873Y12066144D01*
X42950623Y11957374D01*
X42950622Y11957372D01*
X42890834Y11826457D01*
X42870353Y11684000D01*
X42887838Y11562382D01*
X42877894Y11493224D01*
X42832139Y11440420D01*
X42765099Y11420736D01*
X42747455Y11421998D01*
X42743963Y11422500D01*
X42743961Y11422500D01*
X42600039Y11422500D01*
X42600036Y11422500D01*
X42461949Y11381955D01*
X42340873Y11304144D01*
X42246623Y11195374D01*
X42246622Y11195372D01*
X42186834Y11064457D01*
X42166353Y10922000D01*
X42186834Y10779544D01*
X42246622Y10648629D01*
X42246623Y10648627D01*
X42340872Y10539857D01*
X42340874Y10539856D01*
X42340874Y10539855D01*
X42381607Y10513679D01*
X42411580Y10494416D01*
X42457335Y10441614D01*
X42467279Y10372455D01*
X42457336Y10338592D01*
X42440835Y10302460D01*
X42440834Y10302458D01*
X42420353Y10160000D01*
X42440834Y10017544D01*
X42495530Y9897778D01*
X42500623Y9886627D01*
X42594872Y9777857D01*
X42715947Y9700047D01*
X42715950Y9700046D01*
X42715949Y9700046D01*
X42854036Y9659501D01*
X42854038Y9659500D01*
X42854039Y9659500D01*
X42997962Y9659500D01*
X42997962Y9659501D01*
X43136053Y9700047D01*
X43257128Y9777857D01*
X43351377Y9886627D01*
X43360224Y9906000D01*
X45722353Y9906000D01*
X45742834Y9763544D01*
X45797201Y9644500D01*
X45802623Y9632627D01*
X45896872Y9523857D01*
X45896873Y9523857D01*
X45896876Y9523853D01*
X45897364Y9523430D01*
X45897712Y9522889D01*
X45902680Y9517155D01*
X45901855Y9516441D01*
X45935135Y9464650D01*
X45935131Y9394781D01*
X45930717Y9382270D01*
X45896957Y9300766D01*
X45896955Y9300761D01*
X45876318Y9144002D01*
X45876318Y9143999D01*
X45896955Y8987240D01*
X45896956Y8987238D01*
X45936759Y8891144D01*
X45957464Y8841159D01*
X46053718Y8715718D01*
X46179159Y8619464D01*
X46325238Y8558956D01*
X46403619Y8548637D01*
X46481999Y8538318D01*
X46482000Y8538318D01*
X46604001Y8554380D01*
X46673036Y8543615D01*
X46725292Y8497235D01*
X46744177Y8429966D01*
X46742924Y8413795D01*
X46738352Y8382001D01*
X46758834Y8239544D01*
X46818622Y8108629D01*
X46818623Y8108627D01*
X46912872Y7999857D01*
X47033947Y7922047D01*
X47033950Y7922046D01*
X47033949Y7922046D01*
X47172036Y7881501D01*
X47172038Y7881500D01*
X47172039Y7881500D01*
X47315962Y7881500D01*
X47315962Y7881501D01*
X47454053Y7922047D01*
X47575128Y7999857D01*
X47669377Y8108627D01*
X47729165Y8239543D01*
X47749647Y8382000D01*
X47729165Y8524457D01*
X47669377Y8655373D01*
X47575128Y8764143D01*
X47454053Y8841953D01*
X47454051Y8841954D01*
X47454049Y8841955D01*
X47454050Y8841955D01*
X47315963Y8882500D01*
X47315961Y8882500D01*
X47194650Y8882500D01*
X47127611Y8902185D01*
X47081856Y8954989D01*
X47071711Y9022685D01*
X47087682Y9143999D01*
X47087682Y9144002D01*
X47067044Y9300761D01*
X47067044Y9300762D01*
X47006536Y9446841D01*
X46910282Y9572282D01*
X46910280Y9572283D01*
X46910280Y9572284D01*
X46854057Y9615425D01*
X46784841Y9668536D01*
X46784837Y9668538D01*
X46778723Y9672068D01*
X46730509Y9722637D01*
X46717289Y9791245D01*
X46717984Y9797066D01*
X46733647Y9906000D01*
X46713165Y10048457D01*
X46653377Y10179373D01*
X46559128Y10288143D01*
X46438053Y10365953D01*
X46438051Y10365954D01*
X46438049Y10365955D01*
X46438050Y10365955D01*
X46299963Y10406500D01*
X46299961Y10406500D01*
X46156039Y10406500D01*
X46156036Y10406500D01*
X46017949Y10365955D01*
X45896873Y10288144D01*
X45802623Y10179374D01*
X45802622Y10179372D01*
X45742834Y10048457D01*
X45722353Y9906000D01*
X43360224Y9906000D01*
X43411165Y10017543D01*
X43431647Y10160000D01*
X43411165Y10302457D01*
X43351377Y10433373D01*
X43257128Y10542143D01*
X43257125Y10542145D01*
X43257126Y10542145D01*
X43186418Y10587586D01*
X43140664Y10640390D01*
X43130720Y10709548D01*
X43140665Y10743414D01*
X43148791Y10761207D01*
X43157165Y10779543D01*
X43177647Y10922000D01*
X43160161Y11043619D01*
X43170105Y11112777D01*
X43215860Y11165580D01*
X43282899Y11185265D01*
X43300553Y11184002D01*
X43304035Y11183502D01*
X43304039Y11183500D01*
X43304043Y11183500D01*
X43447962Y11183500D01*
X43447962Y11183501D01*
X43555121Y11214965D01*
X43586050Y11224046D01*
X43586050Y11224047D01*
X43586053Y11224047D01*
X43707128Y11301857D01*
X43801377Y11410627D01*
X43861165Y11541543D01*
X43881647Y11684000D01*
X43861165Y11826457D01*
X43824583Y11906558D01*
X43814640Y11975715D01*
X43843665Y12039271D01*
X43902443Y12077046D01*
X43902444Y12077046D01*
X44025050Y12113046D01*
X44025050Y12113047D01*
X44025053Y12113047D01*
X44146128Y12190857D01*
X44184255Y12234859D01*
X44243030Y12272633D01*
X44312900Y12272634D01*
X44371679Y12234860D01*
X44390760Y12205170D01*
X44405621Y12172630D01*
X44405622Y12172629D01*
X44405623Y12172627D01*
X44499872Y12063857D01*
X44620947Y11986047D01*
X44620950Y11986046D01*
X44620949Y11986046D01*
X44759036Y11945501D01*
X44759038Y11945500D01*
X44759039Y11945500D01*
X44902962Y11945500D01*
X44902962Y11945501D01*
X45041053Y11986047D01*
X45162128Y12063857D01*
X45256377Y12172627D01*
X45316165Y12303543D01*
X45336647Y12446000D01*
X45316165Y12588457D01*
X45256377Y12719373D01*
X45162128Y12828143D01*
X45041053Y12905953D01*
X45041051Y12905954D01*
X45041049Y12905955D01*
X45041050Y12905955D01*
X44902963Y12946500D01*
X44902961Y12946500D01*
X44759039Y12946500D01*
X44759036Y12946500D01*
X44620949Y12905955D01*
X44499872Y12828143D01*
X44499869Y12828141D01*
X44461744Y12784142D01*
X44402966Y12746368D01*
X44333096Y12746368D01*
X44274319Y12784143D01*
X44255238Y12813833D01*
X44240377Y12846372D01*
X44240376Y12846374D01*
X44236441Y12850915D01*
X44147118Y12954000D01*
X46992353Y12954000D01*
X47012834Y12811544D01*
X47067135Y12692643D01*
X47072623Y12680627D01*
X47166872Y12571857D01*
X47287947Y12494047D01*
X47287950Y12494046D01*
X47287949Y12494046D01*
X47426036Y12453501D01*
X47426038Y12453500D01*
X47426039Y12453500D01*
X47569962Y12453500D01*
X47569962Y12453501D01*
X47708053Y12494047D01*
X47829128Y12571857D01*
X47829270Y12572022D01*
X47829453Y12572140D01*
X47835828Y12577663D01*
X47836621Y12576747D01*
X47888044Y12609798D01*
X47957913Y12609802D01*
X48016694Y12572032D01*
X48035780Y12542335D01*
X48082781Y12439419D01*
X48088623Y12426627D01*
X48182872Y12317857D01*
X48303947Y12240047D01*
X48303950Y12240046D01*
X48303949Y12240046D01*
X48442036Y12199501D01*
X48442038Y12199500D01*
X48442039Y12199500D01*
X48585962Y12199500D01*
X48585962Y12199501D01*
X48706377Y12234857D01*
X48724050Y12240046D01*
X48724050Y12240047D01*
X48724053Y12240047D01*
X48845128Y12317857D01*
X48939377Y12426627D01*
X48999165Y12557543D01*
X49019647Y12700000D01*
X48999165Y12842457D01*
X48939377Y12973373D01*
X48845128Y13082143D01*
X48724053Y13159953D01*
X48724051Y13159954D01*
X48724049Y13159955D01*
X48724050Y13159955D01*
X48585963Y13200500D01*
X48585961Y13200500D01*
X48442039Y13200500D01*
X48442036Y13200500D01*
X48303949Y13159955D01*
X48182872Y13082143D01*
X48182865Y13082138D01*
X48182718Y13081967D01*
X48182528Y13081846D01*
X48176172Y13076337D01*
X48175379Y13077252D01*
X48123937Y13044198D01*
X48054067Y13044204D01*
X47995293Y13081984D01*
X47976219Y13111666D01*
X47923377Y13227373D01*
X47829128Y13336143D01*
X47708053Y13413953D01*
X47708051Y13413954D01*
X47708049Y13413955D01*
X47708050Y13413955D01*
X47569963Y13454500D01*
X47569961Y13454500D01*
X47426039Y13454500D01*
X47426036Y13454500D01*
X47287949Y13413955D01*
X47166873Y13336144D01*
X47072623Y13227374D01*
X47072622Y13227372D01*
X47012834Y13096457D01*
X46992353Y12954000D01*
X44147118Y12954000D01*
X44146128Y12955143D01*
X44025053Y13032953D01*
X43958786Y13052411D01*
X43906041Y13083707D01*
X43187265Y13802483D01*
X43187263Y13802485D01*
X43090237Y13858503D01*
X42982018Y13887500D01*
X42982017Y13887500D01*
X42391610Y13887500D01*
X42324571Y13907185D01*
X42303928Y13923819D01*
X42262312Y13965435D01*
X42171263Y14056485D01*
X42074237Y14112503D01*
X41966018Y14141500D01*
X41966017Y14141500D01*
X39924072Y14141500D01*
X39857033Y14161185D01*
X39857032Y14161185D01*
X39834050Y14175955D01*
X39695963Y14216500D01*
X39695961Y14216500D01*
X39552039Y14216500D01*
X39552036Y14216500D01*
X39413949Y14175955D01*
X39292873Y14098144D01*
X39198623Y13989374D01*
X39198622Y13989373D01*
X39187690Y13965435D01*
X39141933Y13912633D01*
X39074893Y13892950D01*
X39007854Y13912637D01*
X38999411Y13918574D01*
X38910842Y13986536D01*
X38764762Y14047044D01*
X38764760Y14047045D01*
X38608001Y14067682D01*
X38607999Y14067682D01*
X38451239Y14047045D01*
X38451237Y14047044D01*
X38305160Y13986537D01*
X38179718Y13890282D01*
X38083463Y13764840D01*
X38022956Y13618763D01*
X38022955Y13618761D01*
X38002318Y13462002D01*
X36380317Y13462002D01*
X36350990Y13479403D01*
X35996819Y13833574D01*
X35963334Y13894897D01*
X35960500Y13921255D01*
X35960500Y14224000D01*
X36578353Y14224000D01*
X36598834Y14081544D01*
X36651860Y13965435D01*
X36658623Y13950627D01*
X36752872Y13841857D01*
X36873947Y13764047D01*
X36873950Y13764046D01*
X36873949Y13764046D01*
X37012036Y13723501D01*
X37012038Y13723500D01*
X37012039Y13723500D01*
X37155962Y13723500D01*
X37155962Y13723501D01*
X37294053Y13764047D01*
X37415128Y13841857D01*
X37509377Y13950627D01*
X37569165Y14081543D01*
X37589647Y14224000D01*
X37569165Y14366457D01*
X37509377Y14497373D01*
X37415128Y14606143D01*
X37294053Y14683953D01*
X37294051Y14683954D01*
X37294049Y14683955D01*
X37294050Y14683955D01*
X37155963Y14724500D01*
X37155961Y14724500D01*
X37012039Y14724500D01*
X37012036Y14724500D01*
X36873949Y14683955D01*
X36752873Y14606144D01*
X36752872Y14606144D01*
X36752872Y14606143D01*
X36740290Y14591623D01*
X36658623Y14497374D01*
X36658622Y14497372D01*
X36598834Y14366457D01*
X36578353Y14224000D01*
X35960500Y14224000D01*
X35960500Y14986000D01*
X42928353Y14986000D01*
X42948834Y14843544D01*
X43003201Y14724500D01*
X43008623Y14712627D01*
X43102872Y14603857D01*
X43223947Y14526047D01*
X43223950Y14526046D01*
X43223949Y14526046D01*
X43362039Y14485500D01*
X43420817Y14447726D01*
X43449843Y14384171D01*
X43456834Y14335544D01*
X43516622Y14204629D01*
X43516623Y14204627D01*
X43610872Y14095857D01*
X43731947Y14018047D01*
X43731950Y14018046D01*
X43731949Y14018046D01*
X43829599Y13989374D01*
X43867178Y13978340D01*
X43870036Y13977501D01*
X43870038Y13977500D01*
X43870039Y13977500D01*
X44013962Y13977500D01*
X44013962Y13977501D01*
X44152053Y14018047D01*
X44273128Y14095857D01*
X44367377Y14204627D01*
X44427165Y14335543D01*
X44447647Y14478000D01*
X44427165Y14620457D01*
X44427164Y14620461D01*
X44395706Y14689343D01*
X44384500Y14740855D01*
X44384500Y16510000D01*
X45468353Y16510000D01*
X45488834Y16367544D01*
X45539776Y16255999D01*
X45548623Y16236627D01*
X45642872Y16127857D01*
X45763947Y16050047D01*
X45763950Y16050046D01*
X45763949Y16050046D01*
X45902036Y16009501D01*
X45902038Y16009500D01*
X45902039Y16009500D01*
X46045962Y16009500D01*
X46045962Y16009501D01*
X46184053Y16050047D01*
X46305128Y16127857D01*
X46399377Y16236627D01*
X46459165Y16367543D01*
X46479647Y16510000D01*
X46459165Y16652457D01*
X46399377Y16783373D01*
X46305128Y16892143D01*
X46184053Y16969953D01*
X46184051Y16969954D01*
X46184049Y16969955D01*
X46184050Y16969955D01*
X46045963Y17010500D01*
X46045961Y17010500D01*
X45902039Y17010500D01*
X45902036Y17010500D01*
X45763949Y16969955D01*
X45642873Y16892144D01*
X45548623Y16783374D01*
X45548622Y16783372D01*
X45488834Y16652457D01*
X45468353Y16510000D01*
X44384500Y16510000D01*
X44384500Y16553391D01*
X44404185Y16620430D01*
X44420815Y16641068D01*
X44668043Y16888297D01*
X44720786Y16919590D01*
X44787053Y16939047D01*
X44908128Y17016857D01*
X45002377Y17125627D01*
X45062165Y17256543D01*
X45082647Y17399000D01*
X45062165Y17541457D01*
X45002377Y17672373D01*
X44908128Y17781143D01*
X44787053Y17858953D01*
X44787051Y17858954D01*
X44787049Y17858955D01*
X44787050Y17858955D01*
X44648963Y17899500D01*
X44648961Y17899500D01*
X44505039Y17899500D01*
X44505036Y17899500D01*
X44366949Y17858955D01*
X44245873Y17781144D01*
X44151623Y17672374D01*
X44151622Y17672372D01*
X44091834Y17541457D01*
X44089997Y17535197D01*
X44058701Y17482450D01*
X43697737Y17121485D01*
X43618517Y17042266D01*
X43618513Y17042260D01*
X43562498Y16945240D01*
X43562497Y16945237D01*
X43533500Y16837018D01*
X43533500Y15610500D01*
X43513815Y15543461D01*
X43461011Y15497706D01*
X43409500Y15486500D01*
X43362036Y15486500D01*
X43223949Y15445955D01*
X43102873Y15368144D01*
X43008623Y15259374D01*
X43008622Y15259372D01*
X42948834Y15128457D01*
X42928353Y14986000D01*
X35960500Y14986000D01*
X35960500Y17018002D01*
X37748318Y17018002D01*
X37748318Y17017999D01*
X37768955Y16861240D01*
X37768956Y16861238D01*
X37802383Y16780537D01*
X37829464Y16715159D01*
X37925718Y16589718D01*
X38051159Y16493464D01*
X38197238Y16432956D01*
X38275619Y16422637D01*
X38353999Y16412318D01*
X38354000Y16412318D01*
X38354001Y16412318D01*
X38406254Y16419198D01*
X38510762Y16432956D01*
X38656841Y16493464D01*
X38659514Y16495515D01*
X38662174Y16496544D01*
X38663876Y16497526D01*
X38664029Y16497261D01*
X38724683Y16520709D01*
X38793128Y16506671D01*
X38810486Y16495515D01*
X38813159Y16493464D01*
X38813161Y16493463D01*
X38819415Y16489852D01*
X38867630Y16439284D01*
X38880150Y16400116D01*
X38884833Y16367550D01*
X38884834Y16367547D01*
X38884835Y16367543D01*
X38912251Y16307510D01*
X38922194Y16238353D01*
X38912251Y16204490D01*
X38884835Y16144458D01*
X38884834Y16144457D01*
X38864353Y16002000D01*
X38884834Y15859544D01*
X38919072Y15784575D01*
X38944623Y15728627D01*
X39038872Y15619857D01*
X39159947Y15542047D01*
X39159950Y15542046D01*
X39159949Y15542046D01*
X39298036Y15501501D01*
X39298038Y15501500D01*
X39298039Y15501500D01*
X39441962Y15501500D01*
X39441962Y15501501D01*
X39580053Y15542047D01*
X39701128Y15619857D01*
X39795377Y15728627D01*
X39855165Y15859543D01*
X39875647Y16002000D01*
X39855165Y16144457D01*
X39827748Y16204489D01*
X39817805Y16273646D01*
X39827749Y16307512D01*
X39840092Y16334539D01*
X39855165Y16367543D01*
X39875647Y16510000D01*
X39855165Y16652457D01*
X39795377Y16783373D01*
X39770532Y16812046D01*
X39741088Y16846027D01*
X39712063Y16909582D01*
X39711862Y16943411D01*
X39721682Y17018000D01*
X39719131Y17037374D01*
X39701044Y17174761D01*
X39701044Y17174762D01*
X39640536Y17320841D01*
X39544282Y17446282D01*
X39418841Y17542536D01*
X39411994Y17545372D01*
X39272762Y17603044D01*
X39272760Y17603045D01*
X39116001Y17623682D01*
X39115999Y17623682D01*
X38959239Y17603045D01*
X38959237Y17603044D01*
X38813156Y17542536D01*
X38810481Y17540482D01*
X38807816Y17539453D01*
X38806119Y17538472D01*
X38805966Y17538737D01*
X38745311Y17515291D01*
X38676866Y17529334D01*
X38659519Y17540482D01*
X38656843Y17542536D01*
X38510762Y17603044D01*
X38510760Y17603045D01*
X38354001Y17623682D01*
X38353999Y17623682D01*
X38197239Y17603045D01*
X38197237Y17603044D01*
X38051160Y17542537D01*
X37925718Y17446282D01*
X37829463Y17320840D01*
X37768956Y17174763D01*
X37768955Y17174761D01*
X37748318Y17018002D01*
X35960500Y17018002D01*
X35960500Y18150855D01*
X46230354Y18150855D01*
X46250835Y18008399D01*
X46302970Y17894241D01*
X46310624Y17877482D01*
X46404873Y17768712D01*
X46525948Y17690902D01*
X46525951Y17690901D01*
X46525950Y17690901D01*
X46664037Y17650356D01*
X46664039Y17650355D01*
X46664040Y17650355D01*
X46807963Y17650355D01*
X46807963Y17650356D01*
X46946054Y17690902D01*
X47067129Y17768712D01*
X47161378Y17877482D01*
X47221166Y18008398D01*
X47241648Y18150855D01*
X47221166Y18293312D01*
X47161378Y18424228D01*
X47067129Y18532998D01*
X46946054Y18610808D01*
X46946052Y18610809D01*
X46946050Y18610810D01*
X46946051Y18610810D01*
X46807964Y18651355D01*
X46807962Y18651355D01*
X46664040Y18651355D01*
X46664037Y18651355D01*
X46525950Y18610810D01*
X46404874Y18532999D01*
X46310624Y18424229D01*
X46310623Y18424227D01*
X46250835Y18293312D01*
X46230354Y18150855D01*
X35960500Y18150855D01*
X35960500Y21642725D01*
X35960500Y21642727D01*
X35933207Y21744587D01*
X35880480Y21835913D01*
X35805913Y21910480D01*
X34639119Y23077274D01*
X34605634Y23138597D01*
X34609474Y23192299D01*
X34575051Y23184658D01*
X34509485Y23208799D01*
X34495696Y23220697D01*
X34128194Y23588199D01*
X34094709Y23649522D01*
X34096609Y23709815D01*
X34100894Y23724874D01*
X34155756Y23917690D01*
X34166529Y24033953D01*
X34192315Y24098889D01*
X34236869Y24130806D01*
X34200497Y24151669D01*
X34168307Y24213682D01*
X34166529Y24226049D01*
X34165093Y24241544D01*
X34155756Y24342310D01*
X34097405Y24547389D01*
X34097403Y24547394D01*
X34097403Y24547395D01*
X34011342Y24720229D01*
X33999081Y24789014D01*
X34025954Y24853509D01*
X34083430Y24893236D01*
X34122342Y24899500D01*
X34457658Y24899500D01*
X34524697Y24879815D01*
X34570452Y24827011D01*
X34580396Y24757853D01*
X34568658Y24720229D01*
X34482596Y24547395D01*
X34482596Y24547393D01*
X34424244Y24342311D01*
X34413471Y24226049D01*
X34387685Y24161112D01*
X34343130Y24129196D01*
X34379503Y24108332D01*
X34411693Y24046319D01*
X34413470Y24033953D01*
X34424244Y23917690D01*
X34477675Y23729901D01*
X34482596Y23712608D01*
X34482596Y23712606D01*
X34577632Y23521747D01*
X34682331Y23383105D01*
X34707023Y23317744D01*
X34699339Y23281697D01*
X34717954Y23288639D01*
X34786227Y23273787D01*
X34810336Y23256594D01*
X34863698Y23207948D01*
X35044981Y23095702D01*
X35243802Y23018679D01*
X35453390Y22979500D01*
X35453392Y22979500D01*
X35666608Y22979500D01*
X35666610Y22979500D01*
X35876198Y23018679D01*
X36075019Y23095702D01*
X36256302Y23207948D01*
X36413872Y23351593D01*
X36542366Y23521745D01*
X36575456Y23588199D01*
X36637403Y23712606D01*
X36637403Y23712607D01*
X36637405Y23712611D01*
X36695756Y23917690D01*
X36706529Y24033953D01*
X36732315Y24098889D01*
X36776869Y24130806D01*
X36740497Y24151669D01*
X36708307Y24213682D01*
X36706529Y24226049D01*
X36705093Y24241544D01*
X36695756Y24342310D01*
X36637405Y24547389D01*
X36637403Y24547394D01*
X36637403Y24547395D01*
X36551342Y24720229D01*
X36539081Y24789014D01*
X36565954Y24853509D01*
X36623430Y24893236D01*
X36662342Y24899500D01*
X36997658Y24899500D01*
X37064697Y24879815D01*
X37110452Y24827011D01*
X37120396Y24757853D01*
X37108658Y24720229D01*
X37022596Y24547395D01*
X37022596Y24547393D01*
X36964244Y24342311D01*
X36953471Y24226049D01*
X36927685Y24161112D01*
X36883130Y24129196D01*
X36919503Y24108332D01*
X36951693Y24046319D01*
X36953470Y24033953D01*
X36964244Y23917690D01*
X37017675Y23729901D01*
X37022596Y23712608D01*
X37022596Y23712606D01*
X37117632Y23521747D01*
X37176710Y23443516D01*
X37246128Y23351593D01*
X37403698Y23207948D01*
X37584981Y23095702D01*
X37783802Y23018679D01*
X37993390Y22979500D01*
X37993392Y22979500D01*
X38206608Y22979500D01*
X38206610Y22979500D01*
X38416198Y23018679D01*
X38615019Y23095702D01*
X38796302Y23207948D01*
X38953872Y23351593D01*
X39082366Y23521745D01*
X39115456Y23588199D01*
X39177403Y23712606D01*
X39177403Y23712607D01*
X39177405Y23712611D01*
X39235756Y23917690D01*
X39246529Y24033953D01*
X39272315Y24098889D01*
X39316869Y24130806D01*
X39280497Y24151669D01*
X39248307Y24213682D01*
X39246529Y24226049D01*
X39245093Y24241544D01*
X39235756Y24342310D01*
X39177405Y24547389D01*
X39177403Y24547394D01*
X39177403Y24547395D01*
X39091342Y24720229D01*
X39079081Y24789014D01*
X39105954Y24853509D01*
X39163430Y24893236D01*
X39202342Y24899500D01*
X39537658Y24899500D01*
X39604697Y24879815D01*
X39650452Y24827011D01*
X39660396Y24757853D01*
X39648658Y24720229D01*
X39562596Y24547395D01*
X39562596Y24547393D01*
X39504244Y24342311D01*
X39493471Y24226049D01*
X39467685Y24161112D01*
X39423130Y24129196D01*
X39459503Y24108332D01*
X39491693Y24046319D01*
X39493470Y24033953D01*
X39504244Y23917690D01*
X39557675Y23729901D01*
X39562596Y23712608D01*
X39562596Y23712606D01*
X39657632Y23521747D01*
X39716710Y23443516D01*
X39786128Y23351593D01*
X39943698Y23207948D01*
X40124981Y23095702D01*
X40259765Y23043487D01*
X40327808Y23017127D01*
X40383209Y22974554D01*
X40406800Y22908787D01*
X40391089Y22840707D01*
X40341065Y22791928D01*
X40283014Y22777500D01*
X39493982Y22777500D01*
X39385763Y22748503D01*
X39385760Y22748502D01*
X39288740Y22692487D01*
X39288734Y22692483D01*
X37944945Y21348694D01*
X37883622Y21315209D01*
X37813930Y21320193D01*
X37763551Y21355172D01*
X37748324Y21372745D01*
X37669128Y21464143D01*
X37548053Y21541953D01*
X37548051Y21541954D01*
X37548049Y21541955D01*
X37548050Y21541955D01*
X37409963Y21582500D01*
X37409961Y21582500D01*
X37266039Y21582500D01*
X37266036Y21582500D01*
X37127949Y21541955D01*
X37006873Y21464144D01*
X36912623Y21355374D01*
X36912622Y21355372D01*
X36852834Y21224457D01*
X36832353Y21082000D01*
X36852834Y20939544D01*
X36903776Y20827999D01*
X36912623Y20808627D01*
X37006872Y20699857D01*
X37127947Y20622047D01*
X37127950Y20622046D01*
X37127949Y20622046D01*
X37204302Y20599627D01*
X37263080Y20561853D01*
X37292106Y20498298D01*
X37299834Y20444544D01*
X37359622Y20313629D01*
X37359623Y20313627D01*
X37453872Y20204857D01*
X37574947Y20127047D01*
X37574950Y20127046D01*
X37574949Y20127046D01*
X37713036Y20086501D01*
X37713038Y20086500D01*
X37713039Y20086500D01*
X37856962Y20086500D01*
X37856962Y20086501D01*
X37995053Y20127047D01*
X38116128Y20204857D01*
X38210377Y20313627D01*
X38270165Y20444543D01*
X38270165Y20444548D01*
X38272002Y20450800D01*
X38303298Y20503552D01*
X39689929Y21890181D01*
X39751252Y21923666D01*
X39777610Y21926500D01*
X41458016Y21926500D01*
X41458018Y21926500D01*
X41566237Y21955497D01*
X41663263Y22011515D01*
X42667290Y23015544D01*
X42728611Y23049027D01*
X42798302Y23044043D01*
X42799763Y23043487D01*
X42863794Y23018682D01*
X42863802Y23018679D01*
X43073390Y22979500D01*
X43073392Y22979500D01*
X43286608Y22979500D01*
X43286610Y22979500D01*
X43496198Y23018679D01*
X43695019Y23095702D01*
X43876302Y23207948D01*
X44033872Y23351593D01*
X44162366Y23521745D01*
X44195456Y23588199D01*
X44257403Y23712606D01*
X44257403Y23712607D01*
X44257405Y23712611D01*
X44315756Y23917690D01*
X44326529Y24033953D01*
X44352315Y24098889D01*
X44396869Y24130806D01*
X44360497Y24151669D01*
X44328307Y24213682D01*
X44326529Y24226049D01*
X44325093Y24241544D01*
X44315756Y24342310D01*
X44257405Y24547389D01*
X44257403Y24547394D01*
X44257403Y24547395D01*
X44171342Y24720229D01*
X44159081Y24789014D01*
X44185954Y24853509D01*
X44243430Y24893236D01*
X44282342Y24899500D01*
X44617658Y24899500D01*
X44684697Y24879815D01*
X44730452Y24827011D01*
X44740396Y24757853D01*
X44728658Y24720229D01*
X44642596Y24547395D01*
X44642596Y24547393D01*
X44584244Y24342311D01*
X44573471Y24226049D01*
X44547685Y24161112D01*
X44503130Y24129196D01*
X44539503Y24108332D01*
X44571693Y24046319D01*
X44573470Y24033953D01*
X44584244Y23917690D01*
X44637675Y23729901D01*
X44642596Y23712608D01*
X44642596Y23712606D01*
X44737632Y23521747D01*
X44796710Y23443516D01*
X44866128Y23351593D01*
X45023698Y23207948D01*
X45204981Y23095702D01*
X45403802Y23018679D01*
X45613390Y22979500D01*
X45613392Y22979500D01*
X45826608Y22979500D01*
X45826610Y22979500D01*
X46036198Y23018679D01*
X46235019Y23095702D01*
X46416302Y23207948D01*
X46573872Y23351593D01*
X46702366Y23521745D01*
X46735456Y23588199D01*
X46797403Y23712606D01*
X46797403Y23712607D01*
X46797405Y23712611D01*
X46855756Y23917690D01*
X46866529Y24033953D01*
X46892315Y24098889D01*
X46936869Y24130806D01*
X46900497Y24151669D01*
X46868307Y24213682D01*
X46866529Y24226049D01*
X46865093Y24241544D01*
X46855756Y24342310D01*
X46797405Y24547389D01*
X46797403Y24547394D01*
X46797403Y24547395D01*
X46711342Y24720229D01*
X46699081Y24789014D01*
X46725954Y24853509D01*
X46783430Y24893236D01*
X46822342Y24899500D01*
X47157658Y24899500D01*
X47224697Y24879815D01*
X47270452Y24827011D01*
X47280396Y24757853D01*
X47268658Y24720229D01*
X47182596Y24547395D01*
X47182596Y24547393D01*
X47124244Y24342311D01*
X47113471Y24226049D01*
X47087685Y24161112D01*
X47043130Y24129196D01*
X47079503Y24108332D01*
X47111693Y24046319D01*
X47113470Y24033953D01*
X47124244Y23917690D01*
X47177675Y23729901D01*
X47182596Y23712608D01*
X47182596Y23712606D01*
X47277632Y23521747D01*
X47336710Y23443516D01*
X47406128Y23351593D01*
X47563698Y23207948D01*
X47744981Y23095702D01*
X47943802Y23018679D01*
X48153390Y22979500D01*
X48153392Y22979500D01*
X48366608Y22979500D01*
X48366610Y22979500D01*
X48576198Y23018679D01*
X48775019Y23095702D01*
X48956302Y23207948D01*
X49075962Y23317034D01*
X49138765Y23347650D01*
X49208153Y23339453D01*
X49262093Y23295043D01*
X49283461Y23228521D01*
X49283500Y23225396D01*
X49283500Y17762744D01*
X49263815Y17695705D01*
X49211011Y17649950D01*
X49141853Y17640006D01*
X49092461Y17658428D01*
X49034456Y17695705D01*
X48978053Y17731953D01*
X48978051Y17731954D01*
X48978049Y17731955D01*
X48978050Y17731955D01*
X48839963Y17772500D01*
X48839961Y17772500D01*
X48696039Y17772500D01*
X48696036Y17772500D01*
X48557949Y17731955D01*
X48436873Y17654144D01*
X48342623Y17545374D01*
X48342622Y17545372D01*
X48282834Y17414457D01*
X48262353Y17272000D01*
X48282834Y17129544D01*
X48337201Y17010500D01*
X48342623Y16998627D01*
X48436872Y16889857D01*
X48557947Y16812047D01*
X48557950Y16812046D01*
X48557949Y16812046D01*
X48696036Y16771501D01*
X48696038Y16771500D01*
X48696039Y16771500D01*
X48839962Y16771500D01*
X48839962Y16771501D01*
X48978050Y16812046D01*
X48978051Y16812046D01*
X48982522Y16814919D01*
X49092460Y16885573D01*
X49159500Y16905257D01*
X49226539Y16885573D01*
X49272294Y16832769D01*
X49283500Y16781257D01*
X49283500Y2174605D01*
X49263815Y2107566D01*
X49211011Y2061811D01*
X49141853Y2051867D01*
X49078297Y2080892D01*
X49075962Y2082968D01*
X48958562Y2189992D01*
X48956302Y2192052D01*
X48775019Y2304298D01*
X48775017Y2304299D01*
X48675608Y2342810D01*
X48576198Y2381321D01*
X48366610Y2420500D01*
X48153390Y2420500D01*
X47943802Y2381321D01*
X47943799Y2381321D01*
X47943799Y2381320D01*
X47744982Y2304299D01*
X47744980Y2304298D01*
X47563699Y2192053D01*
X47406127Y2048407D01*
X47277632Y1878254D01*
X47182596Y1687395D01*
X47182596Y1687393D01*
X47124244Y1482311D01*
X47113471Y1366049D01*
X47087685Y1301112D01*
X47043130Y1269196D01*
X47079503Y1248332D01*
X47111693Y1186319D01*
X47113471Y1173952D01*
X47124244Y1057690D01*
X47182596Y852608D01*
X47182596Y852606D01*
X47268658Y679771D01*
X47280919Y610986D01*
X47254046Y546491D01*
X47196570Y506764D01*
X47157658Y500500D01*
X46822342Y500500D01*
X46755303Y520185D01*
X46709548Y572989D01*
X46699604Y642147D01*
X46711342Y679771D01*
X46797403Y852606D01*
X46797403Y852607D01*
X46797405Y852611D01*
X46855756Y1057690D01*
X46866529Y1173953D01*
X46892315Y1238889D01*
X46936869Y1270806D01*
X46900497Y1291669D01*
X46868307Y1353682D01*
X46866529Y1366049D01*
X46863175Y1402241D01*
X46855756Y1482310D01*
X46797405Y1687389D01*
X46797403Y1687394D01*
X46797403Y1687395D01*
X46702367Y1878254D01*
X46573872Y2048407D01*
X46538238Y2080892D01*
X46416302Y2192052D01*
X46235019Y2304298D01*
X46235017Y2304299D01*
X46135608Y2342810D01*
X46036198Y2381321D01*
X45826610Y2420500D01*
X45613390Y2420500D01*
X45403802Y2381321D01*
X45403799Y2381321D01*
X45403799Y2381320D01*
X45204982Y2304299D01*
X45204980Y2304298D01*
X45023699Y2192053D01*
X44866127Y2048407D01*
X44737632Y1878254D01*
X44642596Y1687395D01*
X44642596Y1687393D01*
X44584244Y1482311D01*
X44573471Y1366049D01*
X44547685Y1301112D01*
X44503130Y1269196D01*
X44539503Y1248332D01*
X44571693Y1186319D01*
X44573471Y1173952D01*
X44584244Y1057690D01*
X44642596Y852608D01*
X44642596Y852606D01*
X44728658Y679771D01*
X44740919Y610986D01*
X44714046Y546491D01*
X44656570Y506764D01*
X44617658Y500500D01*
X44282342Y500500D01*
X44215303Y520185D01*
X44169548Y572989D01*
X44159604Y642147D01*
X44171342Y679771D01*
X44257403Y852606D01*
X44257403Y852607D01*
X44257405Y852611D01*
X44315756Y1057690D01*
X44326529Y1173953D01*
X44352315Y1238889D01*
X44396869Y1270806D01*
X44360497Y1291669D01*
X44328307Y1353682D01*
X44326529Y1366049D01*
X44323175Y1402241D01*
X44315756Y1482310D01*
X44257405Y1687389D01*
X44257403Y1687394D01*
X44257403Y1687395D01*
X44162367Y1878254D01*
X44033872Y2048407D01*
X43998238Y2080892D01*
X43876302Y2192052D01*
X43695019Y2304298D01*
X43695017Y2304299D01*
X43595608Y2342810D01*
X43496198Y2381321D01*
X43286610Y2420500D01*
X43073390Y2420500D01*
X42863802Y2381321D01*
X42863799Y2381321D01*
X42863799Y2381320D01*
X42664982Y2304299D01*
X42664980Y2304298D01*
X42483699Y2192053D01*
X42326127Y2048407D01*
X42197632Y1878254D01*
X42102596Y1687395D01*
X42102596Y1687393D01*
X42044244Y1482311D01*
X42033471Y1366049D01*
X42007685Y1301112D01*
X41963130Y1269196D01*
X41999503Y1248332D01*
X42031693Y1186319D01*
X42033471Y1173952D01*
X42044244Y1057690D01*
X42102596Y852608D01*
X42102596Y852606D01*
X42188658Y679771D01*
X42200919Y610986D01*
X42174046Y546491D01*
X42116570Y506764D01*
X42077658Y500500D01*
X41742342Y500500D01*
X41675303Y520185D01*
X41629548Y572989D01*
X41619604Y642147D01*
X41631342Y679771D01*
X41717403Y852606D01*
X41717403Y852607D01*
X41717405Y852611D01*
X41775756Y1057690D01*
X41786529Y1173953D01*
X41812315Y1238889D01*
X41856869Y1270806D01*
X41820497Y1291669D01*
X41788307Y1353682D01*
X41786529Y1366049D01*
X41783175Y1402241D01*
X41775756Y1482310D01*
X41717405Y1687389D01*
X41717403Y1687394D01*
X41717403Y1687395D01*
X41622367Y1878254D01*
X41493872Y2048407D01*
X41458238Y2080892D01*
X41336302Y2192052D01*
X41155019Y2304298D01*
X41155017Y2304299D01*
X41055608Y2342810D01*
X40956198Y2381321D01*
X40746610Y2420500D01*
X40533390Y2420500D01*
X40323802Y2381321D01*
X40323799Y2381321D01*
X40323799Y2381320D01*
X40124982Y2304299D01*
X40124980Y2304298D01*
X39943699Y2192053D01*
X39786127Y2048407D01*
X39657632Y1878254D01*
X39562596Y1687395D01*
X39562596Y1687393D01*
X39504244Y1482311D01*
X39493471Y1366049D01*
X39467685Y1301112D01*
X39423130Y1269196D01*
X39459503Y1248332D01*
X39491693Y1186319D01*
X39493471Y1173952D01*
X39504244Y1057690D01*
X39562596Y852608D01*
X39562596Y852606D01*
X39648658Y679771D01*
X39660919Y610986D01*
X39634046Y546491D01*
X39576570Y506764D01*
X39537658Y500500D01*
X39202342Y500500D01*
X39135303Y520185D01*
X39089548Y572989D01*
X39079604Y642147D01*
X39091342Y679771D01*
X39177403Y852606D01*
X39177403Y852607D01*
X39177405Y852611D01*
X39235756Y1057690D01*
X39246529Y1173953D01*
X39272315Y1238889D01*
X39316869Y1270806D01*
X39280497Y1291669D01*
X39248307Y1353682D01*
X39246529Y1366049D01*
X39243175Y1402241D01*
X39235756Y1482310D01*
X39177405Y1687389D01*
X39177403Y1687394D01*
X39177403Y1687395D01*
X39082367Y1878254D01*
X38953872Y2048407D01*
X38918238Y2080892D01*
X38796302Y2192052D01*
X38615019Y2304298D01*
X38615017Y2304299D01*
X38515608Y2342810D01*
X38416198Y2381321D01*
X38206610Y2420500D01*
X37993390Y2420500D01*
X37783802Y2381321D01*
X37783799Y2381321D01*
X37783799Y2381320D01*
X37584982Y2304299D01*
X37584980Y2304298D01*
X37403699Y2192053D01*
X37246127Y2048407D01*
X37117632Y1878254D01*
X37022596Y1687395D01*
X37022596Y1687393D01*
X36964244Y1482311D01*
X36953471Y1366049D01*
X36927685Y1301112D01*
X36883130Y1269196D01*
X36919503Y1248332D01*
X36951693Y1186319D01*
X36953471Y1173952D01*
X36964244Y1057690D01*
X37022596Y852608D01*
X37022596Y852606D01*
X37108658Y679771D01*
X37120919Y610986D01*
X37094046Y546491D01*
X37036570Y506764D01*
X36997658Y500500D01*
X36662342Y500500D01*
X36595303Y520185D01*
X36549548Y572989D01*
X36539604Y642147D01*
X36551342Y679771D01*
X36637403Y852606D01*
X36637403Y852607D01*
X36637405Y852611D01*
X36695756Y1057690D01*
X36706529Y1173953D01*
X36732315Y1238889D01*
X36776869Y1270806D01*
X36740497Y1291669D01*
X36708307Y1353682D01*
X36706529Y1366049D01*
X36703175Y1402241D01*
X36695756Y1482310D01*
X36637405Y1687389D01*
X36637403Y1687394D01*
X36637403Y1687395D01*
X36542367Y1878254D01*
X36413872Y2048407D01*
X36378238Y2080892D01*
X36256302Y2192052D01*
X36075019Y2304298D01*
X36075017Y2304299D01*
X35975608Y2342810D01*
X35876198Y2381321D01*
X35666610Y2420500D01*
X35453390Y2420500D01*
X35243802Y2381321D01*
X35243799Y2381321D01*
X35243799Y2381320D01*
X35044982Y2304299D01*
X35044980Y2304298D01*
X34863699Y2192053D01*
X34706127Y2048407D01*
X34577632Y1878254D01*
X34482596Y1687395D01*
X34482596Y1687393D01*
X34424244Y1482311D01*
X34413471Y1366049D01*
X34387685Y1301112D01*
X34343130Y1269196D01*
X34379503Y1248332D01*
X34411693Y1186319D01*
X34413471Y1173952D01*
X34424244Y1057690D01*
X34482596Y852608D01*
X34482596Y852606D01*
X34568658Y679771D01*
X34580919Y610986D01*
X34554046Y546491D01*
X34496570Y506764D01*
X34457658Y500500D01*
X34122342Y500500D01*
X34055303Y520185D01*
X34009548Y572989D01*
X33999604Y642147D01*
X34011342Y679771D01*
X34097403Y852606D01*
X34097403Y852607D01*
X34097405Y852611D01*
X34155756Y1057690D01*
X34166529Y1173953D01*
X34192315Y1238889D01*
X34236869Y1270806D01*
X34200497Y1291669D01*
X34168307Y1353682D01*
X34166529Y1366049D01*
X34163175Y1402241D01*
X34155756Y1482310D01*
X34097405Y1687389D01*
X34097403Y1687394D01*
X34097403Y1687395D01*
X34002367Y1878254D01*
X33873872Y2048407D01*
X33838238Y2080892D01*
X33716302Y2192052D01*
X33535019Y2304298D01*
X33535017Y2304299D01*
X33435608Y2342810D01*
X33336198Y2381321D01*
X33126610Y2420500D01*
X32913390Y2420500D01*
X32703802Y2381321D01*
X32703799Y2381321D01*
X32703799Y2381320D01*
X32504982Y2304299D01*
X32504980Y2304298D01*
X32323699Y2192053D01*
X32166127Y2048407D01*
X32037632Y1878254D01*
X31942596Y1687395D01*
X31942596Y1687393D01*
X31884244Y1482311D01*
X31873471Y1366049D01*
X31847685Y1301112D01*
X31803130Y1269196D01*
X31839503Y1248332D01*
X31871693Y1186319D01*
X31873471Y1173952D01*
X31884244Y1057690D01*
X31942596Y852608D01*
X31942596Y852606D01*
X32028658Y679771D01*
X32040919Y610986D01*
X32014046Y546491D01*
X31956570Y506764D01*
X31917658Y500500D01*
X31582342Y500500D01*
X31515303Y520185D01*
X31469548Y572989D01*
X31459604Y642147D01*
X31471342Y679771D01*
X31557403Y852606D01*
X31557403Y852607D01*
X31557405Y852611D01*
X31615756Y1057690D01*
X31626529Y1173953D01*
X31652315Y1238889D01*
X31696869Y1270806D01*
X31660497Y1291669D01*
X31628307Y1353682D01*
X31626529Y1366049D01*
X31623175Y1402241D01*
X31615756Y1482310D01*
X31557405Y1687389D01*
X31557403Y1687394D01*
X31557403Y1687395D01*
X31462367Y1878254D01*
X31333872Y2048407D01*
X31298238Y2080892D01*
X31176302Y2192052D01*
X30995019Y2304298D01*
X30995017Y2304299D01*
X30895608Y2342810D01*
X30796198Y2381321D01*
X30586610Y2420500D01*
X30373390Y2420500D01*
X30163802Y2381321D01*
X30163799Y2381321D01*
X30163799Y2381320D01*
X29964982Y2304299D01*
X29964980Y2304298D01*
X29783699Y2192053D01*
X29626127Y2048407D01*
X29497632Y1878254D01*
X29402596Y1687395D01*
X29402596Y1687393D01*
X29344244Y1482311D01*
X29333471Y1366049D01*
X29307685Y1301112D01*
X29263130Y1269196D01*
X29299503Y1248332D01*
X29331693Y1186319D01*
X29333471Y1173952D01*
X29344244Y1057690D01*
X29402596Y852608D01*
X29402596Y852606D01*
X29488658Y679771D01*
X29500919Y610986D01*
X29474046Y546491D01*
X29416570Y506764D01*
X29377658Y500500D01*
X29042342Y500500D01*
X28975303Y520185D01*
X28929548Y572989D01*
X28919604Y642147D01*
X28931342Y679771D01*
X29017403Y852606D01*
X29017403Y852607D01*
X29017405Y852611D01*
X29075756Y1057690D01*
X29086529Y1173953D01*
X29112315Y1238889D01*
X29156869Y1270806D01*
X29120497Y1291669D01*
X29088307Y1353682D01*
X29086529Y1366049D01*
X29083175Y1402241D01*
X29075756Y1482310D01*
X29017405Y1687389D01*
X29017403Y1687394D01*
X29017403Y1687395D01*
X28922367Y1878254D01*
X28793872Y2048407D01*
X28758238Y2080892D01*
X28636302Y2192052D01*
X28455019Y2304298D01*
X28455017Y2304299D01*
X28355608Y2342810D01*
X28256198Y2381321D01*
X28046610Y2420500D01*
X27833390Y2420500D01*
X27623802Y2381321D01*
X27623799Y2381321D01*
X27623799Y2381320D01*
X27424982Y2304299D01*
X27424980Y2304298D01*
X27243699Y2192053D01*
X27086127Y2048407D01*
X26957632Y1878254D01*
X26862596Y1687395D01*
X26862596Y1687393D01*
X26804244Y1482311D01*
X26797970Y1414606D01*
X26772183Y1349669D01*
X26715383Y1308982D01*
X26645602Y1305462D01*
X26584995Y1340228D01*
X26552806Y1402241D01*
X26550499Y1426048D01*
X26550499Y2164857D01*
X26550499Y2164863D01*
X26550499Y2164864D01*
X26550497Y2164883D01*
X26547586Y2189988D01*
X26547585Y2189990D01*
X26547585Y2189991D01*
X26502206Y2292765D01*
X26422765Y2372206D01*
X26402124Y2381320D01*
X26319992Y2417585D01*
X26294865Y2420500D01*
X24505143Y2420500D01*
X24505117Y2420498D01*
X24480012Y2417587D01*
X24480008Y2417585D01*
X24377235Y2372207D01*
X24297794Y2292766D01*
X24252415Y2189994D01*
X24252415Y2189992D01*
X24252415Y2189991D01*
X24249500Y2164865D01*
X24249500Y1340228D01*
X24249501Y624500D01*
X24229816Y557461D01*
X24177013Y511706D01*
X24125501Y500500D01*
X23471153Y500500D01*
X23404114Y520185D01*
X23358359Y572989D01*
X23348415Y642147D01*
X23353824Y679771D01*
X23365647Y762000D01*
X23345165Y904457D01*
X23285377Y1035373D01*
X23191128Y1144143D01*
X23070053Y1221953D01*
X23070051Y1221954D01*
X23070049Y1221955D01*
X23070050Y1221955D01*
X22931963Y1262500D01*
X22931961Y1262500D01*
X22788039Y1262500D01*
X22788036Y1262500D01*
X22649949Y1221955D01*
X22528873Y1144144D01*
X22434623Y1035374D01*
X22434622Y1035372D01*
X22374834Y904457D01*
X22354353Y762000D01*
X22371585Y642147D01*
X22361641Y572988D01*
X22315886Y520184D01*
X22248847Y500500D01*
X20931153Y500500D01*
X20864114Y520185D01*
X20818359Y572989D01*
X20808415Y642147D01*
X20813824Y679771D01*
X20825647Y762000D01*
X20805165Y904457D01*
X20745377Y1035373D01*
X20651128Y1144143D01*
X20530053Y1221953D01*
X20530051Y1221954D01*
X20530049Y1221955D01*
X20530050Y1221955D01*
X20391963Y1262500D01*
X20391961Y1262500D01*
X20248039Y1262500D01*
X20248036Y1262500D01*
X20109949Y1221955D01*
X19988873Y1144144D01*
X19894623Y1035374D01*
X19894622Y1035372D01*
X19834834Y904457D01*
X19814353Y762000D01*
X19831585Y642147D01*
X19821641Y572988D01*
X19775886Y520184D01*
X19708847Y500500D01*
X16613153Y500500D01*
X16546114Y520185D01*
X16500359Y572989D01*
X16490415Y642147D01*
X16495824Y679771D01*
X16507647Y762000D01*
X16487165Y904457D01*
X16427377Y1035373D01*
X16333128Y1144143D01*
X16212053Y1221953D01*
X16212051Y1221954D01*
X16212049Y1221955D01*
X16212050Y1221955D01*
X16073963Y1262500D01*
X16073961Y1262500D01*
X15930039Y1262500D01*
X15930036Y1262500D01*
X15791949Y1221955D01*
X15670873Y1144144D01*
X15576623Y1035374D01*
X15576622Y1035372D01*
X15516834Y904457D01*
X15496353Y762000D01*
X15513585Y642147D01*
X15503641Y572988D01*
X15457886Y520184D01*
X15390847Y500500D01*
X15110000Y500500D01*
X15042961Y520185D01*
X14997206Y572989D01*
X14986000Y624500D01*
X14986000Y2540000D01*
X15496353Y2540000D01*
X15516834Y2397544D01*
X15564686Y2292765D01*
X15576623Y2266627D01*
X15670872Y2157857D01*
X15791947Y2080047D01*
X15791950Y2080046D01*
X15791949Y2080046D01*
X15930036Y2039501D01*
X15930038Y2039500D01*
X15930039Y2039500D01*
X16073962Y2039500D01*
X16073962Y2039501D01*
X16212053Y2080047D01*
X16333128Y2157857D01*
X16427377Y2266627D01*
X16487165Y2397543D01*
X16507647Y2540000D01*
X19814353Y2540000D01*
X19834834Y2397544D01*
X19882686Y2292765D01*
X19894623Y2266627D01*
X19988872Y2157857D01*
X20109947Y2080047D01*
X20109950Y2080046D01*
X20109949Y2080046D01*
X20248036Y2039501D01*
X20248038Y2039500D01*
X20248039Y2039500D01*
X20391962Y2039500D01*
X20391962Y2039501D01*
X20530053Y2080047D01*
X20651128Y2157857D01*
X20745377Y2266627D01*
X20805165Y2397543D01*
X20825647Y2540000D01*
X22354353Y2540000D01*
X22374834Y2397544D01*
X22422686Y2292765D01*
X22434623Y2266627D01*
X22528872Y2157857D01*
X22649947Y2080047D01*
X22649950Y2080046D01*
X22649949Y2080046D01*
X22788036Y2039501D01*
X22788038Y2039500D01*
X22788039Y2039500D01*
X22931962Y2039500D01*
X22931962Y2039501D01*
X23070053Y2080047D01*
X23191128Y2157857D01*
X23285377Y2266627D01*
X23345165Y2397543D01*
X23365647Y2540000D01*
X23345165Y2682457D01*
X23285377Y2813373D01*
X23191128Y2922143D01*
X23070053Y2999953D01*
X23070051Y2999954D01*
X23070049Y2999955D01*
X23070050Y2999955D01*
X22931963Y3040500D01*
X22931961Y3040500D01*
X22788039Y3040500D01*
X22788036Y3040500D01*
X22649949Y2999955D01*
X22528873Y2922144D01*
X22434623Y2813374D01*
X22434622Y2813372D01*
X22374834Y2682457D01*
X22354353Y2540000D01*
X20825647Y2540000D01*
X20805165Y2682457D01*
X20745377Y2813373D01*
X20651128Y2922143D01*
X20530053Y2999953D01*
X20530051Y2999954D01*
X20530049Y2999955D01*
X20530050Y2999955D01*
X20391963Y3040500D01*
X20391961Y3040500D01*
X20248039Y3040500D01*
X20248036Y3040500D01*
X20109949Y2999955D01*
X19988873Y2922144D01*
X19894623Y2813374D01*
X19894622Y2813372D01*
X19834834Y2682457D01*
X19814353Y2540000D01*
X16507647Y2540000D01*
X16487165Y2682457D01*
X16427377Y2813373D01*
X16333128Y2922143D01*
X16212053Y2999953D01*
X16212051Y2999954D01*
X16212049Y2999955D01*
X16212050Y2999955D01*
X16073963Y3040500D01*
X16073961Y3040500D01*
X15930039Y3040500D01*
X15930036Y3040500D01*
X15791949Y2999955D01*
X15670873Y2922144D01*
X15576623Y2813374D01*
X15576622Y2813372D01*
X15516834Y2682457D01*
X15496353Y2540000D01*
X14986000Y2540000D01*
X14986000Y3048002D01*
X38764318Y3048002D01*
X38764318Y3047999D01*
X38784955Y2891240D01*
X38784956Y2891238D01*
X38845464Y2745159D01*
X38941718Y2619718D01*
X39067159Y2523464D01*
X39213238Y2462956D01*
X39291619Y2452637D01*
X39369999Y2442318D01*
X39370000Y2442318D01*
X39370001Y2442318D01*
X39422254Y2449198D01*
X39526762Y2462956D01*
X39672841Y2523464D01*
X39798282Y2619718D01*
X39894536Y2745159D01*
X39955044Y2891238D01*
X39975682Y3048000D01*
X39955044Y3204762D01*
X39914766Y3302002D01*
X46638318Y3302002D01*
X46638318Y3301999D01*
X46658955Y3145240D01*
X46658956Y3145238D01*
X46699232Y3048002D01*
X46719464Y2999159D01*
X46815718Y2873718D01*
X46941159Y2777464D01*
X47087238Y2716956D01*
X47165619Y2706637D01*
X47243999Y2696318D01*
X47244000Y2696318D01*
X47244001Y2696318D01*
X47296254Y2703198D01*
X47400762Y2716956D01*
X47546841Y2777464D01*
X47672282Y2873718D01*
X47768536Y2999159D01*
X47829044Y3145238D01*
X47849682Y3302000D01*
X47847371Y3319551D01*
X47829044Y3458761D01*
X47829044Y3458762D01*
X47768536Y3604841D01*
X47672282Y3730282D01*
X47546841Y3826536D01*
X47400762Y3887044D01*
X47400760Y3887045D01*
X47244001Y3907682D01*
X47243999Y3907682D01*
X47087239Y3887045D01*
X47087237Y3887044D01*
X46941160Y3826537D01*
X46815718Y3730282D01*
X46719463Y3604840D01*
X46658956Y3458763D01*
X46658955Y3458761D01*
X46638318Y3302002D01*
X39914766Y3302002D01*
X39894536Y3350841D01*
X39798282Y3476282D01*
X39672841Y3572536D01*
X39594852Y3604840D01*
X39526762Y3633044D01*
X39526760Y3633045D01*
X39370001Y3653682D01*
X39369999Y3653682D01*
X39213239Y3633045D01*
X39213237Y3633044D01*
X39067160Y3572537D01*
X38941718Y3476282D01*
X38845463Y3350840D01*
X38784956Y3204763D01*
X38784955Y3204761D01*
X38764318Y3048002D01*
X14986000Y3048002D01*
X14986000Y3810002D01*
X25048318Y3810002D01*
X25048318Y3809999D01*
X25068955Y3653240D01*
X25068956Y3653238D01*
X25102383Y3572537D01*
X25129464Y3507159D01*
X25225718Y3381718D01*
X25351159Y3285464D01*
X25497238Y3224956D01*
X25575619Y3214637D01*
X25653999Y3204318D01*
X25654000Y3204318D01*
X25654001Y3204318D01*
X25706254Y3211198D01*
X25810762Y3224956D01*
X25956841Y3285464D01*
X26082282Y3381718D01*
X26178536Y3507159D01*
X26239044Y3653238D01*
X26252802Y3757746D01*
X26259682Y3809999D01*
X26259682Y3810002D01*
X26239044Y3966761D01*
X26239044Y3966762D01*
X26178536Y4112841D01*
X26082282Y4238282D01*
X25956841Y4334536D01*
X25810762Y4395044D01*
X25810760Y4395045D01*
X25654001Y4415682D01*
X25653999Y4415682D01*
X25497239Y4395045D01*
X25497237Y4395044D01*
X25351160Y4334537D01*
X25225718Y4238282D01*
X25129463Y4112840D01*
X25068956Y3966763D01*
X25068955Y3966761D01*
X25048318Y3810002D01*
X14986000Y3810002D01*
X14986000Y14605003D01*
X15274723Y14605003D01*
X15274723Y14604998D01*
X15293793Y14387025D01*
X15293793Y14387021D01*
X15350422Y14175678D01*
X15350424Y14175674D01*
X15350425Y14175670D01*
X15394317Y14081544D01*
X15442897Y13977362D01*
X15453206Y13962639D01*
X15568402Y13798123D01*
X15723123Y13643402D01*
X15857356Y13549411D01*
X15902361Y13517898D01*
X16053583Y13447382D01*
X16106022Y13401210D01*
X16125174Y13334016D01*
X16104958Y13267135D01*
X16053583Y13222618D01*
X15902361Y13152102D01*
X15902357Y13152100D01*
X15723121Y13026598D01*
X15568402Y12871879D01*
X15442900Y12692643D01*
X15442898Y12692639D01*
X15350426Y12494332D01*
X15350422Y12494323D01*
X15293793Y12282980D01*
X15293793Y12282976D01*
X15274723Y12065003D01*
X15274723Y12064998D01*
X15293793Y11847025D01*
X15293793Y11847021D01*
X15350422Y11635678D01*
X15350424Y11635674D01*
X15350425Y11635670D01*
X15384600Y11562382D01*
X15442897Y11437362D01*
X15453206Y11422639D01*
X15568402Y11258123D01*
X15723123Y11103402D01*
X15852265Y11012976D01*
X15902361Y10977898D01*
X16053583Y10907382D01*
X16106022Y10861210D01*
X16125174Y10794016D01*
X16104958Y10727135D01*
X16053583Y10682618D01*
X15902361Y10612102D01*
X15902357Y10612100D01*
X15723121Y10486598D01*
X15568402Y10331879D01*
X15442900Y10152643D01*
X15442898Y10152639D01*
X15350426Y9954332D01*
X15350422Y9954323D01*
X15293793Y9742980D01*
X15293793Y9742976D01*
X15278860Y9572282D01*
X15274723Y9525000D01*
X15288989Y9361929D01*
X15293793Y9307025D01*
X15293793Y9307021D01*
X15350422Y9095678D01*
X15350424Y9095674D01*
X15350425Y9095670D01*
X15390607Y9009500D01*
X15442897Y8897362D01*
X15453206Y8882639D01*
X15568402Y8718123D01*
X15723123Y8563402D01*
X15902361Y8437898D01*
X16100670Y8345425D01*
X16312023Y8288793D01*
X16494926Y8272792D01*
X16529998Y8269723D01*
X16530000Y8269723D01*
X16530002Y8269723D01*
X16558254Y8272195D01*
X16747977Y8288793D01*
X16959330Y8345425D01*
X17157639Y8437898D01*
X17336877Y8563402D01*
X17491598Y8718123D01*
X17617102Y8897361D01*
X17709575Y9095670D01*
X17766207Y9307023D01*
X17785277Y9525000D01*
X17766207Y9742977D01*
X17709575Y9954330D01*
X17617102Y10152638D01*
X17617100Y10152641D01*
X17617099Y10152643D01*
X17491599Y10331876D01*
X17416975Y10406500D01*
X17336877Y10486598D01*
X17157639Y10612102D01*
X17006414Y10682619D01*
X16953977Y10728790D01*
X16934825Y10795984D01*
X16955041Y10862865D01*
X17006414Y10907382D01*
X17157639Y10977898D01*
X17336877Y11103402D01*
X17491598Y11258123D01*
X17617102Y11437361D01*
X17709575Y11635670D01*
X17766207Y11847023D01*
X17785277Y12065000D01*
X17766207Y12282977D01*
X17709575Y12494330D01*
X17617102Y12692638D01*
X17617100Y12692641D01*
X17617099Y12692643D01*
X17491599Y12871876D01*
X17416975Y12946500D01*
X17336877Y13026598D01*
X17157639Y13152102D01*
X17006414Y13222619D01*
X16953977Y13268790D01*
X16934825Y13335984D01*
X16955041Y13402865D01*
X17006414Y13447382D01*
X17157639Y13517898D01*
X17336877Y13643402D01*
X17491598Y13798123D01*
X17617102Y13977361D01*
X17709575Y14175670D01*
X17766207Y14387023D01*
X17785277Y14605000D01*
X17783924Y14620461D01*
X17781569Y14647382D01*
X17766207Y14822977D01*
X17709575Y15034330D01*
X17617102Y15232638D01*
X17617100Y15232641D01*
X17617099Y15232643D01*
X17491599Y15411876D01*
X17416975Y15486500D01*
X17336877Y15566598D01*
X17190736Y15668928D01*
X17147112Y15723504D01*
X17139920Y15793002D01*
X17171442Y15855357D01*
X17231672Y15890770D01*
X17261859Y15894501D01*
X17524864Y15894501D01*
X17524879Y15894503D01*
X17524882Y15894503D01*
X17549987Y15897414D01*
X17549987Y15897415D01*
X17549991Y15897415D01*
X17644479Y15939136D01*
X17713753Y15948207D01*
X17776938Y15918384D01*
X17813970Y15859135D01*
X17818090Y15836508D01*
X17833793Y15657025D01*
X17833793Y15657021D01*
X17890422Y15445678D01*
X17890424Y15445674D01*
X17890425Y15445670D01*
X17936661Y15346516D01*
X17982897Y15247362D01*
X17993206Y15232639D01*
X18108402Y15068123D01*
X18263123Y14913402D01*
X18408343Y14811718D01*
X18442361Y14787898D01*
X18593583Y14717382D01*
X18646022Y14671210D01*
X18665174Y14604016D01*
X18644958Y14537135D01*
X18593583Y14492618D01*
X18442361Y14422102D01*
X18442357Y14422100D01*
X18263121Y14296598D01*
X18108402Y14141879D01*
X17982900Y13962643D01*
X17982898Y13962639D01*
X17922714Y13833574D01*
X17894329Y13772701D01*
X17890426Y13764332D01*
X17890422Y13764323D01*
X17833793Y13552980D01*
X17833793Y13552976D01*
X17814723Y13335003D01*
X17814723Y13334998D01*
X17818150Y13295832D01*
X17832111Y13136244D01*
X17833793Y13117025D01*
X17833793Y13117021D01*
X17890422Y12905678D01*
X17890424Y12905674D01*
X17890425Y12905670D01*
X17926577Y12828141D01*
X17982897Y12707362D01*
X17993206Y12692639D01*
X18108402Y12528123D01*
X18263123Y12373402D01*
X18407036Y12272633D01*
X18442361Y12247898D01*
X18593583Y12177382D01*
X18646022Y12131210D01*
X18665174Y12064016D01*
X18644958Y11997135D01*
X18593583Y11952618D01*
X18442361Y11882102D01*
X18442357Y11882100D01*
X18263121Y11756598D01*
X18108402Y11601879D01*
X17982900Y11422643D01*
X17982898Y11422639D01*
X17890426Y11224332D01*
X17890422Y11224323D01*
X17833793Y11012980D01*
X17833793Y11012977D01*
X17814723Y10795000D01*
X17827528Y10648629D01*
X17833793Y10577025D01*
X17833793Y10577021D01*
X17890422Y10365678D01*
X17890424Y10365674D01*
X17890425Y10365670D01*
X17934313Y10271552D01*
X17982897Y10167362D01*
X18001616Y10140629D01*
X18108402Y9988123D01*
X18263123Y9833402D01*
X18421312Y9722637D01*
X18442361Y9707898D01*
X18593583Y9637382D01*
X18646022Y9591210D01*
X18665174Y9524016D01*
X18644958Y9457135D01*
X18593583Y9412618D01*
X18442361Y9342102D01*
X18442357Y9342100D01*
X18263121Y9216598D01*
X18108402Y9061879D01*
X17982900Y8882643D01*
X17982898Y8882639D01*
X17890426Y8684332D01*
X17890422Y8684323D01*
X17833793Y8472980D01*
X17833793Y8472976D01*
X17817327Y8284761D01*
X17814723Y8255000D01*
X17827528Y8108629D01*
X17833793Y8037025D01*
X17833793Y8037021D01*
X17890422Y7825678D01*
X17890424Y7825674D01*
X17890425Y7825670D01*
X17928245Y7744565D01*
X17982897Y7627362D01*
X17993304Y7612500D01*
X18108402Y7448123D01*
X18263123Y7293402D01*
X18442361Y7167898D01*
X18504687Y7138835D01*
X18557127Y7092663D01*
X18576279Y7025470D01*
X18556064Y6958588D01*
X18519324Y6922138D01*
X18464873Y6887144D01*
X18370623Y6778374D01*
X18370622Y6778372D01*
X18310834Y6647457D01*
X18290353Y6505000D01*
X18310834Y6362544D01*
X18331286Y6317762D01*
X18370623Y6231627D01*
X18464872Y6122857D01*
X18585947Y6045047D01*
X18585950Y6045046D01*
X18585949Y6045046D01*
X18693107Y6013583D01*
X18708059Y6009192D01*
X18724036Y6004501D01*
X18724038Y6004500D01*
X18724039Y6004500D01*
X18867962Y6004500D01*
X18867962Y6004501D01*
X19006053Y6045047D01*
X19032420Y6061993D01*
X19099454Y6081677D01*
X19166495Y6061994D01*
X19212251Y6009192D01*
X19222397Y5973865D01*
X19226956Y5939238D01*
X19226957Y5939235D01*
X19262126Y5854329D01*
X19269595Y5784860D01*
X19238320Y5722381D01*
X19178231Y5686729D01*
X19163751Y5683938D01*
X19020238Y5665044D01*
X19020237Y5665044D01*
X18874160Y5604537D01*
X18748718Y5508282D01*
X18652463Y5382840D01*
X18591956Y5236763D01*
X18591955Y5236761D01*
X18571318Y5080002D01*
X18571318Y5079999D01*
X18591955Y4923240D01*
X18591956Y4923238D01*
X18652464Y4777159D01*
X18748718Y4651718D01*
X18874159Y4555464D01*
X19020238Y4494956D01*
X19098619Y4484637D01*
X19176999Y4474318D01*
X19177000Y4474318D01*
X19177001Y4474318D01*
X19229254Y4481198D01*
X19333762Y4494956D01*
X19479841Y4555464D01*
X19605282Y4651718D01*
X19701536Y4777159D01*
X19721767Y4826000D01*
X22608353Y4826000D01*
X22628834Y4683544D01*
X22679776Y4571999D01*
X22688623Y4552627D01*
X22782872Y4443857D01*
X22903947Y4366047D01*
X22903950Y4366046D01*
X22903949Y4366046D01*
X23042036Y4325501D01*
X23042038Y4325500D01*
X23042039Y4325500D01*
X23185962Y4325500D01*
X23185962Y4325501D01*
X23324053Y4366047D01*
X23445128Y4443857D01*
X23539377Y4552627D01*
X23599165Y4683543D01*
X23619647Y4826000D01*
X23878353Y4826000D01*
X23898834Y4683544D01*
X23949776Y4571999D01*
X23958623Y4552627D01*
X24052872Y4443857D01*
X24173947Y4366047D01*
X24173950Y4366046D01*
X24173949Y4366046D01*
X24312036Y4325501D01*
X24312038Y4325500D01*
X24312039Y4325500D01*
X24455962Y4325500D01*
X24455962Y4325501D01*
X24594053Y4366047D01*
X24715128Y4443857D01*
X24809377Y4552627D01*
X24869165Y4683543D01*
X24889647Y4826000D01*
X24869165Y4968457D01*
X24809377Y5099373D01*
X24715128Y5208143D01*
X24594053Y5285953D01*
X24594051Y5285954D01*
X24594049Y5285955D01*
X24594050Y5285955D01*
X24455963Y5326500D01*
X24455961Y5326500D01*
X24312039Y5326500D01*
X24312036Y5326500D01*
X24173949Y5285955D01*
X24052873Y5208144D01*
X23958623Y5099374D01*
X23958622Y5099372D01*
X23898834Y4968457D01*
X23878353Y4826000D01*
X23619647Y4826000D01*
X23599165Y4968457D01*
X23539377Y5099373D01*
X23445128Y5208143D01*
X23324053Y5285953D01*
X23324051Y5285954D01*
X23324049Y5285955D01*
X23324050Y5285955D01*
X23185963Y5326500D01*
X23185961Y5326500D01*
X23042039Y5326500D01*
X23042036Y5326500D01*
X22903949Y5285955D01*
X22782873Y5208144D01*
X22688623Y5099374D01*
X22688622Y5099372D01*
X22628834Y4968457D01*
X22608353Y4826000D01*
X19721767Y4826000D01*
X19762044Y4923238D01*
X19782682Y5080000D01*
X19781694Y5087501D01*
X19763918Y5222529D01*
X19762044Y5236762D01*
X19726872Y5321673D01*
X19719404Y5391140D01*
X19750679Y5453620D01*
X19810768Y5489272D01*
X19825236Y5492061D01*
X19854412Y5495902D01*
X27053353Y5495902D01*
X27073834Y5353446D01*
X27104657Y5285955D01*
X27133623Y5222529D01*
X27227872Y5113759D01*
X27348947Y5035949D01*
X27348950Y5035948D01*
X27348949Y5035948D01*
X27487036Y4995403D01*
X27487038Y4995402D01*
X27487039Y4995402D01*
X27630962Y4995402D01*
X27630962Y4995403D01*
X27769053Y5035949D01*
X27890128Y5113759D01*
X27984377Y5222529D01*
X28044165Y5353445D01*
X28064647Y5495902D01*
X28044165Y5638359D01*
X28009164Y5715000D01*
X29847353Y5715000D01*
X29867834Y5572544D01*
X29922146Y5453620D01*
X29927623Y5441627D01*
X30021872Y5332857D01*
X30125635Y5266173D01*
X30171389Y5213370D01*
X30181333Y5144211D01*
X30152308Y5080656D01*
X30134082Y5063483D01*
X30051720Y5000284D01*
X30051719Y5000283D01*
X30051718Y5000282D01*
X30027298Y4968457D01*
X29955463Y4874840D01*
X29894956Y4728763D01*
X29894955Y4728761D01*
X29874318Y4572002D01*
X29874318Y4571999D01*
X29894955Y4415240D01*
X29894956Y4415238D01*
X29928383Y4334537D01*
X29955464Y4269159D01*
X30051718Y4143718D01*
X30177159Y4047464D01*
X30323238Y3986956D01*
X30401619Y3976637D01*
X30479999Y3966318D01*
X30480000Y3966318D01*
X30480001Y3966318D01*
X30532254Y3973198D01*
X30636762Y3986956D01*
X30782841Y4047464D01*
X30908282Y4143718D01*
X31004536Y4269159D01*
X31065044Y4415238D01*
X31085682Y4572000D01*
X31065044Y4728762D01*
X31004536Y4874841D01*
X30908282Y5000282D01*
X30782841Y5096536D01*
X30775994Y5099372D01*
X30741261Y5113759D01*
X30716987Y5123814D01*
X30662585Y5167654D01*
X30640520Y5233948D01*
X30657799Y5301647D01*
X30683242Y5332090D01*
X30684119Y5332852D01*
X30684128Y5332857D01*
X30778377Y5441627D01*
X30838165Y5572543D01*
X30840387Y5588000D01*
X31244353Y5588000D01*
X31264834Y5445544D01*
X31324622Y5314629D01*
X31324623Y5314627D01*
X31418872Y5205857D01*
X31539947Y5128047D01*
X31539950Y5128046D01*
X31539949Y5128046D01*
X31678036Y5087501D01*
X31678038Y5087500D01*
X31678039Y5087500D01*
X31821961Y5087500D01*
X31881537Y5104993D01*
X31951407Y5104993D01*
X32010185Y5067219D01*
X32039210Y5003663D01*
X32029266Y4934505D01*
X32014849Y4910531D01*
X31987464Y4874842D01*
X31926956Y4728763D01*
X31926955Y4728761D01*
X31906318Y4572002D01*
X31906318Y4571999D01*
X31926955Y4415240D01*
X31926956Y4415238D01*
X31960383Y4334537D01*
X31987464Y4269159D01*
X32083718Y4143718D01*
X32209159Y4047464D01*
X32355238Y3986956D01*
X32433619Y3976637D01*
X32511999Y3966318D01*
X32512000Y3966318D01*
X32512001Y3966318D01*
X32564254Y3973198D01*
X32668762Y3986956D01*
X32814841Y4047464D01*
X32940282Y4143718D01*
X33036536Y4269159D01*
X33097044Y4415238D01*
X33117682Y4572000D01*
X33097044Y4728762D01*
X33036536Y4874841D01*
X32940282Y5000282D01*
X32814841Y5096536D01*
X32807994Y5099372D01*
X32668762Y5157044D01*
X32668760Y5157045D01*
X32512001Y5177682D01*
X32511999Y5177682D01*
X32355239Y5157045D01*
X32355234Y5157043D01*
X32335826Y5149004D01*
X32266356Y5141537D01*
X32203878Y5172813D01*
X32168227Y5232903D01*
X32170723Y5302728D01*
X32175573Y5315057D01*
X32235165Y5445543D01*
X32255647Y5588000D01*
X32235165Y5730457D01*
X32184224Y5842000D01*
X35816353Y5842000D01*
X35836834Y5699544D01*
X35893275Y5575957D01*
X35896623Y5568627D01*
X35990872Y5459857D01*
X36111947Y5382047D01*
X36111950Y5382046D01*
X36111949Y5382046D01*
X36250036Y5341501D01*
X36250038Y5341500D01*
X36250039Y5341500D01*
X36393962Y5341500D01*
X36393962Y5341501D01*
X36532053Y5382047D01*
X36653128Y5459857D01*
X36747377Y5568627D01*
X36807165Y5699543D01*
X36827647Y5842000D01*
X36807165Y5984457D01*
X36756224Y6096002D01*
X43844318Y6096002D01*
X43844318Y6095999D01*
X43864955Y5939240D01*
X43864956Y5939238D01*
X43900126Y5854329D01*
X43925464Y5793159D01*
X44021718Y5667718D01*
X44147159Y5571464D01*
X44293238Y5510956D01*
X44371619Y5500637D01*
X44449999Y5490318D01*
X44450000Y5490318D01*
X44450001Y5490318D01*
X44502254Y5497198D01*
X44606762Y5510956D01*
X44752841Y5571464D01*
X44878282Y5667718D01*
X44974536Y5793159D01*
X45035044Y5939238D01*
X45055682Y6096000D01*
X45055531Y6097144D01*
X45047124Y6161002D01*
X46765318Y6161002D01*
X46765318Y6160999D01*
X46785955Y6004240D01*
X46785956Y6004238D01*
X46838226Y5878046D01*
X46846464Y5858159D01*
X46942718Y5732718D01*
X47068159Y5636464D01*
X47214238Y5575956D01*
X47269908Y5568627D01*
X47370999Y5555318D01*
X47371000Y5555318D01*
X47371001Y5555318D01*
X47423254Y5562198D01*
X47527762Y5575956D01*
X47673841Y5636464D01*
X47799282Y5732718D01*
X47895536Y5858159D01*
X47956044Y6004238D01*
X47976682Y6161000D01*
X47964601Y6252761D01*
X47956044Y6317761D01*
X47956044Y6317762D01*
X47895536Y6463841D01*
X47799282Y6589282D01*
X47673841Y6685536D01*
X47634774Y6701718D01*
X47527762Y6746044D01*
X47527760Y6746045D01*
X47371001Y6766682D01*
X47370999Y6766682D01*
X47214239Y6746045D01*
X47214237Y6746044D01*
X47068160Y6685537D01*
X46942718Y6589282D01*
X46846463Y6463840D01*
X46785956Y6317763D01*
X46785955Y6317761D01*
X46765318Y6161002D01*
X45047124Y6161002D01*
X45035044Y6252761D01*
X45035044Y6252762D01*
X44974536Y6398841D01*
X44878282Y6524282D01*
X44752841Y6620536D01*
X44606762Y6681044D01*
X44606760Y6681045D01*
X44450001Y6701682D01*
X44449999Y6701682D01*
X44293239Y6681045D01*
X44293237Y6681044D01*
X44147160Y6620537D01*
X44021718Y6524282D01*
X43925463Y6398840D01*
X43864956Y6252763D01*
X43864955Y6252761D01*
X43844318Y6096002D01*
X36756224Y6096002D01*
X36747377Y6115373D01*
X36653128Y6224143D01*
X36532053Y6301953D01*
X36532051Y6301954D01*
X36532049Y6301955D01*
X36532050Y6301955D01*
X36393963Y6342500D01*
X36393961Y6342500D01*
X36250039Y6342500D01*
X36250036Y6342500D01*
X36111949Y6301955D01*
X35990873Y6224144D01*
X35896623Y6115374D01*
X35896622Y6115372D01*
X35836834Y5984457D01*
X35816353Y5842000D01*
X32184224Y5842000D01*
X32175377Y5861373D01*
X32081128Y5970143D01*
X31960053Y6047953D01*
X31960051Y6047954D01*
X31960049Y6047955D01*
X31960050Y6047955D01*
X31821963Y6088500D01*
X31821961Y6088500D01*
X31678039Y6088500D01*
X31678036Y6088500D01*
X31539949Y6047955D01*
X31418873Y5970144D01*
X31324623Y5861374D01*
X31324622Y5861372D01*
X31264834Y5730457D01*
X31244353Y5588000D01*
X30840387Y5588000D01*
X30858647Y5715000D01*
X30838165Y5857457D01*
X30778377Y5988373D01*
X30684128Y6097143D01*
X30563053Y6174953D01*
X30563051Y6174954D01*
X30563049Y6174955D01*
X30563050Y6174955D01*
X30424963Y6215500D01*
X30424961Y6215500D01*
X30281039Y6215500D01*
X30281036Y6215500D01*
X30142949Y6174955D01*
X30021873Y6097144D01*
X29927623Y5988374D01*
X29927622Y5988372D01*
X29867834Y5857457D01*
X29847353Y5715000D01*
X28009164Y5715000D01*
X27984377Y5769275D01*
X27890128Y5878045D01*
X27769053Y5955855D01*
X27769051Y5955856D01*
X27769049Y5955857D01*
X27769050Y5955857D01*
X27630963Y5996402D01*
X27630961Y5996402D01*
X27487039Y5996402D01*
X27487036Y5996402D01*
X27348949Y5955857D01*
X27227873Y5878046D01*
X27133623Y5769276D01*
X27133622Y5769274D01*
X27073834Y5638359D01*
X27053353Y5495902D01*
X19854412Y5495902D01*
X19968762Y5510956D01*
X20114841Y5571464D01*
X20240282Y5667718D01*
X20336536Y5793159D01*
X20397044Y5939238D01*
X20417682Y6096000D01*
X20417531Y6097144D01*
X20397044Y6252761D01*
X20397044Y6252762D01*
X20336536Y6398841D01*
X20240282Y6524282D01*
X20114841Y6620536D01*
X19968762Y6681044D01*
X19968760Y6681045D01*
X19812001Y6701682D01*
X19811999Y6701682D01*
X19655239Y6681045D01*
X19655237Y6681044D01*
X19509158Y6620536D01*
X19473005Y6592795D01*
X19407836Y6567602D01*
X19339391Y6581641D01*
X19289402Y6630456D01*
X19284726Y6639660D01*
X19256401Y6701682D01*
X19221377Y6778373D01*
X19221375Y6778375D01*
X19221374Y6778378D01*
X19191482Y6812875D01*
X19162457Y6876431D01*
X19172401Y6945589D01*
X19218156Y6998393D01*
X19274386Y7017604D01*
X19287977Y7018793D01*
X19499330Y7075425D01*
X19577765Y7112000D01*
X22354353Y7112000D01*
X22374834Y6969544D01*
X22417358Y6876431D01*
X22434623Y6838627D01*
X22528872Y6729857D01*
X22649947Y6652047D01*
X22649950Y6652046D01*
X22649949Y6652046D01*
X22788036Y6611501D01*
X22788038Y6611500D01*
X22788039Y6611500D01*
X22931962Y6611500D01*
X22931962Y6611501D01*
X23070053Y6652047D01*
X23191128Y6729857D01*
X23285377Y6838627D01*
X23345165Y6969543D01*
X23365647Y7112000D01*
X23363059Y7130002D01*
X24279594Y7130002D01*
X24279594Y7129999D01*
X24300231Y6973240D01*
X24300232Y6973238D01*
X24360740Y6827159D01*
X24456994Y6701718D01*
X24582435Y6605464D01*
X24728514Y6544956D01*
X24806895Y6534637D01*
X24885275Y6524318D01*
X24885276Y6524318D01*
X24885277Y6524318D01*
X24937530Y6531198D01*
X25042038Y6544956D01*
X25184583Y6604000D01*
X39880353Y6604000D01*
X39900834Y6461544D01*
X39931294Y6394847D01*
X39960623Y6330627D01*
X40054872Y6221857D01*
X40175947Y6144047D01*
X40175950Y6144046D01*
X40175949Y6144046D01*
X40314036Y6103501D01*
X40314038Y6103500D01*
X40314039Y6103500D01*
X40457962Y6103500D01*
X40457962Y6103501D01*
X40596053Y6144047D01*
X40717128Y6221857D01*
X40811377Y6330627D01*
X40871165Y6461543D01*
X40891647Y6604000D01*
X40871165Y6746457D01*
X40811377Y6877373D01*
X40717128Y6986143D01*
X40596053Y7063953D01*
X40596051Y7063954D01*
X40596049Y7063955D01*
X40596050Y7063955D01*
X40457963Y7104500D01*
X40457961Y7104500D01*
X40314039Y7104500D01*
X40314036Y7104500D01*
X40175949Y7063955D01*
X40054873Y6986144D01*
X39960623Y6877374D01*
X39960622Y6877372D01*
X39900834Y6746457D01*
X39880353Y6604000D01*
X25184583Y6604000D01*
X25188117Y6605464D01*
X25313558Y6701718D01*
X25409812Y6827159D01*
X25470320Y6973238D01*
X25490958Y7130000D01*
X25470320Y7286762D01*
X25409812Y7432841D01*
X25313558Y7558282D01*
X25188117Y7654536D01*
X25158620Y7666754D01*
X25042038Y7715044D01*
X25042036Y7715045D01*
X24885277Y7735682D01*
X24885275Y7735682D01*
X24728515Y7715045D01*
X24728513Y7715044D01*
X24582436Y7654537D01*
X24456994Y7558282D01*
X24360739Y7432840D01*
X24300232Y7286763D01*
X24300231Y7286761D01*
X24279594Y7130002D01*
X23363059Y7130002D01*
X23345165Y7254457D01*
X23285377Y7385373D01*
X23191128Y7494143D01*
X23070053Y7571953D01*
X23070051Y7571954D01*
X23070049Y7571955D01*
X23070050Y7571955D01*
X22931963Y7612500D01*
X22931961Y7612500D01*
X22788039Y7612500D01*
X22788036Y7612500D01*
X22649949Y7571955D01*
X22528873Y7494144D01*
X22434623Y7385374D01*
X22434622Y7385372D01*
X22374834Y7254457D01*
X22354353Y7112000D01*
X19577765Y7112000D01*
X19697639Y7167898D01*
X19876877Y7293402D01*
X20031598Y7448123D01*
X20157102Y7627361D01*
X20249575Y7825670D01*
X20305902Y8035886D01*
X26742124Y8035886D01*
X26762605Y7893430D01*
X26793547Y7825678D01*
X26822394Y7762513D01*
X26916643Y7653743D01*
X27037718Y7575933D01*
X27037721Y7575932D01*
X27037720Y7575932D01*
X27175807Y7535387D01*
X27175809Y7535386D01*
X27175810Y7535386D01*
X27319733Y7535386D01*
X27319733Y7535387D01*
X27457824Y7575933D01*
X27578899Y7653743D01*
X27673148Y7762513D01*
X27732936Y7893429D01*
X27753418Y8035886D01*
X27740360Y8126708D01*
X33133132Y8126708D01*
X33153613Y7984252D01*
X33212811Y7854629D01*
X33213402Y7853335D01*
X33307651Y7744565D01*
X33428726Y7666755D01*
X33428729Y7666754D01*
X33428728Y7666754D01*
X33535886Y7635291D01*
X33562891Y7627361D01*
X33566815Y7626209D01*
X33566817Y7626208D01*
X33566818Y7626208D01*
X33710741Y7626208D01*
X33710741Y7626209D01*
X33848832Y7666755D01*
X33969907Y7744565D01*
X34064156Y7853335D01*
X34123944Y7984251D01*
X34144426Y8126708D01*
X34144240Y8128000D01*
X34800353Y8128000D01*
X34820834Y7985544D01*
X34868350Y7881501D01*
X34880623Y7854627D01*
X34974872Y7745857D01*
X35095947Y7668047D01*
X35095950Y7668046D01*
X35095949Y7668046D01*
X35234036Y7627501D01*
X35234038Y7627500D01*
X35234039Y7627500D01*
X35377962Y7627500D01*
X35377962Y7627501D01*
X35485121Y7658965D01*
X35516050Y7668046D01*
X35516050Y7668047D01*
X35516053Y7668047D01*
X35637128Y7745857D01*
X35731377Y7854627D01*
X35791165Y7985543D01*
X35798509Y8036622D01*
X35827534Y8100178D01*
X35886312Y8137952D01*
X35886313Y8137952D01*
X36016050Y8176046D01*
X36016050Y8176047D01*
X36016053Y8176047D01*
X36137128Y8253857D01*
X36137136Y8253867D01*
X36141267Y8257445D01*
X36204821Y8286473D01*
X36273980Y8276533D01*
X36326787Y8230781D01*
X36346475Y8163743D01*
X36345213Y8146090D01*
X36324352Y8001001D01*
X36344834Y7858544D01*
X36400944Y7735682D01*
X36404623Y7727627D01*
X36498872Y7618857D01*
X36619947Y7541047D01*
X36619950Y7541046D01*
X36619949Y7541046D01*
X36758036Y7500501D01*
X36758038Y7500500D01*
X36758039Y7500500D01*
X36901962Y7500500D01*
X36901962Y7500501D01*
X37040053Y7541047D01*
X37161128Y7618857D01*
X37255377Y7727627D01*
X37315165Y7858543D01*
X37335647Y8001000D01*
X37315165Y8143457D01*
X37255377Y8274373D01*
X37161128Y8383143D01*
X37040053Y8460953D01*
X37040051Y8460954D01*
X37040049Y8460955D01*
X37040050Y8460955D01*
X36901963Y8501500D01*
X36901961Y8501500D01*
X36758039Y8501500D01*
X36758036Y8501500D01*
X36619949Y8460955D01*
X36498872Y8383144D01*
X36494723Y8379548D01*
X36431166Y8350526D01*
X36362008Y8360473D01*
X36309206Y8406230D01*
X36289524Y8473271D01*
X36290786Y8490912D01*
X36291163Y8493541D01*
X36291165Y8493543D01*
X36293387Y8509000D01*
X37848353Y8509000D01*
X37868834Y8366544D01*
X37920298Y8253855D01*
X37928623Y8235627D01*
X38022872Y8126857D01*
X38143947Y8049047D01*
X38143950Y8049046D01*
X38143949Y8049046D01*
X38282036Y8008501D01*
X38282038Y8008500D01*
X38282039Y8008500D01*
X38425962Y8008500D01*
X38425962Y8008501D01*
X38564053Y8049047D01*
X38685128Y8126857D01*
X38686120Y8128002D01*
X39780318Y8128002D01*
X39780318Y8127999D01*
X39800955Y7971240D01*
X39800956Y7971238D01*
X39861464Y7825159D01*
X39957718Y7699718D01*
X40083159Y7603464D01*
X40229238Y7542956D01*
X40286731Y7535387D01*
X40385999Y7522318D01*
X40386000Y7522318D01*
X40386001Y7522318D01*
X40438254Y7529198D01*
X40542762Y7542956D01*
X40688841Y7603464D01*
X40814282Y7699718D01*
X40910536Y7825159D01*
X40971044Y7971238D01*
X40991682Y8128000D01*
X40989300Y8146090D01*
X40972412Y8274373D01*
X40971044Y8284762D01*
X40930767Y8382000D01*
X42420353Y8382000D01*
X42440834Y8239544D01*
X42500622Y8108629D01*
X42500623Y8108627D01*
X42594872Y7999857D01*
X42715947Y7922047D01*
X42715950Y7922046D01*
X42715949Y7922046D01*
X42854036Y7881501D01*
X42854038Y7881500D01*
X42854039Y7881500D01*
X42997962Y7881500D01*
X42997962Y7881501D01*
X43136053Y7922047D01*
X43257128Y7999857D01*
X43351377Y8108627D01*
X43411165Y8239543D01*
X43431647Y8382000D01*
X43411165Y8524457D01*
X43351377Y8655373D01*
X43257128Y8764143D01*
X43136053Y8841953D01*
X43136051Y8841954D01*
X43136049Y8841955D01*
X43136050Y8841955D01*
X42997963Y8882500D01*
X42997961Y8882500D01*
X42854039Y8882500D01*
X42854036Y8882500D01*
X42715949Y8841955D01*
X42594873Y8764144D01*
X42500623Y8655374D01*
X42500622Y8655372D01*
X42440834Y8524457D01*
X42420353Y8382000D01*
X40930767Y8382000D01*
X40910536Y8430841D01*
X40814282Y8556282D01*
X40688841Y8652536D01*
X40681994Y8655372D01*
X40542762Y8713044D01*
X40542760Y8713045D01*
X40386001Y8733682D01*
X40385999Y8733682D01*
X40229239Y8713045D01*
X40229237Y8713044D01*
X40083160Y8652537D01*
X39957718Y8556282D01*
X39861463Y8430840D01*
X39800956Y8284763D01*
X39800955Y8284761D01*
X39780318Y8128002D01*
X38686120Y8128002D01*
X38779377Y8235627D01*
X38839165Y8366543D01*
X38859647Y8509000D01*
X38839165Y8651457D01*
X38779377Y8782373D01*
X38685128Y8891143D01*
X38564053Y8968953D01*
X38564051Y8968954D01*
X38564049Y8968955D01*
X38564050Y8968955D01*
X38425963Y9009500D01*
X38425961Y9009500D01*
X38282039Y9009500D01*
X38282036Y9009500D01*
X38143949Y8968955D01*
X38022873Y8891144D01*
X37928623Y8782374D01*
X37928622Y8782372D01*
X37868834Y8651457D01*
X37848353Y8509000D01*
X36293387Y8509000D01*
X36311647Y8636000D01*
X36291165Y8778457D01*
X36231377Y8909373D01*
X36137128Y9018143D01*
X36016053Y9095953D01*
X36016051Y9095954D01*
X36016049Y9095955D01*
X36016050Y9095955D01*
X35877963Y9136500D01*
X35877961Y9136500D01*
X35734039Y9136500D01*
X35734036Y9136500D01*
X35595949Y9095955D01*
X35474873Y9018144D01*
X35380623Y8909374D01*
X35380622Y8909372D01*
X35320835Y8778457D01*
X35313490Y8727377D01*
X35284464Y8663822D01*
X35225687Y8626049D01*
X35095949Y8587955D01*
X34974873Y8510144D01*
X34974872Y8510144D01*
X34974872Y8510143D01*
X34967383Y8501500D01*
X34880623Y8401374D01*
X34880622Y8401372D01*
X34820834Y8270457D01*
X34800353Y8128000D01*
X34144240Y8128000D01*
X34123944Y8269165D01*
X34064156Y8400081D01*
X33969907Y8508851D01*
X33848832Y8586661D01*
X33848830Y8586662D01*
X33848828Y8586663D01*
X33848829Y8586663D01*
X33710742Y8627208D01*
X33710740Y8627208D01*
X33566818Y8627208D01*
X33566815Y8627208D01*
X33428728Y8586663D01*
X33307652Y8508852D01*
X33213402Y8400082D01*
X33213401Y8400080D01*
X33153613Y8269165D01*
X33133132Y8126708D01*
X27740360Y8126708D01*
X27732936Y8178343D01*
X27673148Y8309259D01*
X27578899Y8418029D01*
X27457824Y8495839D01*
X27457822Y8495840D01*
X27457820Y8495841D01*
X27457821Y8495841D01*
X27319734Y8536386D01*
X27319732Y8536386D01*
X27175810Y8536386D01*
X27175807Y8536386D01*
X27037720Y8495841D01*
X26916644Y8418030D01*
X26822394Y8309260D01*
X26822393Y8309258D01*
X26762605Y8178343D01*
X26742124Y8035886D01*
X20305902Y8035886D01*
X20306207Y8037023D01*
X20325277Y8255000D01*
X20322320Y8288794D01*
X20317366Y8345427D01*
X20306207Y8472977D01*
X20249575Y8684330D01*
X20157102Y8882638D01*
X20157100Y8882641D01*
X20157099Y8882643D01*
X20031599Y9061876D01*
X19956975Y9136500D01*
X19876877Y9216598D01*
X19697639Y9342102D01*
X19546414Y9412619D01*
X19493977Y9458790D01*
X19474825Y9525984D01*
X19495041Y9592865D01*
X19546414Y9637382D01*
X19697639Y9707898D01*
X19876877Y9833402D01*
X20031598Y9988123D01*
X20157102Y10167361D01*
X20249575Y10365670D01*
X20306207Y10577023D01*
X20325277Y10795000D01*
X20306207Y11012977D01*
X20260381Y11184002D01*
X20249577Y11224323D01*
X20249576Y11224324D01*
X20249575Y11224330D01*
X20157102Y11422638D01*
X20157100Y11422641D01*
X20157099Y11422643D01*
X20031599Y11601876D01*
X19961803Y11671672D01*
X19951475Y11682000D01*
X22735353Y11682000D01*
X22755834Y11539544D01*
X22810093Y11420736D01*
X22815623Y11408627D01*
X22909872Y11299857D01*
X23030947Y11222047D01*
X23030950Y11222046D01*
X23030949Y11222046D01*
X23124168Y11194675D01*
X23182946Y11156902D01*
X23211972Y11093346D01*
X23202029Y11024187D01*
X23182948Y10994496D01*
X23105677Y10905319D01*
X23105676Y10905318D01*
X23045888Y10774403D01*
X23025407Y10631946D01*
X23045888Y10489490D01*
X23071517Y10433372D01*
X23105677Y10358573D01*
X23199926Y10249803D01*
X23321001Y10171993D01*
X23321004Y10171992D01*
X23321003Y10171992D01*
X23390709Y10151525D01*
X23444264Y10135800D01*
X23459090Y10131447D01*
X23459092Y10131446D01*
X23459093Y10131446D01*
X23603016Y10131446D01*
X23603016Y10131447D01*
X23741107Y10171993D01*
X23862182Y10249803D01*
X23956431Y10358573D01*
X23981744Y10414000D01*
X24767353Y10414000D01*
X24787834Y10271544D01*
X24840563Y10156085D01*
X24847623Y10140627D01*
X24941872Y10031857D01*
X25062947Y9954047D01*
X25062950Y9954046D01*
X25062948Y9954046D01*
X25084592Y9947691D01*
X25143370Y9909918D01*
X25172396Y9846362D01*
X25169321Y9803347D01*
X25170097Y9803235D01*
X25148353Y9652000D01*
X25168834Y9509544D01*
X25226959Y9382270D01*
X25228623Y9378627D01*
X25322872Y9269857D01*
X25443947Y9192047D01*
X25443950Y9192046D01*
X25443949Y9192046D01*
X25582036Y9151501D01*
X25582038Y9151500D01*
X25582039Y9151500D01*
X25725961Y9151500D01*
X25764541Y9162828D01*
X25834411Y9162828D01*
X25893189Y9125054D01*
X25922214Y9061499D01*
X25930834Y9001544D01*
X25985135Y8882643D01*
X25990623Y8870627D01*
X26084872Y8761857D01*
X26205947Y8684047D01*
X26205950Y8684046D01*
X26205949Y8684046D01*
X26344036Y8643501D01*
X26344038Y8643500D01*
X26344039Y8643500D01*
X26487962Y8643500D01*
X26487962Y8643501D01*
X26626053Y8684047D01*
X26747128Y8761857D01*
X26841377Y8870627D01*
X26901165Y9001543D01*
X26921647Y9144000D01*
X28069353Y9144000D01*
X28089834Y9001544D01*
X28144135Y8882643D01*
X28149623Y8870627D01*
X28243872Y8761857D01*
X28364947Y8684047D01*
X28364950Y8684046D01*
X28364949Y8684046D01*
X28503036Y8643501D01*
X28503038Y8643500D01*
X28503039Y8643500D01*
X28646962Y8643500D01*
X28646962Y8643501D01*
X28785053Y8684047D01*
X28906128Y8761857D01*
X29000377Y8870627D01*
X29060165Y9001543D01*
X29080647Y9144000D01*
X30734353Y9144000D01*
X30754834Y9001544D01*
X30809135Y8882643D01*
X30814623Y8870627D01*
X30908872Y8761857D01*
X31029947Y8684047D01*
X31029950Y8684046D01*
X31029949Y8684046D01*
X31168036Y8643501D01*
X31168038Y8643500D01*
X31168039Y8643500D01*
X31311962Y8643500D01*
X31311962Y8643501D01*
X31450053Y8684047D01*
X31571128Y8761857D01*
X31665377Y8870627D01*
X31725165Y9001543D01*
X31745647Y9144000D01*
X31725165Y9286457D01*
X31665377Y9417373D01*
X31571128Y9526143D01*
X31450053Y9603953D01*
X31450051Y9603954D01*
X31450049Y9603955D01*
X31450050Y9603955D01*
X31311963Y9644500D01*
X31311961Y9644500D01*
X31168039Y9644500D01*
X31168036Y9644500D01*
X31029949Y9603955D01*
X30908873Y9526144D01*
X30908872Y9526144D01*
X30908872Y9526143D01*
X30901084Y9517155D01*
X30814623Y9417374D01*
X30814622Y9417372D01*
X30754834Y9286457D01*
X30734353Y9144000D01*
X29080647Y9144000D01*
X29060165Y9286457D01*
X29000377Y9417373D01*
X28906128Y9526143D01*
X28785053Y9603953D01*
X28785051Y9603954D01*
X28785049Y9603955D01*
X28785050Y9603955D01*
X28646963Y9644500D01*
X28646961Y9644500D01*
X28503039Y9644500D01*
X28503036Y9644500D01*
X28364949Y9603955D01*
X28243873Y9526144D01*
X28243872Y9526144D01*
X28243872Y9526143D01*
X28236084Y9517155D01*
X28149623Y9417374D01*
X28149622Y9417372D01*
X28089834Y9286457D01*
X28069353Y9144000D01*
X26921647Y9144000D01*
X26901165Y9286457D01*
X26841377Y9417373D01*
X26747128Y9526143D01*
X26626053Y9603953D01*
X26626051Y9603954D01*
X26626049Y9603955D01*
X26626050Y9603955D01*
X26487963Y9644500D01*
X26487961Y9644500D01*
X26344039Y9644500D01*
X26344038Y9644500D01*
X26305455Y9633172D01*
X26235585Y9633174D01*
X26176808Y9670949D01*
X26147785Y9734503D01*
X26139165Y9794457D01*
X26121005Y9834222D01*
X26079377Y9925373D01*
X25985128Y10034143D01*
X25864053Y10111953D01*
X25864052Y10111954D01*
X25864051Y10111954D01*
X25842405Y10118310D01*
X25783627Y10156085D01*
X25754603Y10219641D01*
X25757680Y10262654D01*
X25756903Y10262765D01*
X25766839Y10331876D01*
X25778647Y10414000D01*
X36451353Y10414000D01*
X36471834Y10271544D01*
X36524563Y10156085D01*
X36531623Y10140627D01*
X36625872Y10031857D01*
X36746947Y9954047D01*
X36746950Y9954046D01*
X36746949Y9954046D01*
X36885036Y9913501D01*
X36885038Y9913500D01*
X36885039Y9913500D01*
X37028961Y9913500D01*
X37104064Y9935552D01*
X37173934Y9935552D01*
X37232712Y9897778D01*
X37261737Y9834222D01*
X37257976Y9781639D01*
X37256835Y9777756D01*
X37236354Y9635300D01*
X37256835Y9492844D01*
X37308996Y9378629D01*
X37316624Y9361927D01*
X37410873Y9253157D01*
X37531948Y9175347D01*
X37531951Y9175346D01*
X37531950Y9175346D01*
X37638707Y9144000D01*
X37664250Y9136500D01*
X37670037Y9134801D01*
X37670039Y9134800D01*
X37670040Y9134800D01*
X37813963Y9134800D01*
X37813963Y9134801D01*
X37845300Y9144002D01*
X44352318Y9144002D01*
X44352318Y9143999D01*
X44372955Y8987240D01*
X44372956Y8987238D01*
X44412759Y8891144D01*
X44433464Y8841159D01*
X44529718Y8715718D01*
X44655159Y8619464D01*
X44801238Y8558956D01*
X44879619Y8548637D01*
X44957999Y8538318D01*
X44958000Y8538318D01*
X44958001Y8538318D01*
X45010254Y8545198D01*
X45114762Y8558956D01*
X45260841Y8619464D01*
X45386282Y8715718D01*
X45482536Y8841159D01*
X45543044Y8987238D01*
X45563682Y9144000D01*
X45562694Y9151501D01*
X45543044Y9300761D01*
X45543044Y9300762D01*
X45482536Y9446841D01*
X45386282Y9572282D01*
X45260841Y9668536D01*
X45165810Y9707899D01*
X45114762Y9729044D01*
X45114760Y9729045D01*
X44958001Y9749682D01*
X44957999Y9749682D01*
X44801239Y9729045D01*
X44801237Y9729044D01*
X44655160Y9668537D01*
X44529718Y9572282D01*
X44433463Y9446840D01*
X44372956Y9300763D01*
X44372955Y9300761D01*
X44352318Y9144002D01*
X37845300Y9144002D01*
X37952054Y9175347D01*
X38073129Y9253157D01*
X38167378Y9361927D01*
X38227166Y9492843D01*
X38247648Y9635300D01*
X38227166Y9777757D01*
X38167378Y9908673D01*
X38073129Y10017443D01*
X37952054Y10095253D01*
X37952052Y10095254D01*
X37952050Y10095255D01*
X37952051Y10095255D01*
X37813964Y10135800D01*
X37813962Y10135800D01*
X37670040Y10135800D01*
X37594934Y10113748D01*
X37525064Y10113749D01*
X37466287Y10151525D01*
X37437263Y10215081D01*
X37441027Y10267673D01*
X37442160Y10271533D01*
X37442165Y10271543D01*
X37462647Y10414000D01*
X37442165Y10556457D01*
X37382377Y10687373D01*
X37288128Y10796143D01*
X37167053Y10873953D01*
X37167051Y10873954D01*
X37167049Y10873955D01*
X37167050Y10873955D01*
X37028963Y10914500D01*
X37028961Y10914500D01*
X36885039Y10914500D01*
X36885036Y10914500D01*
X36746949Y10873955D01*
X36625873Y10796144D01*
X36531623Y10687374D01*
X36531622Y10687372D01*
X36471834Y10556457D01*
X36451353Y10414000D01*
X25778647Y10414000D01*
X25758165Y10556457D01*
X25698377Y10687373D01*
X25604128Y10796143D01*
X25483053Y10873953D01*
X25483051Y10873954D01*
X25483049Y10873955D01*
X25483050Y10873955D01*
X25344963Y10914500D01*
X25344961Y10914500D01*
X25201039Y10914500D01*
X25201036Y10914500D01*
X25062949Y10873955D01*
X24941873Y10796144D01*
X24847623Y10687374D01*
X24847622Y10687372D01*
X24787834Y10556457D01*
X24767353Y10414000D01*
X23981744Y10414000D01*
X24016219Y10489489D01*
X24036701Y10631946D01*
X24016219Y10774403D01*
X23956431Y10905319D01*
X23941977Y10922000D01*
X30734353Y10922000D01*
X30754834Y10779544D01*
X30814622Y10648629D01*
X30814623Y10648627D01*
X30908872Y10539857D01*
X31029947Y10462047D01*
X31029950Y10462046D01*
X31029949Y10462046D01*
X31168036Y10421501D01*
X31168038Y10421500D01*
X31168039Y10421500D01*
X31311962Y10421500D01*
X31311962Y10421501D01*
X31450053Y10462047D01*
X31571128Y10539857D01*
X31665377Y10648627D01*
X31725165Y10779543D01*
X31745647Y10922000D01*
X31725165Y11064457D01*
X31719828Y11076142D01*
X31709886Y11145298D01*
X31738911Y11208854D01*
X31765579Y11231963D01*
X31797129Y11252238D01*
X31891378Y11361008D01*
X31951166Y11491924D01*
X31971648Y11634381D01*
X31951166Y11776838D01*
X31891378Y11907754D01*
X31797129Y12016524D01*
X31676054Y12094334D01*
X31676052Y12094335D01*
X31676050Y12094336D01*
X31676051Y12094336D01*
X31537964Y12134881D01*
X31537962Y12134881D01*
X31394040Y12134881D01*
X31394037Y12134881D01*
X31255950Y12094336D01*
X31134874Y12016525D01*
X31040624Y11907755D01*
X31040623Y11907753D01*
X30980835Y11776838D01*
X30960354Y11634381D01*
X30980835Y11491926D01*
X30986172Y11480240D01*
X30996113Y11411081D01*
X30967087Y11347526D01*
X30940417Y11324416D01*
X30908873Y11304144D01*
X30814623Y11195374D01*
X30814622Y11195372D01*
X30754834Y11064457D01*
X30734353Y10922000D01*
X23941977Y10922000D01*
X23862182Y11014089D01*
X23816234Y11043618D01*
X23741105Y11091901D01*
X23647884Y11119272D01*
X23589106Y11157046D01*
X23560081Y11220602D01*
X23570025Y11289760D01*
X23589103Y11319448D01*
X23666377Y11408627D01*
X23726165Y11539543D01*
X23746647Y11682000D01*
X23726165Y11824457D01*
X23666377Y11955373D01*
X23572128Y12064143D01*
X23451053Y12141953D01*
X23451051Y12141954D01*
X23451049Y12141955D01*
X23451050Y12141955D01*
X23312963Y12182500D01*
X23312961Y12182500D01*
X23169039Y12182500D01*
X23169036Y12182500D01*
X23030949Y12141955D01*
X22909873Y12064144D01*
X22815623Y11955374D01*
X22815622Y11955372D01*
X22755834Y11824457D01*
X22735353Y11682000D01*
X19951475Y11682000D01*
X19876877Y11756598D01*
X19697639Y11882102D01*
X19546414Y11952619D01*
X19493977Y11998790D01*
X19474825Y12065984D01*
X19495041Y12132865D01*
X19546414Y12177382D01*
X19697639Y12247898D01*
X19876877Y12373402D01*
X20031598Y12528123D01*
X20157102Y12707361D01*
X20249575Y12905670D01*
X20306207Y13117023D01*
X20325277Y13335000D01*
X20323991Y13349697D01*
X22490451Y13349697D01*
X22510932Y13207241D01*
X22568066Y13082138D01*
X22570721Y13076324D01*
X22664970Y12967554D01*
X22786045Y12889744D01*
X22786048Y12889743D01*
X22786047Y12889743D01*
X22924134Y12849198D01*
X22924136Y12849197D01*
X22924137Y12849197D01*
X23068060Y12849197D01*
X23068060Y12849198D01*
X23206151Y12889744D01*
X23327226Y12967554D01*
X23421475Y13076324D01*
X23481263Y13207240D01*
X23501745Y13349697D01*
X23485866Y13460138D01*
X23495810Y13529294D01*
X23541564Y13582098D01*
X23573672Y13596761D01*
X23578053Y13598047D01*
X23699128Y13675857D01*
X23793377Y13784627D01*
X23853165Y13915543D01*
X23873647Y14058000D01*
X23853165Y14200457D01*
X23849720Y14208001D01*
X25360750Y14208001D01*
X25360750Y14208000D01*
X25379670Y14064292D01*
X25379671Y14064288D01*
X25435137Y13930378D01*
X25435138Y13930376D01*
X25435139Y13930375D01*
X25523379Y13815379D01*
X25532711Y13808218D01*
X25535113Y13806375D01*
X25576316Y13749947D01*
X25580470Y13680201D01*
X25546257Y13619281D01*
X25535113Y13609625D01*
X25523381Y13600623D01*
X25435137Y13485623D01*
X25379671Y13351713D01*
X25379670Y13351709D01*
X25360750Y13208001D01*
X25360750Y13208000D01*
X25379670Y13064292D01*
X25379671Y13064288D01*
X25435137Y12930378D01*
X25435138Y12930376D01*
X25435139Y12930375D01*
X25523379Y12815379D01*
X25532711Y12808218D01*
X25535113Y12806375D01*
X25576316Y12749947D01*
X25580470Y12680201D01*
X25546257Y12619281D01*
X25535113Y12609625D01*
X25523381Y12600623D01*
X25523380Y12600622D01*
X25523379Y12600621D01*
X25501307Y12571856D01*
X25435137Y12485623D01*
X25379671Y12351713D01*
X25379670Y12351709D01*
X25360750Y12208000D01*
X25375714Y12094336D01*
X25379670Y12064292D01*
X25379671Y12064288D01*
X25435137Y11930378D01*
X25435138Y11930376D01*
X25435139Y11930375D01*
X25523379Y11815379D01*
X25638375Y11727139D01*
X25772291Y11671670D01*
X25899280Y11654952D01*
X25915999Y11652750D01*
X25916000Y11652750D01*
X25916001Y11652750D01*
X25930977Y11654722D01*
X26059709Y11671670D01*
X26193625Y11727139D01*
X26308621Y11815379D01*
X26317625Y11827114D01*
X26374050Y11868315D01*
X26443796Y11872471D01*
X26504717Y11838260D01*
X26514367Y11827124D01*
X26523379Y11815379D01*
X26638375Y11727139D01*
X26772291Y11671670D01*
X26899280Y11654952D01*
X26915999Y11652750D01*
X26916000Y11652750D01*
X26916001Y11652750D01*
X26930977Y11654722D01*
X27059709Y11671670D01*
X27193625Y11727139D01*
X27308621Y11815379D01*
X27317625Y11827114D01*
X27374050Y11868315D01*
X27443796Y11872471D01*
X27504717Y11838260D01*
X27514367Y11827124D01*
X27523379Y11815379D01*
X27638375Y11727139D01*
X27772291Y11671670D01*
X27899280Y11654952D01*
X27915999Y11652750D01*
X27916000Y11652750D01*
X27916001Y11652750D01*
X27930977Y11654722D01*
X28059709Y11671670D01*
X28193625Y11727139D01*
X28308621Y11815379D01*
X28396861Y11930375D01*
X28452330Y12064291D01*
X28465457Y12164000D01*
X37086353Y12164000D01*
X37106834Y12021544D01*
X37141563Y11945500D01*
X37166623Y11890627D01*
X37260872Y11781857D01*
X37381947Y11704047D01*
X37381950Y11704046D01*
X37381949Y11704046D01*
X37520036Y11663501D01*
X37520038Y11663500D01*
X37520039Y11663500D01*
X37663962Y11663500D01*
X37663962Y11663501D01*
X37802053Y11704047D01*
X37923128Y11781857D01*
X38017377Y11890627D01*
X38077165Y12021543D01*
X38097647Y12164000D01*
X38077165Y12306457D01*
X38017377Y12437373D01*
X37923128Y12546143D01*
X37802053Y12623953D01*
X37802051Y12623954D01*
X37802049Y12623955D01*
X37802050Y12623955D01*
X37663963Y12664500D01*
X37663961Y12664500D01*
X37520039Y12664500D01*
X37520036Y12664500D01*
X37381949Y12623955D01*
X37260873Y12546144D01*
X37166623Y12437374D01*
X37166622Y12437372D01*
X37106834Y12306457D01*
X37086353Y12164000D01*
X28465457Y12164000D01*
X28471250Y12208000D01*
X28452330Y12351709D01*
X28410167Y12453501D01*
X28396862Y12485623D01*
X28396861Y12485624D01*
X28396861Y12485625D01*
X28308621Y12600621D01*
X28296886Y12609626D01*
X28255685Y12666050D01*
X28251529Y12735796D01*
X28285740Y12796717D01*
X28296876Y12806368D01*
X28308621Y12815379D01*
X28396861Y12930375D01*
X28452330Y13064291D01*
X28471250Y13208000D01*
X28470262Y13215501D01*
X28465170Y13254181D01*
X28452330Y13351709D01*
X28408268Y13458085D01*
X28396862Y13485623D01*
X28396861Y13485624D01*
X28396861Y13485625D01*
X28371722Y13518387D01*
X33026373Y13518387D01*
X33046854Y13375931D01*
X33106642Y13245016D01*
X33106643Y13245014D01*
X33200892Y13136244D01*
X33321967Y13058434D01*
X33321970Y13058433D01*
X33321969Y13058433D01*
X33460056Y13017888D01*
X33460058Y13017887D01*
X33460059Y13017887D01*
X33603982Y13017887D01*
X33603982Y13017888D01*
X33742073Y13058434D01*
X33863148Y13136244D01*
X33957397Y13245014D01*
X34017185Y13375930D01*
X34037667Y13518387D01*
X34017185Y13660844D01*
X33957397Y13791760D01*
X33863148Y13900530D01*
X33742073Y13978340D01*
X33742071Y13978341D01*
X33742069Y13978342D01*
X33742070Y13978342D01*
X33603983Y14018887D01*
X33603981Y14018887D01*
X33460059Y14018887D01*
X33460056Y14018887D01*
X33321969Y13978342D01*
X33200893Y13900531D01*
X33106643Y13791761D01*
X33106642Y13791759D01*
X33046854Y13660844D01*
X33026373Y13518387D01*
X28371722Y13518387D01*
X28308621Y13600621D01*
X28296886Y13609626D01*
X28255685Y13666050D01*
X28251529Y13735796D01*
X28285740Y13796717D01*
X28296876Y13806368D01*
X28308621Y13815379D01*
X28396861Y13930375D01*
X28452330Y14064291D01*
X28471250Y14208000D01*
X28469144Y14224000D01*
X30734353Y14224000D01*
X30754834Y14081544D01*
X30807860Y13965435D01*
X30814623Y13950627D01*
X30908872Y13841857D01*
X31029947Y13764047D01*
X31029950Y13764046D01*
X31029949Y13764046D01*
X31168036Y13723501D01*
X31168038Y13723500D01*
X31168039Y13723500D01*
X31311962Y13723500D01*
X31311962Y13723501D01*
X31450053Y13764047D01*
X31571128Y13841857D01*
X31665377Y13950627D01*
X31725165Y14081543D01*
X31745647Y14224000D01*
X31725165Y14366457D01*
X31665377Y14497373D01*
X31571128Y14606143D01*
X31450053Y14683953D01*
X31450051Y14683954D01*
X31450049Y14683955D01*
X31450050Y14683955D01*
X31311963Y14724500D01*
X31311961Y14724500D01*
X31168039Y14724500D01*
X31168036Y14724500D01*
X31029949Y14683955D01*
X30908873Y14606144D01*
X30908872Y14606144D01*
X30908872Y14606143D01*
X30896290Y14591623D01*
X30814623Y14497374D01*
X30814622Y14497372D01*
X30754834Y14366457D01*
X30734353Y14224000D01*
X28469144Y14224000D01*
X28452330Y14351709D01*
X28396913Y14485500D01*
X28396862Y14485623D01*
X28396861Y14485624D01*
X28396861Y14485625D01*
X28308621Y14600621D01*
X28193625Y14688861D01*
X28193624Y14688862D01*
X28193622Y14688863D01*
X28059712Y14744329D01*
X28059710Y14744330D01*
X28059709Y14744330D01*
X27987854Y14753790D01*
X27916001Y14763250D01*
X27915999Y14763250D01*
X27772291Y14744330D01*
X27772287Y14744329D01*
X27638377Y14688863D01*
X27615372Y14671210D01*
X27523379Y14600621D01*
X27523378Y14600620D01*
X27523377Y14600619D01*
X27514375Y14588887D01*
X27457947Y14547684D01*
X27388201Y14543530D01*
X27327281Y14577743D01*
X27317625Y14588887D01*
X27315782Y14591289D01*
X27308621Y14600621D01*
X27193625Y14688861D01*
X27193624Y14688862D01*
X27193622Y14688863D01*
X27059712Y14744329D01*
X27059710Y14744330D01*
X27059709Y14744330D01*
X26987854Y14753790D01*
X26916001Y14763250D01*
X26915999Y14763250D01*
X26772291Y14744330D01*
X26772287Y14744329D01*
X26638377Y14688863D01*
X26615372Y14671210D01*
X26523379Y14600621D01*
X26523378Y14600620D01*
X26523377Y14600619D01*
X26514375Y14588887D01*
X26457947Y14547684D01*
X26388201Y14543530D01*
X26327281Y14577743D01*
X26317625Y14588887D01*
X26315782Y14591289D01*
X26308621Y14600621D01*
X26193625Y14688861D01*
X26193624Y14688862D01*
X26193622Y14688863D01*
X26059712Y14744329D01*
X26059710Y14744330D01*
X26059709Y14744330D01*
X25987854Y14753790D01*
X25916001Y14763250D01*
X25915999Y14763250D01*
X25772291Y14744330D01*
X25772287Y14744329D01*
X25638377Y14688863D01*
X25523379Y14600621D01*
X25435137Y14485623D01*
X25379671Y14351713D01*
X25379670Y14351709D01*
X25360750Y14208001D01*
X23849720Y14208001D01*
X23793377Y14331373D01*
X23699128Y14440143D01*
X23578053Y14517953D01*
X23578051Y14517954D01*
X23578049Y14517955D01*
X23578050Y14517955D01*
X23439963Y14558500D01*
X23439961Y14558500D01*
X23296039Y14558500D01*
X23296036Y14558500D01*
X23157949Y14517955D01*
X23036873Y14440144D01*
X22942623Y14331374D01*
X22942622Y14331372D01*
X22882834Y14200457D01*
X22862353Y14058000D01*
X22878231Y13947560D01*
X22868287Y13878402D01*
X22822532Y13825598D01*
X22790430Y13810938D01*
X22786050Y13809652D01*
X22786043Y13809649D01*
X22664971Y13731841D01*
X22570721Y13623071D01*
X22570720Y13623069D01*
X22510932Y13492154D01*
X22490451Y13349697D01*
X20323991Y13349697D01*
X20306207Y13552977D01*
X20249575Y13764330D01*
X20157102Y13962638D01*
X20157100Y13962641D01*
X20157099Y13962643D01*
X20031599Y14141876D01*
X19956975Y14216500D01*
X19876877Y14296598D01*
X19697639Y14422102D01*
X19546414Y14492619D01*
X19493977Y14538790D01*
X19474825Y14605984D01*
X19495041Y14672865D01*
X19546414Y14717382D01*
X19697639Y14787898D01*
X19876877Y14913402D01*
X20031598Y15068123D01*
X20151949Y15240002D01*
X23778318Y15240002D01*
X23778318Y15239999D01*
X23798955Y15083240D01*
X23798956Y15083238D01*
X23805218Y15068119D01*
X23859464Y14937159D01*
X23955718Y14811718D01*
X24081159Y14715464D01*
X24227238Y14654956D01*
X24305619Y14644637D01*
X24383999Y14634318D01*
X24384000Y14634318D01*
X24384001Y14634318D01*
X24436254Y14641198D01*
X24540762Y14654956D01*
X24686841Y14715464D01*
X24812282Y14811718D01*
X24908536Y14937159D01*
X24928767Y14986000D01*
X32385353Y14986000D01*
X32405834Y14843544D01*
X32460201Y14724500D01*
X32465623Y14712627D01*
X32559872Y14603857D01*
X32680947Y14526047D01*
X32680950Y14526046D01*
X32680949Y14526046D01*
X32720017Y14514575D01*
X32818613Y14485625D01*
X32819036Y14485501D01*
X32819038Y14485500D01*
X32819039Y14485500D01*
X32962962Y14485500D01*
X32962962Y14485501D01*
X33101053Y14526047D01*
X33222128Y14603857D01*
X33316377Y14712627D01*
X33376165Y14843543D01*
X33396647Y14986000D01*
X33376165Y15128457D01*
X33316377Y15259373D01*
X33222128Y15368143D01*
X33101053Y15445953D01*
X33101051Y15445954D01*
X33101049Y15445955D01*
X33101050Y15445955D01*
X32962963Y15486500D01*
X32962961Y15486500D01*
X32819039Y15486500D01*
X32819036Y15486500D01*
X32680949Y15445955D01*
X32559873Y15368144D01*
X32465623Y15259374D01*
X32465622Y15259372D01*
X32405834Y15128457D01*
X32385353Y14986000D01*
X24928767Y14986000D01*
X24969044Y15083238D01*
X24988713Y15232639D01*
X24989682Y15239999D01*
X24989682Y15240002D01*
X24969044Y15396761D01*
X24969044Y15396762D01*
X24908536Y15542841D01*
X24812282Y15668282D01*
X24686841Y15764536D01*
X24649162Y15780143D01*
X24540762Y15825044D01*
X24540760Y15825045D01*
X24384001Y15845682D01*
X24383999Y15845682D01*
X24227239Y15825045D01*
X24227237Y15825044D01*
X24081157Y15764536D01*
X24017718Y15715857D01*
X23952548Y15690663D01*
X23928679Y15695559D01*
X23933548Y15674396D01*
X23909912Y15608645D01*
X23908143Y15606282D01*
X23859464Y15542843D01*
X23798956Y15396763D01*
X23798955Y15396761D01*
X23778318Y15240002D01*
X20151949Y15240002D01*
X20157102Y15247361D01*
X20249575Y15445670D01*
X20306207Y15657023D01*
X20325277Y15875000D01*
X20323897Y15890770D01*
X20313510Y16009500D01*
X20306207Y16092977D01*
X20262525Y16256000D01*
X20262524Y16256002D01*
X21238318Y16256002D01*
X21238318Y16255999D01*
X21258955Y16099240D01*
X21258956Y16099238D01*
X21319464Y15953159D01*
X21415718Y15827718D01*
X21541159Y15731464D01*
X21687238Y15670956D01*
X21765619Y15660637D01*
X21843999Y15650318D01*
X21844000Y15650318D01*
X21844001Y15650318D01*
X21896254Y15657198D01*
X22000762Y15670956D01*
X22146841Y15731464D01*
X22272282Y15827718D01*
X22368536Y15953159D01*
X22429044Y16099238D01*
X22449682Y16256000D01*
X22449682Y16256002D01*
X22762318Y16256002D01*
X22762318Y16255999D01*
X22782955Y16099240D01*
X22782956Y16099238D01*
X22843464Y15953159D01*
X22939718Y15827718D01*
X23065159Y15731464D01*
X23211238Y15670956D01*
X23289619Y15660637D01*
X23367999Y15650318D01*
X23368000Y15650318D01*
X23368001Y15650318D01*
X23420254Y15657198D01*
X23524762Y15670956D01*
X23670841Y15731464D01*
X23734281Y15780144D01*
X23799449Y15805338D01*
X23823319Y15800443D01*
X23818451Y15821607D01*
X23842088Y15887358D01*
X23843829Y15889684D01*
X23891951Y15952396D01*
X26235999Y15952396D01*
X26256480Y15809940D01*
X26293614Y15728629D01*
X26316269Y15679023D01*
X26410518Y15570253D01*
X26531593Y15492443D01*
X26531596Y15492442D01*
X26531595Y15492442D01*
X26669682Y15451897D01*
X26669684Y15451896D01*
X26669685Y15451896D01*
X26813608Y15451896D01*
X26813608Y15451897D01*
X26951699Y15492443D01*
X27072774Y15570253D01*
X27167023Y15679023D01*
X27226811Y15809939D01*
X27247293Y15952396D01*
X27226811Y16094853D01*
X27167023Y16225769D01*
X27072774Y16334539D01*
X26951699Y16412349D01*
X26951697Y16412350D01*
X26951695Y16412351D01*
X26951696Y16412351D01*
X26813609Y16452896D01*
X26813607Y16452896D01*
X26669685Y16452896D01*
X26669682Y16452896D01*
X26531595Y16412351D01*
X26410519Y16334540D01*
X26316269Y16225770D01*
X26316268Y16225768D01*
X26256480Y16094853D01*
X26235999Y15952396D01*
X23891951Y15952396D01*
X23892536Y15953159D01*
X23953044Y16099238D01*
X23973682Y16256000D01*
X23972694Y16263501D01*
X23953044Y16412761D01*
X23953044Y16412762D01*
X23892536Y16558841D01*
X23796282Y16684282D01*
X23670841Y16780536D01*
X23669100Y16781257D01*
X23524762Y16841044D01*
X23524760Y16841045D01*
X23368001Y16861682D01*
X23367999Y16861682D01*
X23211239Y16841045D01*
X23211237Y16841044D01*
X23065160Y16780537D01*
X22939718Y16684282D01*
X22843463Y16558840D01*
X22782956Y16412763D01*
X22782955Y16412761D01*
X22762318Y16256002D01*
X22449682Y16256002D01*
X22448694Y16263501D01*
X22429044Y16412761D01*
X22429044Y16412762D01*
X22368536Y16558841D01*
X22272282Y16684282D01*
X22146841Y16780536D01*
X22145100Y16781257D01*
X22000762Y16841044D01*
X22000760Y16841045D01*
X21844001Y16861682D01*
X21843999Y16861682D01*
X21687239Y16841045D01*
X21687237Y16841044D01*
X21541160Y16780537D01*
X21415718Y16684282D01*
X21319463Y16558840D01*
X21258956Y16412763D01*
X21258955Y16412761D01*
X21238318Y16256002D01*
X20262524Y16256002D01*
X20249577Y16304323D01*
X20249576Y16304324D01*
X20249575Y16304330D01*
X20157102Y16502638D01*
X20157100Y16502641D01*
X20157099Y16502643D01*
X20031599Y16681876D01*
X19998314Y16715161D01*
X19876877Y16836598D01*
X19721725Y16945237D01*
X19704390Y16957375D01*
X27240978Y16957375D01*
X27261459Y16814919D01*
X27307018Y16715161D01*
X27321248Y16684002D01*
X27415497Y16575232D01*
X27536572Y16497422D01*
X27536575Y16497421D01*
X27536574Y16497421D01*
X27674661Y16456876D01*
X27674663Y16456875D01*
X27674664Y16456875D01*
X27818587Y16456875D01*
X27818587Y16456876D01*
X27938597Y16492113D01*
X27956675Y16497421D01*
X27956676Y16497421D01*
X27956840Y16497526D01*
X27986437Y16516548D01*
X28053477Y16536232D01*
X28120516Y16516548D01*
X28147190Y16493435D01*
X28149622Y16490628D01*
X28149623Y16490627D01*
X28243872Y16381857D01*
X28364947Y16304047D01*
X28364950Y16304046D01*
X28364949Y16304046D01*
X28503036Y16263501D01*
X28503038Y16263500D01*
X28503039Y16263500D01*
X28646962Y16263500D01*
X28646962Y16263501D01*
X28785053Y16304047D01*
X28906128Y16381857D01*
X29000377Y16490627D01*
X29060165Y16621543D01*
X29080647Y16764000D01*
X29060165Y16906457D01*
X29000377Y17037373D01*
X28906128Y17146143D01*
X28785053Y17223953D01*
X28785051Y17223954D01*
X28785049Y17223955D01*
X28785050Y17223955D01*
X28646963Y17264500D01*
X28646961Y17264500D01*
X28503039Y17264500D01*
X28503036Y17264500D01*
X28364949Y17223955D01*
X28364947Y17223954D01*
X28335184Y17204827D01*
X28268144Y17185144D01*
X28201105Y17204830D01*
X28174434Y17227941D01*
X28172001Y17230749D01*
X28077753Y17339518D01*
X27956678Y17417328D01*
X27956676Y17417329D01*
X27956674Y17417330D01*
X27956675Y17417330D01*
X27818588Y17457875D01*
X27818586Y17457875D01*
X27674664Y17457875D01*
X27674661Y17457875D01*
X27536574Y17417330D01*
X27415498Y17339519D01*
X27321248Y17230749D01*
X27321247Y17230747D01*
X27261459Y17099832D01*
X27240978Y16957375D01*
X19704390Y16957375D01*
X19697638Y16962103D01*
X19593849Y17010500D01*
X19499330Y17054575D01*
X19499326Y17054576D01*
X19499322Y17054578D01*
X19287977Y17111207D01*
X19070002Y17130277D01*
X19069998Y17130277D01*
X18924682Y17117564D01*
X18852023Y17111207D01*
X18852020Y17111207D01*
X18640677Y17054578D01*
X18640668Y17054574D01*
X18442361Y16962102D01*
X18442357Y16962100D01*
X18263121Y16836598D01*
X18108405Y16681882D01*
X18006074Y16535738D01*
X17951497Y16492113D01*
X17881998Y16484921D01*
X17819644Y16516443D01*
X17784230Y16576673D01*
X17780499Y16606856D01*
X17780499Y18139864D01*
X17780497Y18139883D01*
X17777586Y18164988D01*
X17777585Y18164990D01*
X17777585Y18164991D01*
X17732206Y18267765D01*
X17711971Y18288000D01*
X30355353Y18288000D01*
X30375834Y18145544D01*
X30435622Y18014629D01*
X30435623Y18014627D01*
X30454719Y17992589D01*
X30492998Y17948412D01*
X30522022Y17884856D01*
X30512079Y17815699D01*
X30502835Y17795458D01*
X30502834Y17795457D01*
X30482353Y17653000D01*
X30502834Y17510544D01*
X30562622Y17379629D01*
X30562623Y17379627D01*
X30656872Y17270857D01*
X30777947Y17193047D01*
X30777950Y17193046D01*
X30777949Y17193046D01*
X30916036Y17152501D01*
X30916038Y17152500D01*
X30916039Y17152500D01*
X31059962Y17152500D01*
X31059962Y17152501D01*
X31198053Y17193047D01*
X31319128Y17270857D01*
X31413377Y17379627D01*
X31473165Y17510543D01*
X31493647Y17653000D01*
X31473165Y17795457D01*
X31413377Y17926373D01*
X31413375Y17926375D01*
X31413374Y17926378D01*
X31356002Y17992589D01*
X31326977Y18056145D01*
X31336921Y18125303D01*
X31336922Y18125305D01*
X31346165Y18145543D01*
X31366647Y18288000D01*
X31346165Y18430457D01*
X31286377Y18561373D01*
X31192128Y18670143D01*
X31071053Y18747953D01*
X31071051Y18747954D01*
X31071049Y18747955D01*
X31071050Y18747955D01*
X30932963Y18788500D01*
X30932961Y18788500D01*
X30789039Y18788500D01*
X30789036Y18788500D01*
X30650949Y18747955D01*
X30529873Y18670144D01*
X30435623Y18561374D01*
X30435622Y18561372D01*
X30375834Y18430457D01*
X30355353Y18288000D01*
X17711971Y18288000D01*
X17652765Y18347206D01*
X17652763Y18347207D01*
X17549992Y18392585D01*
X17524865Y18395500D01*
X15535143Y18395500D01*
X15535117Y18395498D01*
X15510012Y18392587D01*
X15510008Y18392585D01*
X15407235Y18347207D01*
X15327794Y18267766D01*
X15282415Y18164994D01*
X15282415Y18164992D01*
X15279500Y18139869D01*
X15279500Y16150144D01*
X15279502Y16150118D01*
X15282413Y16125013D01*
X15282415Y16125009D01*
X15327793Y16022236D01*
X15327794Y16022235D01*
X15407235Y15942794D01*
X15510009Y15897415D01*
X15535135Y15894500D01*
X15798140Y15894501D01*
X15865177Y15874817D01*
X15910932Y15822013D01*
X15920876Y15752854D01*
X15891851Y15689299D01*
X15869262Y15668926D01*
X15723118Y15566595D01*
X15568402Y15411879D01*
X15442900Y15232643D01*
X15442898Y15232639D01*
X15350426Y15034332D01*
X15350422Y15034323D01*
X15293793Y14822980D01*
X15293793Y14822976D01*
X15274723Y14605003D01*
X14986000Y14605003D01*
X14986000Y24775500D01*
X15005685Y24842539D01*
X15058489Y24888294D01*
X15110000Y24899500D01*
X22372905Y24899500D01*
X22439944Y24879815D01*
G37*
%TD.AperFunction*%
%TD*%
M02*
