%TF.GenerationSoftware,KiCad,Pcbnew,8.0.2-8.0.2-0~ubuntu22.04.1*%
%TF.CreationDate,2024-05-07T00:28:05+09:00*%
%TF.ProjectId,CANgatewayE,43414e67-6174-4657-9761-79452e6b6963,rev?*%
%TF.SameCoordinates,Original*%
%TF.FileFunction,Legend,Top*%
%TF.FilePolarity,Positive*%
%FSLAX46Y46*%
G04 Gerber Fmt 4.6, Leading zero omitted, Abs format (unit mm)*
G04 Created by KiCad (PCBNEW 8.0.2-8.0.2-0~ubuntu22.04.1) date 2024-05-07 00:28:05*
%MOMM*%
%LPD*%
G01*
G04 APERTURE LIST*
G04 Aperture macros list*
%AMRoundRect*
0 Rectangle with rounded corners*
0 $1 Rounding radius*
0 $2 $3 $4 $5 $6 $7 $8 $9 X,Y pos of 4 corners*
0 Add a 4 corners polygon primitive as box body*
4,1,4,$2,$3,$4,$5,$6,$7,$8,$9,$2,$3,0*
0 Add four circle primitives for the rounded corners*
1,1,$1+$1,$2,$3*
1,1,$1+$1,$4,$5*
1,1,$1+$1,$6,$7*
1,1,$1+$1,$8,$9*
0 Add four rect primitives between the rounded corners*
20,1,$1+$1,$2,$3,$4,$5,0*
20,1,$1+$1,$4,$5,$6,$7,0*
20,1,$1+$1,$6,$7,$8,$9,0*
20,1,$1+$1,$8,$9,$2,$3,0*%
%AMFreePoly0*
4,1,9,3.862500,-0.866500,0.737500,-0.866500,0.737500,-0.450000,-0.737500,-0.450000,-0.737500,0.450000,0.737500,0.450000,0.737500,0.866500,3.862500,0.866500,3.862500,-0.866500,3.862500,-0.866500,$1*%
G04 Aperture macros list end*
%ADD10C,0.100000*%
%ADD11C,0.300000*%
%ADD12C,0.150000*%
%ADD13C,0.120000*%
%ADD14RoundRect,0.140000X0.140000X0.170000X-0.140000X0.170000X-0.140000X-0.170000X0.140000X-0.170000X0*%
%ADD15RoundRect,0.140000X-0.170000X0.140000X-0.170000X-0.140000X0.170000X-0.140000X0.170000X0.140000X0*%
%ADD16RoundRect,0.135000X-0.185000X0.135000X-0.185000X-0.135000X0.185000X-0.135000X0.185000X0.135000X0*%
%ADD17RoundRect,0.135000X0.135000X0.185000X-0.135000X0.185000X-0.135000X-0.185000X0.135000X-0.185000X0*%
%ADD18C,3.250000*%
%ADD19C,1.890000*%
%ADD20R,1.900000X1.900000*%
%ADD21C,1.900000*%
%ADD22C,2.600000*%
%ADD23R,0.900000X0.800000*%
%ADD24RoundRect,0.225000X-0.225000X-0.250000X0.225000X-0.250000X0.225000X0.250000X-0.225000X0.250000X0*%
%ADD25R,0.900000X1.300000*%
%ADD26FreePoly0,90.000000*%
%ADD27RoundRect,0.218750X-0.218750X-0.256250X0.218750X-0.256250X0.218750X0.256250X-0.218750X0.256250X0*%
%ADD28RoundRect,0.140000X0.170000X-0.140000X0.170000X0.140000X-0.170000X0.140000X-0.170000X-0.140000X0*%
%ADD29RoundRect,0.200000X-0.275000X0.200000X-0.275000X-0.200000X0.275000X-0.200000X0.275000X0.200000X0*%
%ADD30RoundRect,0.062500X0.062500X-0.375000X0.062500X0.375000X-0.062500X0.375000X-0.062500X-0.375000X0*%
%ADD31RoundRect,0.062500X0.375000X-0.062500X0.375000X0.062500X-0.375000X0.062500X-0.375000X-0.062500X0*%
%ADD32R,2.500000X2.500000*%
%ADD33RoundRect,0.225000X0.225000X0.250000X-0.225000X0.250000X-0.225000X-0.250000X0.225000X-0.250000X0*%
%ADD34RoundRect,0.225000X-0.250000X0.225000X-0.250000X-0.225000X0.250000X-0.225000X0.250000X0.225000X0*%
%ADD35RoundRect,0.250000X0.475000X-0.250000X0.475000X0.250000X-0.475000X0.250000X-0.475000X-0.250000X0*%
%ADD36RoundRect,0.218750X-0.256250X0.218750X-0.256250X-0.218750X0.256250X-0.218750X0.256250X0.218750X0*%
%ADD37RoundRect,0.135000X0.185000X-0.135000X0.185000X0.135000X-0.185000X0.135000X-0.185000X-0.135000X0*%
%ADD38R,1.600000X0.760000*%
%ADD39RoundRect,0.135000X-0.135000X-0.185000X0.135000X-0.185000X0.135000X0.185000X-0.135000X0.185000X0*%
%ADD40R,1.700000X1.700000*%
%ADD41O,1.700000X1.700000*%
G04 APERTURE END LIST*
D10*
X44704000Y16510000D02*
X48768000Y16510000D01*
X48768000Y12954000D01*
X44704000Y12954000D01*
X44704000Y16510000D01*
X44704000Y21590000D02*
X48768000Y21590000D01*
X48768000Y18034000D01*
X44704000Y18034000D01*
X44704000Y21590000D01*
X13480074Y22225581D02*
X13003884Y22225581D01*
X13003884Y22225581D02*
X13003884Y23225581D01*
X13813408Y22749391D02*
X14146741Y22749391D01*
X14289598Y22225581D02*
X13813408Y22225581D01*
X13813408Y22225581D02*
X13813408Y23225581D01*
X13813408Y23225581D02*
X14289598Y23225581D01*
X14718170Y22225581D02*
X14718170Y23225581D01*
X14718170Y23225581D02*
X14956265Y23225581D01*
X14956265Y23225581D02*
X15099122Y23177962D01*
X15099122Y23177962D02*
X15194360Y23082724D01*
X15194360Y23082724D02*
X15241979Y22987486D01*
X15241979Y22987486D02*
X15289598Y22797010D01*
X15289598Y22797010D02*
X15289598Y22654153D01*
X15289598Y22654153D02*
X15241979Y22463677D01*
X15241979Y22463677D02*
X15194360Y22368439D01*
X15194360Y22368439D02*
X15099122Y22273200D01*
X15099122Y22273200D02*
X14956265Y22225581D01*
X14956265Y22225581D02*
X14718170Y22225581D01*
X15670551Y23130343D02*
X15718170Y23177962D01*
X15718170Y23177962D02*
X15813408Y23225581D01*
X15813408Y23225581D02*
X16051503Y23225581D01*
X16051503Y23225581D02*
X16146741Y23177962D01*
X16146741Y23177962D02*
X16194360Y23130343D01*
X16194360Y23130343D02*
X16241979Y23035105D01*
X16241979Y23035105D02*
X16241979Y22939867D01*
X16241979Y22939867D02*
X16194360Y22797010D01*
X16194360Y22797010D02*
X15622932Y22225581D01*
X15622932Y22225581D02*
X16241979Y22225581D01*
X13480074Y24003581D02*
X13003884Y24003581D01*
X13003884Y24003581D02*
X13003884Y25003581D01*
X13813408Y24527391D02*
X14146741Y24527391D01*
X14289598Y24003581D02*
X13813408Y24003581D01*
X13813408Y24003581D02*
X13813408Y25003581D01*
X13813408Y25003581D02*
X14289598Y25003581D01*
X14718170Y24003581D02*
X14718170Y25003581D01*
X14718170Y25003581D02*
X14956265Y25003581D01*
X14956265Y25003581D02*
X15099122Y24955962D01*
X15099122Y24955962D02*
X15194360Y24860724D01*
X15194360Y24860724D02*
X15241979Y24765486D01*
X15241979Y24765486D02*
X15289598Y24575010D01*
X15289598Y24575010D02*
X15289598Y24432153D01*
X15289598Y24432153D02*
X15241979Y24241677D01*
X15241979Y24241677D02*
X15194360Y24146439D01*
X15194360Y24146439D02*
X15099122Y24051200D01*
X15099122Y24051200D02*
X14956265Y24003581D01*
X14956265Y24003581D02*
X14718170Y24003581D01*
X16241979Y24003581D02*
X15670551Y24003581D01*
X15956265Y24003581D02*
X15956265Y25003581D01*
X15956265Y25003581D02*
X15861027Y24860724D01*
X15861027Y24860724D02*
X15765789Y24765486D01*
X15765789Y24765486D02*
X15670551Y24717867D01*
D11*
X37488582Y3898029D02*
X37408225Y3826600D01*
X37408225Y3826600D02*
X37185010Y3755172D01*
X37185010Y3755172D02*
X37042153Y3755172D01*
X37042153Y3755172D02*
X36836796Y3826600D01*
X36836796Y3826600D02*
X36711796Y3969458D01*
X36711796Y3969458D02*
X36658225Y4112315D01*
X36658225Y4112315D02*
X36622510Y4398029D01*
X36622510Y4398029D02*
X36649296Y4612315D01*
X36649296Y4612315D02*
X36756439Y4898029D01*
X36756439Y4898029D02*
X36845725Y5040886D01*
X36845725Y5040886D02*
X37006439Y5183743D01*
X37006439Y5183743D02*
X37229653Y5255172D01*
X37229653Y5255172D02*
X37372510Y5255172D01*
X37372510Y5255172D02*
X37577868Y5183743D01*
X37577868Y5183743D02*
X37640368Y5112315D01*
X38095725Y4183743D02*
X38810010Y4183743D01*
X37899296Y3755172D02*
X38586796Y5255172D01*
X38586796Y5255172D02*
X38899296Y3755172D01*
X39399296Y3755172D02*
X39586796Y5255172D01*
X39586796Y5255172D02*
X40256439Y3755172D01*
X40256439Y3755172D02*
X40443939Y5255172D01*
X41738582Y4755172D02*
X41586796Y3540886D01*
X41586796Y3540886D02*
X41497511Y3398029D01*
X41497511Y3398029D02*
X41417153Y3326600D01*
X41417153Y3326600D02*
X41265368Y3255172D01*
X41265368Y3255172D02*
X41051082Y3255172D01*
X41051082Y3255172D02*
X40917153Y3326600D01*
X41622511Y3826600D02*
X41470725Y3755172D01*
X41470725Y3755172D02*
X41185011Y3755172D01*
X41185011Y3755172D02*
X41051082Y3826600D01*
X41051082Y3826600D02*
X40988582Y3898029D01*
X40988582Y3898029D02*
X40935011Y4040886D01*
X40935011Y4040886D02*
X40988582Y4469458D01*
X40988582Y4469458D02*
X41077868Y4612315D01*
X41077868Y4612315D02*
X41158225Y4683743D01*
X41158225Y4683743D02*
X41310011Y4755172D01*
X41310011Y4755172D02*
X41595725Y4755172D01*
X41595725Y4755172D02*
X41729653Y4683743D01*
X42970725Y3755172D02*
X43068939Y4540886D01*
X43068939Y4540886D02*
X43015368Y4683743D01*
X43015368Y4683743D02*
X42881439Y4755172D01*
X42881439Y4755172D02*
X42595725Y4755172D01*
X42595725Y4755172D02*
X42443939Y4683743D01*
X42979654Y3826600D02*
X42827868Y3755172D01*
X42827868Y3755172D02*
X42470725Y3755172D01*
X42470725Y3755172D02*
X42336796Y3826600D01*
X42336796Y3826600D02*
X42283225Y3969458D01*
X42283225Y3969458D02*
X42301082Y4112315D01*
X42301082Y4112315D02*
X42390368Y4255172D01*
X42390368Y4255172D02*
X42542154Y4326600D01*
X42542154Y4326600D02*
X42899296Y4326600D01*
X42899296Y4326600D02*
X43051082Y4398029D01*
X43595725Y4755172D02*
X44167154Y4755172D01*
X43872511Y5255172D02*
X43711797Y3969458D01*
X43711797Y3969458D02*
X43765368Y3826600D01*
X43765368Y3826600D02*
X43899297Y3755172D01*
X43899297Y3755172D02*
X44042154Y3755172D01*
X45122511Y3826600D02*
X44970725Y3755172D01*
X44970725Y3755172D02*
X44685011Y3755172D01*
X44685011Y3755172D02*
X44551082Y3826600D01*
X44551082Y3826600D02*
X44497511Y3969458D01*
X44497511Y3969458D02*
X44568940Y4540886D01*
X44568940Y4540886D02*
X44658225Y4683743D01*
X44658225Y4683743D02*
X44810011Y4755172D01*
X44810011Y4755172D02*
X45095725Y4755172D01*
X45095725Y4755172D02*
X45229654Y4683743D01*
X45229654Y4683743D02*
X45283225Y4540886D01*
X45283225Y4540886D02*
X45265368Y4398029D01*
X45265368Y4398029D02*
X44533225Y4255172D01*
X45810011Y4755172D02*
X45970725Y3755172D01*
X45970725Y3755172D02*
X46345725Y4469458D01*
X46345725Y4469458D02*
X46542154Y3755172D01*
X46542154Y3755172D02*
X46952868Y4755172D01*
X48042154Y3755172D02*
X48140368Y4540886D01*
X48140368Y4540886D02*
X48086797Y4683743D01*
X48086797Y4683743D02*
X47952868Y4755172D01*
X47952868Y4755172D02*
X47667154Y4755172D01*
X47667154Y4755172D02*
X47515368Y4683743D01*
X48051083Y3826600D02*
X47899297Y3755172D01*
X47899297Y3755172D02*
X47542154Y3755172D01*
X47542154Y3755172D02*
X47408225Y3826600D01*
X47408225Y3826600D02*
X47354654Y3969458D01*
X47354654Y3969458D02*
X47372511Y4112315D01*
X47372511Y4112315D02*
X47461797Y4255172D01*
X47461797Y4255172D02*
X47613583Y4326600D01*
X47613583Y4326600D02*
X47970725Y4326600D01*
X47970725Y4326600D02*
X48122511Y4398029D01*
X48738583Y4755172D02*
X48970726Y3755172D01*
X49452868Y4755172D02*
X48970726Y3755172D01*
X48970726Y3755172D02*
X48783226Y3398029D01*
X48783226Y3398029D02*
X48702868Y3326600D01*
X48702868Y3326600D02*
X48551083Y3255172D01*
D12*
X45616952Y21815420D02*
X45569333Y21767800D01*
X45569333Y21767800D02*
X45426476Y21720181D01*
X45426476Y21720181D02*
X45331238Y21720181D01*
X45331238Y21720181D02*
X45188381Y21767800D01*
X45188381Y21767800D02*
X45093143Y21863039D01*
X45093143Y21863039D02*
X45045524Y21958277D01*
X45045524Y21958277D02*
X44997905Y22148753D01*
X44997905Y22148753D02*
X44997905Y22291610D01*
X44997905Y22291610D02*
X45045524Y22482086D01*
X45045524Y22482086D02*
X45093143Y22577324D01*
X45093143Y22577324D02*
X45188381Y22672562D01*
X45188381Y22672562D02*
X45331238Y22720181D01*
X45331238Y22720181D02*
X45426476Y22720181D01*
X45426476Y22720181D02*
X45569333Y22672562D01*
X45569333Y22672562D02*
X45616952Y22624943D01*
X45997905Y22005896D02*
X46474095Y22005896D01*
X45902667Y21720181D02*
X46236000Y22720181D01*
X46236000Y22720181D02*
X46569333Y21720181D01*
X46902667Y21720181D02*
X46902667Y22720181D01*
X46902667Y22720181D02*
X47474095Y21720181D01*
X47474095Y21720181D02*
X47474095Y22720181D01*
X48474095Y21720181D02*
X47902667Y21720181D01*
X48188381Y21720181D02*
X48188381Y22720181D01*
X48188381Y22720181D02*
X48093143Y22577324D01*
X48093143Y22577324D02*
X47997905Y22482086D01*
X47997905Y22482086D02*
X47902667Y22434467D01*
X45616952Y16735420D02*
X45569333Y16687800D01*
X45569333Y16687800D02*
X45426476Y16640181D01*
X45426476Y16640181D02*
X45331238Y16640181D01*
X45331238Y16640181D02*
X45188381Y16687800D01*
X45188381Y16687800D02*
X45093143Y16783039D01*
X45093143Y16783039D02*
X45045524Y16878277D01*
X45045524Y16878277D02*
X44997905Y17068753D01*
X44997905Y17068753D02*
X44997905Y17211610D01*
X44997905Y17211610D02*
X45045524Y17402086D01*
X45045524Y17402086D02*
X45093143Y17497324D01*
X45093143Y17497324D02*
X45188381Y17592562D01*
X45188381Y17592562D02*
X45331238Y17640181D01*
X45331238Y17640181D02*
X45426476Y17640181D01*
X45426476Y17640181D02*
X45569333Y17592562D01*
X45569333Y17592562D02*
X45616952Y17544943D01*
X45997905Y16925896D02*
X46474095Y16925896D01*
X45902667Y16640181D02*
X46236000Y17640181D01*
X46236000Y17640181D02*
X46569333Y16640181D01*
X46902667Y16640181D02*
X46902667Y17640181D01*
X46902667Y17640181D02*
X47474095Y16640181D01*
X47474095Y16640181D02*
X47474095Y17640181D01*
X47902667Y17544943D02*
X47950286Y17592562D01*
X47950286Y17592562D02*
X48045524Y17640181D01*
X48045524Y17640181D02*
X48283619Y17640181D01*
X48283619Y17640181D02*
X48378857Y17592562D01*
X48378857Y17592562D02*
X48426476Y17544943D01*
X48426476Y17544943D02*
X48474095Y17449705D01*
X48474095Y17449705D02*
X48474095Y17354467D01*
X48474095Y17354467D02*
X48426476Y17211610D01*
X48426476Y17211610D02*
X47855048Y16640181D01*
X47855048Y16640181D02*
X48474095Y16640181D01*
X40417904Y12576181D02*
X39846476Y12576181D01*
X40132190Y12576181D02*
X40132190Y13576181D01*
X40132190Y13576181D02*
X40036952Y13433324D01*
X40036952Y13433324D02*
X39941714Y13338086D01*
X39941714Y13338086D02*
X39846476Y13290467D01*
X40798857Y13480943D02*
X40846476Y13528562D01*
X40846476Y13528562D02*
X40941714Y13576181D01*
X40941714Y13576181D02*
X41179809Y13576181D01*
X41179809Y13576181D02*
X41275047Y13528562D01*
X41275047Y13528562D02*
X41322666Y13480943D01*
X41322666Y13480943D02*
X41370285Y13385705D01*
X41370285Y13385705D02*
X41370285Y13290467D01*
X41370285Y13290467D02*
X41322666Y13147610D01*
X41322666Y13147610D02*
X40751238Y12576181D01*
X40751238Y12576181D02*
X41370285Y12576181D01*
X41989333Y13576181D02*
X42084571Y13576181D01*
X42084571Y13576181D02*
X42179809Y13528562D01*
X42179809Y13528562D02*
X42227428Y13480943D01*
X42227428Y13480943D02*
X42275047Y13385705D01*
X42275047Y13385705D02*
X42322666Y13195229D01*
X42322666Y13195229D02*
X42322666Y12957134D01*
X42322666Y12957134D02*
X42275047Y12766658D01*
X42275047Y12766658D02*
X42227428Y12671420D01*
X42227428Y12671420D02*
X42179809Y12623800D01*
X42179809Y12623800D02*
X42084571Y12576181D01*
X42084571Y12576181D02*
X41989333Y12576181D01*
X41989333Y12576181D02*
X41894095Y12623800D01*
X41894095Y12623800D02*
X41846476Y12671420D01*
X41846476Y12671420D02*
X41798857Y12766658D01*
X41798857Y12766658D02*
X41751238Y12957134D01*
X41751238Y12957134D02*
X41751238Y13195229D01*
X41751238Y13195229D02*
X41798857Y13385705D01*
X41798857Y13385705D02*
X41846476Y13480943D01*
X41846476Y13480943D02*
X41894095Y13528562D01*
X41894095Y13528562D02*
X41989333Y13576181D01*
X42703619Y12576181D02*
X42941714Y12576181D01*
X42941714Y12576181D02*
X42941714Y12766658D01*
X42941714Y12766658D02*
X42846476Y12814277D01*
X42846476Y12814277D02*
X42751238Y12909515D01*
X42751238Y12909515D02*
X42703619Y13052372D01*
X42703619Y13052372D02*
X42703619Y13290467D01*
X42703619Y13290467D02*
X42751238Y13433324D01*
X42751238Y13433324D02*
X42846476Y13528562D01*
X42846476Y13528562D02*
X42989333Y13576181D01*
X42989333Y13576181D02*
X43179809Y13576181D01*
X43179809Y13576181D02*
X43322666Y13528562D01*
X43322666Y13528562D02*
X43417904Y13433324D01*
X43417904Y13433324D02*
X43465523Y13290467D01*
X43465523Y13290467D02*
X43465523Y13052372D01*
X43465523Y13052372D02*
X43417904Y12909515D01*
X43417904Y12909515D02*
X43322666Y12814277D01*
X43322666Y12814277D02*
X43227428Y12766658D01*
X43227428Y12766658D02*
X43227428Y12576181D01*
X43227428Y12576181D02*
X43465523Y12576181D01*
D13*
%TO.C,C25*%
X46589836Y7472000D02*
X46374164Y7472000D01*
X46589836Y6752000D02*
X46374164Y6752000D01*
%TO.C,C11*%
X43074000Y17125836D02*
X43074000Y16910164D01*
X43794000Y17125836D02*
X43794000Y16910164D01*
%TO.C,R18*%
X21972000Y8281641D02*
X21972000Y7974359D01*
X22732000Y8281641D02*
X22732000Y7974359D01*
%TO.C,C10*%
X34651836Y4424000D02*
X34436164Y4424000D01*
X34651836Y3704000D02*
X34436164Y3704000D01*
%TO.C,R3*%
X33935641Y9524000D02*
X33628359Y9524000D01*
X33935641Y8764000D02*
X33628359Y8764000D01*
%TO.C,R6*%
X33937641Y17144000D02*
X33630359Y17144000D01*
X33937641Y16384000D02*
X33630359Y16384000D01*
%TO.C,J1*%
X-800000Y20675000D02*
X11640000Y20675000D01*
X-800000Y4725000D02*
X-800000Y20675000D01*
X11640000Y4725000D02*
X-800000Y4725000D01*
X14840000Y20675000D02*
X21120000Y20675000D01*
X17530000Y20875000D02*
X15530000Y20875000D01*
X21120000Y20675000D02*
X21120000Y4725000D01*
X21120000Y4725000D02*
X14840000Y4725000D01*
%TO.C,R16*%
X23242000Y8281641D02*
X23242000Y7974359D01*
X24002000Y8281641D02*
X24002000Y7974359D01*
%TO.C,Y1*%
X38942000Y10548000D02*
X36242000Y10548000D01*
X38942000Y8248000D02*
X38942000Y10548000D01*
%TO.C,C22*%
X37438420Y16766000D02*
X37719580Y16766000D01*
X37438420Y15746000D02*
X37719580Y15746000D01*
%TO.C,C19*%
X24532000Y8235836D02*
X24532000Y8020164D01*
X25252000Y8235836D02*
X25252000Y8020164D01*
%TO.C,U5*%
X38026000Y21680000D02*
X39336000Y21680000D01*
X38026000Y18960000D02*
X38026000Y21680000D01*
X38026000Y18960000D02*
X38256000Y18960000D01*
X38256000Y17820000D02*
X38256000Y18960000D01*
X41436000Y21680000D02*
X42746000Y21680000D01*
X42746000Y21680000D02*
X42746000Y18960000D01*
X42746000Y18960000D02*
X42516000Y18960000D01*
%TO.C,R1*%
X37747641Y13842000D02*
X37440359Y13842000D01*
X37747641Y13082000D02*
X37440359Y13082000D01*
%TO.C,R22*%
X21489641Y22520000D02*
X21182359Y22520000D01*
X21489641Y21760000D02*
X21182359Y21760000D01*
%TO.C,C16*%
X33917836Y13314000D02*
X33702164Y13314000D01*
X33917836Y12594000D02*
X33702164Y12594000D01*
%TO.C,C20*%
X24470000Y5977836D02*
X24470000Y5762164D01*
X25190000Y5977836D02*
X25190000Y5762164D01*
%TO.C,D1*%
X16803000Y25119000D02*
X16803000Y23649000D01*
X16803000Y23649000D02*
X19088000Y23649000D01*
X19088000Y25119000D02*
X16803000Y25119000D01*
%TO.C,C1*%
X37841600Y11576164D02*
X37841600Y11791836D01*
X38561600Y11576164D02*
X38561600Y11791836D01*
%TO.C,R9*%
X31903641Y13334000D02*
X31596359Y13334000D01*
X31903641Y12574000D02*
X31596359Y12574000D01*
%TO.C,JP3*%
X45197500Y20049258D02*
X45197500Y19574742D01*
X46242500Y20049258D02*
X46242500Y19574742D01*
%TO.C,U2*%
X24806000Y15318000D02*
X25281000Y15318000D01*
X24806000Y14843000D02*
X24806000Y15318000D01*
X24806000Y11573000D02*
X24806000Y11098000D01*
X29026000Y15318000D02*
X28551000Y15318000D01*
X29026000Y14843000D02*
X29026000Y15318000D01*
X29026000Y11573000D02*
X29026000Y11098000D01*
X29026000Y11098000D02*
X28551000Y11098000D01*
%TO.C,C24*%
X29083580Y22354000D02*
X28802420Y22354000D01*
X29083580Y21334000D02*
X28802420Y21334000D01*
%TO.C,C5*%
X43560420Y7368000D02*
X43841580Y7368000D01*
X43560420Y6348000D02*
X43841580Y6348000D01*
%TO.C,JP5*%
X47229500Y14969258D02*
X47229500Y14494742D01*
X48274500Y14969258D02*
X48274500Y14494742D01*
%TO.C,C4*%
X28842580Y19560000D02*
X28561420Y19560000D01*
X28842580Y18540000D02*
X28561420Y18540000D01*
%TO.C,R7*%
X31903641Y11302000D02*
X31596359Y11302000D01*
X31903641Y10542000D02*
X31596359Y10542000D01*
%TO.C,U7*%
X32692000Y21680000D02*
X34002000Y21680000D01*
X32692000Y18960000D02*
X32692000Y21680000D01*
X32692000Y18960000D02*
X32922000Y18960000D01*
X32922000Y17820000D02*
X32922000Y18960000D01*
X36102000Y21680000D02*
X37412000Y21680000D01*
X37412000Y21680000D02*
X37412000Y18960000D01*
X37412000Y18960000D02*
X37182000Y18960000D01*
%TO.C,R2*%
X33935641Y11302000D02*
X33628359Y11302000D01*
X33935641Y10542000D02*
X33628359Y10542000D01*
%TO.C,C15*%
X31240000Y6998580D02*
X31240000Y6717420D01*
X32260000Y6998580D02*
X32260000Y6717420D01*
%TO.C,JP4*%
X45197500Y14969258D02*
X45197500Y14494742D01*
X46242500Y14969258D02*
X46242500Y14494742D01*
%TO.C,R8*%
X31903641Y9524000D02*
X31596359Y9524000D01*
X31903641Y8764000D02*
X31596359Y8764000D01*
%TO.C,C17*%
X22379000Y18915748D02*
X22379000Y19438252D01*
X23849000Y18915748D02*
X23849000Y19438252D01*
%TO.C,C18*%
X24405000Y19069164D02*
X24405000Y19284836D01*
X25125000Y19069164D02*
X25125000Y19284836D01*
%TO.C,C23*%
X41288580Y17020000D02*
X41007420Y17020000D01*
X41288580Y16000000D02*
X41007420Y16000000D01*
%TO.C,Y2*%
X28720000Y8042902D02*
X26020000Y8042902D01*
X28720000Y5742902D02*
X28720000Y8042902D01*
%TO.C,C8*%
X33168000Y6877164D02*
X33168000Y7092836D01*
X33888000Y6877164D02*
X33888000Y7092836D01*
%TO.C,L1*%
X25652000Y19466779D02*
X25652000Y19141221D01*
X26672000Y19466779D02*
X26672000Y19141221D01*
%TO.C,R5*%
X33935641Y15747000D02*
X33628359Y15747000D01*
X33935641Y14987000D02*
X33628359Y14987000D01*
%TO.C,R17*%
X21972000Y5688359D02*
X21972000Y5995641D01*
X22732000Y5688359D02*
X22732000Y5995641D01*
%TO.C,SW1*%
X40094000Y11475000D02*
X41944000Y11475000D01*
X41944000Y12125000D02*
X41944000Y11475000D01*
X41944000Y12125000D02*
X47464000Y12125000D01*
X41944000Y9465000D02*
X41944000Y8195000D01*
X41944000Y8195000D02*
X47464000Y8195000D01*
X47464000Y12125000D02*
X47464000Y10856000D01*
X47464000Y9465000D02*
X47464000Y8195000D01*
%TO.C,C14*%
X29993000Y6965836D02*
X29993000Y6750164D01*
X30713000Y6965836D02*
X30713000Y6750164D01*
%TO.C,C7*%
X37699836Y15092000D02*
X37484164Y15092000D01*
X37699836Y14372000D02*
X37484164Y14372000D01*
%TO.C,C13*%
X26622836Y5220902D02*
X26407164Y5220902D01*
X26622836Y4500902D02*
X26407164Y4500902D01*
%TO.C,C6*%
X29190836Y17378000D02*
X28975164Y17378000D01*
X29190836Y16658000D02*
X28975164Y16658000D01*
%TO.C,JP2*%
X47229500Y20049258D02*
X47229500Y19574742D01*
X48274500Y20049258D02*
X48274500Y19574742D01*
%TO.C,C3*%
X34651836Y5567000D02*
X34436164Y5567000D01*
X34651836Y4847000D02*
X34436164Y4847000D01*
%TO.C,R4*%
X33935641Y14604000D02*
X33628359Y14604000D01*
X33935641Y13844000D02*
X33628359Y13844000D01*
%TO.C,C2*%
X36622400Y11791836D02*
X36622400Y11576164D01*
X37342400Y11791836D02*
X37342400Y11576164D01*
%TO.C,R10*%
X31596359Y14604000D02*
X31903641Y14604000D01*
X31596359Y13844000D02*
X31903641Y13844000D01*
%TO.C,D2*%
X16803000Y23087000D02*
X16803000Y21617000D01*
X16803000Y21617000D02*
X19088000Y21617000D01*
X19088000Y23087000D02*
X16803000Y23087000D01*
%TO.C,C12*%
X28682836Y5220902D02*
X28467164Y5220902D01*
X28682836Y4500902D02*
X28467164Y4500902D01*
%TO.C,R21*%
X21487641Y24764000D02*
X21180359Y24764000D01*
X21487641Y24004000D02*
X21180359Y24004000D01*
%TO.C,R11*%
X31469359Y17144000D02*
X31776641Y17144000D01*
X31469359Y16384000D02*
X31776641Y16384000D01*
%TO.C,C9*%
X41001836Y7218000D02*
X40786164Y7218000D01*
X41001836Y6498000D02*
X40786164Y6498000D01*
%TO.C,C21*%
X23262000Y5977836D02*
X23262000Y5762164D01*
X23982000Y5977836D02*
X23982000Y5762164D01*
%TD*%
%LPC*%
D14*
%TO.C,C25*%
X46962000Y7112000D03*
X46002000Y7112000D03*
%TD*%
D15*
%TO.C,C11*%
X43434000Y17498000D03*
X43434000Y16538000D03*
%TD*%
D16*
%TO.C,R18*%
X22352000Y8638000D03*
X22352000Y7618000D03*
%TD*%
D14*
%TO.C,C10*%
X35024000Y4064000D03*
X34064000Y4064000D03*
%TD*%
D17*
%TO.C,R3*%
X34292000Y9144000D03*
X33272000Y9144000D03*
%TD*%
%TO.C,R6*%
X34294000Y16764000D03*
X33274000Y16764000D03*
%TD*%
D18*
%TO.C,J1*%
X10190000Y18415000D03*
X10190000Y6985000D03*
D19*
X6810000Y6375000D03*
X5290000Y8915000D03*
X6810000Y16485000D03*
X5290000Y19025000D03*
D20*
X16530000Y17145000D03*
D21*
X19070000Y15875000D03*
X16530000Y14605000D03*
X19070000Y13335000D03*
X16530000Y12065000D03*
X19070000Y10795000D03*
X16530000Y9525000D03*
X19070000Y8255000D03*
D22*
X13240000Y20475000D03*
X13240000Y4925000D03*
%TD*%
D16*
%TO.C,R16*%
X23622000Y8638000D03*
X23622000Y7618000D03*
%TD*%
D23*
%TO.C,Y1*%
X38292000Y9948000D03*
X36892000Y9948000D03*
X36892000Y8848000D03*
X38292000Y8848000D03*
%TD*%
D24*
%TO.C,C22*%
X36804000Y16256000D03*
X38354000Y16256000D03*
%TD*%
D15*
%TO.C,C19*%
X24892000Y8608000D03*
X24892000Y7648000D03*
%TD*%
D25*
%TO.C,U5*%
X38886000Y18370000D03*
D26*
X40386000Y18457500D03*
D25*
X41886000Y18370000D03*
%TD*%
D17*
%TO.C,R1*%
X38104000Y13462000D03*
X37084000Y13462000D03*
%TD*%
%TO.C,R22*%
X21846000Y22140000D03*
X20826000Y22140000D03*
%TD*%
D14*
%TO.C,C16*%
X34290000Y12954000D03*
X33330000Y12954000D03*
%TD*%
D15*
%TO.C,C20*%
X24830000Y6350000D03*
X24830000Y5390000D03*
%TD*%
D27*
%TO.C,D1*%
X17500500Y24384000D03*
X19075500Y24384000D03*
%TD*%
D28*
%TO.C,C1*%
X38201600Y11204000D03*
X38201600Y12164000D03*
%TD*%
D17*
%TO.C,R9*%
X32260000Y12954000D03*
X31240000Y12954000D03*
%TD*%
D29*
%TO.C,JP3*%
X45720000Y20637000D03*
X45720000Y18987000D03*
%TD*%
D30*
%TO.C,U2*%
X25666000Y11270500D03*
X26166000Y11270500D03*
X26666000Y11270500D03*
X27166000Y11270500D03*
X27666000Y11270500D03*
X28166000Y11270500D03*
D31*
X28853500Y11958000D03*
X28853500Y12458000D03*
X28853500Y12958000D03*
X28853500Y13458000D03*
X28853500Y13958000D03*
X28853500Y14458000D03*
D30*
X28166000Y15145500D03*
X27666000Y15145500D03*
X27166000Y15145500D03*
X26666000Y15145500D03*
X26166000Y15145500D03*
X25666000Y15145500D03*
D31*
X24978500Y14458000D03*
X24978500Y13958000D03*
X24978500Y13458000D03*
X24978500Y12958000D03*
X24978500Y12458000D03*
X24978500Y11958000D03*
D32*
X26916000Y13208000D03*
%TD*%
D33*
%TO.C,C24*%
X29718000Y21844000D03*
X28168000Y21844000D03*
%TD*%
D24*
%TO.C,C5*%
X42926000Y6858000D03*
X44476000Y6858000D03*
%TD*%
D29*
%TO.C,JP5*%
X47752000Y15557000D03*
X47752000Y13907000D03*
%TD*%
D33*
%TO.C,C4*%
X29477000Y19050000D03*
X27927000Y19050000D03*
%TD*%
D17*
%TO.C,R7*%
X32260000Y10922000D03*
X31240000Y10922000D03*
%TD*%
D25*
%TO.C,U7*%
X33552000Y18370000D03*
D26*
X35052000Y18457500D03*
D25*
X36552000Y18370000D03*
%TD*%
D17*
%TO.C,R2*%
X34292000Y10922000D03*
X33272000Y10922000D03*
%TD*%
D34*
%TO.C,C15*%
X31750000Y7633000D03*
X31750000Y6083000D03*
%TD*%
D29*
%TO.C,JP4*%
X45720000Y15557000D03*
X45720000Y13907000D03*
%TD*%
D17*
%TO.C,R8*%
X32260000Y9144000D03*
X31240000Y9144000D03*
%TD*%
D35*
%TO.C,C17*%
X23114000Y18227000D03*
X23114000Y20127000D03*
%TD*%
D28*
%TO.C,C18*%
X24765000Y18697000D03*
X24765000Y19657000D03*
%TD*%
D33*
%TO.C,C23*%
X41923000Y16510000D03*
X40373000Y16510000D03*
%TD*%
D23*
%TO.C,Y2*%
X28070000Y7442902D03*
X26670000Y7442902D03*
X26670000Y6342902D03*
X28070000Y6342902D03*
%TD*%
D28*
%TO.C,C8*%
X33528000Y6505000D03*
X33528000Y7465000D03*
%TD*%
D36*
%TO.C,L1*%
X26162000Y20091500D03*
X26162000Y18516500D03*
%TD*%
D17*
%TO.C,R5*%
X34292000Y15367000D03*
X33272000Y15367000D03*
%TD*%
D37*
%TO.C,R17*%
X22352000Y5332000D03*
X22352000Y6352000D03*
%TD*%
D38*
%TO.C,SW1*%
X40894000Y10795000D03*
X40894000Y9525000D03*
X48514000Y9525000D03*
X48514000Y10795000D03*
%TD*%
D15*
%TO.C,C14*%
X30353000Y7338000D03*
X30353000Y6378000D03*
%TD*%
D14*
%TO.C,C7*%
X38072000Y14732000D03*
X37112000Y14732000D03*
%TD*%
%TO.C,C13*%
X26995000Y4860902D03*
X26035000Y4860902D03*
%TD*%
%TO.C,C6*%
X29563000Y17018000D03*
X28603000Y17018000D03*
%TD*%
D29*
%TO.C,JP2*%
X47752000Y20637000D03*
X47752000Y18987000D03*
%TD*%
D14*
%TO.C,C3*%
X35024000Y5207000D03*
X34064000Y5207000D03*
%TD*%
D17*
%TO.C,R4*%
X34292000Y14224000D03*
X33272000Y14224000D03*
%TD*%
D15*
%TO.C,C2*%
X36982400Y12164000D03*
X36982400Y11204000D03*
%TD*%
D39*
%TO.C,R10*%
X31240000Y14224000D03*
X32260000Y14224000D03*
%TD*%
D27*
%TO.C,D2*%
X17500500Y22352000D03*
X19075500Y22352000D03*
%TD*%
D14*
%TO.C,C12*%
X29055000Y4860902D03*
X28095000Y4860902D03*
%TD*%
D17*
%TO.C,R21*%
X21844000Y24384000D03*
X20824000Y24384000D03*
%TD*%
D39*
%TO.C,R11*%
X31113000Y16764000D03*
X32133000Y16764000D03*
%TD*%
D14*
%TO.C,C9*%
X41374000Y6858000D03*
X40414000Y6858000D03*
%TD*%
D15*
%TO.C,C21*%
X23622000Y6350000D03*
X23622000Y5390000D03*
%TD*%
D40*
%TO.C,J3*%
X25400000Y1270000D03*
D41*
X27940000Y1270000D03*
X30480000Y1270000D03*
X33020000Y1270000D03*
X35560000Y1270000D03*
X38100000Y1270000D03*
X40640000Y1270000D03*
X43180000Y1270000D03*
X45720000Y1270000D03*
X48260000Y1270000D03*
%TD*%
D40*
%TO.C,J4*%
X25400000Y24130000D03*
D41*
X27940000Y24130000D03*
X30480000Y24130000D03*
X33020000Y24130000D03*
X35560000Y24130000D03*
X38100000Y24130000D03*
X40640000Y24130000D03*
X43180000Y24130000D03*
X45720000Y24130000D03*
X48260000Y24130000D03*
%TD*%
%LPD*%
M02*
