%TF.GenerationSoftware,KiCad,Pcbnew,8.0.9-8.0.9-0~ubuntu22.04.1*%
%TF.CreationDate,2025-04-29T10:25:46+09:00*%
%TF.ProjectId,CANGatewayE,43414e47-6174-4657-9761-79452e6b6963,rev?*%
%TF.SameCoordinates,Original*%
%TF.FileFunction,Soldermask,Bot*%
%TF.FilePolarity,Negative*%
%FSLAX46Y46*%
G04 Gerber Fmt 4.6, Leading zero omitted, Abs format (unit mm)*
G04 Created by KiCad (PCBNEW 8.0.9-8.0.9-0~ubuntu22.04.1) date 2025-04-29 10:25:46*
%MOMM*%
%LPD*%
G01*
G04 APERTURE LIST*
G04 Aperture macros list*
%AMRoundRect*
0 Rectangle with rounded corners*
0 $1 Rounding radius*
0 $2 $3 $4 $5 $6 $7 $8 $9 X,Y pos of 4 corners*
0 Add a 4 corners polygon primitive as box body*
4,1,4,$2,$3,$4,$5,$6,$7,$8,$9,$2,$3,0*
0 Add four circle primitives for the rounded corners*
1,1,$1+$1,$2,$3*
1,1,$1+$1,$4,$5*
1,1,$1+$1,$6,$7*
1,1,$1+$1,$8,$9*
0 Add four rect primitives between the rounded corners*
20,1,$1+$1,$2,$3,$4,$5,0*
20,1,$1+$1,$4,$5,$6,$7,0*
20,1,$1+$1,$6,$7,$8,$9,0*
20,1,$1+$1,$8,$9,$2,$3,0*%
%AMFreePoly0*
4,1,19,0.500000,-0.750000,0.000000,-0.750000,0.000000,-0.744911,-0.071157,-0.744911,-0.207708,-0.704816,-0.327430,-0.627875,-0.420627,-0.520320,-0.479746,-0.390866,-0.500000,-0.250000,-0.500000,0.250000,-0.479746,0.390866,-0.420627,0.520320,-0.327430,0.627875,-0.207708,0.704816,-0.071157,0.744911,0.000000,0.744911,0.000000,0.750000,0.500000,0.750000,0.500000,-0.750000,0.500000,-0.750000,
$1*%
%AMFreePoly1*
4,1,19,0.000000,0.744911,0.071157,0.744911,0.207708,0.704816,0.327430,0.627875,0.420627,0.520320,0.479746,0.390866,0.500000,0.250000,0.500000,-0.250000,0.479746,-0.390866,0.420627,-0.520320,0.327430,-0.627875,0.207708,-0.704816,0.071157,-0.744911,0.000000,-0.744911,0.000000,-0.750000,-0.500000,-0.750000,-0.500000,0.750000,0.000000,0.750000,0.000000,0.744911,0.000000,0.744911,
$1*%
G04 Aperture macros list end*
%ADD10C,2.500000*%
%ADD11C,1.500000*%
%ADD12RoundRect,0.250500X-0.499500X0.499500X-0.499500X-0.499500X0.499500X-0.499500X0.499500X0.499500X0*%
%ADD13C,3.250000*%
%ADD14R,1.700000X1.700000*%
%ADD15O,1.700000X1.700000*%
%ADD16RoundRect,0.150000X0.150000X-0.825000X0.150000X0.825000X-0.150000X0.825000X-0.150000X-0.825000X0*%
%ADD17RoundRect,0.150000X-0.150000X0.825000X-0.150000X-0.825000X0.150000X-0.825000X0.150000X0.825000X0*%
%ADD18C,1.000000*%
%ADD19FreePoly0,0.000000*%
%ADD20FreePoly1,0.000000*%
%ADD21RoundRect,0.075000X0.075000X-0.700000X0.075000X0.700000X-0.075000X0.700000X-0.075000X-0.700000X0*%
%ADD22RoundRect,0.075000X0.700000X-0.075000X0.700000X0.075000X-0.700000X0.075000X-0.700000X-0.075000X0*%
G04 APERTURE END LIST*
D10*
%TO.C,J5*%
X13200000Y4960000D03*
X13200000Y20450000D03*
D11*
X5250000Y6080000D03*
X5250000Y8620000D03*
X5250000Y16790000D03*
X5250000Y19330000D03*
X19050000Y8265000D03*
X16510000Y9525000D03*
X19050000Y10805000D03*
X16510000Y12065000D03*
X19050000Y13345000D03*
X16510000Y14605000D03*
X19050000Y15885000D03*
D12*
X16510000Y17145000D03*
D13*
X10150000Y6990000D03*
X10150000Y18420000D03*
%TD*%
D14*
%TO.C,J3*%
X25400000Y1270000D03*
D15*
X27940000Y1270000D03*
X30480000Y1270000D03*
X33020000Y1270000D03*
X35560000Y1270000D03*
X38100000Y1270000D03*
X40640000Y1270000D03*
X43180000Y1270000D03*
X45720000Y1270000D03*
X48260000Y1270000D03*
%TD*%
D16*
%TO.C,U4*%
X48641000Y14289000D03*
X47371000Y14289000D03*
X46101000Y14289000D03*
X44831000Y14289000D03*
X44831000Y19239000D03*
X46101000Y19239000D03*
X47371000Y19239000D03*
X48641000Y19239000D03*
%TD*%
D17*
%TO.C,U3*%
X44831000Y11111000D03*
X46101000Y11111000D03*
X47371000Y11111000D03*
X48641000Y11111000D03*
X48641000Y6161000D03*
X47371000Y6161000D03*
X46101000Y6161000D03*
X44831000Y6161000D03*
%TD*%
D18*
%TO.C,TP1*%
X34798000Y20828000D03*
%TD*%
D19*
%TO.C,JP1*%
X17130000Y5080000D03*
D20*
X18430000Y5080000D03*
%TD*%
D18*
%TO.C,TP2*%
X37084000Y20828000D03*
%TD*%
D21*
%TO.C,U1*%
X39310000Y7025000D03*
X38810000Y7025000D03*
X38310000Y7025000D03*
X37810000Y7025000D03*
X37310000Y7025000D03*
X36810000Y7025000D03*
X36310000Y7025000D03*
X35810000Y7025000D03*
X35310000Y7025000D03*
X34810000Y7025000D03*
X34310000Y7025000D03*
X33810000Y7025000D03*
X33310000Y7025000D03*
X32810000Y7025000D03*
X32310000Y7025000D03*
X31810000Y7025000D03*
D22*
X29885000Y8950000D03*
X29885000Y9450000D03*
X29885000Y9950000D03*
X29885000Y10450000D03*
X29885000Y10950000D03*
X29885000Y11450000D03*
X29885000Y11950000D03*
X29885000Y12450000D03*
X29885000Y12950000D03*
X29885000Y13450000D03*
X29885000Y13950000D03*
X29885000Y14450000D03*
X29885000Y14950000D03*
X29885000Y15450000D03*
X29885000Y15950000D03*
X29885000Y16450000D03*
D21*
X31810000Y18375000D03*
X32310000Y18375000D03*
X32810000Y18375000D03*
X33310000Y18375000D03*
X33810000Y18375000D03*
X34310000Y18375000D03*
X34810000Y18375000D03*
X35310000Y18375000D03*
X35810000Y18375000D03*
X36310000Y18375000D03*
X36810000Y18375000D03*
X37310000Y18375000D03*
X37810000Y18375000D03*
X38310000Y18375000D03*
X38810000Y18375000D03*
X39310000Y18375000D03*
D22*
X41235000Y16450000D03*
X41235000Y15950000D03*
X41235000Y15450000D03*
X41235000Y14950000D03*
X41235000Y14450000D03*
X41235000Y13950000D03*
X41235000Y13450000D03*
X41235000Y12950000D03*
X41235000Y12450000D03*
X41235000Y11950000D03*
X41235000Y11450000D03*
X41235000Y10950000D03*
X41235000Y10450000D03*
X41235000Y9950000D03*
X41235000Y9450000D03*
X41235000Y8950000D03*
%TD*%
D14*
%TO.C,J4*%
X25400000Y24130000D03*
D15*
X27940000Y24130000D03*
X30480000Y24130000D03*
X33020000Y24130000D03*
X35560000Y24130000D03*
X38100000Y24130000D03*
X40640000Y24130000D03*
X43180000Y24130000D03*
X45720000Y24130000D03*
X48260000Y24130000D03*
%TD*%
M02*
